G04 #@! TF.FileFunction,Legend,Bot*
%FSLAX46Y46*%
G04 Gerber Fmt 4.6, Leading zero omitted, Abs format (unit mm)*
G04 Created by KiCad (PCBNEW 4.0.4+e1-6308~48~ubuntu16.04.1-stable) date Tue Sep 13 21:39:42 2016*
%MOMM*%
%LPD*%
G01*
G04 APERTURE LIST*
%ADD10C,0.150000*%
%ADD11C,0.300000*%
%ADD12C,0.200000*%
%ADD13C,0.100000*%
%ADD14C,0.177800*%
%ADD15C,0.152400*%
G04 APERTURE END LIST*
D10*
D11*
X67406828Y-64563251D02*
X67263971Y-64563251D01*
X67121114Y-64634680D01*
X67049685Y-64706109D01*
X66978256Y-64848966D01*
X66906828Y-65134680D01*
X66906828Y-65491823D01*
X66978256Y-65777537D01*
X67049685Y-65920394D01*
X67121114Y-65991823D01*
X67263971Y-66063251D01*
X67406828Y-66063251D01*
X67549685Y-65991823D01*
X67621114Y-65920394D01*
X67692542Y-65777537D01*
X67763971Y-65491823D01*
X67763971Y-65134680D01*
X67692542Y-64848966D01*
X67621114Y-64706109D01*
X67549685Y-64634680D01*
X67406828Y-64563251D01*
X64692256Y-64563251D02*
X65406542Y-64563251D01*
X65477971Y-65277537D01*
X65406542Y-65206109D01*
X65263685Y-65134680D01*
X64906542Y-65134680D01*
X64763685Y-65206109D01*
X64692256Y-65277537D01*
X64620828Y-65420394D01*
X64620828Y-65777537D01*
X64692256Y-65920394D01*
X64763685Y-65991823D01*
X64906542Y-66063251D01*
X65263685Y-66063251D01*
X65406542Y-65991823D01*
X65477971Y-65920394D01*
X64517400Y-59372109D02*
X64445971Y-59300680D01*
X64303114Y-59229251D01*
X63945971Y-59229251D01*
X63803114Y-59300680D01*
X63731685Y-59372109D01*
X63660257Y-59514966D01*
X63660257Y-59657823D01*
X63731685Y-59872109D01*
X64588828Y-60729251D01*
X63660257Y-60729251D01*
X63017400Y-60586394D02*
X62945972Y-60657823D01*
X63017400Y-60729251D01*
X63088829Y-60657823D01*
X63017400Y-60586394D01*
X63017400Y-60729251D01*
X61588828Y-59229251D02*
X62303114Y-59229251D01*
X62374543Y-59943537D01*
X62303114Y-59872109D01*
X62160257Y-59800680D01*
X61803114Y-59800680D01*
X61660257Y-59872109D01*
X61588828Y-59943537D01*
X61517400Y-60086394D01*
X61517400Y-60443537D01*
X61588828Y-60586394D01*
X61660257Y-60657823D01*
X61803114Y-60729251D01*
X62160257Y-60729251D01*
X62303114Y-60657823D01*
X62374543Y-60586394D01*
X62834828Y-65579251D02*
X62691971Y-65579251D01*
X62549114Y-65650680D01*
X62477685Y-65722109D01*
X62406256Y-65864966D01*
X62334828Y-66150680D01*
X62334828Y-66507823D01*
X62406256Y-66793537D01*
X62477685Y-66936394D01*
X62549114Y-67007823D01*
X62691971Y-67079251D01*
X62834828Y-67079251D01*
X62977685Y-67007823D01*
X63049114Y-66936394D01*
X63120542Y-66793537D01*
X63191971Y-66507823D01*
X63191971Y-66150680D01*
X63120542Y-65864966D01*
X63049114Y-65722109D01*
X62977685Y-65650680D01*
X62834828Y-65579251D01*
X60751114Y-67079251D02*
X60751114Y-65579251D01*
X60393971Y-65579251D01*
X60179686Y-65650680D01*
X60036828Y-65793537D01*
X59965400Y-65936394D01*
X59893971Y-66222109D01*
X59893971Y-66436394D01*
X59965400Y-66722109D01*
X60036828Y-66864966D01*
X60179686Y-67007823D01*
X60393971Y-67079251D01*
X60751114Y-67079251D01*
X59322543Y-66650680D02*
X58608257Y-66650680D01*
X59465400Y-67079251D02*
X58965400Y-65579251D01*
X58465400Y-67079251D01*
X59858257Y-60586394D02*
X59929686Y-60657823D01*
X60143972Y-60729251D01*
X60286829Y-60729251D01*
X60501114Y-60657823D01*
X60643972Y-60514966D01*
X60715400Y-60372109D01*
X60786829Y-60086394D01*
X60786829Y-59872109D01*
X60715400Y-59586394D01*
X60643972Y-59443537D01*
X60501114Y-59300680D01*
X60286829Y-59229251D01*
X60143972Y-59229251D01*
X59929686Y-59300680D01*
X59858257Y-59372109D01*
X58501114Y-60729251D02*
X59215400Y-60729251D01*
X59215400Y-59229251D01*
X52730257Y-60570680D02*
X52873114Y-60499251D01*
X53087400Y-60499251D01*
X53301685Y-60570680D01*
X53444543Y-60713537D01*
X53515971Y-60856394D01*
X53587400Y-61142109D01*
X53587400Y-61356394D01*
X53515971Y-61642109D01*
X53444543Y-61784966D01*
X53301685Y-61927823D01*
X53087400Y-61999251D01*
X52944543Y-61999251D01*
X52730257Y-61927823D01*
X52658828Y-61856394D01*
X52658828Y-61356394D01*
X52944543Y-61356394D01*
X52015971Y-61999251D02*
X52015971Y-60499251D01*
X51158828Y-61999251D01*
X51158828Y-60499251D01*
X50444542Y-61999251D02*
X50444542Y-60499251D01*
X50087399Y-60499251D01*
X49873114Y-60570680D01*
X49730256Y-60713537D01*
X49658828Y-60856394D01*
X49587399Y-61142109D01*
X49587399Y-61356394D01*
X49658828Y-61642109D01*
X49730256Y-61784966D01*
X49873114Y-61927823D01*
X50087399Y-61999251D01*
X50444542Y-61999251D01*
X52670828Y-63110680D02*
X52813685Y-63039251D01*
X53027971Y-63039251D01*
X53242256Y-63110680D01*
X53385114Y-63253537D01*
X53456542Y-63396394D01*
X53527971Y-63682109D01*
X53527971Y-63896394D01*
X53456542Y-64182109D01*
X53385114Y-64324966D01*
X53242256Y-64467823D01*
X53027971Y-64539251D01*
X52885114Y-64539251D01*
X52670828Y-64467823D01*
X52599399Y-64396394D01*
X52599399Y-63896394D01*
X52885114Y-63896394D01*
X51670828Y-63039251D02*
X51527971Y-63039251D01*
X51385114Y-63110680D01*
X51313685Y-63182109D01*
X51242256Y-63324966D01*
X51170828Y-63610680D01*
X51170828Y-63967823D01*
X51242256Y-64253537D01*
X51313685Y-64396394D01*
X51385114Y-64467823D01*
X51527971Y-64539251D01*
X51670828Y-64539251D01*
X51813685Y-64467823D01*
X51885114Y-64396394D01*
X51956542Y-64253537D01*
X52027971Y-63967823D01*
X52027971Y-63610680D01*
X51956542Y-63324966D01*
X51885114Y-63182109D01*
X51813685Y-63110680D01*
X51670828Y-63039251D01*
X60473399Y-55141251D02*
X60973399Y-54426966D01*
X61330542Y-55141251D02*
X61330542Y-53641251D01*
X60759114Y-53641251D01*
X60616256Y-53712680D01*
X60544828Y-53784109D01*
X60473399Y-53926966D01*
X60473399Y-54141251D01*
X60544828Y-54284109D01*
X60616256Y-54355537D01*
X60759114Y-54426966D01*
X61330542Y-54426966D01*
X59973399Y-53641251D02*
X58973399Y-55141251D01*
X58973399Y-53641251D02*
X59973399Y-55141251D01*
X53746257Y-53895251D02*
X52889114Y-53895251D01*
X53317685Y-55395251D02*
X53317685Y-53895251D01*
X52531971Y-53895251D02*
X51531971Y-55395251D01*
X51531971Y-53895251D02*
X52531971Y-55395251D01*
X77558828Y-55077823D02*
X76415971Y-55077823D01*
X76987400Y-55649251D02*
X76987400Y-54506394D01*
X72224828Y-50505823D02*
X71081971Y-50505823D01*
X60032828Y-51267823D02*
X58889971Y-51267823D01*
X59461400Y-51839251D02*
X59461400Y-50696394D01*
X54444828Y-50251823D02*
X53301971Y-50251823D01*
X59778828Y-69301823D02*
X58635971Y-69301823D01*
X59207400Y-69873251D02*
X59207400Y-68730394D01*
X53682828Y-69301823D02*
X52539971Y-69301823D01*
X73030543Y-67861252D02*
X73030543Y-69004109D01*
X77812828Y-64221823D02*
X76669971Y-64221823D01*
X77241400Y-64793251D02*
X77241400Y-63650394D01*
X81749972Y-62697823D02*
X82892829Y-62697823D01*
X82321400Y-63269251D02*
X82321400Y-62126394D01*
X81241972Y-57363823D02*
X82384829Y-57363823D01*
D12*
X64287400Y-53700680D02*
X64287400Y-52684680D01*
X63779400Y-54208680D02*
X64287400Y-53700680D01*
X63271400Y-54208680D02*
X63779400Y-54208680D01*
X63271400Y-53700680D02*
X63271400Y-54208680D01*
X63779400Y-53192680D02*
X63271400Y-53700680D01*
X64795400Y-53192680D02*
X63779400Y-53192680D01*
X64287400Y-52684680D02*
X64795400Y-53192680D01*
D13*
X72944000Y-70676000D02*
X49944000Y-70676000D01*
D14*
X71471971Y-55728447D02*
X71520351Y-55680066D01*
X71617113Y-55534923D01*
X71665494Y-55438161D01*
X71713875Y-55293018D01*
X71762256Y-55051113D01*
X71762256Y-54857590D01*
X71713875Y-54615685D01*
X71665494Y-54470542D01*
X71617113Y-54373780D01*
X71520351Y-54228637D01*
X71471971Y-54180256D01*
X70504352Y-55341399D02*
X70843018Y-54857590D01*
X71084923Y-55341399D02*
X71084923Y-54325399D01*
X70697876Y-54325399D01*
X70601114Y-54373780D01*
X70552733Y-54422161D01*
X70504352Y-54518923D01*
X70504352Y-54664066D01*
X70552733Y-54760828D01*
X70601114Y-54809209D01*
X70697876Y-54857590D01*
X71084923Y-54857590D01*
X69681876Y-55293018D02*
X69778638Y-55341399D01*
X69972161Y-55341399D01*
X70068923Y-55293018D01*
X70117304Y-55196256D01*
X70117304Y-54809209D01*
X70068923Y-54712447D01*
X69972161Y-54664066D01*
X69778638Y-54664066D01*
X69681876Y-54712447D01*
X69633495Y-54809209D01*
X69633495Y-54905970D01*
X70117304Y-55002732D01*
X69294828Y-54664066D02*
X69052923Y-55341399D01*
X68811019Y-54664066D01*
X67649876Y-54954351D02*
X66875781Y-54954351D01*
X66488733Y-55728447D02*
X66440352Y-55680066D01*
X66343590Y-55534923D01*
X66295209Y-55438161D01*
X66246828Y-55293018D01*
X66198447Y-55051113D01*
X66198447Y-54857590D01*
X66246828Y-54615685D01*
X66295209Y-54470542D01*
X66343590Y-54373780D01*
X66440352Y-54228637D01*
X66488733Y-54180256D01*
X73528161Y-56027199D02*
X73286256Y-57043199D01*
X73092733Y-56317485D01*
X72899209Y-57043199D01*
X72657304Y-56027199D01*
X72270256Y-57043199D02*
X72270256Y-56365866D01*
X72270256Y-56027199D02*
X72318637Y-56075580D01*
X72270256Y-56123961D01*
X72221875Y-56075580D01*
X72270256Y-56027199D01*
X72270256Y-56123961D01*
X71931589Y-56365866D02*
X71544541Y-56365866D01*
X71786446Y-57043199D02*
X71786446Y-56172342D01*
X71738065Y-56075580D01*
X71641303Y-56027199D01*
X71544541Y-56027199D01*
X71060732Y-57043199D02*
X71157494Y-56994818D01*
X71205875Y-56898056D01*
X71205875Y-56027199D01*
X70673685Y-57043199D02*
X70673685Y-56365866D01*
X70673685Y-56027199D02*
X70722066Y-56075580D01*
X70673685Y-56123961D01*
X70625304Y-56075580D01*
X70673685Y-56027199D01*
X70673685Y-56123961D01*
X69802828Y-56994818D02*
X69899590Y-57043199D01*
X70093113Y-57043199D01*
X70189875Y-56994818D01*
X70238256Y-56898056D01*
X70238256Y-56511009D01*
X70189875Y-56414247D01*
X70093113Y-56365866D01*
X69899590Y-56365866D01*
X69802828Y-56414247D01*
X69754447Y-56511009D01*
X69754447Y-56607770D01*
X70238256Y-56704532D01*
X69319018Y-57043199D02*
X69319018Y-56365866D01*
X69319018Y-56559390D02*
X69270637Y-56462628D01*
X69222256Y-56414247D01*
X69125494Y-56365866D01*
X69028733Y-56365866D01*
X68544923Y-56462628D02*
X68641685Y-56414247D01*
X68690066Y-56365866D01*
X68738447Y-56269104D01*
X68738447Y-56220723D01*
X68690066Y-56123961D01*
X68641685Y-56075580D01*
X68544923Y-56027199D01*
X68351400Y-56027199D01*
X68254638Y-56075580D01*
X68206257Y-56123961D01*
X68157876Y-56220723D01*
X68157876Y-56269104D01*
X68206257Y-56365866D01*
X68254638Y-56414247D01*
X68351400Y-56462628D01*
X68544923Y-56462628D01*
X68641685Y-56511009D01*
X68690066Y-56559390D01*
X68738447Y-56656151D01*
X68738447Y-56849675D01*
X68690066Y-56946437D01*
X68641685Y-56994818D01*
X68544923Y-57043199D01*
X68351400Y-57043199D01*
X68254638Y-56994818D01*
X68206257Y-56946437D01*
X68157876Y-56849675D01*
X68157876Y-56656151D01*
X68206257Y-56559390D01*
X68254638Y-56511009D01*
X68351400Y-56462628D01*
X67770828Y-56123961D02*
X67722447Y-56075580D01*
X67625685Y-56027199D01*
X67383781Y-56027199D01*
X67287019Y-56075580D01*
X67238638Y-56123961D01*
X67190257Y-56220723D01*
X67190257Y-56317485D01*
X67238638Y-56462628D01*
X67819209Y-57043199D01*
X67190257Y-57043199D01*
X66609685Y-56462628D02*
X66706447Y-56414247D01*
X66754828Y-56365866D01*
X66803209Y-56269104D01*
X66803209Y-56220723D01*
X66754828Y-56123961D01*
X66706447Y-56075580D01*
X66609685Y-56027199D01*
X66416162Y-56027199D01*
X66319400Y-56075580D01*
X66271019Y-56123961D01*
X66222638Y-56220723D01*
X66222638Y-56269104D01*
X66271019Y-56365866D01*
X66319400Y-56414247D01*
X66416162Y-56462628D01*
X66609685Y-56462628D01*
X66706447Y-56511009D01*
X66754828Y-56559390D01*
X66803209Y-56656151D01*
X66803209Y-56849675D01*
X66754828Y-56946437D01*
X66706447Y-56994818D01*
X66609685Y-57043199D01*
X66416162Y-57043199D01*
X66319400Y-56994818D01*
X66271019Y-56946437D01*
X66222638Y-56849675D01*
X66222638Y-56656151D01*
X66271019Y-56559390D01*
X66319400Y-56511009D01*
X66416162Y-56462628D01*
X65303400Y-56027199D02*
X65787209Y-56027199D01*
X65835590Y-56511009D01*
X65787209Y-56462628D01*
X65690447Y-56414247D01*
X65448543Y-56414247D01*
X65351781Y-56462628D01*
X65303400Y-56511009D01*
X65255019Y-56607770D01*
X65255019Y-56849675D01*
X65303400Y-56946437D01*
X65351781Y-56994818D01*
X65448543Y-57043199D01*
X65690447Y-57043199D01*
X65787209Y-56994818D01*
X65835590Y-56946437D01*
D13*
X72944000Y-49176000D02*
X49944000Y-49176000D01*
X49944000Y-70676000D02*
X45444000Y-66176000D01*
X45444000Y-53676000D02*
X49944000Y-49176000D01*
X83194000Y-63926000D02*
X76444000Y-67176000D01*
X83194000Y-55926000D02*
X83194000Y-63926000D01*
X76444000Y-52676000D02*
X83194000Y-55926000D01*
X45444000Y-53676000D02*
X45444000Y-66176000D01*
X72944000Y-49176000D02*
X76444000Y-52676000D01*
X72944000Y-70676000D02*
X76444000Y-67176000D01*
D15*
X56738156Y-68034314D02*
X56738156Y-67272314D01*
X56484156Y-67816600D01*
X56230156Y-67272314D01*
X56230156Y-68034314D01*
X55468157Y-68034314D02*
X55903585Y-68034314D01*
X55685871Y-68034314D02*
X55685871Y-67272314D01*
X55758442Y-67381171D01*
X55831014Y-67453743D01*
X55903585Y-67490029D01*
X73593354Y-54629533D02*
X74132170Y-54090717D01*
X73567696Y-54295980D01*
X73772960Y-53731507D01*
X73234144Y-54270322D01*
X73490723Y-53551903D02*
X73490723Y-53500586D01*
X73465065Y-53423613D01*
X73336776Y-53295323D01*
X73259802Y-53269666D01*
X73208486Y-53269666D01*
X73131513Y-53295324D01*
X73080197Y-53346640D01*
X73028881Y-53449271D01*
X73028882Y-54065060D01*
X72695330Y-53731508D01*
X74777873Y-64880887D02*
X74239057Y-64342071D01*
X74444320Y-64906545D01*
X73879847Y-64701281D01*
X74418662Y-65240097D01*
X73674585Y-64906544D02*
X73341032Y-65240096D01*
X73725901Y-65265754D01*
X73648926Y-65342728D01*
X73623269Y-65419702D01*
X73623268Y-65471017D01*
X73648927Y-65547991D01*
X73777216Y-65676280D01*
X73854190Y-65701939D01*
X73905506Y-65701939D01*
X73982479Y-65676281D01*
X74136426Y-65522333D01*
X74162084Y-65445360D01*
X74162084Y-65394044D01*
X56842296Y-50336994D02*
X56842296Y-49574994D01*
X56588296Y-50119280D01*
X56334296Y-49574994D01*
X56334296Y-50336994D01*
X55826297Y-49574994D02*
X55753725Y-49574994D01*
X55681154Y-49611280D01*
X55644868Y-49647566D01*
X55608582Y-49720137D01*
X55572297Y-49865280D01*
X55572297Y-50046709D01*
X55608582Y-50191851D01*
X55644868Y-50264423D01*
X55681154Y-50300709D01*
X55753725Y-50336994D01*
X55826297Y-50336994D01*
X55898868Y-50300709D01*
X55935154Y-50264423D01*
X55971439Y-50191851D01*
X56007725Y-50046709D01*
X56007725Y-49865280D01*
X55971439Y-49720137D01*
X55935154Y-49647566D01*
X55898868Y-49611280D01*
X55826297Y-49574994D01*
X80930846Y-62690733D02*
X80392031Y-62151918D01*
X80186768Y-62357180D01*
X80161110Y-62434154D01*
X80161111Y-62485470D01*
X80186768Y-62562443D01*
X80263742Y-62639417D01*
X80340716Y-62665075D01*
X80392031Y-62665075D01*
X80469005Y-62639417D01*
X80674268Y-62434154D01*
X79930190Y-62716391D02*
X79878874Y-62716391D01*
X79801900Y-62742048D01*
X79673610Y-62870338D01*
X79647953Y-62947312D01*
X79647953Y-62998628D01*
X79673611Y-63075601D01*
X79724927Y-63126917D01*
X79827558Y-63178233D01*
X80443347Y-63178232D01*
X80109795Y-63511784D01*
X79980971Y-58145681D02*
X80017257Y-58254538D01*
X80053543Y-58290823D01*
X80126114Y-58327109D01*
X80234971Y-58327109D01*
X80307543Y-58290823D01*
X80343829Y-58254538D01*
X80380114Y-58181966D01*
X80380114Y-57891681D01*
X79618114Y-57891681D01*
X79618114Y-58145681D01*
X79654400Y-58218252D01*
X79690686Y-58254538D01*
X79763257Y-58290823D01*
X79835829Y-58290823D01*
X79908400Y-58254538D01*
X79944686Y-58218252D01*
X79980971Y-58145681D01*
X79980971Y-57891681D01*
X80162400Y-58617395D02*
X80162400Y-58980252D01*
X80380114Y-58544823D02*
X79618114Y-58798823D01*
X80380114Y-59052823D01*
X79618114Y-59197966D02*
X79618114Y-59633395D01*
X80380114Y-59415681D02*
X79618114Y-59415681D01*
X79618114Y-59778537D02*
X79618114Y-60213966D01*
X80380114Y-59996252D02*
X79618114Y-59996252D01*
X79980971Y-60467966D02*
X79980971Y-60721966D01*
X80380114Y-60830823D02*
X80380114Y-60467966D01*
X79618114Y-60467966D01*
X79618114Y-60830823D01*
X80380114Y-61592823D02*
X80017257Y-61338823D01*
X80380114Y-61157395D02*
X79618114Y-61157395D01*
X79618114Y-61447680D01*
X79654400Y-61520252D01*
X79690686Y-61556537D01*
X79763257Y-61592823D01*
X79872114Y-61592823D01*
X79944686Y-61556537D01*
X79980971Y-61520252D01*
X80017257Y-61447680D01*
X80017257Y-61157395D01*
X80017257Y-62064537D02*
X80380114Y-62064537D01*
X79618114Y-61810537D02*
X80017257Y-62064537D01*
X79618114Y-62318537D01*
X56955508Y-56348034D02*
X56955508Y-55586034D01*
X56665223Y-55586034D01*
X56592651Y-55622320D01*
X56556366Y-55658606D01*
X56520080Y-55731177D01*
X56520080Y-55840034D01*
X56556366Y-55912606D01*
X56592651Y-55948891D01*
X56665223Y-55985177D01*
X56955508Y-55985177D01*
X55830651Y-55586034D02*
X56193508Y-55586034D01*
X56229794Y-55948891D01*
X56193508Y-55912606D01*
X56120937Y-55876320D01*
X55939508Y-55876320D01*
X55866937Y-55912606D01*
X55830651Y-55948891D01*
X55794366Y-56021463D01*
X55794366Y-56202891D01*
X55830651Y-56275463D01*
X55866937Y-56311749D01*
X55939508Y-56348034D01*
X56120937Y-56348034D01*
X56193508Y-56311749D01*
X56229794Y-56275463D01*
X66569408Y-62123734D02*
X66569408Y-61361734D01*
X66279123Y-61361734D01*
X66206551Y-61398020D01*
X66170266Y-61434306D01*
X66133980Y-61506877D01*
X66133980Y-61615734D01*
X66170266Y-61688306D01*
X66206551Y-61724591D01*
X66279123Y-61760877D01*
X66569408Y-61760877D01*
X65480837Y-61361734D02*
X65625980Y-61361734D01*
X65698551Y-61398020D01*
X65734837Y-61434306D01*
X65807408Y-61543163D01*
X65843694Y-61688306D01*
X65843694Y-61978591D01*
X65807408Y-62051163D01*
X65771123Y-62087449D01*
X65698551Y-62123734D01*
X65553408Y-62123734D01*
X65480837Y-62087449D01*
X65444551Y-62051163D01*
X65408266Y-61978591D01*
X65408266Y-61797163D01*
X65444551Y-61724591D01*
X65480837Y-61688306D01*
X65553408Y-61652020D01*
X65698551Y-61652020D01*
X65771123Y-61688306D01*
X65807408Y-61724591D01*
X65843694Y-61797163D01*
X56931789Y-59883767D02*
X56968074Y-59992624D01*
X56968074Y-60174053D01*
X56931789Y-60246624D01*
X56895503Y-60282910D01*
X56822931Y-60319195D01*
X56750360Y-60319195D01*
X56677789Y-60282910D01*
X56641503Y-60246624D01*
X56605217Y-60174053D01*
X56568931Y-60028910D01*
X56532646Y-59956338D01*
X56496360Y-59920053D01*
X56423789Y-59883767D01*
X56351217Y-59883767D01*
X56278646Y-59920053D01*
X56242360Y-59956338D01*
X56206074Y-60028910D01*
X56206074Y-60210338D01*
X56242360Y-60319195D01*
X56605217Y-60790909D02*
X56968074Y-60790909D01*
X56206074Y-60536909D02*
X56605217Y-60790909D01*
X56206074Y-61044909D01*
X56931789Y-61262624D02*
X56968074Y-61371481D01*
X56968074Y-61552910D01*
X56931789Y-61625481D01*
X56895503Y-61661767D01*
X56822931Y-61698052D01*
X56750360Y-61698052D01*
X56677789Y-61661767D01*
X56641503Y-61625481D01*
X56605217Y-61552910D01*
X56568931Y-61407767D01*
X56532646Y-61335195D01*
X56496360Y-61298910D01*
X56423789Y-61262624D01*
X56351217Y-61262624D01*
X56278646Y-61298910D01*
X56242360Y-61335195D01*
X56206074Y-61407767D01*
X56206074Y-61589195D01*
X56242360Y-61698052D01*
X56968074Y-62460052D02*
X56605217Y-62206052D01*
X56968074Y-62024624D02*
X56206074Y-62024624D01*
X56206074Y-62314909D01*
X56242360Y-62387481D01*
X56278646Y-62423766D01*
X56351217Y-62460052D01*
X56460074Y-62460052D01*
X56532646Y-62423766D01*
X56568931Y-62387481D01*
X56605217Y-62314909D01*
X56605217Y-62024624D01*
X56568931Y-62786624D02*
X56568931Y-63040624D01*
X56968074Y-63149481D02*
X56968074Y-62786624D01*
X56206074Y-62786624D01*
X56206074Y-63149481D01*
X56931789Y-63439767D02*
X56968074Y-63548624D01*
X56968074Y-63730053D01*
X56931789Y-63802624D01*
X56895503Y-63838910D01*
X56822931Y-63875195D01*
X56750360Y-63875195D01*
X56677789Y-63838910D01*
X56641503Y-63802624D01*
X56605217Y-63730053D01*
X56568931Y-63584910D01*
X56532646Y-63512338D01*
X56496360Y-63476053D01*
X56423789Y-63439767D01*
X56351217Y-63439767D01*
X56278646Y-63476053D01*
X56242360Y-63512338D01*
X56206074Y-63584910D01*
X56206074Y-63766338D01*
X56242360Y-63875195D01*
X56568931Y-64201767D02*
X56568931Y-64455767D01*
X56968074Y-64564624D02*
X56968074Y-64201767D01*
X56206074Y-64201767D01*
X56206074Y-64564624D01*
X56206074Y-64782338D02*
X56206074Y-65217767D01*
X56968074Y-65000053D02*
X56206074Y-65000053D01*
M02*
