G04 #@! TF.FileFunction,Soldermask,Top*
%FSLAX46Y46*%
G04 Gerber Fmt 4.6, Leading zero omitted, Abs format (unit mm)*
G04 Created by KiCad (PCBNEW 4.0.4+e1-6308~48~ubuntu16.04.1-stable) date Tue Sep 13 21:39:42 2016*
%MOMM*%
%LPD*%
G01*
G04 APERTURE LIST*
%ADD10C,0.150000*%
%ADD11C,0.100000*%
%ADD12R,0.772160X1.280160*%
%ADD13C,3.137160*%
%ADD14R,1.280160X0.772160*%
%ADD15R,1.137160X0.537160*%
%ADD16R,1.137160X1.337160*%
%ADD17R,1.137160X1.137160*%
%ADD18R,1.487160X0.527160*%
%ADD19O,1.697160X1.037160*%
%ADD20O,0.987160X1.387160*%
%ADD21R,0.537160X1.137160*%
%ADD22R,3.237160X3.237160*%
%ADD23R,1.037160X0.397160*%
%ADD24R,1.137160X0.397160*%
%ADD25R,0.397160X1.037160*%
%ADD26R,0.397160X1.137160*%
%ADD27R,0.367160X1.037160*%
%ADD28R,1.037160X0.367160*%
%ADD29R,0.837160X0.837160*%
%ADD30R,0.937260X0.937260*%
%ADD31O,1.437160X0.737160*%
%ADD32R,1.862160X2.637160*%
%ADD33R,1.197160X0.787160*%
%ADD34R,1.637160X1.637160*%
%ADD35R,1.137160X1.737160*%
G04 APERTURE END LIST*
D10*
D11*
X72944000Y-70676000D02*
X49944000Y-70676000D01*
X72944000Y-49176000D02*
X49944000Y-49176000D01*
X49944000Y-70676000D02*
X45444000Y-66176000D01*
X45444000Y-53676000D02*
X49944000Y-49176000D01*
X83194000Y-63926000D02*
X76444000Y-67176000D01*
X83194000Y-55926000D02*
X83194000Y-63926000D01*
X76444000Y-52676000D02*
X83194000Y-55926000D01*
X45444000Y-53676000D02*
X45444000Y-66176000D01*
X72944000Y-49176000D02*
X76444000Y-52676000D01*
X72944000Y-70676000D02*
X76444000Y-67176000D01*
D12*
X51084480Y-69281040D03*
X52608480Y-69281040D03*
D13*
X51944000Y-51676000D03*
X70944000Y-68176000D03*
D14*
X53355240Y-55618380D03*
X53355240Y-54094380D03*
X57470040Y-54018180D03*
X57470040Y-55542180D03*
D10*
G36*
X50700440Y-57847030D02*
X49795230Y-58752240D01*
X49249230Y-58206240D01*
X50154440Y-57301030D01*
X50700440Y-57847030D01*
X50700440Y-57847030D01*
G37*
G36*
X49622810Y-56769400D02*
X48717600Y-57674610D01*
X48171600Y-57128610D01*
X49076810Y-56223400D01*
X49622810Y-56769400D01*
X49622810Y-56769400D01*
G37*
D15*
X69220800Y-64574420D03*
X69220800Y-63774420D03*
X69220800Y-62974420D03*
X69220800Y-62174420D03*
X67360800Y-62174420D03*
X67360800Y-62974420D03*
X67360800Y-63774420D03*
X67360800Y-64574420D03*
D16*
X57571640Y-51419760D03*
D17*
X55171640Y-51419760D03*
D18*
X78940680Y-61203360D03*
X78940680Y-60553360D03*
X78940680Y-59903360D03*
X78940680Y-59253360D03*
X78940680Y-58603360D03*
D19*
X81640680Y-56403360D03*
X81640680Y-63403360D03*
D20*
X78940680Y-57403360D03*
X78940680Y-62403360D03*
D14*
X51876960Y-54076600D03*
X51876960Y-55600600D03*
X65417700Y-61478160D03*
X65417700Y-59954160D03*
X66598800Y-57970420D03*
X66598800Y-56446420D03*
D12*
X53842920Y-69311520D03*
X55366920Y-69311520D03*
D21*
X56856480Y-64939820D03*
X56056480Y-64939820D03*
X55256480Y-64939820D03*
X54456480Y-64939820D03*
X54456480Y-66799820D03*
X55256480Y-66799820D03*
X56056480Y-66799820D03*
X56856480Y-66799820D03*
D10*
G36*
X49072741Y-65951993D02*
X49876835Y-65147899D01*
X50256665Y-65527729D01*
X49452571Y-66331823D01*
X49072741Y-65951993D01*
X49072741Y-65951993D01*
G37*
G36*
X49638426Y-66517679D02*
X50442520Y-65713585D01*
X50822350Y-66093415D01*
X50018256Y-66897509D01*
X49638426Y-66517679D01*
X49638426Y-66517679D01*
G37*
G36*
X50204111Y-67083364D02*
X51008205Y-66279270D01*
X51388035Y-66659100D01*
X50583941Y-67463194D01*
X50204111Y-67083364D01*
X50204111Y-67083364D01*
G37*
G36*
X50769797Y-67649049D02*
X51573891Y-66844955D01*
X51953721Y-67224785D01*
X51149627Y-68028879D01*
X50769797Y-67649049D01*
X50769797Y-67649049D01*
G37*
G36*
X52085015Y-66333831D02*
X52889109Y-65529737D01*
X53268939Y-65909567D01*
X52464845Y-66713661D01*
X52085015Y-66333831D01*
X52085015Y-66333831D01*
G37*
G36*
X51519330Y-65768145D02*
X52323424Y-64964051D01*
X52703254Y-65343881D01*
X51899160Y-66147975D01*
X51519330Y-65768145D01*
X51519330Y-65768145D01*
G37*
G36*
X50953645Y-65202460D02*
X51757739Y-64398366D01*
X52137569Y-64778196D01*
X51333475Y-65582290D01*
X50953645Y-65202460D01*
X50953645Y-65202460D01*
G37*
G36*
X50387959Y-64636775D02*
X51192053Y-63832681D01*
X51571883Y-64212511D01*
X50767789Y-65016605D01*
X50387959Y-64636775D01*
X50387959Y-64636775D01*
G37*
G36*
X59129573Y-65525896D02*
X58785098Y-65870371D01*
X58051715Y-65136988D01*
X58396190Y-64792513D01*
X59129573Y-65525896D01*
X59129573Y-65525896D01*
G37*
G36*
X59589193Y-65066277D02*
X59244718Y-65410752D01*
X58511335Y-64677369D01*
X58855810Y-64332894D01*
X59589193Y-65066277D01*
X59589193Y-65066277D01*
G37*
G36*
X60048812Y-64606658D02*
X59704337Y-64951133D01*
X58970954Y-64217750D01*
X59315429Y-63873275D01*
X60048812Y-64606658D01*
X60048812Y-64606658D01*
G37*
G36*
X60508431Y-64147038D02*
X60163956Y-64491513D01*
X59430573Y-63758130D01*
X59775048Y-63413655D01*
X60508431Y-64147038D01*
X60508431Y-64147038D01*
G37*
G36*
X61922645Y-65561252D02*
X61578170Y-65905727D01*
X60844787Y-65172344D01*
X61189262Y-64827869D01*
X61922645Y-65561252D01*
X61922645Y-65561252D01*
G37*
G36*
X61463025Y-66020871D02*
X61118550Y-66365346D01*
X60385167Y-65631963D01*
X60729642Y-65287488D01*
X61463025Y-66020871D01*
X61463025Y-66020871D01*
G37*
G36*
X61003406Y-66480490D02*
X60658931Y-66824965D01*
X59925548Y-66091582D01*
X60270023Y-65747107D01*
X61003406Y-66480490D01*
X61003406Y-66480490D01*
G37*
G36*
X60543787Y-66940110D02*
X60199312Y-67284585D01*
X59465929Y-66551202D01*
X59810404Y-66206727D01*
X60543787Y-66940110D01*
X60543787Y-66940110D01*
G37*
D22*
X53929280Y-59700160D03*
D23*
X51379280Y-57950160D03*
D24*
X51429280Y-58450160D03*
X51429280Y-58950160D03*
X51429280Y-59450160D03*
X51429280Y-59950160D03*
X51429280Y-60450160D03*
X51429280Y-60950160D03*
D23*
X51379280Y-61450160D03*
D25*
X52179280Y-62250160D03*
D26*
X52679280Y-62200160D03*
X53179280Y-62200160D03*
X53679280Y-62200160D03*
X54179280Y-62200160D03*
X54679280Y-62200160D03*
X55179280Y-62200160D03*
D25*
X55679280Y-62250160D03*
D23*
X56479280Y-61450160D03*
D24*
X56429280Y-60950160D03*
X56429280Y-60450160D03*
X56429280Y-59950160D03*
X56429280Y-59450160D03*
X56429280Y-58950160D03*
X56429280Y-58450160D03*
D23*
X56479280Y-57950160D03*
D25*
X55679280Y-57150160D03*
D26*
X55179280Y-57200160D03*
X54679280Y-57200160D03*
X54179280Y-57200160D03*
X53679280Y-57200160D03*
X53179280Y-57200160D03*
X52679280Y-57200160D03*
D25*
X52179280Y-57150160D03*
D27*
X58596480Y-58586100D03*
D28*
X58323480Y-59591100D03*
X58323480Y-60021100D03*
X58323480Y-60451100D03*
X58323480Y-60881100D03*
D27*
X58596480Y-61886100D03*
X59026480Y-61886100D03*
X59456480Y-61886100D03*
X59886480Y-61886100D03*
X60316480Y-61886100D03*
X60746480Y-61886100D03*
X61176480Y-61886100D03*
X61606480Y-61886100D03*
D28*
X61879480Y-60881100D03*
X61879480Y-60451100D03*
X61879480Y-60021100D03*
X61879480Y-59591100D03*
D27*
X61606480Y-58586100D03*
X61176480Y-58586100D03*
X60746480Y-58586100D03*
X60316480Y-58586100D03*
X59886480Y-58586100D03*
X59456480Y-58586100D03*
X59026480Y-58586100D03*
D29*
X54566920Y-55395420D03*
X56166920Y-54195420D03*
X54566920Y-54195420D03*
X56166920Y-55395420D03*
D30*
X61711840Y-52793940D03*
X61711840Y-50893940D03*
X59712860Y-51843940D03*
D21*
X58533180Y-56317240D03*
X59333180Y-56317240D03*
X60133180Y-56317240D03*
X60933180Y-56317240D03*
X60933180Y-54457240D03*
X60133180Y-54457240D03*
X59333180Y-54457240D03*
X58533180Y-54457240D03*
D10*
G36*
X75543526Y-56084589D02*
X74458711Y-54999774D01*
X75184316Y-54274169D01*
X76269131Y-55358984D01*
X75543526Y-56084589D01*
X75543526Y-56084589D01*
G37*
G36*
X76890564Y-54737551D02*
X75805749Y-53652736D01*
X76531354Y-52927131D01*
X77616169Y-54011946D01*
X76890564Y-54737551D01*
X76890564Y-54737551D01*
G37*
D16*
X57176820Y-69169280D03*
D17*
X59576820Y-69169280D03*
D16*
X67319040Y-51170840D03*
D17*
X69719040Y-51170840D03*
D16*
X73305820Y-62390020D03*
D17*
X75705820Y-62390020D03*
D30*
X62798960Y-69758600D03*
X62798960Y-67858600D03*
X60799980Y-68808600D03*
D10*
G36*
X69763661Y-52563093D02*
X70426404Y-51900350D01*
X71089147Y-52563093D01*
X70426404Y-53225836D01*
X69763661Y-52563093D01*
X69763661Y-52563093D01*
G37*
G36*
X71107164Y-53906596D02*
X71769907Y-53243853D01*
X72432650Y-53906596D01*
X71769907Y-54569339D01*
X71107164Y-53906596D01*
X71107164Y-53906596D01*
G37*
G36*
X71848905Y-51821352D02*
X72511648Y-51158609D01*
X73174391Y-51821352D01*
X72511648Y-52484095D01*
X71848905Y-51821352D01*
X71848905Y-51821352D01*
G37*
G36*
X72831627Y-63588921D02*
X73494370Y-64251664D01*
X72831627Y-64914407D01*
X72168884Y-64251664D01*
X72831627Y-63588921D01*
X72831627Y-63588921D01*
G37*
G36*
X71488124Y-64932424D02*
X72150867Y-65595167D01*
X71488124Y-66257910D01*
X70825381Y-65595167D01*
X71488124Y-64932424D01*
X71488124Y-64932424D01*
G37*
G36*
X73573368Y-65674165D02*
X74236111Y-66336908D01*
X73573368Y-66999651D01*
X72910625Y-66336908D01*
X73573368Y-65674165D01*
X73573368Y-65674165D01*
G37*
D15*
X75685100Y-59750860D03*
X75685100Y-58950860D03*
X75685100Y-58150860D03*
X75685100Y-57350860D03*
X73825100Y-57350860D03*
X73825100Y-58150860D03*
X73825100Y-58950860D03*
X73825100Y-59750860D03*
D31*
X71703440Y-58834020D03*
X71703440Y-57884020D03*
X71703440Y-56934020D03*
X68163440Y-56934020D03*
X68163440Y-57884020D03*
X68163440Y-58834020D03*
D32*
X69933440Y-57884020D03*
D10*
G36*
X74499351Y-64657086D02*
X75584166Y-63572271D01*
X76309771Y-64297876D01*
X75224956Y-65382691D01*
X74499351Y-64657086D01*
X74499351Y-64657086D01*
G37*
G36*
X75846389Y-66004124D02*
X76931204Y-64919309D01*
X77656809Y-65644914D01*
X76571994Y-66729729D01*
X75846389Y-66004124D01*
X75846389Y-66004124D01*
G37*
G36*
X76856706Y-57326649D02*
X75771891Y-56241834D01*
X76497496Y-55516229D01*
X77582311Y-56601044D01*
X76856706Y-57326649D01*
X76856706Y-57326649D01*
G37*
G36*
X78203744Y-55979611D02*
X77118929Y-54894796D01*
X77844534Y-54169191D01*
X78929349Y-55254006D01*
X78203744Y-55979611D01*
X78203744Y-55979611D01*
G37*
D33*
X65466320Y-64655700D03*
X65466320Y-63705700D03*
X65466320Y-62755700D03*
X63266320Y-62755700D03*
X63266320Y-64655700D03*
X66598980Y-68186340D03*
X66598980Y-67236340D03*
X66598980Y-66286340D03*
X64398980Y-66286340D03*
X64398980Y-68186340D03*
X64470460Y-57058600D03*
X64470460Y-56108600D03*
X64470460Y-55158600D03*
X62270460Y-55158600D03*
X62270460Y-57058600D03*
D34*
X46593760Y-56392120D03*
X46593760Y-63892120D03*
D10*
G36*
X47123885Y-67239850D02*
X46039070Y-66155035D01*
X46764675Y-65429430D01*
X47849490Y-66514245D01*
X47123885Y-67239850D01*
X47123885Y-67239850D01*
G37*
G36*
X48470923Y-65892812D02*
X47386108Y-64807997D01*
X48111713Y-64082392D01*
X49196528Y-65167207D01*
X48470923Y-65892812D01*
X48470923Y-65892812D01*
G37*
G36*
X46236352Y-53691487D02*
X47321167Y-52606672D01*
X48046772Y-53332277D01*
X46961957Y-54417092D01*
X46236352Y-53691487D01*
X46236352Y-53691487D01*
G37*
G36*
X47583390Y-55038525D02*
X48668205Y-53953710D01*
X49393810Y-54679315D01*
X48308995Y-55764130D01*
X47583390Y-55038525D01*
X47583390Y-55038525D01*
G37*
G36*
X50245780Y-53308050D02*
X49340570Y-54213260D01*
X48794570Y-53667260D01*
X49699780Y-52762050D01*
X50245780Y-53308050D01*
X50245780Y-53308050D01*
G37*
G36*
X49168150Y-52230420D02*
X48262940Y-53135630D01*
X47716940Y-52589630D01*
X48622150Y-51684420D01*
X49168150Y-52230420D01*
X49168150Y-52230420D01*
G37*
G36*
X50469300Y-68294050D02*
X49564090Y-69199260D01*
X49018090Y-68653260D01*
X49923300Y-67748050D01*
X50469300Y-68294050D01*
X50469300Y-68294050D01*
G37*
G36*
X49391670Y-67216420D02*
X48486460Y-68121630D01*
X47940460Y-67575630D01*
X48845670Y-66670420D01*
X49391670Y-67216420D01*
X49391670Y-67216420D01*
G37*
D14*
X71272400Y-64500760D03*
X71272400Y-62976760D03*
X50454560Y-54229000D03*
X50454560Y-55753000D03*
D35*
X66438520Y-54051200D03*
X69438520Y-54051200D03*
M02*
