G04 #@! TF.FileFunction,Copper,L2,Bot,Signal*
%FSLAX46Y46*%
G04 Gerber Fmt 4.6, Leading zero omitted, Abs format (unit mm)*
G04 Created by KiCad (PCBNEW 4.0.4+e1-6308~48~ubuntu16.04.1-stable) date Tue Sep 13 21:39:42 2016*
%MOMM*%
%LPD*%
G01*
G04 APERTURE LIST*
%ADD10C,0.150000*%
%ADD11C,0.100000*%
%ADD12C,3.000000*%
%ADD13O,1.560000X0.900000*%
%ADD14O,0.850000X1.250000*%
%ADD15R,1.778000X1.778000*%
%ADD16C,1.778000*%
%ADD17C,0.558800*%
%ADD18C,0.228600*%
%ADD19C,0.508000*%
%ADD20C,0.254000*%
G04 APERTURE END LIST*
D10*
D11*
X72944000Y-70676000D02*
X49944000Y-70676000D01*
X72944000Y-49176000D02*
X49944000Y-49176000D01*
X49944000Y-70676000D02*
X45444000Y-66176000D01*
X45444000Y-53676000D02*
X49944000Y-49176000D01*
X83194000Y-63926000D02*
X76444000Y-67176000D01*
X83194000Y-55926000D02*
X83194000Y-63926000D01*
X76444000Y-52676000D02*
X83194000Y-55926000D01*
X45444000Y-53676000D02*
X45444000Y-66176000D01*
X72944000Y-49176000D02*
X76444000Y-52676000D01*
X72944000Y-70676000D02*
X76444000Y-67176000D01*
D12*
X51944000Y-51676000D03*
X70944000Y-68176000D03*
D13*
X81640680Y-56403360D03*
X81640680Y-63403360D03*
D14*
X78940680Y-57403360D03*
X78940680Y-62403360D03*
D15*
X57391300Y-69189600D03*
D16*
X54851300Y-69189600D03*
D10*
G36*
X76541702Y-53582706D02*
X75284466Y-54839942D01*
X74027230Y-53582706D01*
X75284466Y-52325470D01*
X76541702Y-53582706D01*
X76541702Y-53582706D01*
G37*
D16*
X73488414Y-51786654D03*
D10*
G36*
X76056626Y-63978718D02*
X77313862Y-65235954D01*
X76056626Y-66493190D01*
X74799390Y-65235954D01*
X76056626Y-63978718D01*
X76056626Y-63978718D01*
G37*
D16*
X74260574Y-67032006D03*
D15*
X57617360Y-51280060D03*
D16*
X55077360Y-51280060D03*
D15*
X81780380Y-58661300D03*
D16*
X81780380Y-61201300D03*
D15*
X59822080Y-64432180D03*
D16*
X59822080Y-61892180D03*
D15*
X62181740Y-64391540D03*
D16*
X62181740Y-61851540D03*
D15*
X55123080Y-54503320D03*
D16*
X57663080Y-54503320D03*
D15*
X67276980Y-63279020D03*
D16*
X64736980Y-63279020D03*
D15*
X54823360Y-61244481D03*
D16*
X54823360Y-63784481D03*
D17*
X71653400Y-55938420D03*
X67695649Y-66837100D03*
X62181740Y-64391540D03*
X60610371Y-54907909D03*
X64494788Y-58643541D03*
X67149866Y-60955200D03*
X52562760Y-54531260D03*
X51894740Y-67724020D03*
X66479420Y-63774420D03*
X63358619Y-57749783D03*
X51391820Y-62755780D03*
X53929280Y-59700160D03*
X56837580Y-56451500D03*
X59339131Y-57061637D03*
X61239400Y-57764680D03*
X58216000Y-63023941D03*
X57421213Y-59752831D03*
X56896000Y-64030860D03*
X58597810Y-63850094D03*
X68428562Y-64592737D03*
X64700571Y-62959594D03*
X69311520Y-61440060D03*
X69812466Y-63913535D03*
X76710959Y-53832341D03*
X57883447Y-69300505D03*
X73785411Y-62642982D03*
X72038840Y-60552577D03*
X77355700Y-58707020D03*
X65872360Y-68640960D03*
X68308220Y-50667920D03*
X57619900Y-50772060D03*
X56314709Y-62144507D03*
X50787985Y-62074283D03*
X50819226Y-59198679D03*
X54087418Y-66637558D03*
X61964438Y-67174566D03*
X53142167Y-63273936D03*
X53373442Y-56584687D03*
X51199433Y-57443514D03*
X55185460Y-50794920D03*
X57507918Y-62019152D03*
X65930780Y-60558662D03*
X77859085Y-60558662D03*
X57552255Y-57894778D03*
X77853540Y-59801760D03*
X49044598Y-55359178D03*
X48148240Y-64495680D03*
X53025040Y-66862960D03*
X55179280Y-63616840D03*
X51073762Y-64015939D03*
X61357521Y-52534820D03*
X70340803Y-61104056D03*
X69518828Y-59616632D03*
X69650288Y-55596468D03*
X52664322Y-64620140D03*
X70191022Y-64857594D03*
X53375560Y-65423116D03*
X59475648Y-59938920D03*
X58044080Y-58653680D03*
X61297820Y-62898020D03*
X51571734Y-61852079D03*
X51806493Y-56727234D03*
X76282658Y-63395583D03*
X75835567Y-60545959D03*
X54619033Y-68492158D03*
X73530460Y-52019200D03*
X73322571Y-66230011D03*
X53279040Y-69311520D03*
X49152154Y-64482728D03*
X71812389Y-61695965D03*
X65478660Y-67792600D03*
X57850539Y-56367691D03*
X56006989Y-56253436D03*
D18*
X64795400Y-53192680D02*
X64287400Y-52684680D01*
X63779400Y-53192680D02*
X64795400Y-53192680D01*
X63271400Y-53700680D02*
X63779400Y-53192680D01*
X63271400Y-54208680D02*
X63271400Y-53700680D01*
X63779400Y-54208680D02*
X63271400Y-54208680D01*
X64287400Y-53700680D02*
X63779400Y-54208680D01*
X64287400Y-52684680D02*
X64287400Y-53700680D01*
D19*
X65049400Y-54462680D02*
X65049400Y-57764680D01*
X65049400Y-57764680D02*
X65811400Y-58526680D01*
X71399400Y-55986680D02*
X71605140Y-55986680D01*
X71605140Y-55986680D02*
X71653400Y-55938420D01*
X51894740Y-67724020D02*
X54185852Y-67724020D01*
X67300518Y-66837100D02*
X67695649Y-66837100D01*
X65343990Y-66837100D02*
X67300518Y-66837100D01*
X54185852Y-67724020D02*
X54389077Y-67520795D01*
X64269923Y-67911167D02*
X65343990Y-66837100D01*
X61497642Y-67911167D02*
X64269923Y-67911167D01*
X54389077Y-67520795D02*
X61107270Y-67520795D01*
X61107270Y-67520795D02*
X61497642Y-67911167D01*
X51786951Y-62755780D02*
X51391820Y-62755780D01*
X53929280Y-60299600D02*
X53929280Y-60613451D01*
X53929280Y-60613451D02*
X51786951Y-62755780D01*
X53929280Y-59700160D02*
X53929280Y-60299600D01*
X54823360Y-61244481D02*
X54823360Y-61193680D01*
X54823360Y-61193680D02*
X53929280Y-60299600D01*
X59339131Y-57061637D02*
X60610371Y-55790397D01*
X60610371Y-55303040D02*
X60610371Y-54907909D01*
X60610371Y-55790397D02*
X60610371Y-55303040D01*
X66479420Y-63774420D02*
X66781580Y-63774420D01*
X66781580Y-63774420D02*
X67276980Y-63279020D01*
X63358619Y-57749783D02*
X64252377Y-58643541D01*
X66479420Y-61625646D02*
X66870467Y-61234599D01*
X66479420Y-63774420D02*
X66479420Y-61625646D01*
X64252377Y-58643541D02*
X64494788Y-58643541D01*
X66870467Y-61234599D02*
X67149866Y-60955200D01*
X54330600Y-56464200D02*
X52562760Y-54696360D01*
X52562760Y-54696360D02*
X52562760Y-54531260D01*
X54330600Y-57240840D02*
X54330600Y-56464200D01*
X53929280Y-59700160D02*
X53929280Y-57642160D01*
X53929280Y-57642160D02*
X54330600Y-57240840D01*
X53929280Y-59458907D02*
X56768990Y-56619197D01*
X56768990Y-56619197D02*
X56768990Y-56520090D01*
X56768990Y-56520090D02*
X56837580Y-56451500D01*
X59734262Y-57061637D02*
X59339131Y-57061637D01*
X60002957Y-57061637D02*
X59734262Y-57061637D01*
X61239400Y-57764680D02*
X60002957Y-57061637D01*
X78940680Y-57403360D02*
X79940680Y-56403360D01*
X79940680Y-56403360D02*
X81640680Y-56403360D01*
X81780380Y-58661300D02*
X80522440Y-57403360D01*
X80522440Y-57403360D02*
X78940680Y-57403360D01*
D18*
X57427948Y-63196614D02*
X57600621Y-63023941D01*
X57427948Y-63196614D02*
X56916088Y-62684754D01*
X56916088Y-60257956D02*
X57141814Y-60032230D01*
X58690319Y-63023941D02*
X58611131Y-63023941D01*
X56916088Y-62684754D02*
X56916088Y-60257956D01*
X57820869Y-63023941D02*
X58216000Y-63023941D01*
X59822080Y-61892180D02*
X58690319Y-63023941D01*
X57141814Y-60032230D02*
X57421213Y-59752831D01*
X58611131Y-63023941D02*
X58216000Y-63023941D01*
X57600621Y-63023941D02*
X57820869Y-63023941D01*
X56896000Y-64030860D02*
X57175399Y-63751461D01*
X57175399Y-63751461D02*
X57175399Y-63449163D01*
X57175399Y-63449163D02*
X57427948Y-63196614D01*
X58597810Y-64245225D02*
X58597810Y-63850094D01*
X58597810Y-64325510D02*
X58597810Y-64245225D01*
X59822080Y-64432180D02*
X58704480Y-64432180D01*
X58704480Y-64432180D02*
X58597810Y-64325510D01*
X68486368Y-64534931D02*
X68428562Y-64592737D01*
X69311520Y-61440060D02*
X68486368Y-62265212D01*
X68033431Y-64592737D02*
X68428562Y-64592737D01*
X68486368Y-62265212D02*
X68486368Y-64534931D01*
X64736980Y-63279020D02*
X66050697Y-64592737D01*
X66050697Y-64592737D02*
X68033431Y-64592737D01*
D19*
X70091865Y-63634136D02*
X69812466Y-63913535D01*
X71088487Y-61348491D02*
X71088488Y-62637513D01*
X72748098Y-61503560D02*
X72216601Y-60972063D01*
X71088488Y-62637513D02*
X70091865Y-63634136D01*
X71464915Y-60972063D02*
X71088487Y-61348491D01*
X72216601Y-60972063D02*
X71464915Y-60972063D01*
X57619900Y-50772060D02*
X57619900Y-51277520D01*
X57619900Y-51277520D02*
X57617360Y-51280060D01*
X76710959Y-53832341D02*
X75534101Y-53832341D01*
X75534101Y-53832341D02*
X75284466Y-53582706D01*
X65576882Y-69300505D02*
X66922837Y-69300505D01*
X66922837Y-69300505D02*
X70004543Y-66218799D01*
X70004543Y-66218799D02*
X72243613Y-66218799D01*
X72243613Y-66218799D02*
X73226458Y-65235954D01*
X73226458Y-65235954D02*
X76056626Y-65235954D01*
X57883447Y-69300505D02*
X65576882Y-69300505D01*
X65576882Y-69300505D02*
X65576882Y-68936438D01*
X65576882Y-68936438D02*
X65872360Y-68640960D01*
X73506012Y-62363583D02*
X73785411Y-62642982D01*
X72748098Y-61503560D02*
X72748098Y-61605669D01*
X72748098Y-61605669D02*
X73506012Y-62363583D01*
X76056626Y-65235954D02*
X73785411Y-62964739D01*
X73785411Y-62964739D02*
X73785411Y-62642982D01*
X72318239Y-60831976D02*
X72038840Y-60552577D01*
X72748098Y-61503560D02*
X72748098Y-61261835D01*
X72748098Y-61261835D02*
X72318239Y-60831976D01*
X78496160Y-59192160D02*
X77624940Y-58320940D01*
X77624940Y-58320940D02*
X77358240Y-58054240D01*
X77355700Y-58707020D02*
X77635099Y-58427621D01*
X77635099Y-58331099D02*
X77624940Y-58320940D01*
X77635099Y-58427621D02*
X77635099Y-58331099D01*
X57619900Y-50772060D02*
X58597800Y-50772060D01*
X59066262Y-50303598D02*
X69465358Y-50303598D01*
X58597800Y-50772060D02*
X59066262Y-50303598D01*
X69465358Y-50303598D02*
X69504560Y-50342800D01*
X69504560Y-50342800D02*
X72744466Y-53582706D01*
X68308220Y-50667920D02*
X68587619Y-50388521D01*
X68587619Y-50388521D02*
X69458839Y-50388521D01*
X69458839Y-50388521D02*
X69504560Y-50342800D01*
X72744466Y-53582706D02*
X75284466Y-53582706D01*
X75895200Y-54193440D02*
X75895200Y-54381736D01*
X75895200Y-54381736D02*
X75839488Y-54437448D01*
X75895200Y-54193440D02*
X75284466Y-53582706D01*
X75895200Y-54193440D02*
X76829920Y-54193440D01*
X79268320Y-59192160D02*
X78496160Y-59192160D01*
X77358240Y-58054240D02*
X77358240Y-54721760D01*
X77358240Y-54721760D02*
X76829920Y-54193440D01*
X79268320Y-59192160D02*
X81277460Y-61201300D01*
X75895200Y-54193440D02*
X75284466Y-53582706D01*
X75699788Y-65257512D02*
X75721346Y-65235954D01*
X75721346Y-65235954D02*
X76056626Y-65235954D01*
X76288900Y-65003680D02*
X78699360Y-65003680D01*
X80182720Y-63520320D02*
X78699360Y-65003680D01*
X80182720Y-62524640D02*
X80182720Y-63520320D01*
X80182720Y-62524640D02*
X81506060Y-61201300D01*
X76288900Y-65003680D02*
X76056626Y-65235954D01*
X81780380Y-61201300D02*
X81277460Y-61201300D01*
X81780380Y-61201300D02*
X81506060Y-61201300D01*
D18*
X56035310Y-62423906D02*
X56314709Y-62144507D01*
X55876156Y-62583060D02*
X56035310Y-62423906D01*
X53833043Y-62583060D02*
X55876156Y-62583060D01*
X53142167Y-63273936D02*
X53833043Y-62583060D01*
X54345027Y-66895167D02*
X54093620Y-66643760D01*
X61964438Y-67174566D02*
X61685039Y-66895167D01*
X54093620Y-66643760D02*
X54087418Y-66637558D01*
X61685039Y-66895167D02*
X54345027Y-66895167D01*
X51665583Y-64610854D02*
X53692287Y-66637558D01*
X51630580Y-63553335D02*
X51665583Y-63588338D01*
X51665583Y-63588338D02*
X51665583Y-64610854D01*
X53692287Y-66637558D02*
X54087418Y-66637558D01*
X51630580Y-63553335D02*
X51440066Y-63362821D01*
X50787985Y-63021493D02*
X50787985Y-62469414D01*
X50787985Y-62469414D02*
X50787985Y-62074283D01*
X50819226Y-62043042D02*
X50787985Y-62074283D01*
X51440066Y-63362821D02*
X51129313Y-63362821D01*
X50819226Y-59198679D02*
X50819226Y-62043042D01*
X51129313Y-63362821D02*
X50787985Y-63021493D01*
X50819226Y-58803548D02*
X50819226Y-59198679D01*
X50819226Y-57823721D02*
X50819226Y-58803548D01*
X51199433Y-57443514D02*
X50819226Y-57823721D01*
X52862768Y-63553335D02*
X53142167Y-63273936D01*
X51630580Y-63553335D02*
X52862768Y-63553335D01*
X53094043Y-56305288D02*
X53373442Y-56584687D01*
X52924167Y-56135412D02*
X53094043Y-56305288D01*
X51522417Y-56135412D02*
X52924167Y-56135412D01*
X51199433Y-56458396D02*
X51522417Y-56135412D01*
X51199433Y-57443514D02*
X51199433Y-56458396D01*
D19*
X55185460Y-50794920D02*
X55185460Y-51171960D01*
X55185460Y-51171960D02*
X55077360Y-51280060D01*
X55185460Y-50794920D02*
X55102760Y-50794920D01*
X55102760Y-50794920D02*
X55079900Y-50772060D01*
D18*
X57787317Y-61739753D02*
X57507918Y-62019152D01*
X58968408Y-60558662D02*
X57787317Y-61739753D01*
X65930780Y-60558662D02*
X58968408Y-60558662D01*
X65930780Y-60558662D02*
X66210179Y-60279263D01*
X70659171Y-59955675D02*
X75549955Y-59955675D01*
X68702073Y-60279263D02*
X69057995Y-60635185D01*
X69057995Y-60635185D02*
X69979661Y-60635185D01*
X75549955Y-59955675D02*
X75551492Y-59954138D01*
X66210179Y-60279263D02*
X68702073Y-60279263D01*
X77463954Y-60558662D02*
X77859085Y-60558662D01*
X69979661Y-60635185D02*
X70659171Y-59955675D01*
X75551492Y-59954138D02*
X76859430Y-59954138D01*
X76859430Y-59954138D02*
X77463954Y-60558662D01*
X77574141Y-59522361D02*
X70488997Y-59522361D01*
X69802904Y-60208454D02*
X69252899Y-60208454D01*
X57947386Y-57894778D02*
X57552255Y-57894778D01*
X58464884Y-57894778D02*
X57947386Y-57894778D01*
X60371866Y-59801760D02*
X58464884Y-57894778D01*
X68846205Y-59801760D02*
X60371866Y-59801760D01*
X69252899Y-60208454D02*
X68846205Y-59801760D01*
X70488997Y-59522361D02*
X69802904Y-60208454D01*
X77853540Y-59801760D02*
X77574141Y-59522361D01*
X49662080Y-55976660D02*
X49323997Y-55638577D01*
X49662080Y-63738760D02*
X49662080Y-55976660D01*
X49323997Y-55638577D02*
X49044598Y-55359178D01*
X49900840Y-63738760D02*
X49662080Y-63738760D01*
X49662080Y-63738760D02*
X48905160Y-63738760D01*
X48905160Y-63738760D02*
X48148240Y-64495680D01*
X53025040Y-66862960D02*
X49900840Y-63738760D01*
X53767564Y-52534820D02*
X52789664Y-53512720D01*
X50794363Y-63736540D02*
X51073762Y-64015939D01*
X52789664Y-53512720D02*
X51003200Y-53512720D01*
X50195701Y-57124614D02*
X50195701Y-63137878D01*
X50195701Y-63137878D02*
X50794363Y-63736540D01*
X50530513Y-56789802D02*
X50195701Y-57124614D01*
X50530513Y-53985407D02*
X50530513Y-56789802D01*
X61357521Y-52534820D02*
X53767564Y-52534820D01*
X51003200Y-53512720D02*
X50530513Y-53985407D01*
X52664322Y-64620140D02*
X53880915Y-64620140D01*
X54894376Y-65633601D02*
X68225891Y-65633601D01*
X53880915Y-64620140D02*
X54894376Y-65633601D01*
X68225891Y-65633601D02*
X69193803Y-64665689D01*
X69193803Y-64665689D02*
X69193803Y-62586407D01*
X69193803Y-62586407D02*
X70061404Y-61718806D01*
X70061404Y-61718806D02*
X70061404Y-61383455D01*
X70061404Y-61383455D02*
X70340803Y-61104056D01*
X69650288Y-59485172D02*
X69518828Y-59616632D01*
X69650288Y-55596468D02*
X69650288Y-59485172D01*
X53375560Y-65423116D02*
X53770691Y-65423116D01*
X70166847Y-64881769D02*
X70191022Y-64857594D01*
X53770691Y-65423116D02*
X54564604Y-66217029D01*
X69584689Y-64881769D02*
X70166847Y-64881769D01*
X54564604Y-66217029D02*
X68249429Y-66217029D01*
X68249429Y-66217029D02*
X69584689Y-64881769D01*
X53375560Y-65423116D02*
X53702142Y-65096534D01*
X58154848Y-58653680D02*
X59475648Y-59974480D01*
X58044080Y-58653680D02*
X58154848Y-58653680D01*
X61297820Y-62898020D02*
X61297820Y-62735460D01*
X61297820Y-62735460D02*
X62181740Y-61851540D01*
X51806493Y-61617320D02*
X51571734Y-61852079D01*
X51806493Y-56727234D02*
X51806493Y-61617320D01*
X75835567Y-60545959D02*
X75835567Y-62948492D01*
X75835567Y-62948492D02*
X76003259Y-63116184D01*
X76003259Y-63116184D02*
X76282658Y-63395583D01*
D19*
X55685840Y-69418200D02*
X55118000Y-69418200D01*
D18*
X55460900Y-69039740D02*
X55460900Y-69456300D01*
D19*
X73530460Y-52019200D02*
X73488414Y-51977154D01*
X73488414Y-51977154D02*
X73488414Y-51786654D01*
X73322571Y-66230011D02*
X73458579Y-66230011D01*
X73458579Y-66230011D02*
X74260574Y-67032006D01*
D18*
X50530760Y-68834000D02*
X51008280Y-69311520D01*
X51008280Y-69311520D02*
X53279040Y-69311520D01*
X49431553Y-64762127D02*
X49152154Y-64482728D01*
X50530760Y-65861334D02*
X49431553Y-64762127D01*
X50530760Y-68834000D02*
X50530760Y-65861334D01*
X69759576Y-65647288D02*
X70370057Y-65647288D01*
X67614264Y-67792600D02*
X69759576Y-65647288D01*
X71812389Y-62091096D02*
X71812389Y-61695965D01*
X70370057Y-65647288D02*
X71812389Y-64204956D01*
X65478660Y-67792600D02*
X67614264Y-67792600D01*
X71812389Y-64204956D02*
X71812389Y-62091096D01*
X57617360Y-55412640D02*
X57678320Y-55473600D01*
X57678320Y-55473600D02*
X57850539Y-55645819D01*
X57663080Y-54503320D02*
X57663080Y-55458360D01*
X57663080Y-55458360D02*
X57678320Y-55473600D01*
X57850539Y-55645819D02*
X57850539Y-55972560D01*
X57850539Y-55972560D02*
X57850539Y-56367691D01*
X56006989Y-56253436D02*
X55166193Y-55412640D01*
X55166193Y-55412640D02*
X55077360Y-55412640D01*
X55077360Y-55412640D02*
X55077360Y-54549040D01*
X55077360Y-54549040D02*
X55123080Y-54503320D01*
D20*
G36*
X68834767Y-67754534D02*
X68834034Y-68593784D01*
X69154525Y-69369432D01*
X69747447Y-69963389D01*
X69875112Y-70016400D01*
X58915300Y-70016400D01*
X58915300Y-69475350D01*
X58756550Y-69316600D01*
X57518300Y-69316600D01*
X57518300Y-69336600D01*
X57264300Y-69336600D01*
X57264300Y-69316600D01*
X57244300Y-69316600D01*
X57244300Y-69062600D01*
X57264300Y-69062600D01*
X57264300Y-69042600D01*
X57518300Y-69042600D01*
X57518300Y-69062600D01*
X58756550Y-69062600D01*
X58915300Y-68903850D01*
X58915300Y-68559680D01*
X60943639Y-68559680D01*
X61167156Y-68709029D01*
X61221987Y-68719936D01*
X61497642Y-68774767D01*
X64269923Y-68774767D01*
X64600408Y-68709029D01*
X64823925Y-68559680D01*
X65007807Y-68559680D01*
X65301051Y-68681446D01*
X65654717Y-68681754D01*
X65981580Y-68546697D01*
X66011830Y-68516500D01*
X67614259Y-68516500D01*
X67614264Y-68516501D01*
X67845327Y-68470539D01*
X67891289Y-68461396D01*
X68126139Y-68304475D01*
X68947450Y-67483164D01*
X68834767Y-67754534D01*
X68834767Y-67754534D01*
G37*
X68834767Y-67754534D02*
X68834034Y-68593784D01*
X69154525Y-69369432D01*
X69747447Y-69963389D01*
X69875112Y-70016400D01*
X58915300Y-70016400D01*
X58915300Y-69475350D01*
X58756550Y-69316600D01*
X57518300Y-69316600D01*
X57518300Y-69336600D01*
X57264300Y-69336600D01*
X57264300Y-69316600D01*
X57244300Y-69316600D01*
X57244300Y-69062600D01*
X57264300Y-69062600D01*
X57264300Y-69042600D01*
X57518300Y-69042600D01*
X57518300Y-69062600D01*
X58756550Y-69062600D01*
X58915300Y-68903850D01*
X58915300Y-68559680D01*
X60943639Y-68559680D01*
X61167156Y-68709029D01*
X61221987Y-68719936D01*
X61497642Y-68774767D01*
X64269923Y-68774767D01*
X64600408Y-68709029D01*
X64823925Y-68559680D01*
X65007807Y-68559680D01*
X65301051Y-68681446D01*
X65654717Y-68681754D01*
X65981580Y-68546697D01*
X66011830Y-68516500D01*
X67614259Y-68516500D01*
X67614264Y-68516501D01*
X67845327Y-68470539D01*
X67891289Y-68461396D01*
X68126139Y-68304475D01*
X68947450Y-67483164D01*
X68834767Y-67754534D01*
G36*
X73143052Y-50307868D02*
X72640634Y-50515462D01*
X72218704Y-50936657D01*
X71990075Y-51487256D01*
X71989555Y-52083436D01*
X72217222Y-52634434D01*
X72638417Y-53056364D01*
X73189016Y-53284993D01*
X73463129Y-53285232D01*
X73392230Y-53456397D01*
X73392231Y-53709016D01*
X73488903Y-53942405D01*
X74004780Y-54458281D01*
X74229286Y-54458281D01*
X75104861Y-53582706D01*
X75090719Y-53568564D01*
X75270324Y-53388959D01*
X75284466Y-53403101D01*
X75298609Y-53388959D01*
X75478214Y-53568564D01*
X75464071Y-53582706D01*
X76339646Y-54458281D01*
X76564152Y-54458281D01*
X76901401Y-54121033D01*
X77080029Y-53942404D01*
X77158799Y-53752237D01*
X80774866Y-55493306D01*
X80705342Y-55539760D01*
X79940680Y-55539760D01*
X79610195Y-55605498D01*
X79330023Y-55792702D01*
X78971935Y-56150790D01*
X78940680Y-56144573D01*
X78544756Y-56223327D01*
X78209107Y-56447600D01*
X77984834Y-56783249D01*
X77906080Y-57179173D01*
X77906080Y-57627547D01*
X77984834Y-58023471D01*
X78209107Y-58359120D01*
X78544756Y-58583393D01*
X78940680Y-58662147D01*
X79336604Y-58583393D01*
X79672253Y-58359120D01*
X79733832Y-58266960D01*
X80164726Y-58266960D01*
X80269838Y-58372072D01*
X80269838Y-59550300D01*
X80312345Y-59776204D01*
X80445854Y-59983683D01*
X80649565Y-60122873D01*
X80662267Y-60125445D01*
X80593592Y-60194120D01*
X80708182Y-60308710D01*
X80452841Y-60393767D01*
X80244864Y-60963265D01*
X80270657Y-61569000D01*
X80452841Y-62008833D01*
X80708184Y-62093891D01*
X81600775Y-61201300D01*
X81586633Y-61187158D01*
X81766238Y-61007553D01*
X81780380Y-61021695D01*
X81794523Y-61007553D01*
X81974128Y-61187158D01*
X81959985Y-61201300D01*
X81974128Y-61215443D01*
X81794523Y-61395048D01*
X81780380Y-61380905D01*
X80887789Y-62273496D01*
X80934328Y-62413206D01*
X80877965Y-62424417D01*
X80534206Y-62654110D01*
X80304513Y-62997869D01*
X80223856Y-63403360D01*
X80304513Y-63808851D01*
X80534206Y-64152610D01*
X80814251Y-64339731D01*
X77523838Y-65924004D01*
X77852189Y-65595653D01*
X77948861Y-65362264D01*
X77948862Y-65109645D01*
X77852189Y-64876256D01*
X77673561Y-64697627D01*
X77336312Y-64360379D01*
X77111806Y-64360379D01*
X76236231Y-65235954D01*
X76250374Y-65250097D01*
X76070769Y-65429702D01*
X76056626Y-65415559D01*
X76042484Y-65429702D01*
X75862879Y-65250097D01*
X75877021Y-65235954D01*
X75001446Y-64360379D01*
X74776940Y-64360379D01*
X74261063Y-64876255D01*
X74164391Y-65109644D01*
X74164390Y-65362263D01*
X74235271Y-65533384D01*
X73963792Y-65533147D01*
X73949226Y-65539166D01*
X73789064Y-65432149D01*
X73655137Y-65405509D01*
X73500180Y-65341165D01*
X73146514Y-65340857D01*
X72819651Y-65475914D01*
X72569353Y-65725775D01*
X72433725Y-66052402D01*
X72433417Y-66406068D01*
X72568474Y-66732931D01*
X72762066Y-66926861D01*
X72761957Y-67051499D01*
X72733475Y-66982568D01*
X72140553Y-66388611D01*
X71365466Y-66066767D01*
X70974669Y-66066426D01*
X72324261Y-64716833D01*
X72324264Y-64716831D01*
X72481185Y-64481981D01*
X72536289Y-64204956D01*
X72536289Y-63987680D01*
X75181051Y-63987680D01*
X75181051Y-64180774D01*
X76056626Y-65056349D01*
X76932201Y-64180774D01*
X76932201Y-64003313D01*
X76947861Y-63987680D01*
X77749400Y-63987680D01*
X77798810Y-63977674D01*
X77840435Y-63949233D01*
X77867715Y-63906839D01*
X77876400Y-63860680D01*
X77876400Y-62179173D01*
X77906080Y-62179173D01*
X77906080Y-62627547D01*
X77984834Y-63023471D01*
X78209107Y-63359120D01*
X78544756Y-63583393D01*
X78940680Y-63662147D01*
X79336604Y-63583393D01*
X79672253Y-63359120D01*
X79896526Y-63023471D01*
X79975280Y-62627547D01*
X79975280Y-62179173D01*
X79896526Y-61783249D01*
X79672253Y-61447600D01*
X79336604Y-61223327D01*
X78940680Y-61144573D01*
X78544756Y-61223327D01*
X78209107Y-61447600D01*
X77984834Y-61783249D01*
X77906080Y-62179173D01*
X77876400Y-62179173D01*
X77876400Y-61447678D01*
X78035142Y-61447816D01*
X78362005Y-61312759D01*
X78612303Y-61062898D01*
X78747931Y-60736271D01*
X78748239Y-60382605D01*
X78661807Y-60173424D01*
X78742386Y-59979369D01*
X78742694Y-59625703D01*
X78607637Y-59298840D01*
X78357776Y-59048542D01*
X78031149Y-58912914D01*
X77939870Y-58912835D01*
X77851166Y-58853565D01*
X77805204Y-58844422D01*
X77574141Y-58798460D01*
X77574136Y-58798461D01*
X76930787Y-58798461D01*
X72770212Y-54637886D01*
X74408891Y-54637886D01*
X74408891Y-54862392D01*
X74924767Y-55378269D01*
X75158156Y-55474941D01*
X75410775Y-55474942D01*
X75644164Y-55378269D01*
X75822793Y-55199641D01*
X76160041Y-54862392D01*
X76160041Y-54637886D01*
X75284466Y-53762311D01*
X74408891Y-54637886D01*
X72770212Y-54637886D01*
X69965203Y-51832877D01*
X69923189Y-51805014D01*
X69875400Y-51795680D01*
X61875810Y-51795680D01*
X61861757Y-51781602D01*
X61535130Y-51645974D01*
X61181464Y-51645666D01*
X60854601Y-51780723D01*
X60839618Y-51795680D01*
X59141360Y-51795680D01*
X59141360Y-51565810D01*
X58982610Y-51407060D01*
X57744360Y-51407060D01*
X57744360Y-51427060D01*
X57490360Y-51427060D01*
X57490360Y-51407060D01*
X57470360Y-51407060D01*
X57470360Y-51153060D01*
X57490360Y-51153060D01*
X57490360Y-51133060D01*
X57744360Y-51133060D01*
X57744360Y-51153060D01*
X58982610Y-51153060D01*
X59141360Y-50994310D01*
X59141360Y-50264750D01*
X59044687Y-50031361D01*
X58866058Y-49852733D01*
X58824695Y-49835600D01*
X72670784Y-49835600D01*
X73143052Y-50307868D01*
X73143052Y-50307868D01*
G37*
X73143052Y-50307868D02*
X72640634Y-50515462D01*
X72218704Y-50936657D01*
X71990075Y-51487256D01*
X71989555Y-52083436D01*
X72217222Y-52634434D01*
X72638417Y-53056364D01*
X73189016Y-53284993D01*
X73463129Y-53285232D01*
X73392230Y-53456397D01*
X73392231Y-53709016D01*
X73488903Y-53942405D01*
X74004780Y-54458281D01*
X74229286Y-54458281D01*
X75104861Y-53582706D01*
X75090719Y-53568564D01*
X75270324Y-53388959D01*
X75284466Y-53403101D01*
X75298609Y-53388959D01*
X75478214Y-53568564D01*
X75464071Y-53582706D01*
X76339646Y-54458281D01*
X76564152Y-54458281D01*
X76901401Y-54121033D01*
X77080029Y-53942404D01*
X77158799Y-53752237D01*
X80774866Y-55493306D01*
X80705342Y-55539760D01*
X79940680Y-55539760D01*
X79610195Y-55605498D01*
X79330023Y-55792702D01*
X78971935Y-56150790D01*
X78940680Y-56144573D01*
X78544756Y-56223327D01*
X78209107Y-56447600D01*
X77984834Y-56783249D01*
X77906080Y-57179173D01*
X77906080Y-57627547D01*
X77984834Y-58023471D01*
X78209107Y-58359120D01*
X78544756Y-58583393D01*
X78940680Y-58662147D01*
X79336604Y-58583393D01*
X79672253Y-58359120D01*
X79733832Y-58266960D01*
X80164726Y-58266960D01*
X80269838Y-58372072D01*
X80269838Y-59550300D01*
X80312345Y-59776204D01*
X80445854Y-59983683D01*
X80649565Y-60122873D01*
X80662267Y-60125445D01*
X80593592Y-60194120D01*
X80708182Y-60308710D01*
X80452841Y-60393767D01*
X80244864Y-60963265D01*
X80270657Y-61569000D01*
X80452841Y-62008833D01*
X80708184Y-62093891D01*
X81600775Y-61201300D01*
X81586633Y-61187158D01*
X81766238Y-61007553D01*
X81780380Y-61021695D01*
X81794523Y-61007553D01*
X81974128Y-61187158D01*
X81959985Y-61201300D01*
X81974128Y-61215443D01*
X81794523Y-61395048D01*
X81780380Y-61380905D01*
X80887789Y-62273496D01*
X80934328Y-62413206D01*
X80877965Y-62424417D01*
X80534206Y-62654110D01*
X80304513Y-62997869D01*
X80223856Y-63403360D01*
X80304513Y-63808851D01*
X80534206Y-64152610D01*
X80814251Y-64339731D01*
X77523838Y-65924004D01*
X77852189Y-65595653D01*
X77948861Y-65362264D01*
X77948862Y-65109645D01*
X77852189Y-64876256D01*
X77673561Y-64697627D01*
X77336312Y-64360379D01*
X77111806Y-64360379D01*
X76236231Y-65235954D01*
X76250374Y-65250097D01*
X76070769Y-65429702D01*
X76056626Y-65415559D01*
X76042484Y-65429702D01*
X75862879Y-65250097D01*
X75877021Y-65235954D01*
X75001446Y-64360379D01*
X74776940Y-64360379D01*
X74261063Y-64876255D01*
X74164391Y-65109644D01*
X74164390Y-65362263D01*
X74235271Y-65533384D01*
X73963792Y-65533147D01*
X73949226Y-65539166D01*
X73789064Y-65432149D01*
X73655137Y-65405509D01*
X73500180Y-65341165D01*
X73146514Y-65340857D01*
X72819651Y-65475914D01*
X72569353Y-65725775D01*
X72433725Y-66052402D01*
X72433417Y-66406068D01*
X72568474Y-66732931D01*
X72762066Y-66926861D01*
X72761957Y-67051499D01*
X72733475Y-66982568D01*
X72140553Y-66388611D01*
X71365466Y-66066767D01*
X70974669Y-66066426D01*
X72324261Y-64716833D01*
X72324264Y-64716831D01*
X72481185Y-64481981D01*
X72536289Y-64204956D01*
X72536289Y-63987680D01*
X75181051Y-63987680D01*
X75181051Y-64180774D01*
X76056626Y-65056349D01*
X76932201Y-64180774D01*
X76932201Y-64003313D01*
X76947861Y-63987680D01*
X77749400Y-63987680D01*
X77798810Y-63977674D01*
X77840435Y-63949233D01*
X77867715Y-63906839D01*
X77876400Y-63860680D01*
X77876400Y-62179173D01*
X77906080Y-62179173D01*
X77906080Y-62627547D01*
X77984834Y-63023471D01*
X78209107Y-63359120D01*
X78544756Y-63583393D01*
X78940680Y-63662147D01*
X79336604Y-63583393D01*
X79672253Y-63359120D01*
X79896526Y-63023471D01*
X79975280Y-62627547D01*
X79975280Y-62179173D01*
X79896526Y-61783249D01*
X79672253Y-61447600D01*
X79336604Y-61223327D01*
X78940680Y-61144573D01*
X78544756Y-61223327D01*
X78209107Y-61447600D01*
X77984834Y-61783249D01*
X77906080Y-62179173D01*
X77876400Y-62179173D01*
X77876400Y-61447678D01*
X78035142Y-61447816D01*
X78362005Y-61312759D01*
X78612303Y-61062898D01*
X78747931Y-60736271D01*
X78748239Y-60382605D01*
X78661807Y-60173424D01*
X78742386Y-59979369D01*
X78742694Y-59625703D01*
X78607637Y-59298840D01*
X78357776Y-59048542D01*
X78031149Y-58912914D01*
X77939870Y-58912835D01*
X77851166Y-58853565D01*
X77805204Y-58844422D01*
X77574141Y-58798460D01*
X77574136Y-58798461D01*
X76930787Y-58798461D01*
X72770212Y-54637886D01*
X74408891Y-54637886D01*
X74408891Y-54862392D01*
X74924767Y-55378269D01*
X75158156Y-55474941D01*
X75410775Y-55474942D01*
X75644164Y-55378269D01*
X75822793Y-55199641D01*
X76160041Y-54862392D01*
X76160041Y-54637886D01*
X75284466Y-53762311D01*
X74408891Y-54637886D01*
X72770212Y-54637886D01*
X69965203Y-51832877D01*
X69923189Y-51805014D01*
X69875400Y-51795680D01*
X61875810Y-51795680D01*
X61861757Y-51781602D01*
X61535130Y-51645974D01*
X61181464Y-51645666D01*
X60854601Y-51780723D01*
X60839618Y-51795680D01*
X59141360Y-51795680D01*
X59141360Y-51565810D01*
X58982610Y-51407060D01*
X57744360Y-51407060D01*
X57744360Y-51427060D01*
X57490360Y-51427060D01*
X57490360Y-51407060D01*
X57470360Y-51407060D01*
X57470360Y-51153060D01*
X57490360Y-51153060D01*
X57490360Y-51133060D01*
X57744360Y-51133060D01*
X57744360Y-51153060D01*
X58982610Y-51153060D01*
X59141360Y-50994310D01*
X59141360Y-50264750D01*
X59044687Y-50031361D01*
X58866058Y-49852733D01*
X58824695Y-49835600D01*
X72670784Y-49835600D01*
X73143052Y-50307868D01*
G36*
X52135922Y-66997592D02*
X52135886Y-67039017D01*
X52270943Y-67365880D01*
X52520804Y-67616178D01*
X52847431Y-67751806D01*
X53201097Y-67752114D01*
X53527960Y-67617057D01*
X53704269Y-67441056D01*
X53909809Y-67526404D01*
X54011924Y-67526493D01*
X54068002Y-67563963D01*
X54345027Y-67619067D01*
X54404101Y-67619067D01*
X54116113Y-67738061D01*
X53865815Y-67987922D01*
X53817623Y-68103982D01*
X53581590Y-68339603D01*
X53533794Y-68454708D01*
X53456649Y-68422674D01*
X53102983Y-68422366D01*
X52776120Y-68557423D01*
X52745870Y-68587620D01*
X51308129Y-68587620D01*
X51254660Y-68534150D01*
X51254660Y-66116330D01*
X52135922Y-66997592D01*
X52135922Y-66997592D01*
G37*
X52135922Y-66997592D02*
X52135886Y-67039017D01*
X52270943Y-67365880D01*
X52520804Y-67616178D01*
X52847431Y-67751806D01*
X53201097Y-67752114D01*
X53527960Y-67617057D01*
X53704269Y-67441056D01*
X53909809Y-67526404D01*
X54011924Y-67526493D01*
X54068002Y-67563963D01*
X54345027Y-67619067D01*
X54404101Y-67619067D01*
X54116113Y-67738061D01*
X53865815Y-67987922D01*
X53817623Y-68103982D01*
X53581590Y-68339603D01*
X53533794Y-68454708D01*
X53456649Y-68422674D01*
X53102983Y-68422366D01*
X52776120Y-68557423D01*
X52745870Y-68587620D01*
X51308129Y-68587620D01*
X51254660Y-68534150D01*
X51254660Y-66116330D01*
X52135922Y-66997592D01*
G36*
X63886983Y-64548730D02*
X64437582Y-64777359D01*
X65033762Y-64777879D01*
X65159950Y-64725739D01*
X65343912Y-64909701D01*
X63705740Y-64909701D01*
X63705740Y-64677290D01*
X63546990Y-64518540D01*
X62308740Y-64518540D01*
X62308740Y-64538540D01*
X62054740Y-64538540D01*
X62054740Y-64518540D01*
X62034740Y-64518540D01*
X62034740Y-64264540D01*
X62054740Y-64264540D01*
X62054740Y-64244540D01*
X62308740Y-64244540D01*
X62308740Y-64264540D01*
X63546990Y-64264540D01*
X63575164Y-64236366D01*
X63886983Y-64548730D01*
X63886983Y-64548730D01*
G37*
X63886983Y-64548730D02*
X64437582Y-64777359D01*
X65033762Y-64777879D01*
X65159950Y-64725739D01*
X65343912Y-64909701D01*
X63705740Y-64909701D01*
X63705740Y-64677290D01*
X63546990Y-64518540D01*
X62308740Y-64518540D01*
X62308740Y-64538540D01*
X62054740Y-64538540D01*
X62054740Y-64518540D01*
X62034740Y-64518540D01*
X62034740Y-64264540D01*
X62054740Y-64264540D01*
X62054740Y-64244540D01*
X62308740Y-64244540D01*
X62308740Y-64264540D01*
X63546990Y-64264540D01*
X63575164Y-64236366D01*
X63886983Y-64548730D01*
G36*
X68492750Y-61093689D02*
X68422674Y-61262451D01*
X68422637Y-61305194D01*
X67974493Y-61753337D01*
X67973368Y-61755020D01*
X67562730Y-61755020D01*
X67403980Y-61913770D01*
X67403980Y-63152020D01*
X67423980Y-63152020D01*
X67423980Y-63406020D01*
X67403980Y-63406020D01*
X67403980Y-63426020D01*
X67149980Y-63426020D01*
X67149980Y-63406020D01*
X67129980Y-63406020D01*
X67129980Y-63152020D01*
X67149980Y-63152020D01*
X67149980Y-61913770D01*
X66991230Y-61755020D01*
X66261671Y-61755020D01*
X66028282Y-61851693D01*
X65849653Y-62030321D01*
X65778773Y-62201441D01*
X65586977Y-62009310D01*
X65036378Y-61780681D01*
X64440198Y-61780161D01*
X63889200Y-62007828D01*
X63633521Y-62263061D01*
X63680079Y-62150938D01*
X63680599Y-61554758D01*
X63568130Y-61282562D01*
X65397277Y-61282562D01*
X65426544Y-61311880D01*
X65753171Y-61447508D01*
X66106837Y-61447816D01*
X66433700Y-61312759D01*
X66683998Y-61062898D01*
X66708802Y-61003163D01*
X68402224Y-61003163D01*
X68492750Y-61093689D01*
X68492750Y-61093689D01*
G37*
X68492750Y-61093689D02*
X68422674Y-61262451D01*
X68422637Y-61305194D01*
X67974493Y-61753337D01*
X67973368Y-61755020D01*
X67562730Y-61755020D01*
X67403980Y-61913770D01*
X67403980Y-63152020D01*
X67423980Y-63152020D01*
X67423980Y-63406020D01*
X67403980Y-63406020D01*
X67403980Y-63426020D01*
X67149980Y-63426020D01*
X67149980Y-63406020D01*
X67129980Y-63406020D01*
X67129980Y-63152020D01*
X67149980Y-63152020D01*
X67149980Y-61913770D01*
X66991230Y-61755020D01*
X66261671Y-61755020D01*
X66028282Y-61851693D01*
X65849653Y-62030321D01*
X65778773Y-62201441D01*
X65586977Y-62009310D01*
X65036378Y-61780681D01*
X64440198Y-61780161D01*
X63889200Y-62007828D01*
X63633521Y-62263061D01*
X63680079Y-62150938D01*
X63680599Y-61554758D01*
X63568130Y-61282562D01*
X65397277Y-61282562D01*
X65426544Y-61311880D01*
X65753171Y-61447508D01*
X66106837Y-61447816D01*
X66433700Y-61312759D01*
X66683998Y-61062898D01*
X66708802Y-61003163D01*
X68402224Y-61003163D01*
X68492750Y-61093689D01*
G36*
X56813083Y-55773030D02*
X57077679Y-55882900D01*
X57084813Y-55893577D01*
X56961693Y-56190082D01*
X56961385Y-56543748D01*
X57096442Y-56870611D01*
X57273556Y-57048035D01*
X57049335Y-57140681D01*
X56799037Y-57390542D01*
X56663409Y-57717169D01*
X56663101Y-58070835D01*
X56798158Y-58397698D01*
X57048019Y-58647996D01*
X57155046Y-58692438D01*
X57154926Y-58829737D01*
X57180063Y-58890573D01*
X56918293Y-58998734D01*
X56667995Y-59248595D01*
X56532367Y-59575222D01*
X56532330Y-59617965D01*
X56404213Y-59746081D01*
X56247292Y-59980931D01*
X56247292Y-59980932D01*
X56245391Y-59990487D01*
X56072059Y-59817154D01*
X55838670Y-59720481D01*
X55109110Y-59720481D01*
X54950360Y-59879231D01*
X54950360Y-61117481D01*
X54970360Y-61117481D01*
X54970360Y-61371481D01*
X54950360Y-61371481D01*
X54950360Y-61391481D01*
X54696360Y-61391481D01*
X54696360Y-61371481D01*
X53458110Y-61371481D01*
X53299360Y-61530231D01*
X53299360Y-62092994D01*
X53007535Y-62384818D01*
X52966110Y-62384782D01*
X52639247Y-62519839D01*
X52388949Y-62769700D01*
X52364145Y-62829435D01*
X51919747Y-62829435D01*
X51906511Y-62820591D01*
X51772477Y-62731033D01*
X52074654Y-62606176D01*
X52324952Y-62356315D01*
X52460580Y-62029688D01*
X52460679Y-61916211D01*
X52475289Y-61894345D01*
X52530393Y-61617320D01*
X52530393Y-60229172D01*
X53299360Y-60229172D01*
X53299360Y-60958731D01*
X53458110Y-61117481D01*
X54696360Y-61117481D01*
X54696360Y-59879231D01*
X54537610Y-59720481D01*
X53808050Y-59720481D01*
X53574661Y-59817154D01*
X53396033Y-59995783D01*
X53299360Y-60229172D01*
X52530393Y-60229172D01*
X52530393Y-57260737D01*
X52559711Y-57231470D01*
X52619418Y-57087680D01*
X52869206Y-57337905D01*
X53195833Y-57473533D01*
X53549499Y-57473841D01*
X53876362Y-57338784D01*
X54126660Y-57088923D01*
X54262288Y-56762296D01*
X54262596Y-56408630D01*
X54127539Y-56081767D01*
X54015583Y-55969615D01*
X54234080Y-56013862D01*
X54699203Y-56013862D01*
X54800335Y-56081436D01*
X54813947Y-56084144D01*
X55117871Y-56388068D01*
X55117835Y-56429493D01*
X55252892Y-56756356D01*
X55502753Y-57006654D01*
X55829380Y-57142282D01*
X56183046Y-57142590D01*
X56509909Y-57007533D01*
X56760207Y-56757672D01*
X56895835Y-56431045D01*
X56896143Y-56077379D01*
X56761086Y-55750516D01*
X56594815Y-55583954D01*
X56599794Y-55559368D01*
X56813083Y-55773030D01*
X56813083Y-55773030D01*
G37*
X56813083Y-55773030D02*
X57077679Y-55882900D01*
X57084813Y-55893577D01*
X56961693Y-56190082D01*
X56961385Y-56543748D01*
X57096442Y-56870611D01*
X57273556Y-57048035D01*
X57049335Y-57140681D01*
X56799037Y-57390542D01*
X56663409Y-57717169D01*
X56663101Y-58070835D01*
X56798158Y-58397698D01*
X57048019Y-58647996D01*
X57155046Y-58692438D01*
X57154926Y-58829737D01*
X57180063Y-58890573D01*
X56918293Y-58998734D01*
X56667995Y-59248595D01*
X56532367Y-59575222D01*
X56532330Y-59617965D01*
X56404213Y-59746081D01*
X56247292Y-59980931D01*
X56247292Y-59980932D01*
X56245391Y-59990487D01*
X56072059Y-59817154D01*
X55838670Y-59720481D01*
X55109110Y-59720481D01*
X54950360Y-59879231D01*
X54950360Y-61117481D01*
X54970360Y-61117481D01*
X54970360Y-61371481D01*
X54950360Y-61371481D01*
X54950360Y-61391481D01*
X54696360Y-61391481D01*
X54696360Y-61371481D01*
X53458110Y-61371481D01*
X53299360Y-61530231D01*
X53299360Y-62092994D01*
X53007535Y-62384818D01*
X52966110Y-62384782D01*
X52639247Y-62519839D01*
X52388949Y-62769700D01*
X52364145Y-62829435D01*
X51919747Y-62829435D01*
X51906511Y-62820591D01*
X51772477Y-62731033D01*
X52074654Y-62606176D01*
X52324952Y-62356315D01*
X52460580Y-62029688D01*
X52460679Y-61916211D01*
X52475289Y-61894345D01*
X52530393Y-61617320D01*
X52530393Y-60229172D01*
X53299360Y-60229172D01*
X53299360Y-60958731D01*
X53458110Y-61117481D01*
X54696360Y-61117481D01*
X54696360Y-59879231D01*
X54537610Y-59720481D01*
X53808050Y-59720481D01*
X53574661Y-59817154D01*
X53396033Y-59995783D01*
X53299360Y-60229172D01*
X52530393Y-60229172D01*
X52530393Y-57260737D01*
X52559711Y-57231470D01*
X52619418Y-57087680D01*
X52869206Y-57337905D01*
X53195833Y-57473533D01*
X53549499Y-57473841D01*
X53876362Y-57338784D01*
X54126660Y-57088923D01*
X54262288Y-56762296D01*
X54262596Y-56408630D01*
X54127539Y-56081767D01*
X54015583Y-55969615D01*
X54234080Y-56013862D01*
X54699203Y-56013862D01*
X54800335Y-56081436D01*
X54813947Y-56084144D01*
X55117871Y-56388068D01*
X55117835Y-56429493D01*
X55252892Y-56756356D01*
X55502753Y-57006654D01*
X55829380Y-57142282D01*
X56183046Y-57142590D01*
X56509909Y-57007533D01*
X56760207Y-56757672D01*
X56895835Y-56431045D01*
X56896143Y-56077379D01*
X56761086Y-55750516D01*
X56594815Y-55583954D01*
X56599794Y-55559368D01*
X56813083Y-55773030D01*
G36*
X75301575Y-58798461D02*
X70489002Y-58798461D01*
X70488997Y-58798460D01*
X70374188Y-58821298D01*
X70374188Y-56129971D01*
X70403506Y-56100704D01*
X70539134Y-55774077D01*
X70539442Y-55420411D01*
X70404385Y-55093548D01*
X70154524Y-54843250D01*
X69827897Y-54707622D01*
X69474231Y-54707314D01*
X69147368Y-54842371D01*
X68897070Y-55092232D01*
X68761442Y-55418859D01*
X68761134Y-55772525D01*
X68896191Y-56099388D01*
X68926388Y-56129638D01*
X68926388Y-58951899D01*
X68800206Y-59077860D01*
X66461800Y-59077860D01*
X66609262Y-58857166D01*
X66675000Y-58526680D01*
X66609262Y-58196195D01*
X66422058Y-57916023D01*
X65913000Y-57406966D01*
X65913000Y-54462680D01*
X65847262Y-54132195D01*
X65660057Y-53852023D01*
X65379885Y-53664818D01*
X65339230Y-53656731D01*
X65464196Y-53469705D01*
X65519300Y-53192680D01*
X65494038Y-53065680D01*
X69568794Y-53065680D01*
X75301575Y-58798461D01*
X75301575Y-58798461D01*
G37*
X75301575Y-58798461D02*
X70489002Y-58798461D01*
X70488997Y-58798460D01*
X70374188Y-58821298D01*
X70374188Y-56129971D01*
X70403506Y-56100704D01*
X70539134Y-55774077D01*
X70539442Y-55420411D01*
X70404385Y-55093548D01*
X70154524Y-54843250D01*
X69827897Y-54707622D01*
X69474231Y-54707314D01*
X69147368Y-54842371D01*
X68897070Y-55092232D01*
X68761442Y-55418859D01*
X68761134Y-55772525D01*
X68896191Y-56099388D01*
X68926388Y-56129638D01*
X68926388Y-58951899D01*
X68800206Y-59077860D01*
X66461800Y-59077860D01*
X66609262Y-58857166D01*
X66675000Y-58526680D01*
X66609262Y-58196195D01*
X66422058Y-57916023D01*
X65913000Y-57406966D01*
X65913000Y-54462680D01*
X65847262Y-54132195D01*
X65660057Y-53852023D01*
X65379885Y-53664818D01*
X65339230Y-53656731D01*
X65464196Y-53469705D01*
X65519300Y-53192680D01*
X65494038Y-53065680D01*
X69568794Y-53065680D01*
X75301575Y-58798461D01*
G36*
X62759525Y-53188805D02*
X62602604Y-53423655D01*
X62602604Y-53423656D01*
X62547499Y-53700680D01*
X62547500Y-53700685D01*
X62547500Y-54208680D01*
X62602604Y-54485705D01*
X62759525Y-54720555D01*
X62994375Y-54877476D01*
X63271400Y-54932580D01*
X63779395Y-54932580D01*
X63779400Y-54932581D01*
X64010463Y-54886619D01*
X64056425Y-54877476D01*
X64185800Y-54791031D01*
X64185800Y-57764680D01*
X64251538Y-58095165D01*
X64438743Y-58375337D01*
X65141265Y-59077860D01*
X60671715Y-59077860D01*
X58976759Y-57382903D01*
X58855195Y-57301677D01*
X58741909Y-57225982D01*
X58695947Y-57216839D01*
X58464884Y-57170877D01*
X58464879Y-57170878D01*
X58234652Y-57170878D01*
X58353459Y-57121788D01*
X58603757Y-56871927D01*
X58739385Y-56545300D01*
X58739693Y-56191634D01*
X58604636Y-55864771D01*
X58574439Y-55834521D01*
X58574439Y-55711044D01*
X58932790Y-55353317D01*
X59161419Y-54802718D01*
X59161939Y-54206538D01*
X58934272Y-53655540D01*
X58538143Y-53258720D01*
X60824018Y-53258720D01*
X60853285Y-53288038D01*
X61179912Y-53423666D01*
X61533578Y-53423974D01*
X61860441Y-53288917D01*
X62084068Y-53065680D01*
X62882650Y-53065680D01*
X62759525Y-53188805D01*
X62759525Y-53188805D01*
G37*
X62759525Y-53188805D02*
X62602604Y-53423655D01*
X62602604Y-53423656D01*
X62547499Y-53700680D01*
X62547500Y-53700685D01*
X62547500Y-54208680D01*
X62602604Y-54485705D01*
X62759525Y-54720555D01*
X62994375Y-54877476D01*
X63271400Y-54932580D01*
X63779395Y-54932580D01*
X63779400Y-54932581D01*
X64010463Y-54886619D01*
X64056425Y-54877476D01*
X64185800Y-54791031D01*
X64185800Y-57764680D01*
X64251538Y-58095165D01*
X64438743Y-58375337D01*
X65141265Y-59077860D01*
X60671715Y-59077860D01*
X58976759Y-57382903D01*
X58855195Y-57301677D01*
X58741909Y-57225982D01*
X58695947Y-57216839D01*
X58464884Y-57170877D01*
X58464879Y-57170878D01*
X58234652Y-57170878D01*
X58353459Y-57121788D01*
X58603757Y-56871927D01*
X58739385Y-56545300D01*
X58739693Y-56191634D01*
X58604636Y-55864771D01*
X58574439Y-55834521D01*
X58574439Y-55711044D01*
X58932790Y-55353317D01*
X59161419Y-54802718D01*
X59161939Y-54206538D01*
X58934272Y-53655540D01*
X58538143Y-53258720D01*
X60824018Y-53258720D01*
X60853285Y-53288038D01*
X61179912Y-53423666D01*
X61533578Y-53423974D01*
X61860441Y-53288917D01*
X62084068Y-53065680D01*
X62882650Y-53065680D01*
X62759525Y-53188805D01*
G36*
X53612538Y-55392320D02*
X53655045Y-55618224D01*
X53761120Y-55783070D01*
X53551051Y-55695841D01*
X53508309Y-55695804D01*
X53436042Y-55623537D01*
X53378904Y-55585359D01*
X53201192Y-55466616D01*
X53155230Y-55457473D01*
X52924167Y-55411511D01*
X52924162Y-55411512D01*
X51522417Y-55411512D01*
X51254413Y-55464822D01*
X51254413Y-54285257D01*
X51303049Y-54236620D01*
X52789659Y-54236620D01*
X52789664Y-54236621D01*
X53020727Y-54190659D01*
X53066689Y-54181516D01*
X53301539Y-54024595D01*
X53612538Y-53713596D01*
X53612538Y-55392320D01*
X53612538Y-55392320D01*
G37*
X53612538Y-55392320D02*
X53655045Y-55618224D01*
X53761120Y-55783070D01*
X53551051Y-55695841D01*
X53508309Y-55695804D01*
X53436042Y-55623537D01*
X53378904Y-55585359D01*
X53201192Y-55466616D01*
X53155230Y-55457473D01*
X52924167Y-55411511D01*
X52924162Y-55411512D01*
X51522417Y-55411512D01*
X51254413Y-55464822D01*
X51254413Y-54285257D01*
X51303049Y-54236620D01*
X52789659Y-54236620D01*
X52789664Y-54236621D01*
X53020727Y-54190659D01*
X53066689Y-54181516D01*
X53301539Y-54024595D01*
X53612538Y-53713596D01*
X53612538Y-55392320D01*
M02*
