M48
;DRILL file {KiCad 4.0.4+e1-6308~48~ubuntu16.04.1-stable} date Tue Sep 13 21:39:48 2016
;FORMAT={-:-/ absolute / inch / decimal}
FMAT,2
INCH,TZ
T1C0.013
T2C0.016
T3C0.075
%
G90
G05
M72
T1
X1.8956Y-2.5392
X1.9309Y-2.1795
X1.9351Y-2.5387
X1.9995Y-2.4439
X2.0008Y-2.3307
X2.0108Y-2.5203
X2.0157Y-2.2616
X2.0233Y-2.4707
X2.0304Y-2.4351
X2.0396Y-2.2334
X2.0431Y-2.6663
X2.0694Y-2.1469
X2.0734Y-2.5441
X2.0876Y-2.6324
X2.0922Y-2.4911
X2.0976Y-2.7288
X2.1013Y-2.2277
X2.1014Y-2.5757
X2.1232Y-2.3504
X2.1294Y-2.6235
X2.1504Y-2.6965
X2.1724Y-2.5046
X2.1727Y-1.9998
X2.205Y-2.2147
X2.2171Y-2.4466
X2.2377Y-2.2225
X2.24Y-2.5209
X2.2607Y-2.3525
X2.2641Y-2.4417
X2.2658Y-2.2793
X2.2685Y-1.9989
X2.2776Y-2.2192
X2.2789Y-2.7284
X2.2852Y-2.3092
X2.292Y-2.4813
X2.307Y-2.5138
X2.3362Y-2.2465
X2.3416Y-2.3598
X2.3862Y-2.1617
X2.411Y-2.2742
X2.4133Y-2.4763
X2.4157Y-2.0683
X2.4395Y-2.6447
X2.4481Y-2.5351
X2.4944Y-2.2736
X2.5392Y-2.3088
X2.5473Y-2.4787
X2.5779Y-2.669
X2.5934Y-2.7024
X2.5957Y-2.3842
X2.6173Y-2.5108
X2.6437Y-2.3998
X2.6652Y-2.6314
X2.6893Y-1.9948
X2.694Y-2.543
X2.7288Y-2.4189
X2.737Y-2.3471
X2.7421Y-2.1888
X2.7485Y-2.5163
X2.7634Y-2.5534
X2.7693Y-2.4057
X2.821Y-2.2023
X2.8273Y-2.429
X2.8362Y-2.384
X2.8867Y-2.6075
X2.8949Y-2.048
X2.9049Y-2.4663
X2.9857Y-2.3837
X3.0033Y-2.4959
X3.0201Y-2.1194
X3.0455Y-2.3113
X3.0651Y-2.3544
X3.0653Y-2.3842
T3
X2.045Y-2.0345
X2.7931Y-2.6841
T2
X3.1079Y-2.2659G85X3.1079Y-2.2541
G05
X3.1079Y-2.4627G85X3.1079Y-2.4509
G05
X3.2024Y-2.2206G85X3.226Y-2.2206
G05
X3.2024Y-2.4962G85X3.226Y-2.4962
G05
T0
M30
