G04 #@! TF.FileFunction,Legend,Top*
%FSLAX46Y46*%
G04 Gerber Fmt 4.6, Leading zero omitted, Abs format (unit mm)*
G04 Created by KiCad (PCBNEW 4.0.4+e1-6308~48~ubuntu16.04.1-stable) date Tue Sep 13 21:39:42 2016*
%MOMM*%
%LPD*%
G01*
G04 APERTURE LIST*
%ADD10C,0.150000*%
%ADD11C,0.200000*%
%ADD12C,0.100000*%
%ADD13C,0.127000*%
%ADD14C,0.381000*%
%ADD15C,0.250000*%
%ADD16C,0.099060*%
%ADD17C,0.152400*%
G04 APERTURE END LIST*
D10*
D11*
X63271400Y-53700680D02*
X63271400Y-54208680D01*
X63779400Y-53192680D02*
X63271400Y-53700680D01*
X64795400Y-53192680D02*
X63779400Y-53192680D01*
X64287400Y-52684680D02*
X64795400Y-53192680D01*
X64287400Y-53700680D02*
X64287400Y-52684680D01*
X63779400Y-54208680D02*
X64287400Y-53700680D01*
X63271400Y-54208680D02*
X63779400Y-54208680D01*
D12*
X72944000Y-70676000D02*
X49944000Y-70676000D01*
X72944000Y-49176000D02*
X49944000Y-49176000D01*
X49944000Y-70676000D02*
X45444000Y-66176000D01*
X45444000Y-53676000D02*
X49944000Y-49176000D01*
X83194000Y-63926000D02*
X76444000Y-67176000D01*
X83194000Y-55926000D02*
X83194000Y-63926000D01*
X76444000Y-52676000D02*
X83194000Y-55926000D01*
X45444000Y-53676000D02*
X45444000Y-66176000D01*
X72944000Y-49176000D02*
X76444000Y-52676000D01*
X72944000Y-70676000D02*
X76444000Y-67176000D01*
D13*
X50703480Y-68646040D02*
X52989480Y-68646040D01*
X52989480Y-68646040D02*
X52989480Y-69916040D01*
X52989480Y-69916040D02*
X50703480Y-69916040D01*
X50703480Y-69916040D02*
X50703480Y-68646040D01*
X52720240Y-55999380D02*
X52720240Y-53713380D01*
X52720240Y-53713380D02*
X53990240Y-53713380D01*
X53990240Y-53713380D02*
X53990240Y-55999380D01*
X53990240Y-55999380D02*
X52720240Y-55999380D01*
X58105040Y-53637180D02*
X58105040Y-55923180D01*
X58105040Y-55923180D02*
X56835040Y-55923180D01*
X56835040Y-55923180D02*
X56835040Y-53637180D01*
X56835040Y-53637180D02*
X58105040Y-53637180D01*
X49795230Y-58745056D02*
X48178784Y-57128610D01*
X48178784Y-57128610D02*
X49076810Y-56230584D01*
X49076810Y-56230584D02*
X50693256Y-57847030D01*
X50693256Y-57847030D02*
X49795230Y-58745056D01*
D14*
X69690800Y-61574420D02*
X69990800Y-61574420D01*
X69990800Y-61574420D02*
X69990800Y-61874420D01*
X66890800Y-65174420D02*
X66590800Y-65174420D01*
X66590800Y-65174420D02*
X66590800Y-64874420D01*
X66590800Y-61874420D02*
X66590800Y-61574420D01*
X66590800Y-61574420D02*
X66890800Y-61574420D01*
X69690800Y-65174420D02*
X69990800Y-65174420D01*
X69990800Y-65174420D02*
X69990800Y-64874420D01*
D15*
X57671640Y-50719760D02*
X57671640Y-50319760D01*
X57671640Y-50319760D02*
X57271640Y-50319760D01*
X57271640Y-52519760D02*
X57671640Y-52519760D01*
X57671640Y-52519760D02*
X57671640Y-52119760D01*
X57371640Y-50619760D02*
X57371640Y-50519760D01*
X57271640Y-50619760D02*
X55471640Y-50619760D01*
X55371640Y-50619760D02*
X55371640Y-50719760D01*
X57371640Y-52219760D02*
X57371640Y-52319760D01*
X57271640Y-52219760D02*
X55471640Y-52219760D01*
X55371640Y-52219760D02*
X55371640Y-52119760D01*
D10*
X78290680Y-58053360D02*
X78290680Y-56153360D01*
X78290680Y-56153360D02*
X80840680Y-56153360D01*
X80840680Y-63653360D02*
X78290680Y-63653360D01*
X78290680Y-63653360D02*
X78290680Y-61753360D01*
X83640680Y-56153360D02*
X82490680Y-56153360D01*
X83640680Y-63653360D02*
X82590680Y-63653360D01*
X83640680Y-62253360D02*
X83640680Y-63653360D01*
X83640680Y-57553360D02*
X83640680Y-56153360D01*
X83640680Y-62253360D02*
X83640680Y-57553360D01*
D13*
X52511960Y-53695600D02*
X52511960Y-55981600D01*
X52511960Y-55981600D02*
X51241960Y-55981600D01*
X51241960Y-55981600D02*
X51241960Y-53695600D01*
X51241960Y-53695600D02*
X52511960Y-53695600D01*
X64782700Y-61859160D02*
X64782700Y-59573160D01*
X64782700Y-59573160D02*
X66052700Y-59573160D01*
X66052700Y-59573160D02*
X66052700Y-61859160D01*
X66052700Y-61859160D02*
X64782700Y-61859160D01*
X65963800Y-58351420D02*
X65963800Y-56065420D01*
X65963800Y-56065420D02*
X67233800Y-56065420D01*
X67233800Y-56065420D02*
X67233800Y-58351420D01*
X67233800Y-58351420D02*
X65963800Y-58351420D01*
X53461920Y-68676520D02*
X55747920Y-68676520D01*
X55747920Y-68676520D02*
X55747920Y-69946520D01*
X55747920Y-69946520D02*
X53461920Y-69946520D01*
X53461920Y-69946520D02*
X53461920Y-68676520D01*
D14*
X53856480Y-64469820D02*
X53856480Y-64169820D01*
X53856480Y-64169820D02*
X54156480Y-64169820D01*
X57456480Y-67269820D02*
X57456480Y-67569820D01*
X57456480Y-67569820D02*
X57156480Y-67569820D01*
X54156480Y-67569820D02*
X53856480Y-67569820D01*
X53856480Y-67569820D02*
X53856480Y-67269820D01*
X57456480Y-64469820D02*
X57456480Y-64169820D01*
X57456480Y-64169820D02*
X57156480Y-64169820D01*
X51453683Y-68193522D02*
X51241551Y-68405654D01*
X51241551Y-68405654D02*
X51029419Y-68193522D01*
X50887997Y-63668038D02*
X51100129Y-63455906D01*
X51100129Y-63455906D02*
X51312261Y-63668038D01*
X53433582Y-65789359D02*
X53645714Y-66001491D01*
X53645714Y-66001491D02*
X53433582Y-66213623D01*
X48908098Y-65647937D02*
X48695966Y-65860069D01*
X48695966Y-65860069D02*
X48908098Y-66072201D01*
D10*
X57865860Y-65914805D02*
X57441596Y-65490541D01*
X57441596Y-65490541D02*
X57865860Y-65066277D01*
X58007281Y-65773384D02*
X57795149Y-65561252D01*
X57795149Y-65561252D02*
X57724438Y-65490541D01*
X57724438Y-65490541D02*
X58007281Y-65207699D01*
X61825658Y-65349120D02*
X61967079Y-65207699D01*
X61967079Y-65207699D02*
X61825658Y-65066277D01*
X59987180Y-63510642D02*
X60128601Y-63369221D01*
X60128601Y-63369221D02*
X60270023Y-63510642D01*
X58148702Y-65349120D02*
X58007281Y-65490541D01*
X58007281Y-65490541D02*
X58148702Y-65631963D01*
X59987180Y-67187598D02*
X59845759Y-67329019D01*
X59845759Y-67329019D02*
X59704337Y-67187598D01*
X51179280Y-61950160D02*
X51179280Y-62450160D01*
X51179280Y-62450160D02*
X51679280Y-62450160D01*
X56679280Y-61950160D02*
X56679280Y-62450160D01*
X56679280Y-62450160D02*
X56179280Y-62450160D01*
X56179280Y-56950160D02*
X56679280Y-56950160D01*
X56679280Y-56950160D02*
X56679280Y-57450160D01*
X50929280Y-57200160D02*
X50929280Y-56700160D01*
X50929280Y-56700160D02*
X51429280Y-56700160D01*
X51679280Y-56950160D02*
X51179280Y-56950160D01*
X51179280Y-56950160D02*
X51179280Y-57450160D01*
X58201480Y-58236100D02*
X57801480Y-58236100D01*
X57801480Y-58236100D02*
X57801480Y-58636100D01*
X58001480Y-58736100D02*
X58001480Y-58436100D01*
X58001480Y-58436100D02*
X58301480Y-58436100D01*
X61801480Y-61836100D02*
X62001480Y-61836100D01*
X62001480Y-61836100D02*
X62001480Y-61636100D01*
X58401480Y-61836100D02*
X58201480Y-61836100D01*
X58201480Y-61836100D02*
X58201480Y-61636100D01*
X61801480Y-58636100D02*
X62001480Y-58636100D01*
X62001480Y-58636100D02*
X62001480Y-58836100D01*
X58401480Y-58636100D02*
X58201480Y-58636100D01*
X58201480Y-58636100D02*
X58201480Y-58836100D01*
X60060840Y-50544780D02*
X60060840Y-50593040D01*
X60761880Y-53343760D02*
X60060840Y-53343760D01*
X60060840Y-53343760D02*
X60060840Y-53094840D01*
X60060840Y-50544780D02*
X60060840Y-50344120D01*
X60060840Y-50344120D02*
X60761880Y-50344120D01*
D14*
X61533180Y-56787240D02*
X61533180Y-57087240D01*
X61533180Y-57087240D02*
X61233180Y-57087240D01*
X57933180Y-53987240D02*
X57933180Y-53687240D01*
X57933180Y-53687240D02*
X58233180Y-53687240D01*
X61233180Y-53687240D02*
X61533180Y-53687240D01*
X61533180Y-53687240D02*
X61533180Y-53987240D01*
X57933180Y-56787240D02*
X57933180Y-57087240D01*
X57933180Y-57087240D02*
X58233180Y-57087240D01*
D16*
X75535822Y-56212109D02*
G75*
G03X75535822Y-56212109I-127000J0D01*
G01*
X76217045Y-55403886D02*
X75498625Y-56122306D01*
X75498625Y-56122306D02*
X74420994Y-55044675D01*
X74420994Y-55044675D02*
X75139414Y-54326255D01*
X75857835Y-53607834D02*
X76576255Y-52889414D01*
X76576255Y-52889414D02*
X77653886Y-53967045D01*
X77653886Y-53967045D02*
X76935466Y-54685465D01*
D15*
X57076820Y-69869280D02*
X57076820Y-70269280D01*
X57076820Y-70269280D02*
X57476820Y-70269280D01*
X57476820Y-68069280D02*
X57076820Y-68069280D01*
X57076820Y-68069280D02*
X57076820Y-68469280D01*
X57376820Y-69969280D02*
X57376820Y-70069280D01*
X57476820Y-69969280D02*
X59276820Y-69969280D01*
X59376820Y-69969280D02*
X59376820Y-69869280D01*
X57376820Y-68369280D02*
X57376820Y-68269280D01*
X57476820Y-68369280D02*
X59276820Y-68369280D01*
X59376820Y-68369280D02*
X59376820Y-68469280D01*
X67219040Y-51870840D02*
X67219040Y-52270840D01*
X67219040Y-52270840D02*
X67619040Y-52270840D01*
X67619040Y-50070840D02*
X67219040Y-50070840D01*
X67219040Y-50070840D02*
X67219040Y-50470840D01*
X67519040Y-51970840D02*
X67519040Y-52070840D01*
X67619040Y-51970840D02*
X69419040Y-51970840D01*
X69519040Y-51970840D02*
X69519040Y-51870840D01*
X67519040Y-50370840D02*
X67519040Y-50270840D01*
X67619040Y-50370840D02*
X69419040Y-50370840D01*
X69519040Y-50370840D02*
X69519040Y-50470840D01*
X73205820Y-63090020D02*
X73205820Y-63490020D01*
X73205820Y-63490020D02*
X73605820Y-63490020D01*
X73605820Y-61290020D02*
X73205820Y-61290020D01*
X73205820Y-61290020D02*
X73205820Y-61690020D01*
X73505820Y-63190020D02*
X73505820Y-63290020D01*
X73605820Y-63190020D02*
X75405820Y-63190020D01*
X75505820Y-63190020D02*
X75505820Y-63090020D01*
X73505820Y-61590020D02*
X73505820Y-61490020D01*
X73605820Y-61590020D02*
X75405820Y-61590020D01*
X75505820Y-61590020D02*
X75505820Y-61690020D01*
D10*
X61147960Y-67509440D02*
X61147960Y-67557700D01*
X61849000Y-70308420D02*
X61147960Y-70308420D01*
X61147960Y-70308420D02*
X61147960Y-70059500D01*
X61147960Y-67509440D02*
X61147960Y-67308780D01*
X61147960Y-67308780D02*
X61849000Y-67308780D01*
X73184234Y-52986056D02*
X73150109Y-52951931D01*
X70709346Y-51502588D02*
X71205056Y-51006878D01*
X71205056Y-51006878D02*
X71381069Y-51182891D01*
X73184234Y-52986056D02*
X73326122Y-53127944D01*
X73326122Y-53127944D02*
X72830412Y-53623654D01*
X72408664Y-67009494D02*
X72442789Y-66975369D01*
X73892132Y-64534606D02*
X74387842Y-65030316D01*
X74387842Y-65030316D02*
X74211829Y-65206329D01*
X72408664Y-67009494D02*
X72266776Y-67151382D01*
X72266776Y-67151382D02*
X71771066Y-66655672D01*
D14*
X76155100Y-56750860D02*
X76455100Y-56750860D01*
X76455100Y-56750860D02*
X76455100Y-57050860D01*
X73355100Y-60350860D02*
X73055100Y-60350860D01*
X73055100Y-60350860D02*
X73055100Y-60050860D01*
X73055100Y-57050860D02*
X73055100Y-56750860D01*
X73055100Y-56750860D02*
X73355100Y-56750860D01*
X76155100Y-60350860D02*
X76455100Y-60350860D01*
X76455100Y-60350860D02*
X76455100Y-60050860D01*
D10*
X71533440Y-56484020D02*
X71533440Y-56284020D01*
X71533440Y-56284020D02*
X68333440Y-56284020D01*
X68333440Y-56284020D02*
X68333440Y-56484020D01*
X72133440Y-59284020D02*
X72133440Y-60084020D01*
X72133440Y-60084020D02*
X71333440Y-60084020D01*
X71333440Y-59884020D02*
X71933440Y-59884020D01*
X71933440Y-59884020D02*
X71933440Y-59284020D01*
X71733440Y-59284020D02*
X71733440Y-59484020D01*
X71733440Y-59484020D02*
X71733440Y-59684020D01*
X71733440Y-59684020D02*
X71333440Y-59684020D01*
X69933440Y-59484020D02*
X71533440Y-59484020D01*
X71533440Y-59484020D02*
X71533440Y-59284020D01*
X69933440Y-59484020D02*
X68333440Y-59484020D01*
X68333440Y-59484020D02*
X68333440Y-59284020D01*
D16*
X74498831Y-64522382D02*
G75*
G03X74498831Y-64522382I-127000J0D01*
G01*
X75180054Y-65330605D02*
X74461634Y-64612185D01*
X74461634Y-64612185D02*
X75539265Y-63534554D01*
X75539265Y-63534554D02*
X76257685Y-64252974D01*
X76976106Y-64971395D02*
X77694526Y-65689815D01*
X77694526Y-65689815D02*
X76616895Y-66767446D01*
X76616895Y-66767446D02*
X75898475Y-66049026D01*
X76849002Y-57454169D02*
G75*
G03X76849002Y-57454169I-127000J0D01*
G01*
X77530225Y-56645946D02*
X76811805Y-57364366D01*
X76811805Y-57364366D02*
X75734174Y-56286735D01*
X75734174Y-56286735D02*
X76452594Y-55568315D01*
X77171015Y-54849894D02*
X77889435Y-54131474D01*
X77889435Y-54131474D02*
X78967066Y-55209105D01*
X78967066Y-55209105D02*
X78248646Y-55927525D01*
D10*
X64766320Y-65405700D02*
G75*
G03X64766320Y-65405700I-100000J0D01*
G01*
X64116320Y-65155700D02*
X64616320Y-65155700D01*
X64116320Y-62255700D02*
X64116320Y-65155700D01*
X64616320Y-62255700D02*
X64116320Y-62255700D01*
X64616320Y-65155700D02*
X64616320Y-62255700D01*
X65898980Y-68936340D02*
G75*
G03X65898980Y-68936340I-100000J0D01*
G01*
X65248980Y-68686340D02*
X65748980Y-68686340D01*
X65248980Y-65786340D02*
X65248980Y-68686340D01*
X65748980Y-65786340D02*
X65248980Y-65786340D01*
X65748980Y-68686340D02*
X65748980Y-65786340D01*
X63770460Y-57808600D02*
G75*
G03X63770460Y-57808600I-100000J0D01*
G01*
X63120460Y-57558600D02*
X63620460Y-57558600D01*
X63120460Y-54658600D02*
X63120460Y-57558600D01*
X63620460Y-54658600D02*
X63120460Y-54658600D01*
X63620460Y-57558600D02*
X63620460Y-54658600D01*
D15*
X47101760Y-55316120D02*
X46085760Y-55316120D01*
X47228760Y-57602120D02*
X47228760Y-62682120D01*
X45958760Y-57602120D02*
X45958760Y-62682120D01*
D16*
X47116181Y-67367370D02*
G75*
G03X47116181Y-67367370I-127000J0D01*
G01*
X47797404Y-66559147D02*
X47078984Y-67277567D01*
X47078984Y-67277567D02*
X46001353Y-66199936D01*
X46001353Y-66199936D02*
X46719773Y-65481516D01*
X47438194Y-64763095D02*
X48156614Y-64044675D01*
X48156614Y-64044675D02*
X49234245Y-65122306D01*
X49234245Y-65122306D02*
X48515825Y-65840726D01*
X46235832Y-53556783D02*
G75*
G03X46235832Y-53556783I-127000J0D01*
G01*
X46917055Y-54365006D02*
X46198635Y-53646586D01*
X46198635Y-53646586D02*
X47276266Y-52568955D01*
X47276266Y-52568955D02*
X47994686Y-53287375D01*
X48713107Y-54005796D02*
X49431527Y-54724216D01*
X49431527Y-54724216D02*
X48353896Y-55801847D01*
X48353896Y-55801847D02*
X47635476Y-55083427D01*
D13*
X49340570Y-54206076D02*
X47724124Y-52589630D01*
X47724124Y-52589630D02*
X48622150Y-51691604D01*
X48622150Y-51691604D02*
X50238596Y-53308050D01*
X50238596Y-53308050D02*
X49340570Y-54206076D01*
X49564090Y-69192076D02*
X47947644Y-67575630D01*
X47947644Y-67575630D02*
X48845670Y-66677604D01*
X48845670Y-66677604D02*
X50462116Y-68294050D01*
X50462116Y-68294050D02*
X49564090Y-69192076D01*
X70637400Y-64881760D02*
X70637400Y-62595760D01*
X70637400Y-62595760D02*
X71907400Y-62595760D01*
X71907400Y-62595760D02*
X71907400Y-64881760D01*
X71907400Y-64881760D02*
X70637400Y-64881760D01*
X51089560Y-53848000D02*
X51089560Y-56134000D01*
X51089560Y-56134000D02*
X49819560Y-56134000D01*
X49819560Y-56134000D02*
X49819560Y-53848000D01*
X49819560Y-53848000D02*
X51089560Y-53848000D01*
D10*
X68938520Y-53026200D02*
X66938520Y-53026200D01*
X66938520Y-55076200D02*
X68938520Y-55076200D01*
D17*
X52730400Y-68523394D02*
X52476400Y-68160537D01*
X52294972Y-68523394D02*
X52294972Y-67761394D01*
X52585257Y-67761394D01*
X52657829Y-67797680D01*
X52694114Y-67833966D01*
X52730400Y-67906537D01*
X52730400Y-68015394D01*
X52694114Y-68087966D01*
X52657829Y-68124251D01*
X52585257Y-68160537D01*
X52294972Y-68160537D01*
X53419829Y-67761394D02*
X53056972Y-67761394D01*
X53020686Y-68124251D01*
X53056972Y-68087966D01*
X53129543Y-68051680D01*
X53310972Y-68051680D01*
X53383543Y-68087966D01*
X53419829Y-68124251D01*
X53456114Y-68196823D01*
X53456114Y-68378251D01*
X53419829Y-68450823D01*
X53383543Y-68487109D01*
X53310972Y-68523394D01*
X53129543Y-68523394D01*
X53056972Y-68487109D01*
X53020686Y-68450823D01*
X53721000Y-53261623D02*
X53684714Y-53297909D01*
X53575857Y-53334194D01*
X53503286Y-53334194D01*
X53394429Y-53297909D01*
X53321857Y-53225337D01*
X53285572Y-53152766D01*
X53249286Y-53007623D01*
X53249286Y-52898766D01*
X53285572Y-52753623D01*
X53321857Y-52681051D01*
X53394429Y-52608480D01*
X53503286Y-52572194D01*
X53575857Y-52572194D01*
X53684714Y-52608480D01*
X53721000Y-52644766D01*
X54446714Y-53334194D02*
X54011286Y-53334194D01*
X54229000Y-53334194D02*
X54229000Y-52572194D01*
X54156429Y-52681051D01*
X54083857Y-52753623D01*
X54011286Y-52789909D01*
X57150000Y-53332743D02*
X57113714Y-53369029D01*
X57004857Y-53405314D01*
X56932286Y-53405314D01*
X56823429Y-53369029D01*
X56750857Y-53296457D01*
X56714572Y-53223886D01*
X56678286Y-53078743D01*
X56678286Y-52969886D01*
X56714572Y-52824743D01*
X56750857Y-52752171D01*
X56823429Y-52679600D01*
X56932286Y-52643314D01*
X57004857Y-52643314D01*
X57113714Y-52679600D01*
X57150000Y-52715886D01*
X57440286Y-52715886D02*
X57476572Y-52679600D01*
X57549143Y-52643314D01*
X57730572Y-52643314D01*
X57803143Y-52679600D01*
X57839429Y-52715886D01*
X57875714Y-52788457D01*
X57875714Y-52861029D01*
X57839429Y-52969886D01*
X57404000Y-53405314D01*
X57875714Y-53405314D01*
X48255757Y-58488478D02*
X48204441Y-58488478D01*
X48101810Y-58437161D01*
X48050495Y-58385846D01*
X47999179Y-58283215D01*
X47999179Y-58180583D01*
X48024837Y-58103610D01*
X48101810Y-57975320D01*
X48178784Y-57898347D01*
X48307073Y-57821373D01*
X48384047Y-57795714D01*
X48486679Y-57795715D01*
X48589310Y-57847031D01*
X48640626Y-57898346D01*
X48691941Y-58000978D01*
X48691941Y-58052294D01*
X48922862Y-58180583D02*
X49256414Y-58514135D01*
X48871546Y-58539793D01*
X48948520Y-58616767D01*
X48974178Y-58693741D01*
X48974178Y-58745056D01*
X48948520Y-58822030D01*
X48820231Y-58950319D01*
X48743257Y-58975978D01*
X48691941Y-58975978D01*
X48614968Y-58950319D01*
X48461020Y-58796372D01*
X48435362Y-58719399D01*
X48435362Y-58668083D01*
X67764657Y-61146563D02*
X67728371Y-61182849D01*
X67619514Y-61219134D01*
X67546943Y-61219134D01*
X67438086Y-61182849D01*
X67365514Y-61110277D01*
X67329229Y-61037706D01*
X67292943Y-60892563D01*
X67292943Y-60783706D01*
X67329229Y-60638563D01*
X67365514Y-60565991D01*
X67438086Y-60493420D01*
X67546943Y-60457134D01*
X67619514Y-60457134D01*
X67728371Y-60493420D01*
X67764657Y-60529706D01*
X68091229Y-61219134D02*
X68091229Y-60457134D01*
X68526657Y-61219134D01*
X68526657Y-60457134D01*
X69288657Y-61219134D02*
X68853229Y-61219134D01*
X69070943Y-61219134D02*
X69070943Y-60457134D01*
X68998372Y-60565991D01*
X68925800Y-60638563D01*
X68853229Y-60674849D01*
X67715674Y-63637460D02*
X67715674Y-64072888D01*
X67715674Y-63855174D02*
X66953674Y-63855174D01*
X67062531Y-63927745D01*
X67135103Y-64000317D01*
X67171389Y-64072888D01*
X67207674Y-62984317D02*
X67715674Y-62984317D01*
X67207674Y-63310888D02*
X67606817Y-63310888D01*
X67679389Y-63274603D01*
X67715674Y-63202031D01*
X67715674Y-63093174D01*
X67679389Y-63020603D01*
X67643103Y-62984317D01*
X59013634Y-51961868D02*
X58251634Y-51961868D01*
X58251634Y-51780440D01*
X58287920Y-51671583D01*
X58360491Y-51599011D01*
X58433063Y-51562726D01*
X58578206Y-51526440D01*
X58687063Y-51526440D01*
X58832206Y-51562726D01*
X58904777Y-51599011D01*
X58977349Y-51671583D01*
X59013634Y-51780440D01*
X59013634Y-51961868D01*
X58251634Y-51054726D02*
X58251634Y-50982154D01*
X58287920Y-50909583D01*
X58324206Y-50873297D01*
X58396777Y-50837011D01*
X58541920Y-50800726D01*
X58723349Y-50800726D01*
X58868491Y-50837011D01*
X58941063Y-50873297D01*
X58977349Y-50909583D01*
X59013634Y-50982154D01*
X59013634Y-51054726D01*
X58977349Y-51127297D01*
X58941063Y-51163583D01*
X58868491Y-51199868D01*
X58723349Y-51236154D01*
X58541920Y-51236154D01*
X58396777Y-51199868D01*
X58324206Y-51163583D01*
X58287920Y-51127297D01*
X58251634Y-51054726D01*
X77906154Y-63087068D02*
X77144154Y-63087068D01*
X77144154Y-62796783D01*
X77180440Y-62724211D01*
X77216726Y-62687926D01*
X77289297Y-62651640D01*
X77398154Y-62651640D01*
X77470726Y-62687926D01*
X77507011Y-62724211D01*
X77543297Y-62796783D01*
X77543297Y-63087068D01*
X77906154Y-61925926D02*
X77906154Y-62361354D01*
X77906154Y-62143640D02*
X77144154Y-62143640D01*
X77253011Y-62216211D01*
X77325583Y-62288783D01*
X77361869Y-62361354D01*
X78438829Y-63870114D02*
X78438829Y-64486971D01*
X78475114Y-64559543D01*
X78511400Y-64595829D01*
X78583971Y-64632114D01*
X78729114Y-64632114D01*
X78801686Y-64595829D01*
X78837971Y-64559543D01*
X78874257Y-64486971D01*
X78874257Y-63870114D01*
X79200829Y-64595829D02*
X79309686Y-64632114D01*
X79491115Y-64632114D01*
X79563686Y-64595829D01*
X79599972Y-64559543D01*
X79636257Y-64486971D01*
X79636257Y-64414400D01*
X79599972Y-64341829D01*
X79563686Y-64305543D01*
X79491115Y-64269257D01*
X79345972Y-64232971D01*
X79273400Y-64196686D01*
X79237115Y-64160400D01*
X79200829Y-64087829D01*
X79200829Y-64015257D01*
X79237115Y-63942686D01*
X79273400Y-63906400D01*
X79345972Y-63870114D01*
X79527400Y-63870114D01*
X79636257Y-63906400D01*
X80216829Y-64232971D02*
X80325686Y-64269257D01*
X80361971Y-64305543D01*
X80398257Y-64378114D01*
X80398257Y-64486971D01*
X80361971Y-64559543D01*
X80325686Y-64595829D01*
X80253114Y-64632114D01*
X79962829Y-64632114D01*
X79962829Y-63870114D01*
X80216829Y-63870114D01*
X80289400Y-63906400D01*
X80325686Y-63942686D01*
X80361971Y-64015257D01*
X80361971Y-64087829D01*
X80325686Y-64160400D01*
X80289400Y-64196686D01*
X80216829Y-64232971D01*
X79962829Y-64232971D01*
X50606960Y-53623754D02*
X50352960Y-53260897D01*
X50171532Y-53623754D02*
X50171532Y-52861754D01*
X50461817Y-52861754D01*
X50534389Y-52898040D01*
X50570674Y-52934326D01*
X50606960Y-53006897D01*
X50606960Y-53115754D01*
X50570674Y-53188326D01*
X50534389Y-53224611D01*
X50461817Y-53260897D01*
X50171532Y-53260897D01*
X51332674Y-53623754D02*
X50897246Y-53623754D01*
X51114960Y-53623754D02*
X51114960Y-52861754D01*
X51042389Y-52970611D01*
X50969817Y-53043183D01*
X50897246Y-53079469D01*
X64492414Y-60843160D02*
X64129557Y-61097160D01*
X64492414Y-61278588D02*
X63730414Y-61278588D01*
X63730414Y-60988303D01*
X63766700Y-60915731D01*
X63802986Y-60879446D01*
X63875557Y-60843160D01*
X63984414Y-60843160D01*
X64056986Y-60879446D01*
X64093271Y-60915731D01*
X64129557Y-60988303D01*
X64129557Y-61278588D01*
X63802986Y-60552874D02*
X63766700Y-60516588D01*
X63730414Y-60444017D01*
X63730414Y-60262588D01*
X63766700Y-60190017D01*
X63802986Y-60153731D01*
X63875557Y-60117446D01*
X63948129Y-60117446D01*
X64056986Y-60153731D01*
X64492414Y-60589160D01*
X64492414Y-60117446D01*
X64922400Y-58363394D02*
X64668400Y-58000537D01*
X64486972Y-58363394D02*
X64486972Y-57601394D01*
X64777257Y-57601394D01*
X64849829Y-57637680D01*
X64886114Y-57673966D01*
X64922400Y-57746537D01*
X64922400Y-57855394D01*
X64886114Y-57927966D01*
X64849829Y-57964251D01*
X64777257Y-58000537D01*
X64486972Y-58000537D01*
X65176400Y-57601394D02*
X65648114Y-57601394D01*
X65394114Y-57891680D01*
X65502972Y-57891680D01*
X65575543Y-57927966D01*
X65611829Y-57964251D01*
X65648114Y-58036823D01*
X65648114Y-58218251D01*
X65611829Y-58290823D01*
X65575543Y-58327109D01*
X65502972Y-58363394D01*
X65285257Y-58363394D01*
X65212686Y-58327109D01*
X65176400Y-58290823D01*
X54477920Y-68386234D02*
X54223920Y-68023377D01*
X54042492Y-68386234D02*
X54042492Y-67624234D01*
X54332777Y-67624234D01*
X54405349Y-67660520D01*
X54441634Y-67696806D01*
X54477920Y-67769377D01*
X54477920Y-67878234D01*
X54441634Y-67950806D01*
X54405349Y-67987091D01*
X54332777Y-68023377D01*
X54042492Y-68023377D01*
X55131063Y-67878234D02*
X55131063Y-68386234D01*
X54949634Y-67587949D02*
X54768206Y-68132234D01*
X55239920Y-68132234D01*
X56649257Y-63951394D02*
X56395257Y-63588537D01*
X56213829Y-63951394D02*
X56213829Y-63189394D01*
X56504114Y-63189394D01*
X56576686Y-63225680D01*
X56612971Y-63261966D01*
X56649257Y-63334537D01*
X56649257Y-63443394D01*
X56612971Y-63515966D01*
X56576686Y-63552251D01*
X56504114Y-63588537D01*
X56213829Y-63588537D01*
X56975829Y-63951394D02*
X56975829Y-63189394D01*
X57411257Y-63951394D01*
X57411257Y-63189394D01*
X58173257Y-63951394D02*
X57737829Y-63951394D01*
X57955543Y-63951394D02*
X57955543Y-63189394D01*
X57882972Y-63298251D01*
X57810400Y-63370823D01*
X57737829Y-63407109D01*
X54981909Y-68062534D02*
X54981909Y-68570534D01*
X54800480Y-67772249D02*
X54619052Y-68316534D01*
X55090766Y-68316534D01*
X55381052Y-68497963D02*
X55417337Y-68534249D01*
X55381052Y-68570534D01*
X55344766Y-68534249D01*
X55381052Y-68497963D01*
X55381052Y-68570534D01*
X55671337Y-67808534D02*
X56179337Y-67808534D01*
X55852766Y-68570534D01*
X56469623Y-68570534D02*
X56469623Y-67808534D01*
X56542194Y-68280249D02*
X56759908Y-68570534D01*
X56759908Y-68062534D02*
X56469623Y-68352820D01*
X49173110Y-63968469D02*
X48736927Y-63891495D01*
X48865216Y-64276363D02*
X48326401Y-63737548D01*
X48531663Y-63532285D01*
X48608638Y-63506627D01*
X48659953Y-63506628D01*
X48736927Y-63532285D01*
X48813900Y-63609259D01*
X48839558Y-63686233D01*
X48839558Y-63737548D01*
X48813900Y-63814522D01*
X48608638Y-64019784D01*
X49404032Y-63737548D02*
X48865216Y-63198732D01*
X49711926Y-63429654D01*
X49173110Y-62890838D01*
X49455348Y-62711233D02*
X49455348Y-62659917D01*
X49481005Y-62582943D01*
X49609295Y-62454654D01*
X49686268Y-62428996D01*
X49737584Y-62428996D01*
X49814557Y-62454654D01*
X49865873Y-62505971D01*
X49917190Y-62608601D01*
X49917189Y-63224390D01*
X50250741Y-62890838D01*
X52428581Y-63625713D02*
X52069371Y-63984923D01*
X52505554Y-63292161D02*
X51992398Y-63548740D01*
X52325950Y-63882292D01*
X52402923Y-64215845D02*
X52402923Y-64267160D01*
X52351608Y-64267160D01*
X52351607Y-64215845D01*
X52402923Y-64215845D01*
X52351608Y-64267160D01*
X53095686Y-63933607D02*
X53454896Y-64292817D01*
X52685160Y-64600712D01*
X53121344Y-65036896D02*
X53660159Y-64498081D01*
X53377922Y-64882949D02*
X53326606Y-65242159D01*
X53685817Y-64882948D02*
X53275291Y-64882949D01*
X58103953Y-66269875D02*
X57667769Y-66706058D01*
X57642111Y-66783032D01*
X57642111Y-66834348D01*
X57667769Y-66911321D01*
X57770400Y-67013952D01*
X57847374Y-67039611D01*
X57898689Y-67039610D01*
X57975663Y-67013952D01*
X58411847Y-66577769D01*
X58411847Y-67655399D02*
X58103953Y-67347505D01*
X58257900Y-67501452D02*
X58796715Y-66962637D01*
X58668427Y-66988295D01*
X58565794Y-66988295D01*
X58488821Y-66962638D01*
X60223336Y-62767642D02*
X60274651Y-62870274D01*
X60274650Y-62921589D01*
X60248993Y-62998563D01*
X60172019Y-63075536D01*
X60095045Y-63101194D01*
X60043730Y-63101195D01*
X59966756Y-63075536D01*
X59761494Y-62870274D01*
X60300309Y-62331459D01*
X60479914Y-62511064D01*
X60505572Y-62588037D01*
X60505572Y-62639353D01*
X60479913Y-62716326D01*
X60428597Y-62767642D01*
X60351624Y-62793300D01*
X60300308Y-62793300D01*
X60223336Y-62767642D01*
X60043730Y-62588037D01*
X60300309Y-63409089D02*
X60839124Y-62870274D01*
X60633861Y-63434747D01*
X61198335Y-63229484D01*
X60659519Y-63768300D01*
X60916098Y-64024878D02*
X61454913Y-63486063D01*
X61660176Y-63691325D01*
X61685834Y-63768300D01*
X61685833Y-63819615D01*
X61660176Y-63896588D01*
X61583202Y-63973562D01*
X61506228Y-63999220D01*
X61454913Y-63999220D01*
X61377939Y-63973562D01*
X61172677Y-63768300D01*
X61916754Y-64050536D02*
X61968071Y-64050536D01*
X62045044Y-64076194D01*
X62173334Y-64204483D01*
X62198991Y-64281457D01*
X62198991Y-64332773D01*
X62173333Y-64409746D01*
X62122017Y-64461062D01*
X62019386Y-64512378D01*
X61403597Y-64512377D01*
X61737149Y-64845930D01*
X62352938Y-64845930D02*
X62327280Y-64768956D01*
X62327281Y-64717641D01*
X62352938Y-64640667D01*
X62378596Y-64615009D01*
X62455570Y-64589352D01*
X62506885Y-64589351D01*
X62583859Y-64615009D01*
X62686491Y-64717641D01*
X62712148Y-64794614D01*
X62712148Y-64845930D01*
X62686490Y-64922903D01*
X62660832Y-64948561D01*
X62583859Y-64974219D01*
X62532543Y-64974219D01*
X62455570Y-64948562D01*
X62352938Y-64845930D01*
X62275965Y-64820271D01*
X62224649Y-64820272D01*
X62147675Y-64845930D01*
X62045044Y-64948561D01*
X62019386Y-65025535D01*
X62019385Y-65076851D01*
X62045044Y-65153824D01*
X62147676Y-65256456D01*
X62224649Y-65282114D01*
X62275965Y-65282114D01*
X62352938Y-65256455D01*
X62455569Y-65153824D01*
X62481228Y-65076851D01*
X62481228Y-65025535D01*
X62455570Y-64948562D01*
X63122674Y-65153824D02*
X63173990Y-65205140D01*
X63199648Y-65282113D01*
X63199648Y-65333429D01*
X63173990Y-65410403D01*
X63097016Y-65538692D01*
X62968726Y-65666982D01*
X62840438Y-65743955D01*
X62763464Y-65769613D01*
X62712148Y-65769613D01*
X62635175Y-65743955D01*
X62583859Y-65692639D01*
X62558201Y-65615666D01*
X62558201Y-65564350D01*
X62583859Y-65487376D01*
X62660832Y-65359088D01*
X62789122Y-65230798D01*
X62917412Y-65153824D01*
X62994384Y-65128166D01*
X63045701Y-65128166D01*
X63122674Y-65153824D01*
X49228829Y-59379394D02*
X49228829Y-59996251D01*
X49265114Y-60068823D01*
X49301400Y-60105109D01*
X49373971Y-60141394D01*
X49519114Y-60141394D01*
X49591686Y-60105109D01*
X49627971Y-60068823D01*
X49664257Y-59996251D01*
X49664257Y-59379394D01*
X49990829Y-59451966D02*
X50027115Y-59415680D01*
X50099686Y-59379394D01*
X50281115Y-59379394D01*
X50353686Y-59415680D01*
X50389972Y-59451966D01*
X50426257Y-59524537D01*
X50426257Y-59597109D01*
X50389972Y-59705966D01*
X49954543Y-60141394D01*
X50426257Y-60141394D01*
X47976971Y-63425250D02*
X47976971Y-63171250D01*
X48376114Y-63062393D02*
X48376114Y-63425250D01*
X47614114Y-63425250D01*
X47614114Y-63062393D01*
X48339829Y-62772107D02*
X48376114Y-62663250D01*
X48376114Y-62481821D01*
X48339829Y-62409250D01*
X48303543Y-62372964D01*
X48230971Y-62336679D01*
X48158400Y-62336679D01*
X48085829Y-62372964D01*
X48049543Y-62409250D01*
X48013257Y-62481821D01*
X47976971Y-62626964D01*
X47940686Y-62699536D01*
X47904400Y-62735821D01*
X47831829Y-62772107D01*
X47759257Y-62772107D01*
X47686686Y-62735821D01*
X47650400Y-62699536D01*
X47614114Y-62626964D01*
X47614114Y-62445536D01*
X47650400Y-62336679D01*
X48376114Y-62010107D02*
X47614114Y-62010107D01*
X47614114Y-61719822D01*
X47650400Y-61647250D01*
X47686686Y-61610965D01*
X47759257Y-61574679D01*
X47868114Y-61574679D01*
X47940686Y-61610965D01*
X47976971Y-61647250D01*
X48013257Y-61719822D01*
X48013257Y-62010107D01*
X47940686Y-61139250D02*
X47904400Y-61211822D01*
X47868114Y-61248107D01*
X47795543Y-61284393D01*
X47759257Y-61284393D01*
X47686686Y-61248107D01*
X47650400Y-61211822D01*
X47614114Y-61139250D01*
X47614114Y-60994107D01*
X47650400Y-60921536D01*
X47686686Y-60885250D01*
X47759257Y-60848965D01*
X47795543Y-60848965D01*
X47868114Y-60885250D01*
X47904400Y-60921536D01*
X47940686Y-60994107D01*
X47940686Y-61139250D01*
X47976971Y-61211822D01*
X48013257Y-61248107D01*
X48085829Y-61284393D01*
X48230971Y-61284393D01*
X48303543Y-61248107D01*
X48339829Y-61211822D01*
X48376114Y-61139250D01*
X48376114Y-60994107D01*
X48339829Y-60921536D01*
X48303543Y-60885250D01*
X48230971Y-60848965D01*
X48085829Y-60848965D01*
X48013257Y-60885250D01*
X47976971Y-60921536D01*
X47940686Y-60994107D01*
X47686686Y-60558679D02*
X47650400Y-60522393D01*
X47614114Y-60449822D01*
X47614114Y-60268393D01*
X47650400Y-60195822D01*
X47686686Y-60159536D01*
X47759257Y-60123251D01*
X47831829Y-60123251D01*
X47940686Y-60159536D01*
X48376114Y-60594965D01*
X48376114Y-60123251D01*
X47940686Y-59687822D02*
X47904400Y-59760394D01*
X47868114Y-59796679D01*
X47795543Y-59832965D01*
X47759257Y-59832965D01*
X47686686Y-59796679D01*
X47650400Y-59760394D01*
X47614114Y-59687822D01*
X47614114Y-59542679D01*
X47650400Y-59470108D01*
X47686686Y-59433822D01*
X47759257Y-59397537D01*
X47795543Y-59397537D01*
X47868114Y-59433822D01*
X47904400Y-59470108D01*
X47940686Y-59542679D01*
X47940686Y-59687822D01*
X47976971Y-59760394D01*
X48013257Y-59796679D01*
X48085829Y-59832965D01*
X48230971Y-59832965D01*
X48303543Y-59796679D01*
X48339829Y-59760394D01*
X48376114Y-59687822D01*
X48376114Y-59542679D01*
X48339829Y-59470108D01*
X48303543Y-59433822D01*
X48230971Y-59397537D01*
X48085829Y-59397537D01*
X48013257Y-59433822D01*
X47976971Y-59470108D01*
X47940686Y-59542679D01*
X47614114Y-58708108D02*
X47614114Y-59070965D01*
X47976971Y-59107251D01*
X47940686Y-59070965D01*
X47904400Y-58998394D01*
X47904400Y-58816965D01*
X47940686Y-58744394D01*
X47976971Y-58708108D01*
X48049543Y-58671823D01*
X48230971Y-58671823D01*
X48303543Y-58708108D01*
X48339829Y-58744394D01*
X48376114Y-58816965D01*
X48376114Y-58998394D01*
X48339829Y-59070965D01*
X48303543Y-59107251D01*
X58880829Y-57093394D02*
X58880829Y-57710251D01*
X58917114Y-57782823D01*
X58953400Y-57819109D01*
X59025971Y-57855394D01*
X59171114Y-57855394D01*
X59243686Y-57819109D01*
X59279971Y-57782823D01*
X59316257Y-57710251D01*
X59316257Y-57093394D01*
X59606543Y-57093394D02*
X60078257Y-57093394D01*
X59824257Y-57383680D01*
X59933115Y-57383680D01*
X60005686Y-57419966D01*
X60041972Y-57456251D01*
X60078257Y-57528823D01*
X60078257Y-57710251D01*
X60041972Y-57782823D01*
X60005686Y-57819109D01*
X59933115Y-57855394D01*
X59715400Y-57855394D01*
X59642829Y-57819109D01*
X59606543Y-57782823D01*
X54750063Y-52528134D02*
X55258063Y-53290134D01*
X55258063Y-52528134D02*
X54750063Y-53290134D01*
X55947491Y-53290134D02*
X55512063Y-53290134D01*
X55729777Y-53290134D02*
X55729777Y-52528134D01*
X55657206Y-52636991D01*
X55584634Y-52709563D01*
X55512063Y-52745849D01*
X63251806Y-51670131D02*
X63215520Y-51742703D01*
X63142949Y-51815274D01*
X63034091Y-51924131D01*
X62997806Y-51996703D01*
X62997806Y-52069274D01*
X63179234Y-52032989D02*
X63142949Y-52105560D01*
X63070377Y-52178131D01*
X62925234Y-52214417D01*
X62671234Y-52214417D01*
X62526091Y-52178131D01*
X62453520Y-52105560D01*
X62417234Y-52032989D01*
X62417234Y-51887846D01*
X62453520Y-51815274D01*
X62526091Y-51742703D01*
X62671234Y-51706417D01*
X62925234Y-51706417D01*
X63070377Y-51742703D01*
X63142949Y-51815274D01*
X63179234Y-51887846D01*
X63179234Y-52032989D01*
X62417234Y-51234703D02*
X62417234Y-51162131D01*
X62453520Y-51089560D01*
X62489806Y-51053274D01*
X62562377Y-51016988D01*
X62707520Y-50980703D01*
X62888949Y-50980703D01*
X63034091Y-51016988D01*
X63106663Y-51053274D01*
X63142949Y-51089560D01*
X63179234Y-51162131D01*
X63179234Y-51234703D01*
X63142949Y-51307274D01*
X63106663Y-51343560D01*
X63034091Y-51379845D01*
X62888949Y-51416131D01*
X62707520Y-51416131D01*
X62562377Y-51379845D01*
X62489806Y-51343560D01*
X62453520Y-51307274D01*
X62417234Y-51234703D01*
X58935257Y-53718823D02*
X58898971Y-53755109D01*
X58790114Y-53791394D01*
X58717543Y-53791394D01*
X58608686Y-53755109D01*
X58536114Y-53682537D01*
X58499829Y-53609966D01*
X58463543Y-53464823D01*
X58463543Y-53355966D01*
X58499829Y-53210823D01*
X58536114Y-53138251D01*
X58608686Y-53065680D01*
X58717543Y-53029394D01*
X58790114Y-53029394D01*
X58898971Y-53065680D01*
X58935257Y-53101966D01*
X59261829Y-53791394D02*
X59261829Y-53029394D01*
X59697257Y-53791394D01*
X59697257Y-53029394D01*
X60023829Y-53101966D02*
X60060115Y-53065680D01*
X60132686Y-53029394D01*
X60314115Y-53029394D01*
X60386686Y-53065680D01*
X60422972Y-53101966D01*
X60459257Y-53174537D01*
X60459257Y-53247109D01*
X60422972Y-53355966D01*
X59987543Y-53791394D01*
X60459257Y-53791394D01*
X62128400Y-54299394D02*
X61692972Y-54299394D01*
X61910686Y-54299394D02*
X61910686Y-53537394D01*
X61838115Y-53646251D01*
X61765543Y-53718823D01*
X61692972Y-53755109D01*
X62781543Y-53791394D02*
X62781543Y-54299394D01*
X62454972Y-53791394D02*
X62454972Y-54190537D01*
X62491257Y-54263109D01*
X62563829Y-54299394D01*
X62672686Y-54299394D01*
X62745257Y-54263109D01*
X62781543Y-54226823D01*
X77184974Y-54995380D02*
X77723789Y-54456565D01*
X77852078Y-54584854D01*
X77903394Y-54687485D01*
X77903394Y-54790117D01*
X77877735Y-54867090D01*
X77800762Y-54995380D01*
X77723788Y-55072353D01*
X77595499Y-55149327D01*
X77518526Y-55174985D01*
X77415894Y-55174985D01*
X77313263Y-55123669D01*
X77184974Y-54995380D01*
X78493525Y-55226301D02*
X78390893Y-55123669D01*
X78313920Y-55098012D01*
X78262604Y-55098012D01*
X78134315Y-55123670D01*
X78006025Y-55200643D01*
X77800763Y-55405906D01*
X77775105Y-55482880D01*
X77775104Y-55534195D01*
X77800763Y-55611169D01*
X77903394Y-55713800D01*
X77980367Y-55739459D01*
X78031683Y-55739459D01*
X78108657Y-55713800D01*
X78236946Y-55585511D01*
X78262604Y-55508537D01*
X78262604Y-55457222D01*
X78236946Y-55380248D01*
X78134315Y-55277617D01*
X78057341Y-55251959D01*
X78006026Y-55251959D01*
X77929052Y-55277617D01*
X60168972Y-70301394D02*
X60168972Y-69539394D01*
X60350400Y-69539394D01*
X60459257Y-69575680D01*
X60531829Y-69648251D01*
X60568114Y-69720823D01*
X60604400Y-69865966D01*
X60604400Y-69974823D01*
X60568114Y-70119966D01*
X60531829Y-70192537D01*
X60459257Y-70265109D01*
X60350400Y-70301394D01*
X60168972Y-70301394D01*
X61330114Y-70301394D02*
X60894686Y-70301394D01*
X61112400Y-70301394D02*
X61112400Y-69539394D01*
X61039829Y-69648251D01*
X60967257Y-69720823D01*
X60894686Y-69757109D01*
X70844133Y-50933446D02*
X70305318Y-50394631D01*
X70433607Y-50266342D01*
X70536238Y-50215026D01*
X70638870Y-50215026D01*
X70715843Y-50240685D01*
X70844133Y-50317658D01*
X70921106Y-50394632D01*
X70998080Y-50522921D01*
X71023738Y-50599894D01*
X71023738Y-50702526D01*
X70972422Y-50805157D01*
X70844133Y-50933446D01*
X70869791Y-49932790D02*
X70869791Y-49881474D01*
X70895448Y-49804500D01*
X71023738Y-49676210D01*
X71100712Y-49650553D01*
X71152028Y-49650553D01*
X71229001Y-49676211D01*
X71280317Y-49727527D01*
X71331633Y-49830158D01*
X71331632Y-50445947D01*
X71665184Y-50112395D01*
X73905292Y-61243754D02*
X73905292Y-60481754D01*
X74086720Y-60481754D01*
X74195577Y-60518040D01*
X74268149Y-60590611D01*
X74304434Y-60663183D01*
X74340720Y-60808326D01*
X74340720Y-60917183D01*
X74304434Y-61062326D01*
X74268149Y-61134897D01*
X74195577Y-61207469D01*
X74086720Y-61243754D01*
X73905292Y-61243754D01*
X74594720Y-60481754D02*
X75066434Y-60481754D01*
X74812434Y-60772040D01*
X74921292Y-60772040D01*
X74993863Y-60808326D01*
X75030149Y-60844611D01*
X75066434Y-60917183D01*
X75066434Y-61098611D01*
X75030149Y-61171183D01*
X74993863Y-61207469D01*
X74921292Y-61243754D01*
X74703577Y-61243754D01*
X74631006Y-61207469D01*
X74594720Y-61171183D01*
X62690829Y-67071966D02*
X62618257Y-67035680D01*
X62545686Y-66963109D01*
X62436829Y-66854251D01*
X62364257Y-66817966D01*
X62291686Y-66817966D01*
X62327971Y-66999394D02*
X62255400Y-66963109D01*
X62182829Y-66890537D01*
X62146543Y-66745394D01*
X62146543Y-66491394D01*
X62182829Y-66346251D01*
X62255400Y-66273680D01*
X62327971Y-66237394D01*
X62473114Y-66237394D01*
X62545686Y-66273680D01*
X62618257Y-66346251D01*
X62654543Y-66491394D01*
X62654543Y-66745394D01*
X62618257Y-66890537D01*
X62545686Y-66963109D01*
X62473114Y-66999394D01*
X62327971Y-66999394D01*
X63380257Y-66999394D02*
X62944829Y-66999394D01*
X63162543Y-66999394D02*
X63162543Y-66237394D01*
X63089972Y-66346251D01*
X63017400Y-66418823D01*
X62944829Y-66455109D01*
X73050409Y-51179960D02*
X73024751Y-51102986D01*
X73024751Y-51000355D01*
X73024751Y-50846407D01*
X72999093Y-50769434D01*
X72947777Y-50718118D01*
X72845146Y-50872065D02*
X72819488Y-50795092D01*
X72819488Y-50692460D01*
X72896462Y-50564171D01*
X73076067Y-50384566D01*
X73204357Y-50307592D01*
X73306987Y-50307592D01*
X73383961Y-50333249D01*
X73486593Y-50435881D01*
X73512251Y-50512855D01*
X73512251Y-50615486D01*
X73435277Y-50743776D01*
X73255672Y-50923381D01*
X73127382Y-51000354D01*
X73024751Y-51000355D01*
X72947777Y-50974696D01*
X72845146Y-50872065D01*
X73768829Y-50820750D02*
X73820145Y-50820750D01*
X73897119Y-50846407D01*
X74025409Y-50974697D01*
X74051066Y-51051671D01*
X74051066Y-51102987D01*
X74025408Y-51179960D01*
X73974092Y-51231276D01*
X73871461Y-51282592D01*
X73255672Y-51282591D01*
X73589224Y-51616143D01*
X74702260Y-67568431D02*
X74625286Y-67594089D01*
X74522655Y-67594089D01*
X74368707Y-67594089D01*
X74291734Y-67619747D01*
X74240418Y-67671063D01*
X74394365Y-67773694D02*
X74317392Y-67799352D01*
X74214760Y-67799352D01*
X74086471Y-67722378D01*
X73906866Y-67542773D01*
X73829892Y-67414483D01*
X73829892Y-67311853D01*
X73855549Y-67234879D01*
X73958181Y-67132247D01*
X74035155Y-67106589D01*
X74137786Y-67106589D01*
X74266076Y-67183563D01*
X74445681Y-67363168D01*
X74522654Y-67491458D01*
X74522655Y-67594089D01*
X74496996Y-67671063D01*
X74394365Y-67773694D01*
X74266076Y-66824353D02*
X74599628Y-66490800D01*
X74625286Y-66875669D01*
X74702260Y-66798695D01*
X74779234Y-66773037D01*
X74830549Y-66773036D01*
X74907523Y-66798695D01*
X75035812Y-66926984D01*
X75061471Y-67003958D01*
X75061471Y-67055274D01*
X75035812Y-67132247D01*
X74881865Y-67286194D01*
X74804892Y-67311853D01*
X74753576Y-67311853D01*
X72956057Y-56321234D02*
X72702057Y-55958377D01*
X72520629Y-56321234D02*
X72520629Y-55559234D01*
X72810914Y-55559234D01*
X72883486Y-55595520D01*
X72919771Y-55631806D01*
X72956057Y-55704377D01*
X72956057Y-55813234D01*
X72919771Y-55885806D01*
X72883486Y-55922091D01*
X72810914Y-55958377D01*
X72520629Y-55958377D01*
X73282629Y-56321234D02*
X73282629Y-55559234D01*
X73718057Y-56321234D01*
X73718057Y-55559234D01*
X74008343Y-55559234D02*
X74480057Y-55559234D01*
X74226057Y-55849520D01*
X74334915Y-55849520D01*
X74407486Y-55885806D01*
X74443772Y-55922091D01*
X74480057Y-55994663D01*
X74480057Y-56176091D01*
X74443772Y-56248663D01*
X74407486Y-56284949D01*
X74334915Y-56321234D01*
X74117200Y-56321234D01*
X74044629Y-56284949D01*
X74008343Y-56248663D01*
X76824114Y-59234251D02*
X77332114Y-59234251D01*
X76533829Y-59415680D02*
X77078114Y-59597108D01*
X77078114Y-59125394D01*
X77259543Y-58835108D02*
X77295829Y-58798823D01*
X77332114Y-58835108D01*
X77295829Y-58871394D01*
X77259543Y-58835108D01*
X77332114Y-58835108D01*
X76570114Y-58544823D02*
X76570114Y-58036823D01*
X77332114Y-58363394D01*
X77332114Y-57746537D02*
X76570114Y-57746537D01*
X77041829Y-57673966D02*
X77332114Y-57456252D01*
X76824114Y-57456252D02*
X77114400Y-57746537D01*
X69352869Y-59666734D02*
X69352869Y-60283591D01*
X69389154Y-60356163D01*
X69425440Y-60392449D01*
X69498011Y-60428734D01*
X69643154Y-60428734D01*
X69715726Y-60392449D01*
X69752011Y-60356163D01*
X69788297Y-60283591D01*
X69788297Y-59666734D01*
X70078583Y-59666734D02*
X70586583Y-59666734D01*
X70260012Y-60428734D01*
X67879687Y-56041109D02*
X67988544Y-56077394D01*
X68169973Y-56077394D01*
X68242544Y-56041109D01*
X68278830Y-56004823D01*
X68315115Y-55932251D01*
X68315115Y-55859680D01*
X68278830Y-55787109D01*
X68242544Y-55750823D01*
X68169973Y-55714537D01*
X68024830Y-55678251D01*
X67952258Y-55641966D01*
X67915973Y-55605680D01*
X67879687Y-55533109D01*
X67879687Y-55460537D01*
X67915973Y-55387966D01*
X67952258Y-55351680D01*
X68024830Y-55315394D01*
X68206258Y-55315394D01*
X68315115Y-55351680D01*
X68532829Y-55315394D02*
X68968258Y-55315394D01*
X68750544Y-56077394D02*
X68750544Y-55315394D01*
X69476258Y-55678251D02*
X69585115Y-55714537D01*
X69621400Y-55750823D01*
X69657686Y-55823394D01*
X69657686Y-55932251D01*
X69621400Y-56004823D01*
X69585115Y-56041109D01*
X69512543Y-56077394D01*
X69222258Y-56077394D01*
X69222258Y-55315394D01*
X69476258Y-55315394D01*
X69548829Y-55351680D01*
X69585115Y-55387966D01*
X69621400Y-55460537D01*
X69621400Y-55533109D01*
X69585115Y-55605680D01*
X69548829Y-55641966D01*
X69476258Y-55678251D01*
X69222258Y-55678251D01*
X70419686Y-56004823D02*
X70383400Y-56041109D01*
X70274543Y-56077394D01*
X70201972Y-56077394D01*
X70093115Y-56041109D01*
X70020543Y-55968537D01*
X69984258Y-55895966D01*
X69947972Y-55750823D01*
X69947972Y-55641966D01*
X69984258Y-55496823D01*
X70020543Y-55424251D01*
X70093115Y-55351680D01*
X70201972Y-55315394D01*
X70274543Y-55315394D01*
X70383400Y-55351680D01*
X70419686Y-55387966D01*
X70891400Y-55315394D02*
X70963972Y-55315394D01*
X71036543Y-55351680D01*
X71072829Y-55387966D01*
X71109115Y-55460537D01*
X71145400Y-55605680D01*
X71145400Y-55787109D01*
X71109115Y-55932251D01*
X71072829Y-56004823D01*
X71036543Y-56041109D01*
X70963972Y-56077394D01*
X70891400Y-56077394D01*
X70818829Y-56041109D01*
X70782543Y-56004823D01*
X70746258Y-55932251D01*
X70709972Y-55787109D01*
X70709972Y-55605680D01*
X70746258Y-55460537D01*
X70782543Y-55387966D01*
X70818829Y-55351680D01*
X70891400Y-55315394D01*
X71580829Y-55641966D02*
X71508257Y-55605680D01*
X71471972Y-55569394D01*
X71435686Y-55496823D01*
X71435686Y-55460537D01*
X71471972Y-55387966D01*
X71508257Y-55351680D01*
X71580829Y-55315394D01*
X71725972Y-55315394D01*
X71798543Y-55351680D01*
X71834829Y-55387966D01*
X71871114Y-55460537D01*
X71871114Y-55496823D01*
X71834829Y-55569394D01*
X71798543Y-55605680D01*
X71725972Y-55641966D01*
X71580829Y-55641966D01*
X71508257Y-55678251D01*
X71471972Y-55714537D01*
X71435686Y-55787109D01*
X71435686Y-55932251D01*
X71471972Y-56004823D01*
X71508257Y-56041109D01*
X71580829Y-56077394D01*
X71725972Y-56077394D01*
X71798543Y-56041109D01*
X71834829Y-56004823D01*
X71871114Y-55932251D01*
X71871114Y-55787109D01*
X71834829Y-55714537D01*
X71798543Y-55678251D01*
X71725972Y-55641966D01*
X77148413Y-64573246D02*
X76609598Y-64034431D01*
X76737887Y-63906142D01*
X76840518Y-63854826D01*
X76943150Y-63854826D01*
X77020123Y-63880485D01*
X77148413Y-63957458D01*
X77225386Y-64034432D01*
X77302360Y-64162721D01*
X77328018Y-64239694D01*
X77328018Y-64342326D01*
X77276702Y-64444957D01*
X77148413Y-64573246D01*
X77558939Y-63444300D02*
X77918149Y-63803510D01*
X77225386Y-63367327D02*
X77481965Y-63880484D01*
X77815517Y-63546932D01*
X79274852Y-55879274D02*
X79274852Y-55117274D01*
X79456280Y-55117274D01*
X79565137Y-55153560D01*
X79637709Y-55226131D01*
X79673994Y-55298703D01*
X79710280Y-55443846D01*
X79710280Y-55552703D01*
X79673994Y-55697846D01*
X79637709Y-55770417D01*
X79565137Y-55842989D01*
X79456280Y-55879274D01*
X79274852Y-55879274D01*
X80399709Y-55117274D02*
X80036852Y-55117274D01*
X80000566Y-55480131D01*
X80036852Y-55443846D01*
X80109423Y-55407560D01*
X80290852Y-55407560D01*
X80363423Y-55443846D01*
X80399709Y-55480131D01*
X80435994Y-55552703D01*
X80435994Y-55734131D01*
X80399709Y-55806703D01*
X80363423Y-55842989D01*
X80290852Y-55879274D01*
X80109423Y-55879274D01*
X80036852Y-55842989D01*
X80000566Y-55806703D01*
X63706829Y-66745394D02*
X63706829Y-67362251D01*
X63743114Y-67434823D01*
X63779400Y-67471109D01*
X63851971Y-67507394D01*
X63997114Y-67507394D01*
X64069686Y-67471109D01*
X64105971Y-67434823D01*
X64142257Y-67362251D01*
X64142257Y-66745394D01*
X64831686Y-66999394D02*
X64831686Y-67507394D01*
X64650257Y-66709109D02*
X64468829Y-67253394D01*
X64940543Y-67253394D01*
X64968409Y-69369054D02*
X64968409Y-69985911D01*
X65004694Y-70058483D01*
X65040980Y-70094769D01*
X65113551Y-70131054D01*
X65258694Y-70131054D01*
X65331266Y-70094769D01*
X65367551Y-70058483D01*
X65403837Y-69985911D01*
X65403837Y-69369054D01*
X66129552Y-69369054D02*
X65766695Y-69369054D01*
X65730409Y-69731911D01*
X65766695Y-69695626D01*
X65839266Y-69659340D01*
X66020695Y-69659340D01*
X66093266Y-69695626D01*
X66129552Y-69731911D01*
X66165837Y-69804483D01*
X66165837Y-69985911D01*
X66129552Y-70058483D01*
X66093266Y-70094769D01*
X66020695Y-70131054D01*
X65839266Y-70131054D01*
X65766695Y-70094769D01*
X65730409Y-70058483D01*
X62690829Y-57855394D02*
X62690829Y-58472251D01*
X62727114Y-58544823D01*
X62763400Y-58581109D01*
X62835971Y-58617394D01*
X62981114Y-58617394D01*
X63053686Y-58581109D01*
X63089971Y-58544823D01*
X63126257Y-58472251D01*
X63126257Y-57855394D01*
X63815686Y-57855394D02*
X63670543Y-57855394D01*
X63597972Y-57891680D01*
X63561686Y-57927966D01*
X63489115Y-58036823D01*
X63452829Y-58181966D01*
X63452829Y-58472251D01*
X63489115Y-58544823D01*
X63525400Y-58581109D01*
X63597972Y-58617394D01*
X63743115Y-58617394D01*
X63815686Y-58581109D01*
X63851972Y-58544823D01*
X63888257Y-58472251D01*
X63888257Y-58290823D01*
X63851972Y-58218251D01*
X63815686Y-58181966D01*
X63743115Y-58145680D01*
X63597972Y-58145680D01*
X63525400Y-58181966D01*
X63489115Y-58218251D01*
X63452829Y-58290823D01*
X46741080Y-60661005D02*
X46741080Y-60298148D01*
X46958794Y-60733577D02*
X46196794Y-60479577D01*
X46958794Y-60225577D01*
X46958794Y-59572434D02*
X46958794Y-60007862D01*
X46958794Y-59790148D02*
X46196794Y-59790148D01*
X46305651Y-59862719D01*
X46378223Y-59935291D01*
X46414509Y-60007862D01*
X46099453Y-66026126D02*
X45560638Y-65487311D01*
X45688927Y-65359022D01*
X45791558Y-65307706D01*
X45894190Y-65307706D01*
X45971163Y-65333365D01*
X46099453Y-65410338D01*
X46176426Y-65487312D01*
X46253400Y-65615601D01*
X46279058Y-65692574D01*
X46279058Y-65795206D01*
X46227742Y-65897837D01*
X46099453Y-66026126D01*
X46048137Y-64999812D02*
X46407347Y-64640601D01*
X46715242Y-65410337D01*
X45655412Y-54959794D02*
X45655412Y-54197794D01*
X45836840Y-54197794D01*
X45945697Y-54234080D01*
X46018269Y-54306651D01*
X46054554Y-54379223D01*
X46090840Y-54524366D01*
X46090840Y-54633223D01*
X46054554Y-54778366D01*
X46018269Y-54850937D01*
X45945697Y-54923509D01*
X45836840Y-54959794D01*
X45655412Y-54959794D01*
X46526269Y-54524366D02*
X46453697Y-54488080D01*
X46417412Y-54451794D01*
X46381126Y-54379223D01*
X46381126Y-54342937D01*
X46417412Y-54270366D01*
X46453697Y-54234080D01*
X46526269Y-54197794D01*
X46671412Y-54197794D01*
X46743983Y-54234080D01*
X46780269Y-54270366D01*
X46816554Y-54342937D01*
X46816554Y-54379223D01*
X46780269Y-54451794D01*
X46743983Y-54488080D01*
X46671412Y-54524366D01*
X46526269Y-54524366D01*
X46453697Y-54560651D01*
X46417412Y-54596937D01*
X46381126Y-54669509D01*
X46381126Y-54814651D01*
X46417412Y-54887223D01*
X46453697Y-54923509D01*
X46526269Y-54959794D01*
X46671412Y-54959794D01*
X46743983Y-54923509D01*
X46780269Y-54887223D01*
X46816554Y-54814651D01*
X46816554Y-54669509D01*
X46780269Y-54596937D01*
X46743983Y-54560651D01*
X46671412Y-54524366D01*
X48967848Y-51822627D02*
X49044821Y-51386443D01*
X48659954Y-51514733D02*
X49198769Y-50975918D01*
X49404032Y-51181180D01*
X49429690Y-51258154D01*
X49429689Y-51309470D01*
X49404032Y-51386443D01*
X49327058Y-51463417D01*
X49250084Y-51489075D01*
X49198769Y-51489075D01*
X49121795Y-51463417D01*
X48916532Y-51258154D01*
X49968505Y-51745654D02*
X49865873Y-51643022D01*
X49788900Y-51617365D01*
X49737584Y-51617365D01*
X49609295Y-51643023D01*
X49481005Y-51719996D01*
X49275743Y-51925259D01*
X49250085Y-52002233D01*
X49250084Y-52053548D01*
X49275743Y-52130522D01*
X49378374Y-52233153D01*
X49455347Y-52258812D01*
X49506663Y-52258812D01*
X49583637Y-52233153D01*
X49711926Y-52104864D01*
X49737584Y-52027890D01*
X49737584Y-51976575D01*
X49711926Y-51899601D01*
X49609295Y-51796970D01*
X49532321Y-51771312D01*
X49481006Y-51771312D01*
X49404032Y-51796970D01*
X50217347Y-69782232D02*
X49781163Y-69705259D01*
X49909453Y-70090126D02*
X49370638Y-69551311D01*
X49575900Y-69346048D01*
X49652874Y-69320390D01*
X49704190Y-69320391D01*
X49781163Y-69346048D01*
X49858137Y-69423022D01*
X49883795Y-69499996D01*
X49883795Y-69551311D01*
X49858137Y-69628285D01*
X49652874Y-69833548D01*
X49858137Y-69063812D02*
X50217347Y-68704601D01*
X50525242Y-69474337D01*
X70410978Y-61819971D02*
X70664978Y-61819971D01*
X70773835Y-62219114D02*
X70410978Y-62219114D01*
X70410978Y-61457114D01*
X70773835Y-61457114D01*
X71499549Y-62219114D02*
X71064121Y-62219114D01*
X71281835Y-62219114D02*
X71281835Y-61457114D01*
X71209264Y-61565971D01*
X71136692Y-61638543D01*
X71064121Y-61674829D01*
X49246971Y-56258822D02*
X49246971Y-56004822D01*
X49646114Y-55895965D02*
X49646114Y-56258822D01*
X48884114Y-56258822D01*
X48884114Y-55895965D01*
X48956686Y-55605679D02*
X48920400Y-55569393D01*
X48884114Y-55496822D01*
X48884114Y-55315393D01*
X48920400Y-55242822D01*
X48956686Y-55206536D01*
X49029257Y-55170251D01*
X49101829Y-55170251D01*
X49210686Y-55206536D01*
X49646114Y-55641965D01*
X49646114Y-55170251D01*
X65285258Y-52376251D02*
X65539258Y-52376251D01*
X65648115Y-52775394D02*
X65285258Y-52775394D01*
X65285258Y-52013394D01*
X65648115Y-52013394D01*
X65902115Y-52013394D02*
X66373829Y-52013394D01*
X66119829Y-52303680D01*
X66228687Y-52303680D01*
X66301258Y-52339966D01*
X66337544Y-52376251D01*
X66373829Y-52448823D01*
X66373829Y-52630251D01*
X66337544Y-52702823D01*
X66301258Y-52739109D01*
X66228687Y-52775394D01*
X66010972Y-52775394D01*
X65938401Y-52739109D01*
X65902115Y-52702823D01*
M02*
