G04 #@! TF.FileFunction,Soldermask,Bot*
%FSLAX46Y46*%
G04 Gerber Fmt 4.6, Leading zero omitted, Abs format (unit mm)*
G04 Created by KiCad (PCBNEW 4.0.4+e1-6308~48~ubuntu16.04.1-stable) date Tue Sep 13 21:39:42 2016*
%MOMM*%
%LPD*%
G01*
G04 APERTURE LIST*
%ADD10C,0.150000*%
%ADD11C,0.100000*%
%ADD12C,3.137160*%
%ADD13O,1.697160X1.037160*%
%ADD14O,0.987160X1.387160*%
%ADD15R,1.915160X1.915160*%
%ADD16C,1.915160*%
G04 APERTURE END LIST*
D10*
D11*
X72944000Y-70676000D02*
X49944000Y-70676000D01*
X72944000Y-49176000D02*
X49944000Y-49176000D01*
X49944000Y-70676000D02*
X45444000Y-66176000D01*
X45444000Y-53676000D02*
X49944000Y-49176000D01*
X83194000Y-63926000D02*
X76444000Y-67176000D01*
X83194000Y-55926000D02*
X83194000Y-63926000D01*
X76444000Y-52676000D02*
X83194000Y-55926000D01*
X45444000Y-53676000D02*
X45444000Y-66176000D01*
X72944000Y-49176000D02*
X76444000Y-52676000D01*
X72944000Y-70676000D02*
X76444000Y-67176000D01*
D12*
X51944000Y-51676000D03*
X70944000Y-68176000D03*
D13*
X81640680Y-56403360D03*
X81640680Y-63403360D03*
D14*
X78940680Y-57403360D03*
X78940680Y-62403360D03*
D15*
X57391300Y-69189600D03*
D16*
X54851300Y-69189600D03*
D10*
G36*
X76638689Y-53582706D02*
X75284466Y-54936929D01*
X73930243Y-53582706D01*
X75284466Y-52228483D01*
X76638689Y-53582706D01*
X76638689Y-53582706D01*
G37*
D16*
X73488414Y-51786654D03*
D10*
G36*
X76056626Y-63881731D02*
X77410849Y-65235954D01*
X76056626Y-66590177D01*
X74702403Y-65235954D01*
X76056626Y-63881731D01*
X76056626Y-63881731D01*
G37*
D16*
X74260574Y-67032006D03*
D15*
X57617360Y-51280060D03*
D16*
X55077360Y-51280060D03*
D15*
X81780380Y-58661300D03*
D16*
X81780380Y-61201300D03*
D15*
X59822080Y-64432180D03*
D16*
X59822080Y-61892180D03*
D15*
X62181740Y-64391540D03*
D16*
X62181740Y-61851540D03*
D15*
X55123080Y-54503320D03*
D16*
X57663080Y-54503320D03*
D15*
X67276980Y-63279020D03*
D16*
X64736980Y-63279020D03*
D15*
X54823360Y-61244481D03*
D16*
X54823360Y-63784481D03*
M02*
