G04 #@! TF.FileFunction,Copper,L1,Top,Signal*
%FSLAX46Y46*%
G04 Gerber Fmt 4.6, Leading zero omitted, Abs format (unit mm)*
G04 Created by KiCad (PCBNEW 4.0.4+e1-6308~48~ubuntu16.04.1-stable) date Tue Sep 13 21:39:42 2016*
%MOMM*%
%LPD*%
G01*
G04 APERTURE LIST*
%ADD10C,0.150000*%
%ADD11C,0.100000*%
%ADD12R,0.635000X1.143000*%
%ADD13C,3.000000*%
%ADD14R,1.143000X0.635000*%
%ADD15R,1.000000X0.400000*%
%ADD16R,1.000000X1.200000*%
%ADD17R,1.000000X1.000000*%
%ADD18R,1.350000X0.390000*%
%ADD19O,1.560000X0.900000*%
%ADD20O,0.850000X1.250000*%
%ADD21R,0.400000X1.000000*%
%ADD22R,3.100000X3.100000*%
%ADD23R,0.900000X0.260000*%
%ADD24R,1.000000X0.260000*%
%ADD25R,0.260000X0.900000*%
%ADD26R,0.260000X1.000000*%
%ADD27R,0.230000X0.900000*%
%ADD28R,0.900000X0.230000*%
%ADD29R,0.700000X0.700000*%
%ADD30R,0.800100X0.800100*%
%ADD31O,1.300000X0.600000*%
%ADD32R,1.725000X2.500000*%
%ADD33R,1.060000X0.650000*%
%ADD34R,1.500000X1.500000*%
%ADD35R,1.000000X1.600000*%
%ADD36C,0.558800*%
%ADD37C,0.228600*%
%ADD38C,0.508000*%
G04 APERTURE END LIST*
D10*
D11*
X72944000Y-70676000D02*
X49944000Y-70676000D01*
X72944000Y-49176000D02*
X49944000Y-49176000D01*
X49944000Y-70676000D02*
X45444000Y-66176000D01*
X45444000Y-53676000D02*
X49944000Y-49176000D01*
X83194000Y-63926000D02*
X76444000Y-67176000D01*
X83194000Y-55926000D02*
X83194000Y-63926000D01*
X76444000Y-52676000D02*
X83194000Y-55926000D01*
X45444000Y-53676000D02*
X45444000Y-66176000D01*
X72944000Y-49176000D02*
X76444000Y-52676000D01*
X72944000Y-70676000D02*
X76444000Y-67176000D01*
D12*
X51084480Y-69281040D03*
X52608480Y-69281040D03*
D13*
X51944000Y-51676000D03*
X70944000Y-68176000D03*
D14*
X53355240Y-55618380D03*
X53355240Y-54094380D03*
X57470040Y-54018180D03*
X57470040Y-55542180D03*
D10*
G36*
X50603453Y-57847030D02*
X49795230Y-58655253D01*
X49346217Y-58206240D01*
X50154440Y-57398017D01*
X50603453Y-57847030D01*
X50603453Y-57847030D01*
G37*
G36*
X49525823Y-56769400D02*
X48717600Y-57577623D01*
X48268587Y-57128610D01*
X49076810Y-56320387D01*
X49525823Y-56769400D01*
X49525823Y-56769400D01*
G37*
D15*
X69220800Y-64574420D03*
X69220800Y-63774420D03*
X69220800Y-62974420D03*
X69220800Y-62174420D03*
X67360800Y-62174420D03*
X67360800Y-62974420D03*
X67360800Y-63774420D03*
X67360800Y-64574420D03*
D16*
X57571640Y-51419760D03*
D17*
X55171640Y-51419760D03*
D18*
X78940680Y-61203360D03*
X78940680Y-60553360D03*
X78940680Y-59903360D03*
X78940680Y-59253360D03*
X78940680Y-58603360D03*
D19*
X81640680Y-56403360D03*
X81640680Y-63403360D03*
D20*
X78940680Y-57403360D03*
X78940680Y-62403360D03*
D14*
X51876960Y-54076600D03*
X51876960Y-55600600D03*
X65417700Y-61478160D03*
X65417700Y-59954160D03*
X66598800Y-57970420D03*
X66598800Y-56446420D03*
D12*
X53842920Y-69311520D03*
X55366920Y-69311520D03*
D21*
X56856480Y-64939820D03*
X56056480Y-64939820D03*
X55256480Y-64939820D03*
X54456480Y-64939820D03*
X54456480Y-66799820D03*
X55256480Y-66799820D03*
X56056480Y-66799820D03*
X56856480Y-66799820D03*
D10*
G36*
X49169728Y-65951993D02*
X49876835Y-65244886D01*
X50159678Y-65527729D01*
X49452571Y-66234836D01*
X49169728Y-65951993D01*
X49169728Y-65951993D01*
G37*
G36*
X49735413Y-66517679D02*
X50442520Y-65810572D01*
X50725363Y-66093415D01*
X50018256Y-66800522D01*
X49735413Y-66517679D01*
X49735413Y-66517679D01*
G37*
G36*
X50301098Y-67083364D02*
X51008205Y-66376257D01*
X51291048Y-66659100D01*
X50583941Y-67366207D01*
X50301098Y-67083364D01*
X50301098Y-67083364D01*
G37*
G36*
X50866784Y-67649049D02*
X51573891Y-66941942D01*
X51856734Y-67224785D01*
X51149627Y-67931892D01*
X50866784Y-67649049D01*
X50866784Y-67649049D01*
G37*
G36*
X52182002Y-66333831D02*
X52889109Y-65626724D01*
X53171952Y-65909567D01*
X52464845Y-66616674D01*
X52182002Y-66333831D01*
X52182002Y-66333831D01*
G37*
G36*
X51616317Y-65768145D02*
X52323424Y-65061038D01*
X52606267Y-65343881D01*
X51899160Y-66050988D01*
X51616317Y-65768145D01*
X51616317Y-65768145D01*
G37*
G36*
X51050632Y-65202460D02*
X51757739Y-64495353D01*
X52040582Y-64778196D01*
X51333475Y-65485303D01*
X51050632Y-65202460D01*
X51050632Y-65202460D01*
G37*
G36*
X50484946Y-64636775D02*
X51192053Y-63929668D01*
X51474896Y-64212511D01*
X50767789Y-64919618D01*
X50484946Y-64636775D01*
X50484946Y-64636775D01*
G37*
G36*
X59032586Y-65525896D02*
X58785098Y-65773384D01*
X58148702Y-65136988D01*
X58396190Y-64889500D01*
X59032586Y-65525896D01*
X59032586Y-65525896D01*
G37*
G36*
X59492206Y-65066277D02*
X59244718Y-65313765D01*
X58608322Y-64677369D01*
X58855810Y-64429881D01*
X59492206Y-65066277D01*
X59492206Y-65066277D01*
G37*
G36*
X59951825Y-64606658D02*
X59704337Y-64854146D01*
X59067941Y-64217750D01*
X59315429Y-63970262D01*
X59951825Y-64606658D01*
X59951825Y-64606658D01*
G37*
G36*
X60411444Y-64147038D02*
X60163956Y-64394526D01*
X59527560Y-63758130D01*
X59775048Y-63510642D01*
X60411444Y-64147038D01*
X60411444Y-64147038D01*
G37*
G36*
X61825658Y-65561252D02*
X61578170Y-65808740D01*
X60941774Y-65172344D01*
X61189262Y-64924856D01*
X61825658Y-65561252D01*
X61825658Y-65561252D01*
G37*
G36*
X61366038Y-66020871D02*
X61118550Y-66268359D01*
X60482154Y-65631963D01*
X60729642Y-65384475D01*
X61366038Y-66020871D01*
X61366038Y-66020871D01*
G37*
G36*
X60906419Y-66480490D02*
X60658931Y-66727978D01*
X60022535Y-66091582D01*
X60270023Y-65844094D01*
X60906419Y-66480490D01*
X60906419Y-66480490D01*
G37*
G36*
X60446800Y-66940110D02*
X60199312Y-67187598D01*
X59562916Y-66551202D01*
X59810404Y-66303714D01*
X60446800Y-66940110D01*
X60446800Y-66940110D01*
G37*
D22*
X53929280Y-59700160D03*
D23*
X51379280Y-57950160D03*
D24*
X51429280Y-58450160D03*
X51429280Y-58950160D03*
X51429280Y-59450160D03*
X51429280Y-59950160D03*
X51429280Y-60450160D03*
X51429280Y-60950160D03*
D23*
X51379280Y-61450160D03*
D25*
X52179280Y-62250160D03*
D26*
X52679280Y-62200160D03*
X53179280Y-62200160D03*
X53679280Y-62200160D03*
X54179280Y-62200160D03*
X54679280Y-62200160D03*
X55179280Y-62200160D03*
D25*
X55679280Y-62250160D03*
D23*
X56479280Y-61450160D03*
D24*
X56429280Y-60950160D03*
X56429280Y-60450160D03*
X56429280Y-59950160D03*
X56429280Y-59450160D03*
X56429280Y-58950160D03*
X56429280Y-58450160D03*
D23*
X56479280Y-57950160D03*
D25*
X55679280Y-57150160D03*
D26*
X55179280Y-57200160D03*
X54679280Y-57200160D03*
X54179280Y-57200160D03*
X53679280Y-57200160D03*
X53179280Y-57200160D03*
X52679280Y-57200160D03*
D25*
X52179280Y-57150160D03*
D27*
X58596480Y-58586100D03*
D28*
X58323480Y-59591100D03*
X58323480Y-60021100D03*
X58323480Y-60451100D03*
X58323480Y-60881100D03*
D27*
X58596480Y-61886100D03*
X59026480Y-61886100D03*
X59456480Y-61886100D03*
X59886480Y-61886100D03*
X60316480Y-61886100D03*
X60746480Y-61886100D03*
X61176480Y-61886100D03*
X61606480Y-61886100D03*
D28*
X61879480Y-60881100D03*
X61879480Y-60451100D03*
X61879480Y-60021100D03*
X61879480Y-59591100D03*
D27*
X61606480Y-58586100D03*
X61176480Y-58586100D03*
X60746480Y-58586100D03*
X60316480Y-58586100D03*
X59886480Y-58586100D03*
X59456480Y-58586100D03*
X59026480Y-58586100D03*
D29*
X54566920Y-55395420D03*
X56166920Y-54195420D03*
X54566920Y-54195420D03*
X56166920Y-55395420D03*
D30*
X61711840Y-52793940D03*
X61711840Y-50893940D03*
X59712860Y-51843940D03*
D21*
X58533180Y-56317240D03*
X59333180Y-56317240D03*
X60133180Y-56317240D03*
X60933180Y-56317240D03*
X60933180Y-54457240D03*
X60133180Y-54457240D03*
X59333180Y-54457240D03*
X58533180Y-54457240D03*
D10*
G36*
X75543526Y-55987602D02*
X74555698Y-54999774D01*
X75184316Y-54371156D01*
X76172144Y-55358984D01*
X75543526Y-55987602D01*
X75543526Y-55987602D01*
G37*
G36*
X76890564Y-54640564D02*
X75902736Y-53652736D01*
X76531354Y-53024118D01*
X77519182Y-54011946D01*
X76890564Y-54640564D01*
X76890564Y-54640564D01*
G37*
D16*
X57176820Y-69169280D03*
D17*
X59576820Y-69169280D03*
D16*
X67319040Y-51170840D03*
D17*
X69719040Y-51170840D03*
D16*
X73305820Y-62390020D03*
D17*
X75705820Y-62390020D03*
D30*
X62798960Y-69758600D03*
X62798960Y-67858600D03*
X60799980Y-68808600D03*
D10*
G36*
X69860648Y-52563093D02*
X70426404Y-51997337D01*
X70992160Y-52563093D01*
X70426404Y-53128849D01*
X69860648Y-52563093D01*
X69860648Y-52563093D01*
G37*
G36*
X71204151Y-53906596D02*
X71769907Y-53340840D01*
X72335663Y-53906596D01*
X71769907Y-54472352D01*
X71204151Y-53906596D01*
X71204151Y-53906596D01*
G37*
G36*
X71945892Y-51821352D02*
X72511648Y-51255596D01*
X73077404Y-51821352D01*
X72511648Y-52387108D01*
X71945892Y-51821352D01*
X71945892Y-51821352D01*
G37*
G36*
X72831627Y-63685908D02*
X73397383Y-64251664D01*
X72831627Y-64817420D01*
X72265871Y-64251664D01*
X72831627Y-63685908D01*
X72831627Y-63685908D01*
G37*
G36*
X71488124Y-65029411D02*
X72053880Y-65595167D01*
X71488124Y-66160923D01*
X70922368Y-65595167D01*
X71488124Y-65029411D01*
X71488124Y-65029411D01*
G37*
G36*
X73573368Y-65771152D02*
X74139124Y-66336908D01*
X73573368Y-66902664D01*
X73007612Y-66336908D01*
X73573368Y-65771152D01*
X73573368Y-65771152D01*
G37*
D15*
X75685100Y-59750860D03*
X75685100Y-58950860D03*
X75685100Y-58150860D03*
X75685100Y-57350860D03*
X73825100Y-57350860D03*
X73825100Y-58150860D03*
X73825100Y-58950860D03*
X73825100Y-59750860D03*
D31*
X71703440Y-58834020D03*
X71703440Y-57884020D03*
X71703440Y-56934020D03*
X68163440Y-56934020D03*
X68163440Y-57884020D03*
X68163440Y-58834020D03*
D32*
X69933440Y-57884020D03*
D10*
G36*
X74596338Y-64657086D02*
X75584166Y-63669258D01*
X76212784Y-64297876D01*
X75224956Y-65285704D01*
X74596338Y-64657086D01*
X74596338Y-64657086D01*
G37*
G36*
X75943376Y-66004124D02*
X76931204Y-65016296D01*
X77559822Y-65644914D01*
X76571994Y-66632742D01*
X75943376Y-66004124D01*
X75943376Y-66004124D01*
G37*
G36*
X76856706Y-57229662D02*
X75868878Y-56241834D01*
X76497496Y-55613216D01*
X77485324Y-56601044D01*
X76856706Y-57229662D01*
X76856706Y-57229662D01*
G37*
G36*
X78203744Y-55882624D02*
X77215916Y-54894796D01*
X77844534Y-54266178D01*
X78832362Y-55254006D01*
X78203744Y-55882624D01*
X78203744Y-55882624D01*
G37*
D33*
X65466320Y-64655700D03*
X65466320Y-63705700D03*
X65466320Y-62755700D03*
X63266320Y-62755700D03*
X63266320Y-64655700D03*
X66598980Y-68186340D03*
X66598980Y-67236340D03*
X66598980Y-66286340D03*
X64398980Y-66286340D03*
X64398980Y-68186340D03*
X64470460Y-57058600D03*
X64470460Y-56108600D03*
X64470460Y-55158600D03*
X62270460Y-55158600D03*
X62270460Y-57058600D03*
D34*
X46593760Y-56392120D03*
X46593760Y-63892120D03*
D10*
G36*
X47123885Y-67142863D02*
X46136057Y-66155035D01*
X46764675Y-65526417D01*
X47752503Y-66514245D01*
X47123885Y-67142863D01*
X47123885Y-67142863D01*
G37*
G36*
X48470923Y-65795825D02*
X47483095Y-64807997D01*
X48111713Y-64179379D01*
X49099541Y-65167207D01*
X48470923Y-65795825D01*
X48470923Y-65795825D01*
G37*
G36*
X46333339Y-53691487D02*
X47321167Y-52703659D01*
X47949785Y-53332277D01*
X46961957Y-54320105D01*
X46333339Y-53691487D01*
X46333339Y-53691487D01*
G37*
G36*
X47680377Y-55038525D02*
X48668205Y-54050697D01*
X49296823Y-54679315D01*
X48308995Y-55667143D01*
X47680377Y-55038525D01*
X47680377Y-55038525D01*
G37*
G36*
X50148793Y-53308050D02*
X49340570Y-54116273D01*
X48891557Y-53667260D01*
X49699780Y-52859037D01*
X50148793Y-53308050D01*
X50148793Y-53308050D01*
G37*
G36*
X49071163Y-52230420D02*
X48262940Y-53038643D01*
X47813927Y-52589630D01*
X48622150Y-51781407D01*
X49071163Y-52230420D01*
X49071163Y-52230420D01*
G37*
G36*
X50372313Y-68294050D02*
X49564090Y-69102273D01*
X49115077Y-68653260D01*
X49923300Y-67845037D01*
X50372313Y-68294050D01*
X50372313Y-68294050D01*
G37*
G36*
X49294683Y-67216420D02*
X48486460Y-68024643D01*
X48037447Y-67575630D01*
X48845670Y-66767407D01*
X49294683Y-67216420D01*
X49294683Y-67216420D01*
G37*
D14*
X71272400Y-64500760D03*
X71272400Y-62976760D03*
X50454560Y-54229000D03*
X50454560Y-55753000D03*
D35*
X66438520Y-54051200D03*
X69438520Y-54051200D03*
D36*
X71653400Y-55938420D03*
X67695649Y-66837100D03*
X62181740Y-64391540D03*
X60610371Y-54907909D03*
X64494788Y-58643541D03*
X67149866Y-60955200D03*
X52562760Y-54531260D03*
X51894740Y-67724020D03*
X66479420Y-63774420D03*
X63358619Y-57749783D03*
X51391820Y-62755780D03*
X53929280Y-59700160D03*
X56837580Y-56451500D03*
X59339131Y-57061637D03*
X61239400Y-57764680D03*
X58216000Y-63023941D03*
X57421213Y-59752831D03*
X56896000Y-64030860D03*
X58597810Y-63850094D03*
X68428562Y-64592737D03*
X64700571Y-62959594D03*
X69311520Y-61440060D03*
X69812466Y-63913535D03*
X76710959Y-53832341D03*
X57883447Y-69300505D03*
X73785411Y-62642982D03*
X72038840Y-60552577D03*
X77355700Y-58707020D03*
X65872360Y-68640960D03*
X68308220Y-50667920D03*
X57619900Y-50772060D03*
X56314709Y-62144507D03*
X50787985Y-62074283D03*
X50819226Y-59198679D03*
X54087418Y-66637558D03*
X61964438Y-67174566D03*
X53142167Y-63273936D03*
X53373442Y-56584687D03*
X51199433Y-57443514D03*
X55185460Y-50794920D03*
X57507918Y-62019152D03*
X65930780Y-60558662D03*
X77859085Y-60558662D03*
X57552255Y-57894778D03*
X77853540Y-59801760D03*
X49044598Y-55359178D03*
X48148240Y-64495680D03*
X53025040Y-66862960D03*
X55179280Y-63616840D03*
X51073762Y-64015939D03*
X61357521Y-52534820D03*
X70340803Y-61104056D03*
X69518828Y-59616632D03*
X69650288Y-55596468D03*
X52664322Y-64620140D03*
X70191022Y-64857594D03*
X53375560Y-65423116D03*
X59475648Y-59938920D03*
X58044080Y-58653680D03*
X61297820Y-62898020D03*
X51571734Y-61852079D03*
X51806493Y-56727234D03*
X76282658Y-63395583D03*
X75835567Y-60545959D03*
X54619033Y-68492158D03*
X73530460Y-52019200D03*
X73322571Y-66230011D03*
X53279040Y-69311520D03*
X49152154Y-64482728D03*
X71812389Y-61695965D03*
X65478660Y-67792600D03*
X57850539Y-56367691D03*
X56006989Y-56253436D03*
D37*
X63271400Y-54208680D02*
X63271400Y-53700680D01*
X63779400Y-54208680D02*
X63271400Y-54208680D01*
X64287400Y-53700680D02*
X63779400Y-54208680D01*
X64287400Y-53192680D02*
X64287400Y-53700680D01*
X63779400Y-53192680D02*
X64287400Y-53192680D01*
X63271400Y-53700680D02*
X63779400Y-53192680D01*
X64287400Y-53192680D02*
X64287400Y-52684680D01*
X64287400Y-52684680D02*
X64795400Y-53192680D01*
X64795400Y-53192680D02*
X64287400Y-53192680D01*
D38*
X71488124Y-65595167D02*
X71488124Y-64716484D01*
X71488124Y-64716484D02*
X71272400Y-64500760D01*
X66438520Y-54051200D02*
X66438520Y-56286140D01*
X66438520Y-56286140D02*
X66598800Y-56446420D01*
X67052702Y-69456300D02*
X68329001Y-68180001D01*
X68329001Y-68180001D02*
X68329001Y-66837100D01*
D37*
X78940680Y-58603360D02*
X78940680Y-57403360D01*
X81640680Y-63403360D02*
X81640680Y-62724760D01*
X81640680Y-62724760D02*
X81640680Y-56403360D01*
X61606480Y-58586100D02*
X61176480Y-58586100D01*
X60746480Y-58586100D02*
X61176480Y-58586100D01*
D38*
X63358619Y-57749783D02*
X63358619Y-56182441D01*
X63358619Y-56182441D02*
X63432460Y-56108600D01*
X63432460Y-56108600D02*
X64470460Y-56108600D01*
X67695649Y-67177671D02*
X67695649Y-66837100D01*
X67636980Y-67236340D02*
X67695649Y-67177671D01*
X68597780Y-66568321D02*
X68329001Y-66837100D01*
X68329001Y-66837100D02*
X68090780Y-66837100D01*
X66598980Y-67236340D02*
X67636980Y-67236340D01*
X68090780Y-66837100D02*
X67695649Y-66837100D01*
X68421794Y-66568321D02*
X68597780Y-66568321D01*
X67360800Y-65507327D02*
X68421794Y-66568321D01*
X67360800Y-64574420D02*
X67360800Y-65507327D01*
X49743695Y-68473655D02*
X50292708Y-68473655D01*
X50292708Y-68473655D02*
X50353333Y-68534280D01*
X50353333Y-68534280D02*
X51084480Y-68534280D01*
X51084480Y-69281040D02*
X51084480Y-68534280D01*
X51084480Y-68534280D02*
X51894740Y-67724020D01*
X49703055Y-53294615D02*
X50485040Y-54076600D01*
X50485040Y-54076600D02*
X51876960Y-54076600D01*
X75084940Y-53433980D02*
X75084940Y-53606775D01*
X77870708Y-56339834D02*
X78844274Y-56339834D01*
X75084940Y-53606775D02*
X76634171Y-55156006D01*
X76634171Y-55156006D02*
X76686880Y-55156006D01*
X76686880Y-55156006D02*
X77870708Y-56339834D01*
X78844274Y-56339834D02*
X78940680Y-56436240D01*
X78940680Y-56436240D02*
X78940680Y-57403360D01*
X61711840Y-50893940D02*
X61711840Y-49985890D01*
X61711840Y-49985890D02*
X61801970Y-49895760D01*
X61801970Y-49895760D02*
X72470245Y-49895760D01*
X72470245Y-49895760D02*
X75546703Y-52972217D01*
X75546703Y-52972217D02*
X75084940Y-53433980D01*
X58590644Y-65331442D02*
X59030177Y-65770975D01*
X59030177Y-65770975D02*
X59141179Y-65770975D01*
X59141179Y-65770975D02*
X59202445Y-65832241D01*
X59202445Y-65832241D02*
X60010682Y-65832241D01*
X60010682Y-65832241D02*
X60464477Y-66286036D01*
X50022764Y-64025225D02*
X51012810Y-63035179D01*
X51112421Y-63035179D02*
X51391820Y-62755780D01*
X49664703Y-65357018D02*
X50022764Y-64998957D01*
X50022764Y-64998957D02*
X50022764Y-64025225D01*
X49664703Y-65739861D02*
X49664703Y-65357018D01*
X51012810Y-63035179D02*
X51112421Y-63035179D01*
X76741820Y-64559086D02*
X73941032Y-67359874D01*
X77917954Y-64559086D02*
X76741820Y-64559086D01*
X73941032Y-67359874D02*
X73383984Y-67359874D01*
X78940680Y-62403360D02*
X78940680Y-63536360D01*
X78940680Y-63536360D02*
X77917954Y-64559086D01*
X73383984Y-67359874D02*
X71686772Y-65662662D01*
X71686772Y-65662662D02*
X70892309Y-65662662D01*
X70336172Y-66218799D02*
X69627897Y-66218799D01*
X70892309Y-65662662D02*
X70336172Y-66218799D01*
X69627897Y-66218799D02*
X69278375Y-66568321D01*
X70152260Y-58270140D02*
X68715993Y-56833873D01*
X68715993Y-56833873D02*
X67895993Y-56833873D01*
X67508540Y-56446420D02*
X66598800Y-56446420D01*
X67895993Y-56833873D02*
X67508540Y-56446420D01*
X73120660Y-55938420D02*
X71653400Y-55938420D01*
X71653400Y-55938420D02*
X70350061Y-55938420D01*
X70350061Y-55938420D02*
X70152260Y-56136221D01*
X70152260Y-56136221D02*
X70152260Y-58270140D01*
X73120660Y-55938420D02*
X73120660Y-54737860D01*
X73120660Y-54737860D02*
X73553320Y-54305200D01*
X74213720Y-54305200D02*
X75084940Y-53433980D01*
X62181740Y-64391540D02*
X62181740Y-62994540D01*
X62181740Y-62994540D02*
X62279119Y-62897161D01*
X62279119Y-62897161D02*
X62279119Y-61335847D01*
X62279119Y-61335847D02*
X61904880Y-60961608D01*
X58590644Y-65331442D02*
X58590644Y-65311484D01*
X61371711Y-66725569D02*
X61823248Y-66274032D01*
X61823248Y-66274032D02*
X61823248Y-65806330D01*
X61823248Y-65806330D02*
X61772624Y-65755706D01*
X61772624Y-65755706D02*
X61383716Y-65366798D01*
X60904010Y-66725569D02*
X61371711Y-66725569D01*
X60464477Y-66286036D02*
X60904010Y-66725569D01*
X61383716Y-65366798D02*
X61383716Y-65189564D01*
X61383716Y-65189564D02*
X62181740Y-64391540D01*
X73825100Y-57350860D02*
X73825100Y-56642860D01*
X73825100Y-56642860D02*
X73120660Y-55938420D01*
X70152260Y-57669284D02*
X70152260Y-58270140D01*
X73825100Y-57350860D02*
X73525100Y-57350860D01*
X70192900Y-58184543D02*
X70192900Y-58821320D01*
X60159702Y-54457240D02*
X60330972Y-54628510D01*
X60330972Y-54628510D02*
X60610371Y-54907909D01*
X60133180Y-54457240D02*
X60159702Y-54457240D01*
X66479420Y-63774420D02*
X66758819Y-63495021D01*
X66758819Y-63495021D02*
X67320059Y-63495021D01*
X67320059Y-63495021D02*
X67360800Y-63454280D01*
X67360800Y-63454280D02*
X67360800Y-62974420D01*
X68597780Y-66568321D02*
X69278375Y-66568321D01*
X67360800Y-63774420D02*
X67360800Y-63454280D01*
X67360800Y-63454280D02*
X67360800Y-64574420D01*
X65410080Y-58643541D02*
X64889919Y-58643541D01*
X65693597Y-58643541D02*
X65410080Y-58643541D01*
X65410080Y-58643541D02*
X65544699Y-58508922D01*
X65544699Y-58508922D02*
X65544699Y-57406402D01*
X65544699Y-57406402D02*
X66504681Y-56446420D01*
X66504681Y-56446420D02*
X66598800Y-56446420D01*
X66998000Y-56446420D02*
X66598800Y-56446420D01*
X67149866Y-60099810D02*
X65693597Y-58643541D01*
X64889919Y-58643541D02*
X64494788Y-58643541D01*
X67149866Y-60955200D02*
X67149866Y-60099810D01*
X51876960Y-54076600D02*
X52644040Y-54076600D01*
X52644040Y-54076600D02*
X53337460Y-54076600D01*
X52562760Y-54531260D02*
X52562760Y-54136129D01*
X52622289Y-54076600D02*
X52644040Y-54076600D01*
X52562760Y-54136129D02*
X52622289Y-54076600D01*
X64096900Y-69456300D02*
X67052702Y-69456300D01*
X62798960Y-68158360D02*
X64096900Y-69456300D01*
X62798960Y-67858600D02*
X62798960Y-68158360D01*
X51361759Y-67436917D02*
X51607637Y-67436917D01*
X51607637Y-67436917D02*
X51894740Y-67724020D01*
X63358619Y-57749783D02*
X62168794Y-58939608D01*
X62168794Y-58939608D02*
X61904880Y-58939608D01*
X67360800Y-62974420D02*
X67360800Y-62174420D01*
X67360800Y-63774420D02*
X65535040Y-63774420D01*
X65535040Y-63774420D02*
X65466320Y-63705700D01*
X67360800Y-63774420D02*
X67360800Y-64574420D01*
X62798960Y-68224400D02*
X62798960Y-67858600D01*
X53337460Y-54076600D02*
X53355240Y-54094380D01*
X49939563Y-66027877D02*
X49952719Y-66027877D01*
X50018257Y-66027877D02*
X49952719Y-66027877D01*
X49952719Y-66027877D02*
X49664703Y-65739861D01*
X50230388Y-66305547D02*
X50018257Y-66093416D01*
X50018257Y-66093416D02*
X50018257Y-66027877D01*
X50796073Y-66871232D02*
X50230388Y-66305547D01*
X51361759Y-67436917D02*
X51361758Y-67436917D01*
X51361758Y-67436917D02*
X50796073Y-66871232D01*
X57088538Y-56242718D02*
X57046362Y-56242718D01*
X57046362Y-56242718D02*
X56837580Y-56451500D01*
X56796940Y-55951120D02*
X57088538Y-56242718D01*
X56796940Y-55395420D02*
X57323280Y-55395420D01*
X56166920Y-55395420D02*
X56796940Y-55395420D01*
X56796940Y-55395420D02*
X56796940Y-55951120D01*
X58857464Y-53364274D02*
X60048214Y-53364274D01*
X60048214Y-53364274D02*
X60133180Y-53449240D01*
X60133180Y-53449240D02*
X60133180Y-54457240D01*
X58533180Y-54457240D02*
X58533180Y-53688558D01*
X58533180Y-53688558D02*
X58857464Y-53364274D01*
X61904880Y-60101608D02*
X61904880Y-60531608D01*
X61631880Y-58666608D02*
X61607928Y-58666608D01*
X61607928Y-58666608D02*
X61239400Y-57764680D01*
X61904880Y-59671608D02*
X61904880Y-58939608D01*
X61904880Y-58939608D02*
X61631880Y-58666608D01*
X61904880Y-60531608D02*
X61904880Y-59671608D01*
X61904880Y-60961608D02*
X61904880Y-60531608D01*
X53223159Y-53962299D02*
X53355240Y-54094380D01*
X58533180Y-54457240D02*
X58533180Y-54712722D01*
X57703722Y-55542180D02*
X57470040Y-55542180D01*
X60133180Y-54457240D02*
X60933180Y-54457240D01*
X61201880Y-58666608D02*
X61199340Y-57804740D01*
X61199340Y-57804740D02*
X61239400Y-57764680D01*
X59339131Y-57061637D02*
X59339131Y-56323191D01*
X59339131Y-56323191D02*
X59333180Y-56317240D01*
X57323280Y-55395420D02*
X57470040Y-55542180D01*
X54566920Y-54195420D02*
X53456280Y-54195420D01*
X53456280Y-54195420D02*
X53355240Y-54094380D01*
X71769907Y-53906596D02*
X73154716Y-53906596D01*
X73553320Y-54305200D02*
X74213720Y-54305200D01*
X73154716Y-53906596D02*
X73553320Y-54305200D01*
X79435920Y-58308240D02*
X79380080Y-58308240D01*
X79380080Y-58308240D02*
X78940680Y-57868840D01*
X78940680Y-57868840D02*
X78940680Y-57403360D01*
X79435920Y-58379400D02*
X79435920Y-58308240D01*
X79435920Y-58308240D02*
X79435920Y-57898600D01*
X79435920Y-57898600D02*
X78940680Y-57403360D01*
X78430120Y-58379400D02*
X79435920Y-58379400D01*
X79435920Y-58379400D02*
X79532480Y-58282840D01*
X78940680Y-57403360D02*
X78940680Y-57868840D01*
X78940680Y-57868840D02*
X78430120Y-58379400D01*
X78430120Y-58379400D02*
X78430120Y-58384440D01*
D37*
X57421213Y-60147962D02*
X57421213Y-59752831D01*
X56429280Y-60450160D02*
X57121638Y-60450160D01*
X57121638Y-60450160D02*
X57421213Y-60150585D01*
X57421213Y-60150585D02*
X57421213Y-60147962D01*
X59040859Y-63023941D02*
X58611131Y-63023941D01*
X59969502Y-63952584D02*
X59040859Y-63023941D01*
X58611131Y-63023941D02*
X58216000Y-63023941D01*
X57421213Y-59752831D02*
X57570299Y-59752831D01*
X57570299Y-59752831D02*
X57732030Y-59591100D01*
X58323480Y-59591100D02*
X57732030Y-59591100D01*
X57732030Y-59591100D02*
X57651522Y-59671608D01*
X56856480Y-64070380D02*
X56896000Y-64030860D01*
X56856480Y-64939820D02*
X56856480Y-64070380D01*
X57651522Y-59671608D02*
X57670280Y-59671608D01*
X57586459Y-59736671D02*
X57651522Y-59671608D01*
X57173803Y-61001482D02*
X57173803Y-61071684D01*
X57724185Y-60451100D02*
X57173803Y-61001482D01*
X58323480Y-60451100D02*
X57724185Y-60451100D01*
X57436346Y-61071684D02*
X58099739Y-61735077D01*
X58099739Y-61735077D02*
X58099739Y-62265801D01*
X57601058Y-63526530D02*
X57995042Y-63920514D01*
X57601058Y-62764482D02*
X57601058Y-63526530D01*
X58099739Y-62265801D02*
X57601058Y-62764482D01*
X57173803Y-61071684D02*
X57436346Y-61071684D01*
X56429280Y-60950160D02*
X57052279Y-60950160D01*
X57052279Y-60950160D02*
X57173803Y-61071684D01*
X59509883Y-64412204D02*
X58947773Y-63850094D01*
X58202679Y-63850094D02*
X58597810Y-63850094D01*
X58065462Y-63850094D02*
X58202679Y-63850094D01*
X57995042Y-63920514D02*
X58065462Y-63850094D01*
X58947773Y-63850094D02*
X58597810Y-63850094D01*
X56056480Y-63994482D02*
X56056480Y-64211220D01*
X56056480Y-64211220D02*
X56056480Y-64939820D01*
X57995042Y-63920514D02*
X57503406Y-63428878D01*
X57503406Y-63428878D02*
X56622084Y-63428878D01*
X56622084Y-63428878D02*
X56056480Y-63994482D01*
X53355240Y-55618380D02*
X54343960Y-55618380D01*
X54343960Y-55618380D02*
X54566920Y-55395420D01*
X54179280Y-57200160D02*
X54179280Y-56442420D01*
X54179280Y-56442420D02*
X53355240Y-55618380D01*
X57470040Y-54018180D02*
X56344160Y-54018180D01*
X56344160Y-54018180D02*
X56166920Y-54195420D01*
X54679280Y-57200160D02*
X54679280Y-56466040D01*
X55738320Y-54195420D02*
X56166920Y-54195420D01*
X55366920Y-54566820D02*
X55738320Y-54195420D01*
X55366920Y-55778400D02*
X55366920Y-54566820D01*
X54679280Y-56466040D02*
X55366920Y-55778400D01*
X51429280Y-58450160D02*
X50398360Y-58450160D01*
X50398360Y-58450160D02*
X49974835Y-58026635D01*
X70546766Y-62280175D02*
X69706651Y-61440060D01*
X78940680Y-61203360D02*
X72820978Y-61203360D01*
X72820978Y-61203360D02*
X72488319Y-61536019D01*
X72488319Y-61536019D02*
X72488319Y-61953881D01*
X72488319Y-61953881D02*
X72162025Y-62280175D01*
X72162025Y-62280175D02*
X70546766Y-62280175D01*
X69706651Y-61440060D02*
X69311520Y-61440060D01*
X68446879Y-64574420D02*
X68428562Y-64592737D01*
X69220800Y-64574420D02*
X68446879Y-64574420D01*
X80426560Y-60621080D02*
X80279240Y-60768400D01*
X80279240Y-60768400D02*
X79844280Y-61203360D01*
X76751599Y-65824519D02*
X77480217Y-65824519D01*
X77480217Y-65824519D02*
X80279240Y-63025496D01*
X80279240Y-63025496D02*
X80279240Y-60768400D01*
X69311520Y-61440060D02*
X68859400Y-60987940D01*
X68859400Y-60736420D02*
X68422900Y-60299920D01*
X68859400Y-60987940D02*
X68859400Y-60736420D01*
X68422900Y-60299920D02*
X68422900Y-59771320D01*
X68422900Y-59771320D02*
X68404840Y-59771320D01*
X68404840Y-59771320D02*
X68382260Y-59748740D01*
X68382260Y-59748740D02*
X68382260Y-59052840D01*
X68382260Y-59052840D02*
X68163440Y-58834020D01*
X80426560Y-58359040D02*
X80426560Y-60621080D01*
X79844280Y-61203360D02*
X78940680Y-61203360D01*
X80043020Y-57975500D02*
X80426560Y-58359040D01*
X79560001Y-55074401D02*
X80043020Y-55557420D01*
X80043020Y-55557420D02*
X80043020Y-57975500D01*
X78024139Y-55074401D02*
X79560001Y-55074401D01*
X64700571Y-62762849D02*
X64700571Y-62959594D01*
X64707720Y-62755700D02*
X64700571Y-62762849D01*
X65466320Y-62755700D02*
X64707720Y-62755700D01*
X64593419Y-63066746D02*
X64700571Y-62959594D01*
X64593419Y-64541399D02*
X64593419Y-63066746D01*
X65466320Y-64655700D02*
X64707720Y-64655700D01*
X64707720Y-64655700D02*
X64593419Y-64541399D01*
X65671320Y-64655700D02*
X65466320Y-64655700D01*
X78715080Y-61203360D02*
X78940680Y-61203360D01*
D38*
X69220800Y-63774420D02*
X69359915Y-63913535D01*
X69359915Y-63913535D02*
X69417335Y-63913535D01*
X69417335Y-63913535D02*
X69812466Y-63913535D01*
X69438520Y-54051200D02*
X69438520Y-53290320D01*
X69438520Y-53290320D02*
X67319040Y-51170840D01*
X57571640Y-51419760D02*
X57571640Y-50820320D01*
X57571640Y-50820320D02*
X57619900Y-50772060D01*
X57883447Y-69300505D02*
X57308045Y-69300505D01*
X57308045Y-69300505D02*
X57176820Y-69169280D01*
X55372000Y-69494400D02*
X56851700Y-69494400D01*
X56851700Y-69494400D02*
X57176820Y-69169280D01*
X73390280Y-62642982D02*
X73785411Y-62642982D01*
X73352492Y-62681952D02*
X73352492Y-62680770D01*
X73352492Y-62680770D02*
X73390280Y-62642982D01*
X71759441Y-60273178D02*
X72038840Y-60552577D01*
X71703440Y-58834020D02*
X71703440Y-60217177D01*
X71703440Y-60217177D02*
X71759441Y-60273178D01*
X75685100Y-59750860D02*
X76311860Y-59750860D01*
X76311860Y-59750860D02*
X77355700Y-58707020D01*
X66598980Y-68186340D02*
X66326980Y-68186340D01*
X66326980Y-68186340D02*
X65872360Y-68640960D01*
X67319040Y-51170840D02*
X67805300Y-51170840D01*
X67805300Y-51170840D02*
X68308220Y-50667920D01*
X57619900Y-50772060D02*
X57608320Y-50772060D01*
X57608320Y-50772060D02*
X57585460Y-50794920D01*
D37*
X71272400Y-62976760D02*
X69223140Y-62976760D01*
X69223140Y-62976760D02*
X69220800Y-62974420D01*
X50454560Y-55753000D02*
X50454560Y-56698641D01*
X50454560Y-56698641D02*
X51199433Y-57443514D01*
X65445640Y-55280560D02*
X65323680Y-55158600D01*
X65323680Y-55158600D02*
X64470460Y-55158600D01*
X65445640Y-56667400D02*
X65445640Y-55280560D01*
X65054440Y-57058600D02*
X65445640Y-56667400D01*
X64470460Y-57058600D02*
X65054440Y-57058600D01*
X56479280Y-61979936D02*
X56314709Y-62144507D01*
X56479280Y-61450160D02*
X56479280Y-61979936D01*
X50700680Y-60950160D02*
X50592910Y-61057930D01*
X51429280Y-60950160D02*
X50700680Y-60950160D01*
X50592910Y-61879208D02*
X50787985Y-62074283D01*
X50592910Y-61057930D02*
X50592910Y-61879208D01*
X51429280Y-59450160D02*
X51158778Y-59179658D01*
X51158778Y-59179658D02*
X51100232Y-59179658D01*
X50838247Y-59179658D02*
X50819226Y-59198679D01*
X51199782Y-59179658D02*
X51100232Y-59179658D01*
X51100232Y-59179658D02*
X50838247Y-59179658D01*
X51429280Y-58950160D02*
X51199782Y-59179658D01*
X54249680Y-66799820D02*
X54087418Y-66637558D01*
X54456480Y-66799820D02*
X54249680Y-66799820D01*
X63266320Y-64655700D02*
X63266320Y-64102100D01*
X64108741Y-63259679D02*
X64108741Y-62533119D01*
X63266320Y-64102100D02*
X64108741Y-63259679D01*
X64108741Y-62533119D02*
X65163700Y-61478160D01*
X62258264Y-66880740D02*
X62243837Y-66895167D01*
X62788800Y-66880740D02*
X62258264Y-66880740D01*
X62243837Y-66895167D02*
X61964438Y-67174566D01*
X53179280Y-62200160D02*
X53179280Y-63236823D01*
X53179280Y-63236823D02*
X53142167Y-63273936D01*
X64893442Y-57213500D02*
X64371220Y-57213500D01*
X63872487Y-60186947D02*
X65163700Y-61478160D01*
X64371220Y-57846103D02*
X63872487Y-58344836D01*
X64371220Y-57213500D02*
X64371220Y-57846103D01*
X63872487Y-58344836D02*
X63872487Y-60186947D01*
X68323890Y-61577510D02*
X68920800Y-62174420D01*
X68920800Y-62174420D02*
X69220800Y-62174420D01*
X65417700Y-61478160D02*
X66217800Y-61478160D01*
X66317150Y-61577510D02*
X68323890Y-61577510D01*
X66217800Y-61478160D02*
X66317150Y-61577510D01*
X53457493Y-57200160D02*
X53373442Y-57116109D01*
X53373442Y-56979818D02*
X53373442Y-56584687D01*
X53373442Y-57116109D02*
X53373442Y-56979818D01*
X65163700Y-61478160D02*
X65417700Y-61478160D01*
X69220800Y-62974420D02*
X69220800Y-62174420D01*
X62788800Y-66880740D02*
X63451400Y-66880740D01*
X62788800Y-66880740D02*
X63266320Y-66403220D01*
X63266320Y-66403220D02*
X63266320Y-64655700D01*
X63451400Y-66880740D02*
X64231340Y-67660680D01*
X64231340Y-67660680D02*
X64231340Y-68214280D01*
X55256480Y-66799820D02*
X54456480Y-66799820D01*
X51199433Y-57443514D02*
X51199433Y-57770313D01*
X51199433Y-57770313D02*
X51379280Y-57950160D01*
X53457493Y-57200160D02*
X53179280Y-57200160D01*
X53679280Y-57200160D02*
X53457493Y-57200160D01*
D38*
X55171640Y-51419760D02*
X55171640Y-50808740D01*
X55171640Y-50808740D02*
X55185460Y-50794920D01*
X59702700Y-50749200D02*
X59702700Y-51145440D01*
X59702700Y-51145440D02*
X59702700Y-51419760D01*
X59712860Y-51843940D02*
X59712860Y-51155600D01*
X59712860Y-51155600D02*
X59702700Y-51145440D01*
X55185460Y-50794920D02*
X56320840Y-49659540D01*
X58613040Y-49659540D02*
X59702700Y-50749200D01*
X56320840Y-49659540D02*
X58613040Y-49659540D01*
D37*
X56037880Y-62928760D02*
X56598310Y-62928760D01*
X56598310Y-62928760D02*
X57228519Y-62298551D01*
X55679280Y-62570160D02*
X56037880Y-62928760D01*
X55679280Y-62250160D02*
X55679280Y-62570160D01*
X57228519Y-62298551D02*
X57507918Y-62019152D01*
X65417700Y-59954160D02*
X65417700Y-60045582D01*
X65417700Y-60045582D02*
X65930780Y-60558662D01*
X78940680Y-60553360D02*
X77864387Y-60553360D01*
X77864387Y-60553360D02*
X77859085Y-60558662D01*
X56479280Y-57950160D02*
X57496873Y-57950160D01*
X57496873Y-57950160D02*
X57552255Y-57894778D01*
X78940680Y-59903360D02*
X77955140Y-59903360D01*
X77955140Y-59903360D02*
X77853540Y-59801760D01*
X52679280Y-57200160D02*
X52679280Y-56402920D01*
X52679280Y-56402920D02*
X51876960Y-55600600D01*
X48988858Y-55359178D02*
X49044598Y-55359178D01*
X48488600Y-54858920D02*
X48988858Y-55359178D01*
X53025040Y-66671260D02*
X53025040Y-66862960D01*
X54456480Y-65239820D02*
X53025040Y-66671260D01*
X54456480Y-64939820D02*
X54456480Y-65239820D01*
X54679280Y-62928760D02*
X54679280Y-62200160D01*
X54456480Y-64939820D02*
X54587459Y-64808841D01*
X54587459Y-64808841D02*
X54587458Y-63332764D01*
X54587458Y-63332764D02*
X54679280Y-63240942D01*
X54679280Y-63240942D02*
X54679280Y-62928760D01*
X55179280Y-62200160D02*
X55179280Y-63616840D01*
X55179280Y-63718440D02*
X55179280Y-64862620D01*
X55179280Y-63718440D02*
X55179280Y-63616840D01*
X55179280Y-64862620D02*
X55256480Y-64939820D01*
X51005782Y-64015939D02*
X51073762Y-64015939D01*
X50979921Y-64424643D02*
X50979921Y-64041800D01*
X50979921Y-64041800D02*
X51005782Y-64015939D01*
X61636920Y-52814219D02*
X61357521Y-52534820D01*
X61691561Y-52814219D02*
X61636920Y-52814219D01*
X61711840Y-52793940D02*
X61691561Y-52814219D01*
X51404184Y-64000380D02*
X50979921Y-64424643D01*
X52014121Y-63390443D02*
X51404184Y-64000380D01*
X52014121Y-62415319D02*
X52014121Y-63390443D01*
X52179280Y-62250160D02*
X52014121Y-62415319D01*
X52664360Y-67365880D02*
X52664360Y-68082160D01*
X52664360Y-68082160D02*
X52349401Y-68397119D01*
X51121344Y-65822864D02*
X52664360Y-67365880D01*
X51545607Y-64990328D02*
X51121344Y-65414591D01*
X51121344Y-65414591D02*
X51121344Y-65822864D01*
X62798960Y-69758600D02*
X62170310Y-69758600D01*
X51978559Y-70102477D02*
X51978559Y-68459603D01*
X62170310Y-69758600D02*
X61545509Y-70383401D01*
X61545509Y-70383401D02*
X52259483Y-70383401D01*
X52259483Y-70383401D02*
X51978559Y-70102477D01*
X51978559Y-68459603D02*
X52041043Y-68397119D01*
X52041043Y-68397119D02*
X52349401Y-68397119D01*
X52679280Y-62200160D02*
X52679280Y-62863789D01*
X52679280Y-62863789D02*
X52440852Y-63102217D01*
X52440852Y-63102217D02*
X52440852Y-63956127D01*
X51545607Y-64851372D02*
X51545607Y-64990328D01*
X52440852Y-63956127D02*
X51545607Y-64851372D01*
X52664322Y-64620140D02*
X52664322Y-64995704D01*
X52664322Y-64995704D02*
X52111292Y-65548734D01*
X52111292Y-65548734D02*
X52111292Y-65556013D01*
X70061404Y-60824657D02*
X70340803Y-61104056D01*
X69518828Y-60282081D02*
X70061404Y-60824657D01*
X69518828Y-59616632D02*
X69518828Y-60282081D01*
X70426404Y-52563093D02*
X70426404Y-54820352D01*
X70426404Y-54820352D02*
X69929687Y-55317069D01*
X69929687Y-55317069D02*
X69650288Y-55596468D01*
X53679280Y-62200160D02*
X53679280Y-62928760D01*
X52943721Y-64340741D02*
X52664322Y-64620140D01*
X53733997Y-63550465D02*
X52943721Y-64340741D01*
X53733997Y-62983477D02*
X53733997Y-63550465D01*
X53679280Y-62928760D02*
X53733997Y-62983477D01*
X72670544Y-63884427D02*
X72093709Y-63884427D01*
X72676687Y-63878284D02*
X72670544Y-63884427D01*
X72093709Y-63884427D02*
X72087741Y-63878459D01*
X72087741Y-63878459D02*
X70457059Y-63878459D01*
X70457059Y-63878459D02*
X70396099Y-63939419D01*
X70396099Y-63939419D02*
X70396099Y-64652517D01*
X70396099Y-64652517D02*
X70191022Y-64857594D01*
X53375560Y-64758382D02*
X53375560Y-65027985D01*
X54179280Y-62928760D02*
X54160728Y-62947312D01*
X53375560Y-65027985D02*
X53375560Y-65423116D01*
X54160728Y-62947312D02*
X54160728Y-63973214D01*
X54160728Y-63973214D02*
X53375560Y-64758382D01*
X54179280Y-62200160D02*
X54179280Y-62928760D01*
X53101240Y-65697436D02*
X53375560Y-65423116D01*
X53101240Y-65697436D02*
X52676977Y-66121699D01*
X59456480Y-61886100D02*
X59026480Y-61886100D01*
X59464570Y-62758320D02*
X59456480Y-62750230D01*
X59456480Y-62750230D02*
X59456480Y-61886100D01*
X59886480Y-58586100D02*
X59886480Y-57435294D01*
X59886480Y-57435294D02*
X60053220Y-57268554D01*
X59886480Y-58586100D02*
X59886480Y-59528088D01*
X59886480Y-59528088D02*
X59475648Y-59938920D01*
X58323480Y-60021100D02*
X59393468Y-60021100D01*
X59393468Y-60021100D02*
X59475648Y-59938920D01*
X59475648Y-60176571D02*
X59475648Y-59938920D01*
X58596480Y-58586100D02*
X58111660Y-58586100D01*
X58111660Y-58586100D02*
X58044080Y-58653680D01*
X59886480Y-58586100D02*
X59542880Y-58586100D01*
X59542880Y-58586100D02*
X59478610Y-58586100D01*
X57652920Y-66019680D02*
X58378896Y-66745656D01*
X58378896Y-66745656D02*
X60004858Y-66745656D01*
X57652920Y-66019680D02*
X57336620Y-66019680D01*
X57336620Y-66019680D02*
X56856480Y-66499820D01*
X56856480Y-66499820D02*
X56856480Y-66799820D01*
X57652920Y-65183742D02*
X57652920Y-66019680D01*
X59050264Y-64871823D02*
X58661356Y-64482915D01*
X58661356Y-64482915D02*
X58353747Y-64482915D01*
X58353747Y-64482915D02*
X57652920Y-65183742D01*
X60723874Y-64017624D02*
X60723874Y-63471966D01*
X60723874Y-63471966D02*
X61297820Y-62898020D01*
X61281841Y-55504819D02*
X62270460Y-56493438D01*
X62270460Y-56493438D02*
X62270460Y-57058600D01*
X61281841Y-55504819D02*
X61296019Y-55504819D01*
X60483243Y-55504819D02*
X61281841Y-55504819D01*
X59933840Y-55600678D02*
X59333180Y-55000018D01*
X60133180Y-55800018D02*
X59933840Y-55600678D01*
X59933840Y-55600678D02*
X60387384Y-55600678D01*
X60387384Y-55600678D02*
X60483243Y-55504819D01*
X60053220Y-57268554D02*
X60133180Y-57188594D01*
X60108274Y-57213500D02*
X60053220Y-57268554D01*
X59464570Y-62758320D02*
X59481880Y-62741010D01*
X60134500Y-65260731D02*
X60358410Y-65260731D01*
X59439172Y-65260731D02*
X60134500Y-65260731D01*
X60134500Y-65260731D02*
X60723874Y-64671357D01*
X60723874Y-64671357D02*
X60723874Y-64017624D01*
X60723874Y-64017624D02*
X59464570Y-62758320D01*
X56856480Y-66799820D02*
X56056480Y-66799820D01*
X59050264Y-64871823D02*
X59439172Y-65260731D01*
X60358410Y-65260731D02*
X60535188Y-65437509D01*
X60535188Y-65437509D02*
X60924096Y-65826417D01*
X59051880Y-61966608D02*
X59051880Y-61288008D01*
X59051880Y-61288008D02*
X59475648Y-60864240D01*
X59475648Y-60864240D02*
X59475648Y-60176571D01*
X58621880Y-61966608D02*
X58621880Y-61234608D01*
X58621880Y-61234608D02*
X58348880Y-60961608D01*
X59051880Y-61966608D02*
X58621880Y-61966608D01*
X60133180Y-57188594D02*
X60133180Y-57045840D01*
X60133180Y-57045840D02*
X60133180Y-56317240D01*
X60133180Y-56317240D02*
X60133180Y-55800018D01*
X59333180Y-55000018D02*
X59333180Y-54457240D01*
X51422599Y-61852079D02*
X51571734Y-61852079D01*
X51379280Y-61808760D02*
X51422599Y-61852079D01*
X51379280Y-61450160D02*
X51379280Y-61808760D01*
X51806493Y-56777373D02*
X52179280Y-57150160D01*
X51806493Y-56727234D02*
X51806493Y-56777373D01*
X59026480Y-58586100D02*
X59026480Y-58013408D01*
X59026480Y-58013408D02*
X59051880Y-57988008D01*
X59051880Y-57988008D02*
X58533180Y-57469308D01*
X58533180Y-57469308D02*
X58533180Y-57045840D01*
X58533180Y-57045840D02*
X58533180Y-56317240D01*
X60316480Y-58586100D02*
X60316480Y-57907500D01*
X60316480Y-57907500D02*
X60337700Y-57886280D01*
X60337700Y-57886280D02*
X60337700Y-57641320D01*
X60933180Y-56317240D02*
X60933180Y-57045840D01*
X60933180Y-57045840D02*
X60337700Y-57641320D01*
X76282658Y-63395583D02*
X76282658Y-63599384D01*
X76282658Y-63599384D02*
X75404561Y-64477481D01*
X75440436Y-60545959D02*
X75835567Y-60545959D01*
X74653140Y-59254220D02*
X74653140Y-59882757D01*
X74653140Y-59882757D02*
X75316342Y-60545959D01*
X75316342Y-60545959D02*
X75440436Y-60545959D01*
X74956500Y-58950860D02*
X74653140Y-59254220D01*
X75685100Y-58950860D02*
X74956500Y-58950860D01*
D38*
X54898432Y-68212759D02*
X54619033Y-68492158D01*
X55005803Y-68105388D02*
X54898432Y-68212759D01*
X59520928Y-68105388D02*
X55005803Y-68105388D01*
X59576820Y-68161280D02*
X59520928Y-68105388D01*
X59576820Y-69169280D02*
X59576820Y-68161280D01*
X59576820Y-69169280D02*
X60439300Y-69169280D01*
X60439300Y-69169280D02*
X60799980Y-68808600D01*
X69719040Y-51170840D02*
X71861136Y-51170840D01*
X71861136Y-51170840D02*
X72511648Y-51821352D01*
X73530460Y-52019200D02*
X72709496Y-52019200D01*
X72709496Y-52019200D02*
X72511648Y-51821352D01*
X73322571Y-65834880D02*
X73322571Y-66230011D01*
X75718520Y-62588140D02*
X75492650Y-62588140D01*
X73322571Y-64973070D02*
X73322571Y-65834880D01*
X75492650Y-62588140D02*
X73854593Y-64226197D01*
X73854593Y-64226197D02*
X73854593Y-64441048D01*
X73854593Y-64441048D02*
X73322571Y-64973070D01*
D37*
X68163440Y-57884020D02*
X66685200Y-57884020D01*
X66685200Y-57884020D02*
X66598800Y-57970420D01*
X66860420Y-57970420D02*
X66598800Y-57970420D01*
X53279040Y-69311520D02*
X52638960Y-69311520D01*
X52638960Y-69311520D02*
X52608480Y-69281040D01*
X53279040Y-69311520D02*
X53665120Y-69311520D01*
X53665120Y-69311520D02*
X53848000Y-69494400D01*
X51429280Y-60450160D02*
X50589416Y-60450160D01*
X50589416Y-60450160D02*
X50166179Y-60873397D01*
X49152154Y-64087597D02*
X49152154Y-64482728D01*
X50166179Y-60873397D02*
X50166179Y-63073572D01*
X50166179Y-63073572D02*
X49152154Y-64087597D01*
X73096500Y-60179460D02*
X73096500Y-60324350D01*
X73525100Y-59750860D02*
X73096500Y-60179460D01*
X73825100Y-59750860D02*
X73525100Y-59750860D01*
X71812389Y-61608461D02*
X71812389Y-61695965D01*
X73096500Y-60324350D02*
X71812389Y-61608461D01*
X73825100Y-58950860D02*
X73120280Y-58950860D01*
X73120280Y-58950860D02*
X72053440Y-57884020D01*
X72053440Y-57884020D02*
X71703440Y-57884020D01*
X73825100Y-59750860D02*
X73825100Y-58950860D01*
X65491360Y-67779900D02*
X65478660Y-67792600D01*
X65491360Y-66635360D02*
X65491360Y-67779900D01*
X66598980Y-66286340D02*
X65840380Y-66286340D01*
X65840380Y-66286340D02*
X65491360Y-66635360D01*
X73825100Y-58150860D02*
X73270280Y-58150860D01*
X73270280Y-58150860D02*
X72053440Y-56934020D01*
X72053440Y-56934020D02*
X71703440Y-56934020D01*
X55679280Y-57150160D02*
X57463201Y-57150160D01*
X57463201Y-57150160D02*
X57850539Y-56762822D01*
X57850539Y-56762822D02*
X57850539Y-56367691D01*
X55496404Y-56253436D02*
X55611858Y-56253436D01*
X55179280Y-56570560D02*
X55496404Y-56253436D01*
X55179280Y-57200160D02*
X55179280Y-56570560D01*
X55611858Y-56253436D02*
X56006989Y-56253436D01*
X76677101Y-56421439D02*
X76677101Y-57887459D01*
X76677101Y-57887459D02*
X76413700Y-58150860D01*
X76413700Y-58150860D02*
X75685100Y-58150860D01*
X75685100Y-56499040D02*
X75310581Y-56124521D01*
X75310581Y-56124521D02*
X75310581Y-55268279D01*
X75685100Y-57350860D02*
X75685100Y-56499040D01*
X48897205Y-56949005D02*
X48340320Y-56392120D01*
X48340320Y-56392120D02*
X46593760Y-56392120D01*
X48666065Y-67396025D02*
X48005665Y-67396025D01*
X48005665Y-67396025D02*
X46944280Y-66334640D01*
X47141562Y-53511882D02*
X47330528Y-53511882D01*
X47330528Y-53511882D02*
X48625425Y-52216985D01*
M02*
