G04 (created by PCBNEW (2013-jul-07)-stable) date Fri 12 Jun 2015 01:12:31 PM EDT*
%MOIN*%
G04 Gerber Fmt 3.4, Leading zero omitted, Abs format*
%FSLAX34Y34*%
G01*
G70*
G90*
G04 APERTURE LIST*
%ADD10C,0.00590551*%
%ADD11C,0.00393701*%
%ADD12R,0.1244X0.0434*%
%ADD13R,0.0504X0.0304*%
%ADD14R,0.0754X0.0754*%
%ADD15C,0.0754*%
%ADD16C,0.0854*%
%ADD17C,0.12351*%
%ADD18R,0.0304X0.0504*%
G04 APERTURE END LIST*
G54D10*
G54D11*
X28718Y-19360D02*
X19662Y-19360D01*
X28718Y-27825D02*
X19662Y-27825D01*
X19662Y-27825D02*
X17891Y-26053D01*
X17891Y-21132D02*
X19662Y-19360D01*
X32753Y-25167D02*
X30096Y-26447D01*
X32753Y-22018D02*
X32753Y-25167D01*
X30096Y-20738D02*
X32753Y-22018D01*
X17891Y-21132D02*
X17891Y-26053D01*
X28718Y-19360D02*
X30096Y-20738D01*
X28718Y-27825D02*
X30096Y-26447D01*
G54D12*
X26170Y-22551D03*
X26170Y-23551D03*
X26170Y-24551D03*
X28350Y-22551D03*
X28350Y-23551D03*
X28350Y-24551D03*
G54D13*
X21168Y-26049D03*
X21168Y-25449D03*
G54D14*
X20325Y-21395D03*
G54D15*
X20325Y-22395D03*
X20325Y-23395D03*
X20325Y-24395D03*
X20325Y-25395D03*
X20325Y-26395D03*
G54D16*
X21137Y-26807D03*
G54D10*
G36*
X19355Y-20281D02*
X19888Y-20814D01*
X19355Y-21347D01*
X18822Y-20814D01*
X19355Y-20281D01*
X19355Y-20281D01*
G37*
G54D15*
X18648Y-21521D03*
G54D10*
G36*
X30224Y-21792D02*
X30543Y-21108D01*
X31226Y-21427D01*
X30907Y-22110D01*
X30224Y-21792D01*
X30224Y-21792D01*
G37*
G54D15*
X31631Y-22032D03*
G54D10*
G36*
X30594Y-26032D02*
X30275Y-25348D01*
X30959Y-25030D01*
X31277Y-25713D01*
X30594Y-26032D01*
X30594Y-26032D01*
G37*
G54D15*
X31683Y-25108D03*
G54D10*
G36*
X20394Y-26908D02*
X19861Y-27441D01*
X19328Y-26908D01*
X19861Y-26375D01*
X20394Y-26908D01*
X20394Y-26908D01*
G37*
G54D15*
X19154Y-26201D03*
G54D16*
X32170Y-23010D03*
X32130Y-24060D03*
X22676Y-24314D03*
G54D17*
X20450Y-20344D03*
X27930Y-26840D03*
G54D16*
X24850Y-20400D03*
X25850Y-20400D03*
X26850Y-20400D03*
X23850Y-20400D03*
X18383Y-23494D03*
X18383Y-22510D03*
X18379Y-24462D03*
X27857Y-20381D03*
G54D18*
X22886Y-26325D03*
X22286Y-26325D03*
X22299Y-26897D03*
X22899Y-26897D03*
G54D16*
X22095Y-26636D03*
X28533Y-21840D03*
M02*
