G04 (created by PCBNEW (2013-jul-07)-stable) date Fri 12 Jun 2015 01:12:31 PM EDT*
%MOIN*%
G04 Gerber Fmt 3.4, Leading zero omitted, Abs format*
%FSLAX34Y34*%
G01*
G70*
G90*
G04 APERTURE LIST*
%ADD10C,0.00590551*%
%ADD11C,0.00393701*%
%ADD12R,0.108268X0.108268*%
%ADD13R,0.0354331X0.00984252*%
%ADD14R,0.00984252X0.0354331*%
%ADD15R,0.047X0.055*%
%ADD16R,0.036X0.036*%
%ADD17R,0.03X0.02*%
%ADD18R,0.0236X0.0551*%
%ADD19R,0.08X0.06*%
%ADD20R,0.025X0.045*%
%ADD21R,0.045X0.025*%
%ADD22R,0.03X0.01*%
%ADD23R,0.01X0.03*%
%ADD24R,0.1181X0.1181*%
%ADD25R,0.023622X0.0275591*%
%ADD26C,0.11811*%
%ADD27R,0.0275591X0.023622*%
%ADD28R,0.00905512X0.0354331*%
%ADD29R,0.0354331X0.00905512*%
%ADD30R,0.035X0.055*%
%ADD31R,0.023622X0.0551181*%
%ADD32R,0.055X0.035*%
%ADD33C,0.022*%
%ADD34C,0.009*%
%ADD35C,0.02*%
%ADD36C,0.01*%
G04 APERTURE END LIST*
G54D10*
G54D11*
X28718Y-19360D02*
X19662Y-19360D01*
X28718Y-27825D02*
X19662Y-27825D01*
X19662Y-27825D02*
X17891Y-26053D01*
X17891Y-21132D02*
X19662Y-19360D01*
X32753Y-25167D02*
X30096Y-26447D01*
X32753Y-22018D02*
X32753Y-25167D01*
X30096Y-20738D02*
X32753Y-22018D01*
X17891Y-21132D02*
X17891Y-26053D01*
X28718Y-19360D02*
X30096Y-20738D01*
X28718Y-27825D02*
X30096Y-26447D01*
G54D12*
X27458Y-22999D03*
G54D13*
X28284Y-23392D03*
X28284Y-23195D03*
X28284Y-22999D03*
X28284Y-22802D03*
X28284Y-22605D03*
G54D14*
X27851Y-22172D03*
X27654Y-22172D03*
X27458Y-22172D03*
X27261Y-22172D03*
X27064Y-22172D03*
G54D13*
X26631Y-22605D03*
X26631Y-22802D03*
X26631Y-22999D03*
X26631Y-23195D03*
X26631Y-23392D03*
G54D14*
X27064Y-23825D03*
X27261Y-23825D03*
X27458Y-23825D03*
X27654Y-23825D03*
X27851Y-23825D03*
G54D15*
X19809Y-23864D03*
X19139Y-23864D03*
X19139Y-24764D03*
X19809Y-24764D03*
G54D16*
X29280Y-23270D03*
X29280Y-22570D03*
X30080Y-22920D03*
X29284Y-21918D03*
X29284Y-21218D03*
X30084Y-21568D03*
X29270Y-24550D03*
X29270Y-23850D03*
X30070Y-24200D03*
X29270Y-25870D03*
X29270Y-25170D03*
X30070Y-25520D03*
G54D17*
X28399Y-25491D03*
X28399Y-24741D03*
X27399Y-25491D03*
X28399Y-25116D03*
X27399Y-24741D03*
X23515Y-27068D03*
X23515Y-26318D03*
X22515Y-27068D03*
X23515Y-26693D03*
X22515Y-26318D03*
G54D18*
X23140Y-22327D03*
X23140Y-20227D03*
X22640Y-22327D03*
X22140Y-22327D03*
X21640Y-22327D03*
X22640Y-20227D03*
X22140Y-20227D03*
X21640Y-20227D03*
G54D19*
X31520Y-24200D03*
X31520Y-22900D03*
G54D20*
X20991Y-27006D03*
X21591Y-27006D03*
X24929Y-25681D03*
X25529Y-25681D03*
X24933Y-20381D03*
X24333Y-20381D03*
G54D21*
X24297Y-26053D03*
X24297Y-25453D03*
X26802Y-25338D03*
X26802Y-25938D03*
G54D20*
X27719Y-21528D03*
X27119Y-21528D03*
G54D21*
X26079Y-25366D03*
X26079Y-25966D03*
X23307Y-25118D03*
X23307Y-24518D03*
X24267Y-27048D03*
X24267Y-26448D03*
X21090Y-26084D03*
X21090Y-26684D03*
G54D22*
X20600Y-25136D03*
X20600Y-24939D03*
X20600Y-24742D03*
X20600Y-25333D03*
G54D23*
X20895Y-25628D03*
X21092Y-25628D03*
X21289Y-25628D03*
X21486Y-25628D03*
X21682Y-25628D03*
X21879Y-25628D03*
X22076Y-25628D03*
X22273Y-25628D03*
G54D22*
X22568Y-23955D03*
X22568Y-25333D03*
X22568Y-25136D03*
X22568Y-24939D03*
X22568Y-24742D03*
X22568Y-24546D03*
X22568Y-24349D03*
X22568Y-24152D03*
G54D23*
X22273Y-23660D03*
X22076Y-23660D03*
X21879Y-23660D03*
X21682Y-23660D03*
X21486Y-23660D03*
X21289Y-23660D03*
X21092Y-23660D03*
X20895Y-23660D03*
G54D22*
X20600Y-23955D03*
X20600Y-24152D03*
X20600Y-24349D03*
X20600Y-24546D03*
G54D24*
X21584Y-24644D03*
G54D25*
X18289Y-24682D03*
X18289Y-24053D03*
X18682Y-24682D03*
X18682Y-24053D03*
G54D26*
X20450Y-20344D03*
X27930Y-26840D03*
G54D21*
X21980Y-26430D03*
X21980Y-27030D03*
G54D20*
X19398Y-25575D03*
X19998Y-25575D03*
G54D21*
X23297Y-23844D03*
X23297Y-23244D03*
G54D27*
X19879Y-23002D03*
X19249Y-23002D03*
X19879Y-22608D03*
X19249Y-22608D03*
G54D28*
X25735Y-24810D03*
G54D29*
X25843Y-24414D03*
X25843Y-24245D03*
X25843Y-24076D03*
X25843Y-23907D03*
G54D28*
X25735Y-23511D03*
X25566Y-23511D03*
X25396Y-23511D03*
X25227Y-23511D03*
X25058Y-23511D03*
X24889Y-23511D03*
X24719Y-23511D03*
X24550Y-23511D03*
G54D29*
X24443Y-23907D03*
X24443Y-24076D03*
X24443Y-24245D03*
X24443Y-24414D03*
G54D28*
X24550Y-24810D03*
X24719Y-24810D03*
X24889Y-24810D03*
X25058Y-24810D03*
X25227Y-24810D03*
X25396Y-24810D03*
X25566Y-24810D03*
G54D10*
G36*
X18966Y-21904D02*
X18577Y-21515D01*
X18825Y-21267D01*
X19214Y-21656D01*
X18966Y-21904D01*
X18966Y-21904D01*
G37*
G36*
X19496Y-21374D02*
X19107Y-20985D01*
X19355Y-20737D01*
X19744Y-21126D01*
X19496Y-21374D01*
X19496Y-21374D01*
G37*
G36*
X31874Y-21833D02*
X31642Y-22331D01*
X31325Y-22183D01*
X31557Y-21685D01*
X31874Y-21833D01*
X31874Y-21833D01*
G37*
G36*
X31194Y-21516D02*
X30962Y-22014D01*
X30645Y-21866D01*
X30877Y-21368D01*
X31194Y-21516D01*
X31194Y-21516D01*
G37*
G36*
X31702Y-24788D02*
X31934Y-25286D01*
X31617Y-25434D01*
X31385Y-24936D01*
X31702Y-24788D01*
X31702Y-24788D01*
G37*
G36*
X31022Y-25105D02*
X31254Y-25603D01*
X30937Y-25751D01*
X30705Y-25253D01*
X31022Y-25105D01*
X31022Y-25105D01*
G37*
G36*
X18889Y-26454D02*
X19278Y-26065D01*
X19526Y-26313D01*
X19137Y-26702D01*
X18889Y-26454D01*
X18889Y-26454D01*
G37*
G36*
X19419Y-26984D02*
X19808Y-26595D01*
X20056Y-26843D01*
X19667Y-27232D01*
X19419Y-26984D01*
X19419Y-26984D01*
G37*
G54D30*
X19776Y-21771D03*
X20526Y-21771D03*
G54D31*
X25623Y-21206D03*
X25131Y-21206D03*
X24638Y-21206D03*
X24146Y-21206D03*
X24146Y-22191D03*
X24638Y-22191D03*
X25131Y-22191D03*
X25623Y-22191D03*
G54D27*
X26342Y-20575D03*
X25713Y-20575D03*
X26342Y-20182D03*
X25713Y-20182D03*
G54D30*
X26883Y-26940D03*
X26133Y-26940D03*
G54D32*
X30702Y-24105D03*
X30702Y-23355D03*
G54D33*
X22886Y-26325D03*
X20624Y-25660D03*
X20277Y-24936D03*
X23332Y-24836D03*
X23585Y-23333D03*
X26544Y-20337D03*
X25827Y-25241D03*
X25299Y-25229D03*
X25190Y-24158D03*
X24894Y-23073D03*
X30750Y-21452D03*
X30681Y-25547D03*
X19754Y-27194D03*
X19362Y-20733D03*
X19632Y-20865D03*
X19976Y-27018D03*
X30610Y-21660D03*
X31623Y-23909D03*
X31056Y-23916D03*
X31266Y-24427D03*
X31900Y-24440D03*
X30946Y-25431D03*
X28128Y-23945D03*
X26238Y-22943D03*
X28578Y-25497D03*
X26544Y-22041D03*
X27608Y-20700D03*
X26616Y-23934D03*
X26978Y-24398D03*
X26509Y-26824D03*
X28854Y-21006D03*
X26064Y-22082D03*
X26403Y-20937D03*
X28986Y-23106D03*
X23638Y-25976D03*
X25836Y-23016D03*
X24024Y-24339D03*
X24444Y-22671D03*
X23832Y-20562D03*
X21371Y-24917D03*
X18483Y-25554D03*
X20713Y-21406D03*
X26196Y-26105D03*
X27059Y-23378D03*
X31469Y-22775D03*
X27534Y-22658D03*
X28004Y-21445D03*
X21858Y-24385D03*
X29898Y-23690D03*
X30033Y-23405D03*
X29796Y-23288D03*
X29646Y-23588D03*
X31161Y-22677D03*
X31214Y-23089D03*
X31722Y-22729D03*
X31511Y-23179D03*
X18932Y-24462D03*
X19226Y-23349D03*
X22941Y-27216D03*
X24714Y-26723D03*
X22755Y-23499D03*
X23190Y-24184D03*
X18582Y-21318D03*
X18600Y-21702D03*
X31602Y-22250D03*
X31773Y-22051D03*
X31457Y-24902D03*
X31770Y-25020D03*
X19128Y-26184D03*
X18867Y-26379D03*
X21446Y-22798D03*
X21156Y-22216D03*
X22096Y-20766D03*
X22233Y-23088D03*
X18678Y-22510D03*
X28416Y-22155D03*
X21092Y-25930D03*
X18678Y-23100D03*
X21112Y-26852D03*
X25470Y-20217D03*
X25731Y-21807D03*
X27389Y-25109D03*
X26439Y-24935D03*
X22932Y-25726D03*
X28469Y-23602D03*
X26061Y-23556D03*
X26895Y-23808D03*
X25257Y-20526D03*
X25032Y-22505D03*
X23054Y-25448D03*
X21839Y-26001D03*
X20400Y-23444D03*
X20238Y-24086D03*
G54D34*
X21380Y-26376D02*
X21926Y-26376D01*
X21926Y-26376D02*
X21980Y-26430D01*
X20624Y-25660D02*
X20640Y-26286D01*
X21370Y-26387D02*
X21380Y-26376D01*
X21380Y-26376D02*
X21520Y-26237D01*
X20741Y-26387D02*
X21370Y-26387D01*
X20640Y-26286D02*
X20741Y-26387D01*
X22886Y-26325D02*
X22897Y-26335D01*
X21980Y-26430D02*
X21935Y-26237D01*
X20349Y-24863D02*
X20480Y-24862D01*
X20480Y-24862D02*
X20600Y-24742D01*
X20600Y-24939D02*
X20281Y-24940D01*
X20281Y-24940D02*
X20277Y-24936D01*
X20600Y-24742D02*
X20600Y-24939D01*
X20624Y-25660D02*
X20729Y-25630D01*
X20729Y-25630D02*
X20895Y-25628D01*
X20349Y-24863D02*
X20277Y-24936D01*
X23140Y-22327D02*
X23140Y-23197D01*
X23140Y-23197D02*
X23187Y-23245D01*
X21935Y-26237D02*
X22101Y-26250D01*
X22025Y-26385D02*
X21980Y-26430D01*
X22101Y-26250D02*
X22025Y-26385D01*
X21486Y-25628D02*
X21486Y-25828D01*
X21486Y-25828D02*
X21520Y-26237D01*
X21520Y-26237D02*
X21935Y-26237D01*
X21935Y-26237D02*
X22074Y-26217D01*
X22074Y-26217D02*
X22076Y-25628D01*
X21289Y-25628D02*
X21486Y-25628D01*
X23307Y-25118D02*
X23307Y-25925D01*
X23307Y-25925D02*
X22897Y-26335D01*
X22897Y-26335D02*
X22873Y-26359D01*
X22873Y-26359D02*
X22873Y-26710D01*
X22873Y-26710D02*
X22515Y-27068D01*
X23307Y-25118D02*
X23299Y-24869D01*
X23299Y-24869D02*
X23332Y-24836D01*
X23585Y-23333D02*
X23579Y-23327D01*
X23579Y-23327D02*
X23187Y-23245D01*
X22568Y-24939D02*
X22774Y-24939D01*
X22774Y-24939D02*
X23128Y-24939D01*
X23128Y-24939D02*
X23307Y-25118D01*
X22568Y-24742D02*
X22568Y-24939D01*
X22273Y-23660D02*
X22273Y-23632D01*
X22273Y-23632D02*
X22660Y-23245D01*
X22660Y-23245D02*
X23187Y-23245D01*
X22515Y-27068D02*
X22515Y-26795D01*
X22150Y-26430D02*
X21980Y-26430D01*
X22515Y-26795D02*
X22150Y-26430D01*
X26417Y-20475D02*
X26266Y-20475D01*
X25618Y-21123D02*
X25618Y-21127D01*
X26266Y-20475D02*
X25618Y-21123D01*
X26417Y-20475D02*
X26468Y-20412D01*
X26468Y-20412D02*
X26544Y-20337D01*
X26417Y-20082D02*
X26417Y-20475D01*
X24141Y-21127D02*
X24141Y-21260D01*
X24332Y-23086D02*
X24894Y-23073D01*
X23821Y-22575D02*
X24332Y-23086D01*
X23821Y-21581D02*
X23821Y-22575D01*
X24141Y-21260D02*
X23821Y-21581D01*
X25618Y-21127D02*
X25559Y-21385D01*
X25559Y-21385D02*
X25328Y-21607D01*
X25328Y-21607D02*
X24316Y-21613D01*
X24316Y-21613D02*
X24141Y-21465D01*
X24141Y-21465D02*
X24141Y-21127D01*
X26802Y-25338D02*
X27039Y-25338D01*
X27192Y-25491D02*
X27399Y-25491D01*
X27039Y-25338D02*
X27192Y-25491D01*
X26555Y-25364D02*
X26080Y-25364D01*
X26791Y-25364D02*
X26555Y-25364D01*
X26080Y-25364D02*
X26079Y-25366D01*
X25396Y-24810D02*
X25396Y-25131D01*
X25396Y-25131D02*
X25299Y-25229D01*
X26079Y-25366D02*
X25952Y-25366D01*
X25952Y-25366D02*
X25827Y-25241D01*
X25227Y-25157D02*
X25227Y-24810D01*
X25299Y-25229D02*
X25227Y-25157D01*
X25735Y-24810D02*
X25860Y-24810D01*
X26079Y-25029D02*
X26079Y-25366D01*
X25860Y-24810D02*
X26079Y-25029D01*
X25258Y-24234D02*
X25258Y-24226D01*
X25258Y-24226D02*
X25190Y-24158D01*
X24946Y-23125D02*
X25509Y-23164D01*
X25566Y-23223D02*
X25509Y-23164D01*
X25566Y-23511D02*
X25566Y-23223D01*
X24894Y-23073D02*
X24946Y-23125D01*
X25566Y-23511D02*
X25396Y-23511D01*
X25227Y-24810D02*
X25227Y-24315D01*
X25227Y-24315D02*
X25227Y-24234D01*
X25227Y-24234D02*
X25258Y-24234D01*
X25258Y-24234D02*
X25493Y-24245D01*
X25396Y-24810D02*
X25396Y-24342D01*
X25493Y-24245D02*
X25843Y-24245D01*
X25396Y-24342D02*
X25493Y-24245D01*
X26883Y-26940D02*
X27675Y-27096D01*
X27675Y-27096D02*
X27930Y-26840D01*
X30702Y-24105D02*
X30891Y-23916D01*
X30891Y-23916D02*
X31056Y-23916D01*
X30920Y-21691D02*
X30920Y-21622D01*
X30920Y-21622D02*
X30750Y-21452D01*
X30980Y-25428D02*
X30799Y-25428D01*
X30799Y-25428D02*
X30681Y-25547D01*
X19672Y-26882D02*
X19754Y-27194D01*
X19373Y-21108D02*
X19332Y-20751D01*
X19332Y-20751D02*
X19362Y-20733D01*
X19373Y-21108D02*
X19632Y-20865D01*
X19672Y-26882D02*
X19976Y-27018D01*
X30988Y-21723D02*
X30673Y-21723D01*
X30673Y-21723D02*
X30610Y-21660D01*
X31520Y-24200D02*
X31340Y-24200D01*
X31520Y-24012D02*
X31520Y-24200D01*
X31623Y-23909D02*
X31520Y-24012D01*
X31340Y-24200D02*
X31056Y-23916D01*
X31493Y-24200D02*
X31520Y-24200D01*
X31266Y-24427D02*
X31493Y-24200D01*
X31660Y-24200D02*
X31520Y-24200D01*
X31900Y-24440D02*
X31660Y-24200D01*
X30981Y-25396D02*
X30946Y-25431D01*
X31048Y-25396D02*
X30981Y-25396D01*
X27843Y-23834D02*
X27851Y-23825D01*
X27843Y-24011D02*
X27843Y-23834D01*
X28061Y-24011D02*
X27843Y-24011D01*
X28128Y-23945D02*
X28061Y-24011D01*
X26238Y-22943D02*
X26294Y-22999D01*
X26294Y-22999D02*
X26631Y-22999D01*
X28578Y-25497D02*
X28525Y-25497D01*
X26447Y-26497D02*
X26133Y-26940D01*
X27146Y-26497D02*
X26447Y-26497D01*
X27616Y-26069D02*
X27146Y-26497D01*
X28044Y-26069D02*
X27616Y-26069D01*
X28525Y-25497D02*
X28044Y-26069D01*
X26133Y-26940D02*
X24315Y-27096D01*
X24315Y-27096D02*
X24267Y-27048D01*
X23515Y-27068D02*
X24247Y-27068D01*
X24247Y-27068D02*
X24267Y-27048D01*
X28613Y-25532D02*
X28578Y-25497D01*
X28533Y-25452D02*
X28613Y-25532D01*
X28533Y-25452D02*
X28399Y-25491D01*
X28399Y-25491D02*
X28533Y-25452D01*
X23515Y-26318D02*
X23319Y-26318D01*
X23319Y-26318D02*
X23124Y-26513D01*
X23124Y-26513D02*
X23124Y-26954D01*
X23124Y-26954D02*
X23238Y-27068D01*
X23238Y-27068D02*
X23515Y-27068D01*
X27267Y-21690D02*
X27267Y-21676D01*
X27267Y-21676D02*
X27119Y-21528D01*
X27590Y-20718D02*
X27608Y-20700D01*
X26796Y-22014D02*
X26544Y-22041D01*
X26964Y-21846D02*
X26796Y-22014D01*
X27199Y-21846D02*
X26964Y-21846D01*
X27267Y-21903D02*
X27267Y-21690D01*
X27267Y-21690D02*
X27267Y-21182D01*
X27267Y-21182D02*
X27267Y-21135D01*
X27267Y-21135D02*
X27608Y-20700D01*
X27210Y-21846D02*
X27199Y-21846D01*
X27261Y-21897D02*
X27267Y-21903D01*
X27267Y-21903D02*
X27210Y-21846D01*
X27261Y-22172D02*
X27261Y-21897D01*
X26961Y-24492D02*
X26961Y-24415D01*
X26631Y-23627D02*
X26612Y-23647D01*
X26612Y-23647D02*
X26612Y-23862D01*
X26631Y-23392D02*
X26631Y-23627D01*
X27115Y-24361D02*
X26985Y-24492D01*
X26985Y-24492D02*
X26961Y-24492D01*
X27115Y-24361D02*
X28003Y-24361D01*
X26612Y-23930D02*
X26612Y-23862D01*
X26616Y-23934D02*
X26612Y-23930D01*
X26961Y-24415D02*
X26978Y-24398D01*
X28399Y-24741D02*
X28383Y-24741D01*
X28383Y-24741D02*
X28003Y-24361D01*
X28003Y-24361D02*
X28002Y-24360D01*
X22941Y-27216D02*
X23072Y-27216D01*
X26509Y-27258D02*
X26509Y-26824D01*
X26411Y-27356D02*
X26509Y-27258D01*
X23212Y-27356D02*
X26411Y-27356D01*
X23072Y-27216D02*
X23212Y-27356D01*
X28757Y-20986D02*
X28777Y-21006D01*
X28777Y-21006D02*
X28854Y-21006D01*
X26159Y-22127D02*
X26109Y-22127D01*
X26109Y-22127D02*
X26064Y-22082D01*
X27458Y-22999D02*
X27439Y-22999D01*
X26159Y-22204D02*
X26159Y-22127D01*
X26159Y-22127D02*
X26159Y-21465D01*
X26305Y-22350D02*
X26159Y-22204D01*
X26790Y-22350D02*
X26305Y-22350D01*
X27439Y-22999D02*
X26790Y-22350D01*
X29280Y-23270D02*
X29126Y-23270D01*
X28986Y-23130D02*
X28986Y-23106D01*
X29126Y-23270D02*
X28986Y-23130D01*
X28004Y-21445D02*
X27802Y-21445D01*
X27802Y-21445D02*
X27719Y-21528D01*
X24297Y-26053D02*
X23715Y-26053D01*
X23715Y-26053D02*
X23638Y-25976D01*
X25880Y-23060D02*
X25880Y-23297D01*
X25735Y-23442D02*
X25880Y-23297D01*
X25735Y-23511D02*
X25735Y-23442D01*
X25836Y-23016D02*
X25880Y-23060D01*
X24258Y-24593D02*
X24258Y-24573D01*
X24258Y-24573D02*
X24024Y-24339D01*
X24443Y-23639D02*
X24386Y-23639D01*
X24386Y-23639D02*
X24201Y-23454D01*
X24534Y-22761D02*
X24764Y-22761D01*
X24444Y-22671D02*
X24534Y-22761D01*
X24640Y-20380D02*
X24014Y-20380D01*
X24014Y-20380D02*
X23832Y-20562D01*
X24633Y-21127D02*
X24633Y-20386D01*
X24633Y-20386D02*
X24640Y-20380D01*
X23850Y-24518D02*
X23898Y-24566D01*
X23898Y-25916D02*
X23898Y-24566D01*
X23898Y-24566D02*
X24030Y-24698D01*
X24030Y-24698D02*
X24258Y-24698D01*
X24035Y-26053D02*
X23898Y-25916D01*
X24258Y-24698D02*
X24258Y-24593D01*
X24249Y-24593D02*
X24258Y-24593D01*
X24255Y-24599D02*
X24249Y-24593D01*
X24258Y-24599D02*
X24255Y-24599D01*
X24258Y-24538D02*
X24319Y-24538D01*
X24258Y-24593D02*
X24258Y-24538D01*
X24258Y-24538D02*
X24258Y-24521D01*
X24258Y-24521D02*
X24278Y-24501D01*
X20691Y-27324D02*
X20691Y-26995D01*
X21540Y-27006D02*
X21187Y-27359D01*
X21187Y-27359D02*
X20726Y-27359D01*
X20726Y-27359D02*
X20691Y-27324D01*
X21591Y-27006D02*
X21540Y-27006D01*
X19452Y-25756D02*
X19452Y-25566D01*
X20691Y-26995D02*
X19452Y-25756D01*
X21608Y-27118D02*
X21892Y-27118D01*
X21892Y-27118D02*
X21980Y-27030D01*
X21584Y-24703D02*
X21584Y-24644D01*
X21371Y-24917D02*
X21584Y-24703D01*
X18627Y-25698D02*
X18627Y-25802D01*
X18483Y-25554D02*
X18627Y-25698D01*
X20330Y-21640D02*
X20479Y-21640D01*
X20479Y-21640D02*
X20713Y-21406D01*
X24824Y-25927D02*
X24956Y-25927D01*
X26343Y-26189D02*
X26343Y-26203D01*
X26329Y-26203D02*
X26343Y-26189D01*
X26294Y-26203D02*
X26329Y-26203D01*
X26196Y-26105D02*
X26294Y-26203D01*
X24956Y-25927D02*
X25083Y-26054D01*
X26403Y-26203D02*
X26343Y-26203D01*
X26343Y-26203D02*
X25451Y-26203D01*
X25451Y-26203D02*
X25085Y-26569D01*
X25085Y-26569D02*
X24306Y-26569D01*
X26079Y-25966D02*
X26790Y-25966D01*
X26790Y-25966D02*
X26791Y-25964D01*
X27438Y-22999D02*
X27458Y-22999D01*
X27059Y-23378D02*
X27438Y-22999D01*
X23307Y-24518D02*
X23850Y-24518D01*
X24443Y-24414D02*
X24258Y-24599D01*
X24297Y-26053D02*
X24035Y-26053D01*
X24297Y-26053D02*
X24699Y-26053D01*
X24930Y-25822D02*
X24930Y-25571D01*
X24699Y-26053D02*
X24824Y-25927D01*
X24824Y-25927D02*
X24930Y-25822D01*
X24297Y-26053D02*
X24297Y-26560D01*
X24297Y-26560D02*
X24306Y-26569D01*
X24719Y-24810D02*
X24889Y-24810D01*
X24550Y-24810D02*
X24719Y-24810D01*
X24443Y-24414D02*
X24443Y-24703D01*
X24443Y-24703D02*
X24550Y-24810D01*
X24319Y-24538D02*
X24443Y-24414D01*
X25735Y-23511D02*
X25735Y-23799D01*
X25735Y-23799D02*
X25843Y-23907D01*
X24443Y-23907D02*
X25843Y-23907D01*
X24443Y-23907D02*
X24443Y-23639D01*
X24443Y-23639D02*
X24443Y-23618D01*
X24443Y-23618D02*
X24550Y-23511D01*
X24443Y-24076D02*
X24443Y-23907D01*
X24443Y-24245D02*
X24443Y-24076D01*
X24443Y-24414D02*
X24443Y-24245D01*
X31112Y-22845D02*
X31063Y-22894D01*
X31399Y-22845D02*
X31112Y-22845D01*
X31469Y-22775D02*
X31399Y-22845D01*
X21980Y-27251D02*
X21980Y-27030D01*
X19450Y-25563D02*
X19450Y-25564D01*
X19450Y-25563D02*
X19389Y-25563D01*
X19059Y-25802D02*
X18627Y-25802D01*
X19213Y-25802D02*
X19059Y-25802D01*
X19450Y-25564D02*
X19213Y-25802D01*
X18627Y-25802D02*
X18604Y-25802D01*
X18047Y-23959D02*
X18238Y-23699D01*
X18047Y-25177D02*
X18047Y-23959D01*
X18604Y-25802D02*
X18047Y-25177D01*
X28368Y-21509D02*
X28068Y-21509D01*
X28068Y-21509D02*
X28004Y-21445D01*
X27458Y-22734D02*
X27458Y-22999D01*
X27534Y-22658D02*
X27458Y-22734D01*
X24306Y-26569D02*
X24560Y-26569D01*
X24560Y-26569D02*
X24714Y-26723D01*
X20647Y-20344D02*
X21522Y-20344D01*
X21522Y-20344D02*
X21640Y-20227D01*
X19429Y-23412D02*
X19289Y-23412D01*
X19289Y-23412D02*
X19226Y-23349D01*
X19011Y-24788D02*
X19011Y-24541D01*
X19011Y-24541D02*
X18932Y-24462D01*
X18238Y-24049D02*
X18238Y-23699D01*
X18238Y-23699D02*
X18526Y-23412D01*
X18526Y-23412D02*
X19429Y-23412D01*
X19429Y-23412D02*
X19541Y-23412D01*
X19541Y-23412D02*
X19681Y-23552D01*
X19681Y-23552D02*
X19681Y-23888D01*
X18238Y-24049D02*
X18238Y-24153D01*
X18238Y-24153D02*
X18447Y-24362D01*
X18447Y-24362D02*
X18623Y-24362D01*
X18623Y-24362D02*
X18631Y-24370D01*
X18631Y-24370D02*
X18631Y-24678D01*
X21598Y-24644D02*
X21584Y-24644D01*
X21858Y-24385D02*
X21598Y-24644D01*
X19011Y-24788D02*
X18740Y-24788D01*
X18740Y-24788D02*
X18631Y-24678D01*
X22568Y-24546D02*
X23278Y-24546D01*
X23278Y-24546D02*
X23307Y-24518D01*
X21584Y-24644D02*
X22160Y-24644D01*
X22258Y-24546D02*
X22568Y-24546D01*
X22160Y-24644D02*
X22258Y-24546D01*
X24306Y-26569D02*
X23890Y-26569D01*
X23766Y-26693D02*
X23515Y-26693D01*
X23890Y-26569D02*
X23766Y-26693D01*
X26791Y-25964D02*
X26641Y-25964D01*
X26641Y-25964D02*
X26403Y-26203D01*
X26403Y-26203D02*
X26399Y-26207D01*
X29748Y-23791D02*
X30156Y-23791D01*
X30156Y-23791D02*
X30341Y-23606D01*
X29928Y-23606D02*
X29928Y-23660D01*
X29928Y-23660D02*
X29898Y-23690D01*
X30033Y-23405D02*
X29916Y-23288D01*
X29916Y-23288D02*
X29796Y-23288D01*
X29646Y-23588D02*
X29745Y-23687D01*
X29745Y-23687D02*
X29847Y-23687D01*
X31161Y-22677D02*
X31384Y-22900D01*
X31384Y-22900D02*
X31520Y-22900D01*
X31403Y-22900D02*
X31520Y-22900D01*
X31214Y-23089D02*
X31403Y-22900D01*
X31551Y-22900D02*
X31520Y-22900D01*
X31722Y-22729D02*
X31551Y-22900D01*
X31520Y-23170D02*
X31520Y-22900D01*
X31511Y-23179D02*
X31520Y-23170D01*
X28368Y-21509D02*
X28368Y-21376D01*
X29711Y-21716D02*
X29580Y-21846D01*
X29711Y-21087D02*
X29711Y-21716D01*
X29472Y-20848D02*
X29711Y-21087D01*
X28896Y-20848D02*
X29472Y-20848D01*
X28368Y-21376D02*
X28757Y-20986D01*
X28757Y-20986D02*
X28896Y-20848D01*
X28399Y-25116D02*
X28543Y-25116D01*
X28932Y-25505D02*
X29500Y-25505D01*
X28543Y-25116D02*
X28932Y-25505D01*
X29748Y-23606D02*
X29748Y-23791D01*
X29748Y-23791D02*
X29748Y-25512D01*
X29390Y-25870D02*
X29270Y-25870D01*
X29748Y-25512D02*
X29390Y-25870D01*
X29691Y-25421D02*
X29691Y-25449D01*
X29691Y-24399D02*
X29691Y-24630D01*
X29691Y-24630D02*
X29691Y-25421D01*
X29691Y-25449D02*
X29270Y-25870D01*
X29270Y-24550D02*
X29270Y-24619D01*
X29270Y-24619D02*
X29612Y-24961D01*
X29270Y-24550D02*
X29270Y-24497D01*
X29270Y-24497D02*
X29612Y-24155D01*
X29284Y-21918D02*
X29308Y-21918D01*
X29308Y-21918D02*
X29550Y-22160D01*
X29612Y-23615D02*
X29612Y-23602D01*
X29612Y-23602D02*
X29280Y-23270D01*
X29280Y-23270D02*
X29280Y-23232D01*
X29280Y-23232D02*
X29540Y-22972D01*
X29540Y-22972D02*
X29612Y-22972D01*
X29284Y-21918D02*
X29413Y-21918D01*
X29413Y-21918D02*
X29612Y-22117D01*
X29612Y-22117D02*
X29612Y-22972D01*
X29270Y-25735D02*
X29270Y-25870D01*
X29612Y-25393D02*
X29500Y-25505D01*
X29500Y-25505D02*
X29270Y-25735D01*
X29612Y-24961D02*
X29612Y-25393D01*
X29612Y-24155D02*
X29612Y-24961D01*
X29612Y-22972D02*
X29612Y-23615D01*
X29612Y-23615D02*
X29612Y-24155D01*
X29284Y-21918D02*
X29401Y-21918D01*
X29401Y-21918D02*
X29486Y-21833D01*
X29486Y-21833D02*
X29567Y-21833D01*
X29567Y-21833D02*
X29580Y-21846D01*
X29760Y-22026D02*
X29760Y-23242D01*
X29580Y-21846D02*
X29760Y-22026D01*
X29691Y-23606D02*
X29748Y-23606D01*
X29748Y-23606D02*
X29928Y-23606D01*
X29928Y-23606D02*
X30341Y-23606D01*
X30341Y-23606D02*
X30804Y-23606D01*
X31510Y-22900D02*
X31520Y-22900D01*
X30804Y-23606D02*
X31510Y-22900D01*
X29691Y-23288D02*
X30642Y-23288D01*
X30642Y-23288D02*
X31030Y-22900D01*
X31030Y-22900D02*
X31520Y-22900D01*
X29691Y-23363D02*
X30687Y-23363D01*
X31150Y-22900D02*
X31520Y-22900D01*
X30687Y-23363D02*
X31150Y-22900D01*
X30732Y-23440D02*
X31272Y-22900D01*
X29691Y-23440D02*
X30732Y-23440D01*
X31272Y-22900D02*
X31520Y-22900D01*
X31520Y-22900D02*
X31400Y-22900D01*
X30769Y-23531D02*
X29691Y-23531D01*
X31400Y-22900D02*
X30769Y-23531D01*
X29691Y-23181D02*
X29691Y-23288D01*
X29691Y-23288D02*
X29691Y-23363D01*
X29691Y-23363D02*
X29691Y-23440D01*
X29691Y-23440D02*
X29691Y-23531D01*
X29691Y-23531D02*
X29691Y-23606D01*
X29691Y-23606D02*
X29691Y-24399D01*
X29540Y-24550D02*
X29270Y-24550D01*
X29691Y-24399D02*
X29540Y-24550D01*
X29284Y-21918D02*
X29534Y-21918D01*
X29602Y-23270D02*
X29280Y-23270D01*
X29691Y-23181D02*
X29602Y-23270D01*
X29691Y-22075D02*
X29691Y-23181D01*
X29534Y-21918D02*
X29691Y-22075D01*
X27458Y-22172D02*
X27458Y-21741D01*
X27690Y-21509D02*
X28368Y-21509D01*
X27458Y-21741D02*
X27690Y-21509D01*
X27458Y-22172D02*
X27458Y-22999D01*
X22941Y-27216D02*
X22885Y-27272D01*
X22885Y-27272D02*
X22075Y-27346D01*
X22075Y-27346D02*
X21980Y-27251D01*
X19879Y-23002D02*
X20745Y-23002D01*
X20745Y-23002D02*
X20895Y-23151D01*
X20895Y-23151D02*
X20895Y-23660D01*
X19879Y-22608D02*
X19879Y-23002D01*
X22755Y-23499D02*
X23134Y-23792D01*
X23134Y-23792D02*
X23187Y-23845D01*
X22568Y-24152D02*
X22808Y-24160D01*
X22808Y-24160D02*
X23187Y-23845D01*
X22568Y-24349D02*
X22884Y-24348D01*
X22884Y-24348D02*
X23092Y-24188D01*
X23092Y-24188D02*
X23190Y-24184D01*
G54D35*
X30084Y-21568D02*
X30024Y-21072D01*
X30024Y-21072D02*
X29805Y-20775D01*
X29805Y-20775D02*
X28608Y-19560D01*
X28608Y-19560D02*
X19755Y-19560D01*
X19755Y-19560D02*
X18513Y-20799D01*
X18513Y-20799D02*
X18582Y-21318D01*
X18948Y-21533D02*
X18582Y-21318D01*
X18948Y-21533D02*
X18600Y-21702D01*
X31531Y-21976D02*
X31531Y-22179D01*
X31531Y-22179D02*
X31602Y-22250D01*
X31531Y-21976D02*
X31698Y-21976D01*
X31698Y-21976D02*
X31773Y-22051D01*
X30080Y-22920D02*
X30442Y-22920D01*
X31160Y-22348D02*
X31531Y-21976D01*
X31014Y-22348D02*
X31160Y-22348D01*
X30442Y-22920D02*
X31014Y-22348D01*
X31283Y-24945D02*
X31414Y-24945D01*
X31414Y-24945D02*
X31457Y-24902D01*
X31591Y-25143D02*
X31481Y-25143D01*
X30495Y-24625D02*
X30070Y-24200D01*
X30963Y-24625D02*
X30495Y-24625D01*
X31481Y-25143D02*
X31283Y-24945D01*
X31283Y-24945D02*
X30963Y-24625D01*
G54D34*
X31591Y-25143D02*
X31646Y-25143D01*
X31646Y-25143D02*
X31770Y-25020D01*
G54D35*
X19855Y-27603D02*
X19722Y-27606D01*
X19722Y-27606D02*
X19044Y-26889D01*
X19044Y-26889D02*
X19247Y-26457D01*
X28626Y-27629D02*
X19855Y-27603D01*
X30070Y-26080D02*
X28626Y-27629D01*
X19247Y-26457D02*
X19128Y-26184D01*
X19247Y-26457D02*
X18867Y-26379D01*
X30070Y-25520D02*
X30070Y-26080D01*
G54D34*
X29022Y-21510D02*
X29022Y-21480D01*
X29022Y-21480D02*
X29284Y-21218D01*
X28284Y-22802D02*
X28566Y-22802D01*
X28851Y-21681D02*
X29022Y-21510D01*
X29022Y-21510D02*
X29031Y-21501D01*
X28851Y-22518D02*
X28851Y-21681D01*
X28566Y-22802D02*
X28851Y-22518D01*
X28284Y-22999D02*
X28759Y-22999D01*
X29188Y-22570D02*
X29280Y-22570D01*
X28759Y-22999D02*
X29188Y-22570D01*
X28284Y-23195D02*
X28734Y-23195D01*
X29071Y-23850D02*
X29270Y-23850D01*
X28914Y-23693D02*
X29071Y-23850D01*
X28914Y-23375D02*
X28914Y-23693D01*
X28734Y-23195D02*
X28914Y-23375D01*
X26362Y-23988D02*
X26362Y-24040D01*
X26352Y-23195D02*
X26304Y-23244D01*
X26304Y-23244D02*
X26304Y-23496D01*
X26304Y-23496D02*
X26381Y-23678D01*
X26381Y-23678D02*
X26362Y-23988D01*
X29170Y-25170D02*
X28872Y-24872D01*
X28872Y-24872D02*
X28872Y-24343D01*
X29270Y-25170D02*
X29170Y-25170D01*
X28716Y-24187D02*
X28872Y-24343D01*
X26352Y-23195D02*
X26631Y-23195D01*
X28715Y-24188D02*
X28716Y-24187D01*
X27150Y-24188D02*
X28715Y-24188D01*
X27102Y-24140D02*
X27150Y-24188D01*
X26860Y-24140D02*
X27102Y-24140D01*
X26798Y-24202D02*
X26860Y-24140D01*
X26524Y-24202D02*
X26798Y-24202D01*
X26362Y-24040D02*
X26524Y-24202D01*
X20600Y-25136D02*
X20403Y-25136D01*
X20403Y-25136D02*
X20050Y-25489D01*
X20050Y-25489D02*
X20050Y-25563D01*
X19380Y-25204D02*
X19672Y-25204D01*
X19672Y-25204D02*
X19788Y-25088D01*
X19788Y-25088D02*
X19788Y-24761D01*
X19681Y-24788D02*
X19681Y-24884D01*
X19361Y-25204D02*
X19380Y-25204D01*
X19380Y-25204D02*
X18556Y-25204D01*
X18556Y-25204D02*
X18238Y-24886D01*
X18238Y-24886D02*
X18238Y-24678D01*
X19745Y-24790D02*
X19975Y-24790D01*
X19975Y-24790D02*
X20219Y-24546D01*
X20219Y-24546D02*
X20600Y-24546D01*
X21289Y-23660D02*
X21289Y-23174D01*
X21289Y-23174D02*
X21440Y-23024D01*
X21440Y-23024D02*
X21446Y-22798D01*
X21156Y-22216D02*
X22640Y-20732D01*
X22640Y-20732D02*
X22640Y-20227D01*
X22096Y-20766D02*
X22140Y-20722D01*
X22140Y-20722D02*
X22140Y-20227D01*
X21879Y-23660D02*
X21879Y-23409D01*
X21879Y-23409D02*
X22212Y-23088D01*
X22212Y-23088D02*
X22233Y-23088D01*
X22076Y-23660D02*
X22076Y-23467D01*
X22076Y-23467D02*
X22168Y-23376D01*
X22168Y-23376D02*
X22276Y-23376D01*
X22276Y-23376D02*
X22640Y-23012D01*
X22640Y-23012D02*
X22640Y-22327D01*
X19011Y-23888D02*
X19011Y-24089D01*
X19011Y-24089D02*
X19248Y-24326D01*
X19248Y-24326D02*
X19973Y-24326D01*
X19973Y-24326D02*
X19996Y-24349D01*
X19996Y-24349D02*
X20600Y-24349D01*
X18631Y-24049D02*
X18917Y-24049D01*
X18917Y-24049D02*
X19075Y-23890D01*
X19249Y-22608D02*
X19249Y-22120D01*
X19249Y-22120D02*
X19730Y-21640D01*
X19249Y-22608D02*
X18777Y-22608D01*
X18777Y-22608D02*
X18678Y-22510D01*
X24933Y-20381D02*
X24933Y-20934D01*
X24933Y-20934D02*
X25126Y-21127D01*
X28284Y-22605D02*
X28284Y-22286D01*
X28284Y-22286D02*
X28416Y-22155D01*
X25566Y-24810D02*
X25566Y-25534D01*
X25566Y-25534D02*
X25530Y-25571D01*
X24297Y-25453D02*
X24309Y-25453D01*
X25058Y-25144D02*
X25058Y-24810D01*
X25017Y-25186D02*
X25058Y-25144D01*
X24576Y-25186D02*
X25017Y-25186D01*
X24309Y-25453D02*
X24576Y-25186D01*
X21092Y-25888D02*
X21092Y-25930D01*
X21090Y-26084D02*
X21092Y-25888D01*
X21092Y-25888D02*
X21090Y-25630D01*
X21090Y-25630D02*
X21092Y-25628D01*
X18866Y-23002D02*
X18777Y-23002D01*
X18777Y-23002D02*
X18678Y-23100D01*
X19249Y-23002D02*
X18866Y-23002D01*
X18866Y-23002D02*
X18875Y-23002D01*
X22140Y-22327D02*
X22140Y-22579D01*
X22140Y-22579D02*
X21486Y-23233D01*
X21486Y-23233D02*
X21486Y-23660D01*
X21092Y-23660D02*
X21092Y-22675D01*
X21092Y-22675D02*
X21441Y-22327D01*
X21441Y-22327D02*
X21640Y-22327D01*
X21090Y-26684D02*
X21090Y-26832D01*
X21090Y-26832D02*
X21112Y-26852D01*
X20991Y-27006D02*
X20991Y-26783D01*
X20991Y-26783D02*
X21090Y-26684D01*
X21008Y-27118D02*
X21008Y-26766D01*
X21008Y-26766D02*
X21090Y-26684D01*
X21682Y-23660D02*
X21682Y-23284D01*
X21682Y-23284D02*
X22151Y-22816D01*
X22151Y-22816D02*
X22309Y-22816D01*
X22309Y-22816D02*
X22391Y-22734D01*
X22391Y-22734D02*
X22391Y-21494D01*
X22391Y-21494D02*
X23140Y-20745D01*
X23140Y-20745D02*
X23140Y-20227D01*
X25788Y-20082D02*
X25543Y-20143D01*
X25543Y-20143D02*
X25470Y-20217D01*
X25618Y-22112D02*
X25618Y-22296D01*
X25618Y-22296D02*
X25731Y-21807D01*
X26439Y-24935D02*
X26540Y-24950D01*
X26540Y-24950D02*
X27329Y-25115D01*
X27329Y-25115D02*
X27389Y-25109D01*
X26396Y-24892D02*
X26396Y-24665D01*
X26439Y-24935D02*
X26396Y-24892D01*
X22568Y-25531D02*
X22932Y-25726D01*
X22568Y-25333D02*
X22568Y-25531D01*
X26396Y-24665D02*
X26399Y-24668D01*
X25843Y-24414D02*
X26145Y-24414D01*
X26145Y-24414D02*
X26396Y-24665D01*
X28284Y-23392D02*
X28284Y-23417D01*
X28284Y-23417D02*
X28469Y-23602D01*
X25843Y-24076D02*
X26157Y-24075D01*
X26145Y-23679D02*
X26061Y-23556D01*
X26157Y-24075D02*
X26145Y-23679D01*
X27064Y-23825D02*
X26912Y-23825D01*
X26912Y-23825D02*
X26895Y-23808D01*
X25398Y-20475D02*
X25788Y-20475D01*
X25257Y-20526D02*
X25398Y-20475D01*
X25126Y-22410D02*
X25126Y-22112D01*
X25032Y-22505D02*
X25126Y-22410D01*
X22838Y-25136D02*
X22568Y-25136D01*
X22910Y-25208D02*
X22838Y-25136D01*
X22910Y-25344D02*
X22910Y-25208D01*
X23054Y-25448D02*
X22910Y-25344D01*
X21839Y-26001D02*
X21867Y-25896D01*
X21867Y-25896D02*
X21879Y-25628D01*
X20600Y-23955D02*
X20600Y-23644D01*
X20600Y-23644D02*
X20400Y-23444D01*
X20600Y-23955D02*
X20545Y-23955D01*
X20600Y-24152D02*
X20283Y-24131D01*
X20283Y-24131D02*
X20238Y-24086D01*
X20600Y-24152D02*
X20319Y-24152D01*
X20319Y-24152D02*
X20265Y-24098D01*
G54D10*
G36*
X20779Y-27356D02*
X19961Y-27353D01*
X19974Y-27341D01*
X20000Y-27278D01*
X20027Y-27278D01*
X20123Y-27238D01*
X20196Y-27165D01*
X20235Y-27069D01*
X20236Y-26966D01*
X20201Y-26883D01*
X20206Y-26873D01*
X20206Y-26813D01*
X20183Y-26758D01*
X20141Y-26716D01*
X19893Y-26468D01*
X19838Y-26445D01*
X19779Y-26445D01*
X19724Y-26468D01*
X19681Y-26510D01*
X19347Y-26845D01*
X19343Y-26841D01*
X19462Y-26588D01*
X19653Y-26398D01*
X19676Y-26343D01*
X19676Y-26283D01*
X19653Y-26228D01*
X19611Y-26186D01*
X19363Y-25938D01*
X19308Y-25915D01*
X19248Y-25915D01*
X19204Y-25934D01*
X19179Y-25924D01*
X19076Y-25923D01*
X18980Y-25963D01*
X18907Y-26036D01*
X18873Y-26119D01*
X18815Y-26118D01*
X18719Y-26158D01*
X18646Y-26231D01*
X18607Y-26327D01*
X18606Y-26430D01*
X18646Y-26526D01*
X18719Y-26599D01*
X18815Y-26638D01*
X18861Y-26638D01*
X18878Y-26655D01*
X18831Y-26753D01*
X18061Y-25983D01*
X18061Y-24965D01*
X18100Y-25024D01*
X18418Y-25341D01*
X18481Y-25384D01*
X18481Y-25384D01*
X18556Y-25399D01*
X19361Y-25399D01*
X19380Y-25399D01*
X19672Y-25399D01*
X19722Y-25388D01*
X19722Y-25829D01*
X19745Y-25884D01*
X19787Y-25927D01*
X19843Y-25949D01*
X19902Y-25950D01*
X20152Y-25950D01*
X20207Y-25927D01*
X20250Y-25885D01*
X20272Y-25829D01*
X20273Y-25770D01*
X20273Y-25542D01*
X20335Y-25480D01*
X20365Y-25510D01*
X20398Y-25524D01*
X20364Y-25608D01*
X20363Y-25711D01*
X20403Y-25807D01*
X20433Y-25837D01*
X20445Y-26284D01*
X20445Y-26286D01*
X20445Y-26287D01*
X20445Y-26291D01*
X20450Y-26311D01*
X20459Y-26360D01*
X20461Y-26363D01*
X20462Y-26365D01*
X20475Y-26383D01*
X20502Y-26423D01*
X20603Y-26524D01*
X20666Y-26567D01*
X20666Y-26567D01*
X20714Y-26576D01*
X20714Y-26588D01*
X20714Y-26838D01*
X20715Y-26841D01*
X20715Y-27260D01*
X20738Y-27315D01*
X20779Y-27356D01*
X20779Y-27356D01*
G37*
G54D36*
X20779Y-27356D02*
X19961Y-27353D01*
X19974Y-27341D01*
X20000Y-27278D01*
X20027Y-27278D01*
X20123Y-27238D01*
X20196Y-27165D01*
X20235Y-27069D01*
X20236Y-26966D01*
X20201Y-26883D01*
X20206Y-26873D01*
X20206Y-26813D01*
X20183Y-26758D01*
X20141Y-26716D01*
X19893Y-26468D01*
X19838Y-26445D01*
X19779Y-26445D01*
X19724Y-26468D01*
X19681Y-26510D01*
X19347Y-26845D01*
X19343Y-26841D01*
X19462Y-26588D01*
X19653Y-26398D01*
X19676Y-26343D01*
X19676Y-26283D01*
X19653Y-26228D01*
X19611Y-26186D01*
X19363Y-25938D01*
X19308Y-25915D01*
X19248Y-25915D01*
X19204Y-25934D01*
X19179Y-25924D01*
X19076Y-25923D01*
X18980Y-25963D01*
X18907Y-26036D01*
X18873Y-26119D01*
X18815Y-26118D01*
X18719Y-26158D01*
X18646Y-26231D01*
X18607Y-26327D01*
X18606Y-26430D01*
X18646Y-26526D01*
X18719Y-26599D01*
X18815Y-26638D01*
X18861Y-26638D01*
X18878Y-26655D01*
X18831Y-26753D01*
X18061Y-25983D01*
X18061Y-24965D01*
X18100Y-25024D01*
X18418Y-25341D01*
X18481Y-25384D01*
X18481Y-25384D01*
X18556Y-25399D01*
X19361Y-25399D01*
X19380Y-25399D01*
X19672Y-25399D01*
X19722Y-25388D01*
X19722Y-25829D01*
X19745Y-25884D01*
X19787Y-25927D01*
X19843Y-25949D01*
X19902Y-25950D01*
X20152Y-25950D01*
X20207Y-25927D01*
X20250Y-25885D01*
X20272Y-25829D01*
X20273Y-25770D01*
X20273Y-25542D01*
X20335Y-25480D01*
X20365Y-25510D01*
X20398Y-25524D01*
X20364Y-25608D01*
X20363Y-25711D01*
X20403Y-25807D01*
X20433Y-25837D01*
X20445Y-26284D01*
X20445Y-26286D01*
X20445Y-26287D01*
X20445Y-26291D01*
X20450Y-26311D01*
X20459Y-26360D01*
X20461Y-26363D01*
X20462Y-26365D01*
X20475Y-26383D01*
X20502Y-26423D01*
X20603Y-26524D01*
X20666Y-26567D01*
X20666Y-26567D01*
X20714Y-26576D01*
X20714Y-26588D01*
X20714Y-26838D01*
X20715Y-26841D01*
X20715Y-27260D01*
X20738Y-27315D01*
X20779Y-27356D01*
G54D10*
G36*
X22070Y-21025D02*
X21140Y-21955D01*
X21104Y-21955D01*
X21008Y-21995D01*
X20935Y-22068D01*
X20896Y-22164D01*
X20895Y-22267D01*
X20935Y-22363D01*
X21008Y-22436D01*
X21042Y-22450D01*
X20954Y-22537D01*
X20911Y-22601D01*
X20897Y-22675D01*
X20897Y-22878D01*
X20883Y-22864D01*
X20820Y-22822D01*
X20745Y-22807D01*
X20147Y-22807D01*
X20147Y-22805D01*
X20167Y-22756D01*
X20167Y-22697D01*
X20167Y-22460D01*
X20144Y-22405D01*
X20102Y-22363D01*
X20101Y-22362D01*
X20101Y-22016D01*
X20101Y-21466D01*
X20078Y-21411D01*
X20036Y-21368D01*
X19980Y-21346D01*
X19921Y-21345D01*
X19737Y-21345D01*
X19871Y-21211D01*
X19894Y-21156D01*
X19894Y-21096D01*
X19871Y-21041D01*
X19847Y-21017D01*
X19852Y-21012D01*
X19891Y-20916D01*
X19892Y-20813D01*
X19852Y-20717D01*
X19779Y-20644D01*
X19683Y-20605D01*
X19590Y-20604D01*
X19582Y-20585D01*
X19509Y-20512D01*
X19413Y-20473D01*
X19310Y-20472D01*
X19214Y-20512D01*
X19141Y-20585D01*
X19102Y-20681D01*
X19101Y-20778D01*
X18980Y-20900D01*
X18957Y-20955D01*
X18957Y-21014D01*
X18980Y-21069D01*
X19022Y-21112D01*
X19411Y-21501D01*
X19450Y-21517D01*
X19450Y-21525D01*
X19450Y-21643D01*
X19111Y-21982D01*
X19069Y-22045D01*
X19054Y-22120D01*
X19054Y-22351D01*
X19026Y-22363D01*
X18984Y-22405D01*
X18981Y-22413D01*
X18920Y-22413D01*
X18899Y-22363D01*
X18826Y-22289D01*
X18730Y-22250D01*
X18627Y-22250D01*
X18531Y-22289D01*
X18458Y-22362D01*
X18418Y-22458D01*
X18418Y-22561D01*
X18458Y-22657D01*
X18531Y-22730D01*
X18626Y-22770D01*
X18674Y-22770D01*
X18674Y-22770D01*
X18702Y-22788D01*
X18702Y-22788D01*
X18777Y-22803D01*
X18981Y-22803D01*
X18982Y-22805D01*
X18981Y-22807D01*
X18875Y-22807D01*
X18866Y-22807D01*
X18777Y-22807D01*
X18702Y-22822D01*
X18674Y-22840D01*
X18627Y-22840D01*
X18531Y-22880D01*
X18458Y-22953D01*
X18418Y-23048D01*
X18418Y-23152D01*
X18458Y-23247D01*
X18531Y-23321D01*
X18626Y-23360D01*
X18730Y-23360D01*
X18825Y-23321D01*
X18899Y-23248D01*
X18920Y-23197D01*
X18981Y-23197D01*
X18984Y-23205D01*
X19026Y-23247D01*
X19081Y-23270D01*
X19141Y-23270D01*
X19417Y-23270D01*
X19472Y-23247D01*
X19514Y-23205D01*
X19537Y-23150D01*
X19537Y-23090D01*
X19537Y-22854D01*
X19517Y-22805D01*
X19537Y-22756D01*
X19537Y-22697D01*
X19537Y-22460D01*
X19514Y-22405D01*
X19472Y-22363D01*
X19444Y-22351D01*
X19444Y-22201D01*
X19494Y-22151D01*
X19515Y-22173D01*
X19571Y-22195D01*
X19630Y-22196D01*
X19980Y-22196D01*
X20035Y-22173D01*
X20078Y-22131D01*
X20100Y-22075D01*
X20101Y-22016D01*
X20101Y-22362D01*
X20047Y-22340D01*
X19987Y-22340D01*
X19712Y-22340D01*
X19656Y-22363D01*
X19614Y-22405D01*
X19591Y-22460D01*
X19591Y-22520D01*
X19591Y-22756D01*
X19611Y-22805D01*
X19591Y-22854D01*
X19591Y-22913D01*
X19591Y-23150D01*
X19614Y-23205D01*
X19656Y-23247D01*
X19711Y-23270D01*
X19771Y-23270D01*
X20047Y-23270D01*
X20102Y-23247D01*
X20144Y-23205D01*
X20147Y-23197D01*
X20316Y-23197D01*
X20252Y-23223D01*
X20179Y-23296D01*
X20140Y-23392D01*
X20139Y-23495D01*
X20179Y-23591D01*
X20252Y-23664D01*
X20348Y-23703D01*
X20384Y-23703D01*
X20405Y-23724D01*
X20405Y-23761D01*
X20365Y-23778D01*
X20323Y-23820D01*
X20316Y-23836D01*
X20289Y-23826D01*
X20186Y-23825D01*
X20090Y-23865D01*
X20017Y-23938D01*
X19978Y-24034D01*
X19977Y-24131D01*
X19973Y-24131D01*
X19524Y-24131D01*
X19524Y-24109D01*
X19524Y-23559D01*
X19501Y-23504D01*
X19459Y-23461D01*
X19403Y-23439D01*
X19344Y-23438D01*
X18874Y-23438D01*
X18819Y-23461D01*
X18776Y-23503D01*
X18754Y-23559D01*
X18753Y-23618D01*
X18753Y-23765D01*
X18535Y-23765D01*
X18479Y-23788D01*
X18437Y-23830D01*
X18414Y-23885D01*
X18414Y-23944D01*
X18414Y-24220D01*
X18437Y-24275D01*
X18479Y-24317D01*
X18534Y-24340D01*
X18594Y-24340D01*
X18830Y-24340D01*
X18885Y-24318D01*
X18914Y-24289D01*
X18933Y-24289D01*
X18935Y-24289D01*
X19110Y-24463D01*
X19173Y-24506D01*
X19173Y-24506D01*
X19248Y-24521D01*
X19423Y-24521D01*
X19423Y-25009D01*
X19380Y-25009D01*
X19361Y-25009D01*
X18636Y-25009D01*
X18533Y-24906D01*
X18534Y-24905D01*
X18557Y-24850D01*
X18557Y-24791D01*
X18557Y-24515D01*
X18534Y-24460D01*
X18492Y-24418D01*
X18437Y-24395D01*
X18377Y-24395D01*
X18141Y-24395D01*
X18086Y-24417D01*
X18061Y-24443D01*
X18061Y-21202D01*
X18284Y-20978D01*
X18322Y-21264D01*
X18322Y-21266D01*
X18321Y-21369D01*
X18361Y-21465D01*
X18415Y-21519D01*
X18379Y-21554D01*
X18340Y-21650D01*
X18339Y-21753D01*
X18379Y-21849D01*
X18452Y-21922D01*
X18548Y-21961D01*
X18651Y-21962D01*
X18747Y-21922D01*
X18759Y-21909D01*
X18881Y-22031D01*
X18936Y-22054D01*
X18996Y-22054D01*
X19051Y-22031D01*
X19093Y-21989D01*
X19341Y-21741D01*
X19364Y-21686D01*
X19364Y-21627D01*
X19341Y-21572D01*
X19299Y-21529D01*
X18910Y-21140D01*
X18855Y-21117D01*
X18807Y-21117D01*
X18777Y-20888D01*
X19859Y-19810D01*
X21971Y-19810D01*
X21937Y-19824D01*
X21894Y-19866D01*
X21872Y-19921D01*
X21871Y-19981D01*
X21871Y-20532D01*
X21894Y-20587D01*
X21900Y-20593D01*
X21875Y-20618D01*
X21836Y-20714D01*
X21835Y-20817D01*
X21875Y-20913D01*
X21948Y-20986D01*
X22044Y-21025D01*
X22070Y-21025D01*
X22070Y-21025D01*
G37*
G54D36*
X22070Y-21025D02*
X21140Y-21955D01*
X21104Y-21955D01*
X21008Y-21995D01*
X20935Y-22068D01*
X20896Y-22164D01*
X20895Y-22267D01*
X20935Y-22363D01*
X21008Y-22436D01*
X21042Y-22450D01*
X20954Y-22537D01*
X20911Y-22601D01*
X20897Y-22675D01*
X20897Y-22878D01*
X20883Y-22864D01*
X20820Y-22822D01*
X20745Y-22807D01*
X20147Y-22807D01*
X20147Y-22805D01*
X20167Y-22756D01*
X20167Y-22697D01*
X20167Y-22460D01*
X20144Y-22405D01*
X20102Y-22363D01*
X20101Y-22362D01*
X20101Y-22016D01*
X20101Y-21466D01*
X20078Y-21411D01*
X20036Y-21368D01*
X19980Y-21346D01*
X19921Y-21345D01*
X19737Y-21345D01*
X19871Y-21211D01*
X19894Y-21156D01*
X19894Y-21096D01*
X19871Y-21041D01*
X19847Y-21017D01*
X19852Y-21012D01*
X19891Y-20916D01*
X19892Y-20813D01*
X19852Y-20717D01*
X19779Y-20644D01*
X19683Y-20605D01*
X19590Y-20604D01*
X19582Y-20585D01*
X19509Y-20512D01*
X19413Y-20473D01*
X19310Y-20472D01*
X19214Y-20512D01*
X19141Y-20585D01*
X19102Y-20681D01*
X19101Y-20778D01*
X18980Y-20900D01*
X18957Y-20955D01*
X18957Y-21014D01*
X18980Y-21069D01*
X19022Y-21112D01*
X19411Y-21501D01*
X19450Y-21517D01*
X19450Y-21525D01*
X19450Y-21643D01*
X19111Y-21982D01*
X19069Y-22045D01*
X19054Y-22120D01*
X19054Y-22351D01*
X19026Y-22363D01*
X18984Y-22405D01*
X18981Y-22413D01*
X18920Y-22413D01*
X18899Y-22363D01*
X18826Y-22289D01*
X18730Y-22250D01*
X18627Y-22250D01*
X18531Y-22289D01*
X18458Y-22362D01*
X18418Y-22458D01*
X18418Y-22561D01*
X18458Y-22657D01*
X18531Y-22730D01*
X18626Y-22770D01*
X18674Y-22770D01*
X18674Y-22770D01*
X18702Y-22788D01*
X18702Y-22788D01*
X18777Y-22803D01*
X18981Y-22803D01*
X18982Y-22805D01*
X18981Y-22807D01*
X18875Y-22807D01*
X18866Y-22807D01*
X18777Y-22807D01*
X18702Y-22822D01*
X18674Y-22840D01*
X18627Y-22840D01*
X18531Y-22880D01*
X18458Y-22953D01*
X18418Y-23048D01*
X18418Y-23152D01*
X18458Y-23247D01*
X18531Y-23321D01*
X18626Y-23360D01*
X18730Y-23360D01*
X18825Y-23321D01*
X18899Y-23248D01*
X18920Y-23197D01*
X18981Y-23197D01*
X18984Y-23205D01*
X19026Y-23247D01*
X19081Y-23270D01*
X19141Y-23270D01*
X19417Y-23270D01*
X19472Y-23247D01*
X19514Y-23205D01*
X19537Y-23150D01*
X19537Y-23090D01*
X19537Y-22854D01*
X19517Y-22805D01*
X19537Y-22756D01*
X19537Y-22697D01*
X19537Y-22460D01*
X19514Y-22405D01*
X19472Y-22363D01*
X19444Y-22351D01*
X19444Y-22201D01*
X19494Y-22151D01*
X19515Y-22173D01*
X19571Y-22195D01*
X19630Y-22196D01*
X19980Y-22196D01*
X20035Y-22173D01*
X20078Y-22131D01*
X20100Y-22075D01*
X20101Y-22016D01*
X20101Y-22362D01*
X20047Y-22340D01*
X19987Y-22340D01*
X19712Y-22340D01*
X19656Y-22363D01*
X19614Y-22405D01*
X19591Y-22460D01*
X19591Y-22520D01*
X19591Y-22756D01*
X19611Y-22805D01*
X19591Y-22854D01*
X19591Y-22913D01*
X19591Y-23150D01*
X19614Y-23205D01*
X19656Y-23247D01*
X19711Y-23270D01*
X19771Y-23270D01*
X20047Y-23270D01*
X20102Y-23247D01*
X20144Y-23205D01*
X20147Y-23197D01*
X20316Y-23197D01*
X20252Y-23223D01*
X20179Y-23296D01*
X20140Y-23392D01*
X20139Y-23495D01*
X20179Y-23591D01*
X20252Y-23664D01*
X20348Y-23703D01*
X20384Y-23703D01*
X20405Y-23724D01*
X20405Y-23761D01*
X20365Y-23778D01*
X20323Y-23820D01*
X20316Y-23836D01*
X20289Y-23826D01*
X20186Y-23825D01*
X20090Y-23865D01*
X20017Y-23938D01*
X19978Y-24034D01*
X19977Y-24131D01*
X19973Y-24131D01*
X19524Y-24131D01*
X19524Y-24109D01*
X19524Y-23559D01*
X19501Y-23504D01*
X19459Y-23461D01*
X19403Y-23439D01*
X19344Y-23438D01*
X18874Y-23438D01*
X18819Y-23461D01*
X18776Y-23503D01*
X18754Y-23559D01*
X18753Y-23618D01*
X18753Y-23765D01*
X18535Y-23765D01*
X18479Y-23788D01*
X18437Y-23830D01*
X18414Y-23885D01*
X18414Y-23944D01*
X18414Y-24220D01*
X18437Y-24275D01*
X18479Y-24317D01*
X18534Y-24340D01*
X18594Y-24340D01*
X18830Y-24340D01*
X18885Y-24318D01*
X18914Y-24289D01*
X18933Y-24289D01*
X18935Y-24289D01*
X19110Y-24463D01*
X19173Y-24506D01*
X19173Y-24506D01*
X19248Y-24521D01*
X19423Y-24521D01*
X19423Y-25009D01*
X19380Y-25009D01*
X19361Y-25009D01*
X18636Y-25009D01*
X18533Y-24906D01*
X18534Y-24905D01*
X18557Y-24850D01*
X18557Y-24791D01*
X18557Y-24515D01*
X18534Y-24460D01*
X18492Y-24418D01*
X18437Y-24395D01*
X18377Y-24395D01*
X18141Y-24395D01*
X18086Y-24417D01*
X18061Y-24443D01*
X18061Y-21202D01*
X18284Y-20978D01*
X18322Y-21264D01*
X18322Y-21266D01*
X18321Y-21369D01*
X18361Y-21465D01*
X18415Y-21519D01*
X18379Y-21554D01*
X18340Y-21650D01*
X18339Y-21753D01*
X18379Y-21849D01*
X18452Y-21922D01*
X18548Y-21961D01*
X18651Y-21962D01*
X18747Y-21922D01*
X18759Y-21909D01*
X18881Y-22031D01*
X18936Y-22054D01*
X18996Y-22054D01*
X19051Y-22031D01*
X19093Y-21989D01*
X19341Y-21741D01*
X19364Y-21686D01*
X19364Y-21627D01*
X19341Y-21572D01*
X19299Y-21529D01*
X18910Y-21140D01*
X18855Y-21117D01*
X18807Y-21117D01*
X18777Y-20888D01*
X19859Y-19810D01*
X21971Y-19810D01*
X21937Y-19824D01*
X21894Y-19866D01*
X21872Y-19921D01*
X21871Y-19981D01*
X21871Y-20532D01*
X21894Y-20587D01*
X21900Y-20593D01*
X21875Y-20618D01*
X21836Y-20714D01*
X21835Y-20817D01*
X21875Y-20913D01*
X21948Y-20986D01*
X22044Y-21025D01*
X22070Y-21025D01*
G54D10*
G36*
X22379Y-24546D02*
X22333Y-24565D01*
X22291Y-24607D01*
X22268Y-24662D01*
X22268Y-24722D01*
X22268Y-24822D01*
X22275Y-24841D01*
X22268Y-24859D01*
X22268Y-24919D01*
X22268Y-25019D01*
X22275Y-25038D01*
X22268Y-25056D01*
X22268Y-25116D01*
X22268Y-25216D01*
X22275Y-25235D01*
X22268Y-25253D01*
X22268Y-25313D01*
X22268Y-25328D01*
X22193Y-25328D01*
X22174Y-25336D01*
X22156Y-25328D01*
X22096Y-25328D01*
X21996Y-25328D01*
X21977Y-25336D01*
X21959Y-25328D01*
X21899Y-25328D01*
X21799Y-25328D01*
X21780Y-25336D01*
X21762Y-25328D01*
X21702Y-25328D01*
X21602Y-25328D01*
X21584Y-25336D01*
X21566Y-25328D01*
X21506Y-25328D01*
X21406Y-25328D01*
X21387Y-25336D01*
X21369Y-25328D01*
X21309Y-25328D01*
X21209Y-25328D01*
X21190Y-25336D01*
X21172Y-25328D01*
X21112Y-25328D01*
X21012Y-25328D01*
X20993Y-25336D01*
X20975Y-25328D01*
X20915Y-25328D01*
X20900Y-25328D01*
X20900Y-25253D01*
X20892Y-25235D01*
X20900Y-25216D01*
X20900Y-25156D01*
X20900Y-25056D01*
X20892Y-25038D01*
X20900Y-25019D01*
X20900Y-24959D01*
X20900Y-24859D01*
X20892Y-24841D01*
X20900Y-24822D01*
X20900Y-24762D01*
X20900Y-24662D01*
X20892Y-24644D01*
X20900Y-24626D01*
X20900Y-24566D01*
X20900Y-24466D01*
X20892Y-24448D01*
X20900Y-24429D01*
X20900Y-24369D01*
X20900Y-24269D01*
X20892Y-24251D01*
X20900Y-24232D01*
X20900Y-24172D01*
X20900Y-24072D01*
X20892Y-24054D01*
X20900Y-24035D01*
X20900Y-23975D01*
X20900Y-23960D01*
X20974Y-23960D01*
X20993Y-23952D01*
X21012Y-23960D01*
X21071Y-23960D01*
X21171Y-23960D01*
X21190Y-23952D01*
X21209Y-23960D01*
X21268Y-23960D01*
X21368Y-23960D01*
X21387Y-23952D01*
X21406Y-23960D01*
X21465Y-23960D01*
X21565Y-23960D01*
X21584Y-23953D01*
X21602Y-23960D01*
X21661Y-23960D01*
X21761Y-23960D01*
X21780Y-23952D01*
X21799Y-23960D01*
X21858Y-23960D01*
X21958Y-23960D01*
X21977Y-23952D01*
X21996Y-23960D01*
X22055Y-23960D01*
X22155Y-23960D01*
X22174Y-23952D01*
X22193Y-23960D01*
X22252Y-23960D01*
X22268Y-23960D01*
X22268Y-24035D01*
X22275Y-24054D01*
X22268Y-24072D01*
X22268Y-24132D01*
X22268Y-24232D01*
X22275Y-24251D01*
X22268Y-24269D01*
X22268Y-24329D01*
X22268Y-24429D01*
X22290Y-24484D01*
X22333Y-24526D01*
X22379Y-24546D01*
X22379Y-24546D01*
G37*
G54D36*
X22379Y-24546D02*
X22333Y-24565D01*
X22291Y-24607D01*
X22268Y-24662D01*
X22268Y-24722D01*
X22268Y-24822D01*
X22275Y-24841D01*
X22268Y-24859D01*
X22268Y-24919D01*
X22268Y-25019D01*
X22275Y-25038D01*
X22268Y-25056D01*
X22268Y-25116D01*
X22268Y-25216D01*
X22275Y-25235D01*
X22268Y-25253D01*
X22268Y-25313D01*
X22268Y-25328D01*
X22193Y-25328D01*
X22174Y-25336D01*
X22156Y-25328D01*
X22096Y-25328D01*
X21996Y-25328D01*
X21977Y-25336D01*
X21959Y-25328D01*
X21899Y-25328D01*
X21799Y-25328D01*
X21780Y-25336D01*
X21762Y-25328D01*
X21702Y-25328D01*
X21602Y-25328D01*
X21584Y-25336D01*
X21566Y-25328D01*
X21506Y-25328D01*
X21406Y-25328D01*
X21387Y-25336D01*
X21369Y-25328D01*
X21309Y-25328D01*
X21209Y-25328D01*
X21190Y-25336D01*
X21172Y-25328D01*
X21112Y-25328D01*
X21012Y-25328D01*
X20993Y-25336D01*
X20975Y-25328D01*
X20915Y-25328D01*
X20900Y-25328D01*
X20900Y-25253D01*
X20892Y-25235D01*
X20900Y-25216D01*
X20900Y-25156D01*
X20900Y-25056D01*
X20892Y-25038D01*
X20900Y-25019D01*
X20900Y-24959D01*
X20900Y-24859D01*
X20892Y-24841D01*
X20900Y-24822D01*
X20900Y-24762D01*
X20900Y-24662D01*
X20892Y-24644D01*
X20900Y-24626D01*
X20900Y-24566D01*
X20900Y-24466D01*
X20892Y-24448D01*
X20900Y-24429D01*
X20900Y-24369D01*
X20900Y-24269D01*
X20892Y-24251D01*
X20900Y-24232D01*
X20900Y-24172D01*
X20900Y-24072D01*
X20892Y-24054D01*
X20900Y-24035D01*
X20900Y-23975D01*
X20900Y-23960D01*
X20974Y-23960D01*
X20993Y-23952D01*
X21012Y-23960D01*
X21071Y-23960D01*
X21171Y-23960D01*
X21190Y-23952D01*
X21209Y-23960D01*
X21268Y-23960D01*
X21368Y-23960D01*
X21387Y-23952D01*
X21406Y-23960D01*
X21465Y-23960D01*
X21565Y-23960D01*
X21584Y-23953D01*
X21602Y-23960D01*
X21661Y-23960D01*
X21761Y-23960D01*
X21780Y-23952D01*
X21799Y-23960D01*
X21858Y-23960D01*
X21958Y-23960D01*
X21977Y-23952D01*
X21996Y-23960D01*
X22055Y-23960D01*
X22155Y-23960D01*
X22174Y-23952D01*
X22193Y-23960D01*
X22252Y-23960D01*
X22268Y-23960D01*
X22268Y-24035D01*
X22275Y-24054D01*
X22268Y-24072D01*
X22268Y-24132D01*
X22268Y-24232D01*
X22275Y-24251D01*
X22268Y-24269D01*
X22268Y-24329D01*
X22268Y-24429D01*
X22290Y-24484D01*
X22333Y-24526D01*
X22379Y-24546D01*
G54D10*
G36*
X27422Y-27380D02*
X21200Y-27358D01*
X21200Y-27358D01*
X21243Y-27316D01*
X21265Y-27260D01*
X21266Y-27201D01*
X21266Y-27065D01*
X21332Y-26999D01*
X21349Y-26956D01*
X21399Y-26936D01*
X21442Y-26894D01*
X21464Y-26838D01*
X21465Y-26779D01*
X21465Y-26571D01*
X21604Y-26571D01*
X21604Y-26584D01*
X21627Y-26639D01*
X21669Y-26682D01*
X21725Y-26704D01*
X21784Y-26705D01*
X22149Y-26705D01*
X22283Y-26839D01*
X22280Y-26840D01*
X22237Y-26882D01*
X22215Y-26938D01*
X22214Y-26997D01*
X22214Y-27197D01*
X22237Y-27252D01*
X22279Y-27295D01*
X22335Y-27317D01*
X22394Y-27318D01*
X22694Y-27318D01*
X22749Y-27295D01*
X22792Y-27253D01*
X22814Y-27197D01*
X22815Y-27138D01*
X22815Y-27043D01*
X22929Y-26929D01*
X22929Y-26954D01*
X22943Y-27028D01*
X22986Y-27091D01*
X23100Y-27205D01*
X23163Y-27248D01*
X23163Y-27248D01*
X23238Y-27263D01*
X23247Y-27263D01*
X23279Y-27295D01*
X23335Y-27317D01*
X23394Y-27318D01*
X23694Y-27318D01*
X23749Y-27295D01*
X23782Y-27263D01*
X23919Y-27263D01*
X23956Y-27300D01*
X24012Y-27322D01*
X24071Y-27323D01*
X24521Y-27323D01*
X24576Y-27300D01*
X24610Y-27266D01*
X25807Y-27163D01*
X25807Y-27244D01*
X25830Y-27299D01*
X25872Y-27342D01*
X25928Y-27364D01*
X25987Y-27365D01*
X26337Y-27365D01*
X26392Y-27342D01*
X26435Y-27300D01*
X26457Y-27244D01*
X26458Y-27185D01*
X26458Y-26818D01*
X26547Y-26692D01*
X26557Y-26692D01*
X26557Y-26694D01*
X26557Y-27244D01*
X26580Y-27299D01*
X26622Y-27342D01*
X26678Y-27364D01*
X26737Y-27365D01*
X27087Y-27365D01*
X27142Y-27342D01*
X27185Y-27300D01*
X27207Y-27244D01*
X27208Y-27202D01*
X27285Y-27217D01*
X27302Y-27259D01*
X27422Y-27380D01*
X27422Y-27380D01*
G37*
G54D36*
X27422Y-27380D02*
X21200Y-27358D01*
X21200Y-27358D01*
X21243Y-27316D01*
X21265Y-27260D01*
X21266Y-27201D01*
X21266Y-27065D01*
X21332Y-26999D01*
X21349Y-26956D01*
X21399Y-26936D01*
X21442Y-26894D01*
X21464Y-26838D01*
X21465Y-26779D01*
X21465Y-26571D01*
X21604Y-26571D01*
X21604Y-26584D01*
X21627Y-26639D01*
X21669Y-26682D01*
X21725Y-26704D01*
X21784Y-26705D01*
X22149Y-26705D01*
X22283Y-26839D01*
X22280Y-26840D01*
X22237Y-26882D01*
X22215Y-26938D01*
X22214Y-26997D01*
X22214Y-27197D01*
X22237Y-27252D01*
X22279Y-27295D01*
X22335Y-27317D01*
X22394Y-27318D01*
X22694Y-27318D01*
X22749Y-27295D01*
X22792Y-27253D01*
X22814Y-27197D01*
X22815Y-27138D01*
X22815Y-27043D01*
X22929Y-26929D01*
X22929Y-26954D01*
X22943Y-27028D01*
X22986Y-27091D01*
X23100Y-27205D01*
X23163Y-27248D01*
X23163Y-27248D01*
X23238Y-27263D01*
X23247Y-27263D01*
X23279Y-27295D01*
X23335Y-27317D01*
X23394Y-27318D01*
X23694Y-27318D01*
X23749Y-27295D01*
X23782Y-27263D01*
X23919Y-27263D01*
X23956Y-27300D01*
X24012Y-27322D01*
X24071Y-27323D01*
X24521Y-27323D01*
X24576Y-27300D01*
X24610Y-27266D01*
X25807Y-27163D01*
X25807Y-27244D01*
X25830Y-27299D01*
X25872Y-27342D01*
X25928Y-27364D01*
X25987Y-27365D01*
X26337Y-27365D01*
X26392Y-27342D01*
X26435Y-27300D01*
X26457Y-27244D01*
X26458Y-27185D01*
X26458Y-26818D01*
X26547Y-26692D01*
X26557Y-26692D01*
X26557Y-26694D01*
X26557Y-27244D01*
X26580Y-27299D01*
X26622Y-27342D01*
X26678Y-27364D01*
X26737Y-27365D01*
X27087Y-27365D01*
X27142Y-27342D01*
X27185Y-27300D01*
X27207Y-27244D01*
X27208Y-27202D01*
X27285Y-27217D01*
X27302Y-27259D01*
X27422Y-27380D01*
G54D10*
G36*
X27976Y-22480D02*
X27957Y-22526D01*
X27957Y-22585D01*
X27957Y-22684D01*
X27965Y-22703D01*
X27957Y-22722D01*
X27957Y-22782D01*
X27957Y-22881D01*
X27965Y-22900D01*
X27957Y-22919D01*
X27957Y-22979D01*
X27957Y-23077D01*
X27965Y-23097D01*
X27957Y-23116D01*
X27957Y-23176D01*
X27957Y-23274D01*
X27965Y-23294D01*
X27957Y-23313D01*
X27957Y-23373D01*
X27957Y-23471D01*
X27976Y-23517D01*
X27930Y-23498D01*
X27871Y-23498D01*
X27772Y-23498D01*
X27753Y-23506D01*
X27734Y-23498D01*
X27674Y-23498D01*
X27575Y-23498D01*
X27556Y-23506D01*
X27537Y-23498D01*
X27477Y-23498D01*
X27379Y-23498D01*
X27359Y-23506D01*
X27340Y-23498D01*
X27280Y-23498D01*
X27182Y-23498D01*
X27162Y-23506D01*
X27143Y-23498D01*
X27083Y-23498D01*
X26985Y-23498D01*
X26939Y-23517D01*
X26958Y-23471D01*
X26958Y-23412D01*
X26958Y-23313D01*
X26950Y-23294D01*
X26958Y-23275D01*
X26958Y-23215D01*
X26958Y-23116D01*
X26950Y-23097D01*
X26958Y-23078D01*
X26958Y-23018D01*
X26958Y-22920D01*
X26950Y-22900D01*
X26958Y-22881D01*
X26958Y-22821D01*
X26958Y-22723D01*
X26950Y-22703D01*
X26958Y-22684D01*
X26958Y-22624D01*
X26958Y-22526D01*
X26939Y-22480D01*
X26985Y-22499D01*
X27044Y-22499D01*
X27143Y-22499D01*
X27162Y-22491D01*
X27181Y-22499D01*
X27241Y-22499D01*
X27340Y-22499D01*
X27395Y-22476D01*
X27437Y-22434D01*
X27458Y-22384D01*
X27478Y-22434D01*
X27520Y-22476D01*
X27575Y-22499D01*
X27635Y-22499D01*
X27733Y-22499D01*
X27753Y-22491D01*
X27772Y-22499D01*
X27832Y-22499D01*
X27930Y-22499D01*
X27976Y-22480D01*
X27976Y-22480D01*
G37*
G54D36*
X27976Y-22480D02*
X27957Y-22526D01*
X27957Y-22585D01*
X27957Y-22684D01*
X27965Y-22703D01*
X27957Y-22722D01*
X27957Y-22782D01*
X27957Y-22881D01*
X27965Y-22900D01*
X27957Y-22919D01*
X27957Y-22979D01*
X27957Y-23077D01*
X27965Y-23097D01*
X27957Y-23116D01*
X27957Y-23176D01*
X27957Y-23274D01*
X27965Y-23294D01*
X27957Y-23313D01*
X27957Y-23373D01*
X27957Y-23471D01*
X27976Y-23517D01*
X27930Y-23498D01*
X27871Y-23498D01*
X27772Y-23498D01*
X27753Y-23506D01*
X27734Y-23498D01*
X27674Y-23498D01*
X27575Y-23498D01*
X27556Y-23506D01*
X27537Y-23498D01*
X27477Y-23498D01*
X27379Y-23498D01*
X27359Y-23506D01*
X27340Y-23498D01*
X27280Y-23498D01*
X27182Y-23498D01*
X27162Y-23506D01*
X27143Y-23498D01*
X27083Y-23498D01*
X26985Y-23498D01*
X26939Y-23517D01*
X26958Y-23471D01*
X26958Y-23412D01*
X26958Y-23313D01*
X26950Y-23294D01*
X26958Y-23275D01*
X26958Y-23215D01*
X26958Y-23116D01*
X26950Y-23097D01*
X26958Y-23078D01*
X26958Y-23018D01*
X26958Y-22920D01*
X26950Y-22900D01*
X26958Y-22881D01*
X26958Y-22821D01*
X26958Y-22723D01*
X26950Y-22703D01*
X26958Y-22684D01*
X26958Y-22624D01*
X26958Y-22526D01*
X26939Y-22480D01*
X26985Y-22499D01*
X27044Y-22499D01*
X27143Y-22499D01*
X27162Y-22491D01*
X27181Y-22499D01*
X27241Y-22499D01*
X27340Y-22499D01*
X27395Y-22476D01*
X27437Y-22434D01*
X27458Y-22384D01*
X27478Y-22434D01*
X27520Y-22476D01*
X27575Y-22499D01*
X27635Y-22499D01*
X27733Y-22499D01*
X27753Y-22491D01*
X27772Y-22499D01*
X27832Y-22499D01*
X27930Y-22499D01*
X27976Y-22480D01*
G54D10*
G36*
X32583Y-25061D02*
X32085Y-25301D01*
X32083Y-25250D01*
X32058Y-25196D01*
X32015Y-25105D01*
X32029Y-25071D01*
X32030Y-24968D01*
X31990Y-24872D01*
X31917Y-24799D01*
X31862Y-24776D01*
X31825Y-24697D01*
X31811Y-24684D01*
X31848Y-24699D01*
X31951Y-24700D01*
X32047Y-24660D01*
X32120Y-24587D01*
X32159Y-24491D01*
X32160Y-24388D01*
X32120Y-24292D01*
X32070Y-24242D01*
X32070Y-23870D01*
X32047Y-23815D01*
X32005Y-23772D01*
X31949Y-23750D01*
X31890Y-23749D01*
X31831Y-23749D01*
X31770Y-23688D01*
X31674Y-23649D01*
X31571Y-23648D01*
X31475Y-23688D01*
X31414Y-23749D01*
X31257Y-23749D01*
X31203Y-23695D01*
X31107Y-23656D01*
X31004Y-23655D01*
X30908Y-23695D01*
X30881Y-23722D01*
X30816Y-23735D01*
X30753Y-23778D01*
X30751Y-23779D01*
X30397Y-23779D01*
X30342Y-23802D01*
X30299Y-23844D01*
X30288Y-23873D01*
X30279Y-23870D01*
X30220Y-23869D01*
X29860Y-23869D01*
X29805Y-23892D01*
X29762Y-23934D01*
X29740Y-23990D01*
X29739Y-24049D01*
X29739Y-24409D01*
X29762Y-24464D01*
X29804Y-24507D01*
X29860Y-24529D01*
X29919Y-24530D01*
X30046Y-24530D01*
X30318Y-24801D01*
X30318Y-24801D01*
X30399Y-24855D01*
X30399Y-24855D01*
X30495Y-24875D01*
X30859Y-24875D01*
X30955Y-24971D01*
X30932Y-24981D01*
X30614Y-25129D01*
X30574Y-25173D01*
X30554Y-25229D01*
X30556Y-25289D01*
X30567Y-25312D01*
X30533Y-25326D01*
X30460Y-25399D01*
X30421Y-25495D01*
X30420Y-25598D01*
X30460Y-25694D01*
X30533Y-25767D01*
X30629Y-25806D01*
X30732Y-25807D01*
X30787Y-25784D01*
X30814Y-25842D01*
X30858Y-25882D01*
X30869Y-25886D01*
X30306Y-26157D01*
X30312Y-26115D01*
X30320Y-26080D01*
X30320Y-26072D01*
X30320Y-26071D01*
X30320Y-26071D01*
X30320Y-25833D01*
X30334Y-25827D01*
X30377Y-25785D01*
X30399Y-25729D01*
X30400Y-25670D01*
X30400Y-25310D01*
X30377Y-25255D01*
X30335Y-25212D01*
X30279Y-25190D01*
X30220Y-25189D01*
X29860Y-25189D01*
X29805Y-25212D01*
X29762Y-25254D01*
X29740Y-25310D01*
X29739Y-25369D01*
X29739Y-25729D01*
X29762Y-25784D01*
X29804Y-25827D01*
X29820Y-25833D01*
X29820Y-25982D01*
X29614Y-26202D01*
X29614Y-21368D01*
X29614Y-21008D01*
X29591Y-20953D01*
X29549Y-20910D01*
X29493Y-20888D01*
X29434Y-20887D01*
X29074Y-20887D01*
X29019Y-20910D01*
X28976Y-20952D01*
X28954Y-21008D01*
X28953Y-21067D01*
X28953Y-21272D01*
X28884Y-21342D01*
X28841Y-21405D01*
X28839Y-21416D01*
X28713Y-21543D01*
X28670Y-21606D01*
X28656Y-21681D01*
X28656Y-22054D01*
X28636Y-22007D01*
X28563Y-21934D01*
X28467Y-21895D01*
X28364Y-21894D01*
X28268Y-21934D01*
X28195Y-22007D01*
X28156Y-22103D01*
X28156Y-22139D01*
X28146Y-22148D01*
X28104Y-22211D01*
X28089Y-22286D01*
X28089Y-22406D01*
X28077Y-22406D01*
X28031Y-22425D01*
X28050Y-22379D01*
X28050Y-22319D01*
X28050Y-21965D01*
X28028Y-21910D01*
X27985Y-21867D01*
X27930Y-21845D01*
X27871Y-21845D01*
X27772Y-21845D01*
X27753Y-21853D01*
X27734Y-21845D01*
X27674Y-21845D01*
X27575Y-21845D01*
X27520Y-21867D01*
X27478Y-21909D01*
X27457Y-21959D01*
X27456Y-21955D01*
X27456Y-21932D01*
X27462Y-21903D01*
X27462Y-21690D01*
X27462Y-21676D01*
X27462Y-21202D01*
X27651Y-20960D01*
X27659Y-20960D01*
X27755Y-20920D01*
X27828Y-20847D01*
X27867Y-20751D01*
X27868Y-20648D01*
X27828Y-20552D01*
X27755Y-20479D01*
X27659Y-20440D01*
X27556Y-20439D01*
X27460Y-20479D01*
X27387Y-20552D01*
X27348Y-20648D01*
X27347Y-20715D01*
X27113Y-21014D01*
X27101Y-21038D01*
X27086Y-21060D01*
X27084Y-21071D01*
X27079Y-21082D01*
X27077Y-21108D01*
X27072Y-21135D01*
X27072Y-21152D01*
X26964Y-21152D01*
X26909Y-21175D01*
X26866Y-21217D01*
X26844Y-21273D01*
X26843Y-21332D01*
X26843Y-21696D01*
X26826Y-21708D01*
X26804Y-21730D01*
X26804Y-20285D01*
X26764Y-20189D01*
X26691Y-20116D01*
X26630Y-20091D01*
X26630Y-20034D01*
X26607Y-19979D01*
X26565Y-19936D01*
X26510Y-19914D01*
X26510Y-19914D01*
X26492Y-19901D01*
X26417Y-19887D01*
X26343Y-19901D01*
X26325Y-19914D01*
X26175Y-19914D01*
X26120Y-19936D01*
X26078Y-19978D01*
X26055Y-20034D01*
X26055Y-20093D01*
X26055Y-20329D01*
X26075Y-20379D01*
X26067Y-20399D01*
X26000Y-20465D01*
X26000Y-20428D01*
X25980Y-20378D01*
X26000Y-20330D01*
X26000Y-20270D01*
X26000Y-20034D01*
X25978Y-19979D01*
X25935Y-19936D01*
X25892Y-19919D01*
X25888Y-19915D01*
X25816Y-19889D01*
X25740Y-19893D01*
X25656Y-19914D01*
X25545Y-19914D01*
X25490Y-19936D01*
X25470Y-19957D01*
X25418Y-19956D01*
X25322Y-19996D01*
X25249Y-20069D01*
X25210Y-20165D01*
X25209Y-20265D01*
X25208Y-20265D01*
X25208Y-20126D01*
X25185Y-20071D01*
X25143Y-20028D01*
X25087Y-20006D01*
X25028Y-20005D01*
X24778Y-20005D01*
X24723Y-20028D01*
X24680Y-20070D01*
X24658Y-20126D01*
X24657Y-20185D01*
X24657Y-20635D01*
X24680Y-20690D01*
X24722Y-20733D01*
X24738Y-20739D01*
X24738Y-20934D01*
X24752Y-21009D01*
X24795Y-21072D01*
X24862Y-21140D01*
X24862Y-21415D01*
X24414Y-21417D01*
X24414Y-20901D01*
X24392Y-20846D01*
X24350Y-20804D01*
X24294Y-20781D01*
X24235Y-20781D01*
X23998Y-20781D01*
X23943Y-20804D01*
X23901Y-20846D01*
X23878Y-20901D01*
X23878Y-20960D01*
X23878Y-21247D01*
X23683Y-21443D01*
X23640Y-21506D01*
X23626Y-21581D01*
X23626Y-22575D01*
X23640Y-22649D01*
X23683Y-22712D01*
X24194Y-23223D01*
X24195Y-23225D01*
X24197Y-23226D01*
X24227Y-23246D01*
X24257Y-23266D01*
X24259Y-23266D01*
X24261Y-23267D01*
X24296Y-23274D01*
X24332Y-23281D01*
X24334Y-23280D01*
X24336Y-23280D01*
X24536Y-23276D01*
X24524Y-23304D01*
X24524Y-23363D01*
X24524Y-23718D01*
X24547Y-23773D01*
X24589Y-23815D01*
X24644Y-23838D01*
X24704Y-23838D01*
X24794Y-23838D01*
X24804Y-23834D01*
X24813Y-23838D01*
X24873Y-23838D01*
X24964Y-23838D01*
X24973Y-23834D01*
X24983Y-23838D01*
X25042Y-23838D01*
X25133Y-23838D01*
X25142Y-23834D01*
X25152Y-23838D01*
X25212Y-23838D01*
X25302Y-23838D01*
X25312Y-23834D01*
X25321Y-23838D01*
X25381Y-23838D01*
X25471Y-23838D01*
X25481Y-23834D01*
X25490Y-23838D01*
X25550Y-23838D01*
X25641Y-23838D01*
X25696Y-23815D01*
X25738Y-23773D01*
X25761Y-23718D01*
X25761Y-23658D01*
X25761Y-23304D01*
X25761Y-23303D01*
X25761Y-23223D01*
X25754Y-23190D01*
X25748Y-23153D01*
X25746Y-23151D01*
X25746Y-23149D01*
X25727Y-23121D01*
X25707Y-23089D01*
X25650Y-23029D01*
X25623Y-23010D01*
X25596Y-22989D01*
X25592Y-22988D01*
X25588Y-22985D01*
X25555Y-22978D01*
X25523Y-22969D01*
X25121Y-22941D01*
X25114Y-22925D01*
X25041Y-22852D01*
X24945Y-22813D01*
X24842Y-22812D01*
X24746Y-22852D01*
X24717Y-22882D01*
X24410Y-22889D01*
X24138Y-22616D01*
X24294Y-22616D01*
X24349Y-22593D01*
X24392Y-22551D01*
X24392Y-22549D01*
X24393Y-22551D01*
X24435Y-22593D01*
X24490Y-22616D01*
X24550Y-22616D01*
X24786Y-22616D01*
X24795Y-22613D01*
X24811Y-22652D01*
X24884Y-22725D01*
X24980Y-22764D01*
X25083Y-22765D01*
X25179Y-22725D01*
X25252Y-22652D01*
X25267Y-22616D01*
X25278Y-22616D01*
X25334Y-22593D01*
X25376Y-22551D01*
X25377Y-22549D01*
X25377Y-22551D01*
X25419Y-22593D01*
X25475Y-22616D01*
X25534Y-22616D01*
X25771Y-22616D01*
X25826Y-22593D01*
X25868Y-22551D01*
X25891Y-22496D01*
X25891Y-22437D01*
X25891Y-22014D01*
X25951Y-21954D01*
X25990Y-21858D01*
X25991Y-21755D01*
X25951Y-21659D01*
X25878Y-21586D01*
X25857Y-21578D01*
X25868Y-21567D01*
X25891Y-21512D01*
X25891Y-21452D01*
X25891Y-21126D01*
X26174Y-20843D01*
X26175Y-20843D01*
X26234Y-20843D01*
X26510Y-20843D01*
X26565Y-20821D01*
X26607Y-20779D01*
X26630Y-20723D01*
X26630Y-20664D01*
X26630Y-20582D01*
X26691Y-20557D01*
X26764Y-20484D01*
X26803Y-20388D01*
X26804Y-20285D01*
X26804Y-21730D01*
X26706Y-21827D01*
X26699Y-21828D01*
X26691Y-21820D01*
X26595Y-21781D01*
X26492Y-21780D01*
X26396Y-21820D01*
X26323Y-21893D01*
X26284Y-21989D01*
X26283Y-22092D01*
X26323Y-22188D01*
X26396Y-22261D01*
X26492Y-22300D01*
X26595Y-22301D01*
X26691Y-22261D01*
X26736Y-22216D01*
X26816Y-22207D01*
X26843Y-22199D01*
X26865Y-22195D01*
X26865Y-22379D01*
X26884Y-22425D01*
X26838Y-22406D01*
X26778Y-22406D01*
X26424Y-22406D01*
X26369Y-22428D01*
X26326Y-22471D01*
X26304Y-22526D01*
X26304Y-22585D01*
X26304Y-22684D01*
X26306Y-22689D01*
X26289Y-22683D01*
X26186Y-22682D01*
X26090Y-22722D01*
X26017Y-22795D01*
X25978Y-22891D01*
X25977Y-22994D01*
X26017Y-23090D01*
X26090Y-23163D01*
X26122Y-23176D01*
X26109Y-23244D01*
X26109Y-23296D01*
X26009Y-23295D01*
X25913Y-23335D01*
X25840Y-23408D01*
X25801Y-23504D01*
X25800Y-23607D01*
X25840Y-23703D01*
X25913Y-23776D01*
X25953Y-23792D01*
X25955Y-23880D01*
X25929Y-23881D01*
X25636Y-23881D01*
X25580Y-23903D01*
X25538Y-23945D01*
X25515Y-24001D01*
X25515Y-24050D01*
X25495Y-24050D01*
X25425Y-24047D01*
X25410Y-24010D01*
X25337Y-23937D01*
X25241Y-23898D01*
X25138Y-23897D01*
X25042Y-23937D01*
X24969Y-24010D01*
X24930Y-24106D01*
X24929Y-24209D01*
X24969Y-24305D01*
X25032Y-24368D01*
X25032Y-24483D01*
X24983Y-24483D01*
X24928Y-24506D01*
X24885Y-24548D01*
X24863Y-24603D01*
X24863Y-24663D01*
X24863Y-24991D01*
X24576Y-24991D01*
X24501Y-25005D01*
X24438Y-25048D01*
X24308Y-25177D01*
X24042Y-25177D01*
X23987Y-25200D01*
X23944Y-25242D01*
X23922Y-25298D01*
X23921Y-25357D01*
X23921Y-25607D01*
X23944Y-25662D01*
X23986Y-25705D01*
X24042Y-25727D01*
X24101Y-25728D01*
X24551Y-25728D01*
X24606Y-25705D01*
X24649Y-25663D01*
X24671Y-25607D01*
X24672Y-25548D01*
X24672Y-25381D01*
X25017Y-25381D01*
X25075Y-25369D01*
X25078Y-25376D01*
X25151Y-25449D01*
X25247Y-25488D01*
X25253Y-25488D01*
X25253Y-25935D01*
X25276Y-25990D01*
X25318Y-26033D01*
X25374Y-26055D01*
X25433Y-26056D01*
X25683Y-26056D01*
X25738Y-26033D01*
X25781Y-25991D01*
X25803Y-25935D01*
X25804Y-25876D01*
X25804Y-25632D01*
X25824Y-25640D01*
X25883Y-25641D01*
X26333Y-25641D01*
X26388Y-25618D01*
X26431Y-25576D01*
X26437Y-25559D01*
X26461Y-25559D01*
X26491Y-25590D01*
X26547Y-25612D01*
X26606Y-25613D01*
X27038Y-25613D01*
X27054Y-25629D01*
X27118Y-25671D01*
X27118Y-25671D01*
X27120Y-25672D01*
X27120Y-25672D01*
X27121Y-25676D01*
X27164Y-25718D01*
X27219Y-25741D01*
X27278Y-25741D01*
X27578Y-25741D01*
X27633Y-25718D01*
X27676Y-25676D01*
X27699Y-25621D01*
X27699Y-25562D01*
X27699Y-25362D01*
X27676Y-25306D01*
X27634Y-25264D01*
X27610Y-25254D01*
X27648Y-25160D01*
X27649Y-25057D01*
X27615Y-24976D01*
X27633Y-24968D01*
X27676Y-24926D01*
X27699Y-24871D01*
X27699Y-24812D01*
X27699Y-24612D01*
X27676Y-24556D01*
X27675Y-24556D01*
X27922Y-24556D01*
X28099Y-24732D01*
X28099Y-24871D01*
X28121Y-24926D01*
X28164Y-24968D01*
X28219Y-24991D01*
X28278Y-24991D01*
X28578Y-24991D01*
X28633Y-24968D01*
X28676Y-24926D01*
X28684Y-24907D01*
X28691Y-24946D01*
X28734Y-25009D01*
X28939Y-25215D01*
X28939Y-25379D01*
X28962Y-25434D01*
X29004Y-25477D01*
X29060Y-25499D01*
X29119Y-25500D01*
X29479Y-25500D01*
X29534Y-25477D01*
X29577Y-25435D01*
X29599Y-25379D01*
X29600Y-25320D01*
X29600Y-24960D01*
X29577Y-24905D01*
X29535Y-24862D01*
X29479Y-24840D01*
X29420Y-24839D01*
X29115Y-24839D01*
X29067Y-24791D01*
X29067Y-24343D01*
X29066Y-24342D01*
X29052Y-24268D01*
X29052Y-24268D01*
X29009Y-24205D01*
X29009Y-24205D01*
X28853Y-24049D01*
X28790Y-24006D01*
X28716Y-23992D01*
X28710Y-23993D01*
X28387Y-23993D01*
X28388Y-23893D01*
X28366Y-23840D01*
X28417Y-23861D01*
X28520Y-23862D01*
X28616Y-23822D01*
X28689Y-23749D01*
X28719Y-23677D01*
X28719Y-23693D01*
X28733Y-23767D01*
X28776Y-23830D01*
X28933Y-23987D01*
X28939Y-23992D01*
X28939Y-24059D01*
X28962Y-24114D01*
X29004Y-24157D01*
X29060Y-24179D01*
X29119Y-24180D01*
X29479Y-24180D01*
X29534Y-24157D01*
X29577Y-24115D01*
X29599Y-24059D01*
X29600Y-24000D01*
X29600Y-23640D01*
X29577Y-23585D01*
X29535Y-23542D01*
X29479Y-23520D01*
X29420Y-23519D01*
X29109Y-23519D01*
X29109Y-23375D01*
X29108Y-23374D01*
X29094Y-23300D01*
X29094Y-23300D01*
X29051Y-23237D01*
X29051Y-23237D01*
X28924Y-23109D01*
X29133Y-22900D01*
X29489Y-22900D01*
X29544Y-22877D01*
X29587Y-22835D01*
X29609Y-22779D01*
X29610Y-22720D01*
X29610Y-22360D01*
X29587Y-22305D01*
X29545Y-22262D01*
X29489Y-22240D01*
X29430Y-22239D01*
X29070Y-22239D01*
X29046Y-22250D01*
X29046Y-21761D01*
X29159Y-21647D01*
X29168Y-21638D01*
X29211Y-21575D01*
X29213Y-21564D01*
X29229Y-21548D01*
X29493Y-21548D01*
X29548Y-21525D01*
X29591Y-21483D01*
X29613Y-21427D01*
X29614Y-21368D01*
X29614Y-26202D01*
X28512Y-27383D01*
X28435Y-27383D01*
X28558Y-27260D01*
X28671Y-26988D01*
X28671Y-26694D01*
X28558Y-26422D01*
X28350Y-26213D01*
X28222Y-26160D01*
X28561Y-25756D01*
X28629Y-25757D01*
X28725Y-25717D01*
X28798Y-25644D01*
X28837Y-25548D01*
X28838Y-25445D01*
X28798Y-25349D01*
X28725Y-25276D01*
X28629Y-25237D01*
X28526Y-25236D01*
X28515Y-25241D01*
X28219Y-25241D01*
X28164Y-25264D01*
X28122Y-25306D01*
X28099Y-25361D01*
X28099Y-25421D01*
X28099Y-25621D01*
X28121Y-25674D01*
X27953Y-25874D01*
X27616Y-25874D01*
X27578Y-25881D01*
X27550Y-25885D01*
X27546Y-25887D01*
X27541Y-25888D01*
X27509Y-25910D01*
X27484Y-25924D01*
X27478Y-25931D01*
X27478Y-25931D01*
X27478Y-25931D01*
X27070Y-26302D01*
X26447Y-26302D01*
X26431Y-26305D01*
X26413Y-26304D01*
X26392Y-26312D01*
X26372Y-26316D01*
X26359Y-26325D01*
X26342Y-26331D01*
X26325Y-26347D01*
X26309Y-26359D01*
X26300Y-26371D01*
X26287Y-26384D01*
X26195Y-26514D01*
X25928Y-26514D01*
X25873Y-26537D01*
X25830Y-26579D01*
X25808Y-26635D01*
X25807Y-26694D01*
X25807Y-26772D01*
X24633Y-26872D01*
X24619Y-26838D01*
X24577Y-26795D01*
X24521Y-26773D01*
X24462Y-26772D01*
X24012Y-26772D01*
X23957Y-26795D01*
X23914Y-26837D01*
X23900Y-26873D01*
X23782Y-26873D01*
X23750Y-26840D01*
X23694Y-26818D01*
X23635Y-26817D01*
X23335Y-26817D01*
X23319Y-26824D01*
X23319Y-26593D01*
X23344Y-26567D01*
X23394Y-26568D01*
X23694Y-26568D01*
X23749Y-26545D01*
X23792Y-26503D01*
X23814Y-26447D01*
X23815Y-26388D01*
X23815Y-26188D01*
X23792Y-26133D01*
X23750Y-26090D01*
X23694Y-26068D01*
X23635Y-26067D01*
X23439Y-26067D01*
X23444Y-26062D01*
X23487Y-25999D01*
X23487Y-25999D01*
X23502Y-25925D01*
X23502Y-25393D01*
X23561Y-25393D01*
X23616Y-25370D01*
X23659Y-25328D01*
X23681Y-25272D01*
X23682Y-25213D01*
X23682Y-24963D01*
X23659Y-24908D01*
X23617Y-24865D01*
X23591Y-24855D01*
X23592Y-24784D01*
X23552Y-24688D01*
X23479Y-24615D01*
X23383Y-24576D01*
X23280Y-24575D01*
X23184Y-24615D01*
X23111Y-24688D01*
X23088Y-24744D01*
X22868Y-24744D01*
X22868Y-24662D01*
X22845Y-24607D01*
X22803Y-24565D01*
X22756Y-24546D01*
X22762Y-24543D01*
X22885Y-24542D01*
X22909Y-24538D01*
X22934Y-24536D01*
X22946Y-24530D01*
X22959Y-24527D01*
X22979Y-24513D01*
X23002Y-24502D01*
X23099Y-24428D01*
X23138Y-24443D01*
X23241Y-24444D01*
X23337Y-24404D01*
X23410Y-24331D01*
X23449Y-24235D01*
X23450Y-24132D01*
X23444Y-24119D01*
X23551Y-24119D01*
X23606Y-24096D01*
X23649Y-24054D01*
X23671Y-23998D01*
X23672Y-23939D01*
X23672Y-23689D01*
X23649Y-23634D01*
X23608Y-23593D01*
X23636Y-23593D01*
X23732Y-23553D01*
X23805Y-23480D01*
X23844Y-23384D01*
X23845Y-23281D01*
X23805Y-23185D01*
X23732Y-23112D01*
X23671Y-23087D01*
X23649Y-23034D01*
X23607Y-22991D01*
X23551Y-22969D01*
X23492Y-22968D01*
X23335Y-22968D01*
X23335Y-22732D01*
X23342Y-22729D01*
X23385Y-22687D01*
X23407Y-22632D01*
X23408Y-22572D01*
X23408Y-22021D01*
X23385Y-21966D01*
X23343Y-21924D01*
X23287Y-21901D01*
X23228Y-21901D01*
X22992Y-21901D01*
X22937Y-21924D01*
X22894Y-21966D01*
X22890Y-21978D01*
X22885Y-21966D01*
X22843Y-21924D01*
X22787Y-21901D01*
X22728Y-21901D01*
X22586Y-21901D01*
X22586Y-21574D01*
X23277Y-20882D01*
X23277Y-20882D01*
X23277Y-20882D01*
X23320Y-20819D01*
X23320Y-20819D01*
X23334Y-20745D01*
X23335Y-20745D01*
X23335Y-20632D01*
X23342Y-20629D01*
X23385Y-20587D01*
X23407Y-20532D01*
X23408Y-20472D01*
X23408Y-19921D01*
X23385Y-19866D01*
X23343Y-19824D01*
X23308Y-19810D01*
X28503Y-19810D01*
X29610Y-20933D01*
X29783Y-21167D01*
X29797Y-21282D01*
X29776Y-21302D01*
X29754Y-21358D01*
X29753Y-21417D01*
X29753Y-21777D01*
X29776Y-21832D01*
X29818Y-21875D01*
X29874Y-21897D01*
X29933Y-21898D01*
X30293Y-21898D01*
X30348Y-21875D01*
X30391Y-21833D01*
X30398Y-21815D01*
X30462Y-21880D01*
X30495Y-21894D01*
X30514Y-21946D01*
X30554Y-21990D01*
X30608Y-22015D01*
X30880Y-22142D01*
X30837Y-22171D01*
X30837Y-22171D01*
X30370Y-22638D01*
X30345Y-22612D01*
X30289Y-22590D01*
X30230Y-22589D01*
X29870Y-22589D01*
X29815Y-22612D01*
X29772Y-22654D01*
X29750Y-22710D01*
X29749Y-22769D01*
X29749Y-23129D01*
X29772Y-23184D01*
X29814Y-23227D01*
X29870Y-23249D01*
X29929Y-23250D01*
X30289Y-23250D01*
X30344Y-23227D01*
X30387Y-23185D01*
X30393Y-23170D01*
X30442Y-23170D01*
X30537Y-23150D01*
X30618Y-23096D01*
X31117Y-22598D01*
X31160Y-22598D01*
X31256Y-22578D01*
X31337Y-22524D01*
X31423Y-22438D01*
X31454Y-22470D01*
X31550Y-22509D01*
X31653Y-22510D01*
X31749Y-22470D01*
X31822Y-22397D01*
X31861Y-22301D01*
X31861Y-22295D01*
X31920Y-22271D01*
X31993Y-22198D01*
X32033Y-22103D01*
X32033Y-21999D01*
X31999Y-21919D01*
X32023Y-21869D01*
X32023Y-21854D01*
X32583Y-22124D01*
X32583Y-25061D01*
X32583Y-25061D01*
G37*
G54D36*
X32583Y-25061D02*
X32085Y-25301D01*
X32083Y-25250D01*
X32058Y-25196D01*
X32015Y-25105D01*
X32029Y-25071D01*
X32030Y-24968D01*
X31990Y-24872D01*
X31917Y-24799D01*
X31862Y-24776D01*
X31825Y-24697D01*
X31811Y-24684D01*
X31848Y-24699D01*
X31951Y-24700D01*
X32047Y-24660D01*
X32120Y-24587D01*
X32159Y-24491D01*
X32160Y-24388D01*
X32120Y-24292D01*
X32070Y-24242D01*
X32070Y-23870D01*
X32047Y-23815D01*
X32005Y-23772D01*
X31949Y-23750D01*
X31890Y-23749D01*
X31831Y-23749D01*
X31770Y-23688D01*
X31674Y-23649D01*
X31571Y-23648D01*
X31475Y-23688D01*
X31414Y-23749D01*
X31257Y-23749D01*
X31203Y-23695D01*
X31107Y-23656D01*
X31004Y-23655D01*
X30908Y-23695D01*
X30881Y-23722D01*
X30816Y-23735D01*
X30753Y-23778D01*
X30751Y-23779D01*
X30397Y-23779D01*
X30342Y-23802D01*
X30299Y-23844D01*
X30288Y-23873D01*
X30279Y-23870D01*
X30220Y-23869D01*
X29860Y-23869D01*
X29805Y-23892D01*
X29762Y-23934D01*
X29740Y-23990D01*
X29739Y-24049D01*
X29739Y-24409D01*
X29762Y-24464D01*
X29804Y-24507D01*
X29860Y-24529D01*
X29919Y-24530D01*
X30046Y-24530D01*
X30318Y-24801D01*
X30318Y-24801D01*
X30399Y-24855D01*
X30399Y-24855D01*
X30495Y-24875D01*
X30859Y-24875D01*
X30955Y-24971D01*
X30932Y-24981D01*
X30614Y-25129D01*
X30574Y-25173D01*
X30554Y-25229D01*
X30556Y-25289D01*
X30567Y-25312D01*
X30533Y-25326D01*
X30460Y-25399D01*
X30421Y-25495D01*
X30420Y-25598D01*
X30460Y-25694D01*
X30533Y-25767D01*
X30629Y-25806D01*
X30732Y-25807D01*
X30787Y-25784D01*
X30814Y-25842D01*
X30858Y-25882D01*
X30869Y-25886D01*
X30306Y-26157D01*
X30312Y-26115D01*
X30320Y-26080D01*
X30320Y-26072D01*
X30320Y-26071D01*
X30320Y-26071D01*
X30320Y-25833D01*
X30334Y-25827D01*
X30377Y-25785D01*
X30399Y-25729D01*
X30400Y-25670D01*
X30400Y-25310D01*
X30377Y-25255D01*
X30335Y-25212D01*
X30279Y-25190D01*
X30220Y-25189D01*
X29860Y-25189D01*
X29805Y-25212D01*
X29762Y-25254D01*
X29740Y-25310D01*
X29739Y-25369D01*
X29739Y-25729D01*
X29762Y-25784D01*
X29804Y-25827D01*
X29820Y-25833D01*
X29820Y-25982D01*
X29614Y-26202D01*
X29614Y-21368D01*
X29614Y-21008D01*
X29591Y-20953D01*
X29549Y-20910D01*
X29493Y-20888D01*
X29434Y-20887D01*
X29074Y-20887D01*
X29019Y-20910D01*
X28976Y-20952D01*
X28954Y-21008D01*
X28953Y-21067D01*
X28953Y-21272D01*
X28884Y-21342D01*
X28841Y-21405D01*
X28839Y-21416D01*
X28713Y-21543D01*
X28670Y-21606D01*
X28656Y-21681D01*
X28656Y-22054D01*
X28636Y-22007D01*
X28563Y-21934D01*
X28467Y-21895D01*
X28364Y-21894D01*
X28268Y-21934D01*
X28195Y-22007D01*
X28156Y-22103D01*
X28156Y-22139D01*
X28146Y-22148D01*
X28104Y-22211D01*
X28089Y-22286D01*
X28089Y-22406D01*
X28077Y-22406D01*
X28031Y-22425D01*
X28050Y-22379D01*
X28050Y-22319D01*
X28050Y-21965D01*
X28028Y-21910D01*
X27985Y-21867D01*
X27930Y-21845D01*
X27871Y-21845D01*
X27772Y-21845D01*
X27753Y-21853D01*
X27734Y-21845D01*
X27674Y-21845D01*
X27575Y-21845D01*
X27520Y-21867D01*
X27478Y-21909D01*
X27457Y-21959D01*
X27456Y-21955D01*
X27456Y-21932D01*
X27462Y-21903D01*
X27462Y-21690D01*
X27462Y-21676D01*
X27462Y-21202D01*
X27651Y-20960D01*
X27659Y-20960D01*
X27755Y-20920D01*
X27828Y-20847D01*
X27867Y-20751D01*
X27868Y-20648D01*
X27828Y-20552D01*
X27755Y-20479D01*
X27659Y-20440D01*
X27556Y-20439D01*
X27460Y-20479D01*
X27387Y-20552D01*
X27348Y-20648D01*
X27347Y-20715D01*
X27113Y-21014D01*
X27101Y-21038D01*
X27086Y-21060D01*
X27084Y-21071D01*
X27079Y-21082D01*
X27077Y-21108D01*
X27072Y-21135D01*
X27072Y-21152D01*
X26964Y-21152D01*
X26909Y-21175D01*
X26866Y-21217D01*
X26844Y-21273D01*
X26843Y-21332D01*
X26843Y-21696D01*
X26826Y-21708D01*
X26804Y-21730D01*
X26804Y-20285D01*
X26764Y-20189D01*
X26691Y-20116D01*
X26630Y-20091D01*
X26630Y-20034D01*
X26607Y-19979D01*
X26565Y-19936D01*
X26510Y-19914D01*
X26510Y-19914D01*
X26492Y-19901D01*
X26417Y-19887D01*
X26343Y-19901D01*
X26325Y-19914D01*
X26175Y-19914D01*
X26120Y-19936D01*
X26078Y-19978D01*
X26055Y-20034D01*
X26055Y-20093D01*
X26055Y-20329D01*
X26075Y-20379D01*
X26067Y-20399D01*
X26000Y-20465D01*
X26000Y-20428D01*
X25980Y-20378D01*
X26000Y-20330D01*
X26000Y-20270D01*
X26000Y-20034D01*
X25978Y-19979D01*
X25935Y-19936D01*
X25892Y-19919D01*
X25888Y-19915D01*
X25816Y-19889D01*
X25740Y-19893D01*
X25656Y-19914D01*
X25545Y-19914D01*
X25490Y-19936D01*
X25470Y-19957D01*
X25418Y-19956D01*
X25322Y-19996D01*
X25249Y-20069D01*
X25210Y-20165D01*
X25209Y-20265D01*
X25208Y-20265D01*
X25208Y-20126D01*
X25185Y-20071D01*
X25143Y-20028D01*
X25087Y-20006D01*
X25028Y-20005D01*
X24778Y-20005D01*
X24723Y-20028D01*
X24680Y-20070D01*
X24658Y-20126D01*
X24657Y-20185D01*
X24657Y-20635D01*
X24680Y-20690D01*
X24722Y-20733D01*
X24738Y-20739D01*
X24738Y-20934D01*
X24752Y-21009D01*
X24795Y-21072D01*
X24862Y-21140D01*
X24862Y-21415D01*
X24414Y-21417D01*
X24414Y-20901D01*
X24392Y-20846D01*
X24350Y-20804D01*
X24294Y-20781D01*
X24235Y-20781D01*
X23998Y-20781D01*
X23943Y-20804D01*
X23901Y-20846D01*
X23878Y-20901D01*
X23878Y-20960D01*
X23878Y-21247D01*
X23683Y-21443D01*
X23640Y-21506D01*
X23626Y-21581D01*
X23626Y-22575D01*
X23640Y-22649D01*
X23683Y-22712D01*
X24194Y-23223D01*
X24195Y-23225D01*
X24197Y-23226D01*
X24227Y-23246D01*
X24257Y-23266D01*
X24259Y-23266D01*
X24261Y-23267D01*
X24296Y-23274D01*
X24332Y-23281D01*
X24334Y-23280D01*
X24336Y-23280D01*
X24536Y-23276D01*
X24524Y-23304D01*
X24524Y-23363D01*
X24524Y-23718D01*
X24547Y-23773D01*
X24589Y-23815D01*
X24644Y-23838D01*
X24704Y-23838D01*
X24794Y-23838D01*
X24804Y-23834D01*
X24813Y-23838D01*
X24873Y-23838D01*
X24964Y-23838D01*
X24973Y-23834D01*
X24983Y-23838D01*
X25042Y-23838D01*
X25133Y-23838D01*
X25142Y-23834D01*
X25152Y-23838D01*
X25212Y-23838D01*
X25302Y-23838D01*
X25312Y-23834D01*
X25321Y-23838D01*
X25381Y-23838D01*
X25471Y-23838D01*
X25481Y-23834D01*
X25490Y-23838D01*
X25550Y-23838D01*
X25641Y-23838D01*
X25696Y-23815D01*
X25738Y-23773D01*
X25761Y-23718D01*
X25761Y-23658D01*
X25761Y-23304D01*
X25761Y-23303D01*
X25761Y-23223D01*
X25754Y-23190D01*
X25748Y-23153D01*
X25746Y-23151D01*
X25746Y-23149D01*
X25727Y-23121D01*
X25707Y-23089D01*
X25650Y-23029D01*
X25623Y-23010D01*
X25596Y-22989D01*
X25592Y-22988D01*
X25588Y-22985D01*
X25555Y-22978D01*
X25523Y-22969D01*
X25121Y-22941D01*
X25114Y-22925D01*
X25041Y-22852D01*
X24945Y-22813D01*
X24842Y-22812D01*
X24746Y-22852D01*
X24717Y-22882D01*
X24410Y-22889D01*
X24138Y-22616D01*
X24294Y-22616D01*
X24349Y-22593D01*
X24392Y-22551D01*
X24392Y-22549D01*
X24393Y-22551D01*
X24435Y-22593D01*
X24490Y-22616D01*
X24550Y-22616D01*
X24786Y-22616D01*
X24795Y-22613D01*
X24811Y-22652D01*
X24884Y-22725D01*
X24980Y-22764D01*
X25083Y-22765D01*
X25179Y-22725D01*
X25252Y-22652D01*
X25267Y-22616D01*
X25278Y-22616D01*
X25334Y-22593D01*
X25376Y-22551D01*
X25377Y-22549D01*
X25377Y-22551D01*
X25419Y-22593D01*
X25475Y-22616D01*
X25534Y-22616D01*
X25771Y-22616D01*
X25826Y-22593D01*
X25868Y-22551D01*
X25891Y-22496D01*
X25891Y-22437D01*
X25891Y-22014D01*
X25951Y-21954D01*
X25990Y-21858D01*
X25991Y-21755D01*
X25951Y-21659D01*
X25878Y-21586D01*
X25857Y-21578D01*
X25868Y-21567D01*
X25891Y-21512D01*
X25891Y-21452D01*
X25891Y-21126D01*
X26174Y-20843D01*
X26175Y-20843D01*
X26234Y-20843D01*
X26510Y-20843D01*
X26565Y-20821D01*
X26607Y-20779D01*
X26630Y-20723D01*
X26630Y-20664D01*
X26630Y-20582D01*
X26691Y-20557D01*
X26764Y-20484D01*
X26803Y-20388D01*
X26804Y-20285D01*
X26804Y-21730D01*
X26706Y-21827D01*
X26699Y-21828D01*
X26691Y-21820D01*
X26595Y-21781D01*
X26492Y-21780D01*
X26396Y-21820D01*
X26323Y-21893D01*
X26284Y-21989D01*
X26283Y-22092D01*
X26323Y-22188D01*
X26396Y-22261D01*
X26492Y-22300D01*
X26595Y-22301D01*
X26691Y-22261D01*
X26736Y-22216D01*
X26816Y-22207D01*
X26843Y-22199D01*
X26865Y-22195D01*
X26865Y-22379D01*
X26884Y-22425D01*
X26838Y-22406D01*
X26778Y-22406D01*
X26424Y-22406D01*
X26369Y-22428D01*
X26326Y-22471D01*
X26304Y-22526D01*
X26304Y-22585D01*
X26304Y-22684D01*
X26306Y-22689D01*
X26289Y-22683D01*
X26186Y-22682D01*
X26090Y-22722D01*
X26017Y-22795D01*
X25978Y-22891D01*
X25977Y-22994D01*
X26017Y-23090D01*
X26090Y-23163D01*
X26122Y-23176D01*
X26109Y-23244D01*
X26109Y-23296D01*
X26009Y-23295D01*
X25913Y-23335D01*
X25840Y-23408D01*
X25801Y-23504D01*
X25800Y-23607D01*
X25840Y-23703D01*
X25913Y-23776D01*
X25953Y-23792D01*
X25955Y-23880D01*
X25929Y-23881D01*
X25636Y-23881D01*
X25580Y-23903D01*
X25538Y-23945D01*
X25515Y-24001D01*
X25515Y-24050D01*
X25495Y-24050D01*
X25425Y-24047D01*
X25410Y-24010D01*
X25337Y-23937D01*
X25241Y-23898D01*
X25138Y-23897D01*
X25042Y-23937D01*
X24969Y-24010D01*
X24930Y-24106D01*
X24929Y-24209D01*
X24969Y-24305D01*
X25032Y-24368D01*
X25032Y-24483D01*
X24983Y-24483D01*
X24928Y-24506D01*
X24885Y-24548D01*
X24863Y-24603D01*
X24863Y-24663D01*
X24863Y-24991D01*
X24576Y-24991D01*
X24501Y-25005D01*
X24438Y-25048D01*
X24308Y-25177D01*
X24042Y-25177D01*
X23987Y-25200D01*
X23944Y-25242D01*
X23922Y-25298D01*
X23921Y-25357D01*
X23921Y-25607D01*
X23944Y-25662D01*
X23986Y-25705D01*
X24042Y-25727D01*
X24101Y-25728D01*
X24551Y-25728D01*
X24606Y-25705D01*
X24649Y-25663D01*
X24671Y-25607D01*
X24672Y-25548D01*
X24672Y-25381D01*
X25017Y-25381D01*
X25075Y-25369D01*
X25078Y-25376D01*
X25151Y-25449D01*
X25247Y-25488D01*
X25253Y-25488D01*
X25253Y-25935D01*
X25276Y-25990D01*
X25318Y-26033D01*
X25374Y-26055D01*
X25433Y-26056D01*
X25683Y-26056D01*
X25738Y-26033D01*
X25781Y-25991D01*
X25803Y-25935D01*
X25804Y-25876D01*
X25804Y-25632D01*
X25824Y-25640D01*
X25883Y-25641D01*
X26333Y-25641D01*
X26388Y-25618D01*
X26431Y-25576D01*
X26437Y-25559D01*
X26461Y-25559D01*
X26491Y-25590D01*
X26547Y-25612D01*
X26606Y-25613D01*
X27038Y-25613D01*
X27054Y-25629D01*
X27118Y-25671D01*
X27118Y-25671D01*
X27120Y-25672D01*
X27120Y-25672D01*
X27121Y-25676D01*
X27164Y-25718D01*
X27219Y-25741D01*
X27278Y-25741D01*
X27578Y-25741D01*
X27633Y-25718D01*
X27676Y-25676D01*
X27699Y-25621D01*
X27699Y-25562D01*
X27699Y-25362D01*
X27676Y-25306D01*
X27634Y-25264D01*
X27610Y-25254D01*
X27648Y-25160D01*
X27649Y-25057D01*
X27615Y-24976D01*
X27633Y-24968D01*
X27676Y-24926D01*
X27699Y-24871D01*
X27699Y-24812D01*
X27699Y-24612D01*
X27676Y-24556D01*
X27675Y-24556D01*
X27922Y-24556D01*
X28099Y-24732D01*
X28099Y-24871D01*
X28121Y-24926D01*
X28164Y-24968D01*
X28219Y-24991D01*
X28278Y-24991D01*
X28578Y-24991D01*
X28633Y-24968D01*
X28676Y-24926D01*
X28684Y-24907D01*
X28691Y-24946D01*
X28734Y-25009D01*
X28939Y-25215D01*
X28939Y-25379D01*
X28962Y-25434D01*
X29004Y-25477D01*
X29060Y-25499D01*
X29119Y-25500D01*
X29479Y-25500D01*
X29534Y-25477D01*
X29577Y-25435D01*
X29599Y-25379D01*
X29600Y-25320D01*
X29600Y-24960D01*
X29577Y-24905D01*
X29535Y-24862D01*
X29479Y-24840D01*
X29420Y-24839D01*
X29115Y-24839D01*
X29067Y-24791D01*
X29067Y-24343D01*
X29066Y-24342D01*
X29052Y-24268D01*
X29052Y-24268D01*
X29009Y-24205D01*
X29009Y-24205D01*
X28853Y-24049D01*
X28790Y-24006D01*
X28716Y-23992D01*
X28710Y-23993D01*
X28387Y-23993D01*
X28388Y-23893D01*
X28366Y-23840D01*
X28417Y-23861D01*
X28520Y-23862D01*
X28616Y-23822D01*
X28689Y-23749D01*
X28719Y-23677D01*
X28719Y-23693D01*
X28733Y-23767D01*
X28776Y-23830D01*
X28933Y-23987D01*
X28939Y-23992D01*
X28939Y-24059D01*
X28962Y-24114D01*
X29004Y-24157D01*
X29060Y-24179D01*
X29119Y-24180D01*
X29479Y-24180D01*
X29534Y-24157D01*
X29577Y-24115D01*
X29599Y-24059D01*
X29600Y-24000D01*
X29600Y-23640D01*
X29577Y-23585D01*
X29535Y-23542D01*
X29479Y-23520D01*
X29420Y-23519D01*
X29109Y-23519D01*
X29109Y-23375D01*
X29108Y-23374D01*
X29094Y-23300D01*
X29094Y-23300D01*
X29051Y-23237D01*
X29051Y-23237D01*
X28924Y-23109D01*
X29133Y-22900D01*
X29489Y-22900D01*
X29544Y-22877D01*
X29587Y-22835D01*
X29609Y-22779D01*
X29610Y-22720D01*
X29610Y-22360D01*
X29587Y-22305D01*
X29545Y-22262D01*
X29489Y-22240D01*
X29430Y-22239D01*
X29070Y-22239D01*
X29046Y-22250D01*
X29046Y-21761D01*
X29159Y-21647D01*
X29168Y-21638D01*
X29211Y-21575D01*
X29213Y-21564D01*
X29229Y-21548D01*
X29493Y-21548D01*
X29548Y-21525D01*
X29591Y-21483D01*
X29613Y-21427D01*
X29614Y-21368D01*
X29614Y-26202D01*
X28512Y-27383D01*
X28435Y-27383D01*
X28558Y-27260D01*
X28671Y-26988D01*
X28671Y-26694D01*
X28558Y-26422D01*
X28350Y-26213D01*
X28222Y-26160D01*
X28561Y-25756D01*
X28629Y-25757D01*
X28725Y-25717D01*
X28798Y-25644D01*
X28837Y-25548D01*
X28838Y-25445D01*
X28798Y-25349D01*
X28725Y-25276D01*
X28629Y-25237D01*
X28526Y-25236D01*
X28515Y-25241D01*
X28219Y-25241D01*
X28164Y-25264D01*
X28122Y-25306D01*
X28099Y-25361D01*
X28099Y-25421D01*
X28099Y-25621D01*
X28121Y-25674D01*
X27953Y-25874D01*
X27616Y-25874D01*
X27578Y-25881D01*
X27550Y-25885D01*
X27546Y-25887D01*
X27541Y-25888D01*
X27509Y-25910D01*
X27484Y-25924D01*
X27478Y-25931D01*
X27478Y-25931D01*
X27478Y-25931D01*
X27070Y-26302D01*
X26447Y-26302D01*
X26431Y-26305D01*
X26413Y-26304D01*
X26392Y-26312D01*
X26372Y-26316D01*
X26359Y-26325D01*
X26342Y-26331D01*
X26325Y-26347D01*
X26309Y-26359D01*
X26300Y-26371D01*
X26287Y-26384D01*
X26195Y-26514D01*
X25928Y-26514D01*
X25873Y-26537D01*
X25830Y-26579D01*
X25808Y-26635D01*
X25807Y-26694D01*
X25807Y-26772D01*
X24633Y-26872D01*
X24619Y-26838D01*
X24577Y-26795D01*
X24521Y-26773D01*
X24462Y-26772D01*
X24012Y-26772D01*
X23957Y-26795D01*
X23914Y-26837D01*
X23900Y-26873D01*
X23782Y-26873D01*
X23750Y-26840D01*
X23694Y-26818D01*
X23635Y-26817D01*
X23335Y-26817D01*
X23319Y-26824D01*
X23319Y-26593D01*
X23344Y-26567D01*
X23394Y-26568D01*
X23694Y-26568D01*
X23749Y-26545D01*
X23792Y-26503D01*
X23814Y-26447D01*
X23815Y-26388D01*
X23815Y-26188D01*
X23792Y-26133D01*
X23750Y-26090D01*
X23694Y-26068D01*
X23635Y-26067D01*
X23439Y-26067D01*
X23444Y-26062D01*
X23487Y-25999D01*
X23487Y-25999D01*
X23502Y-25925D01*
X23502Y-25393D01*
X23561Y-25393D01*
X23616Y-25370D01*
X23659Y-25328D01*
X23681Y-25272D01*
X23682Y-25213D01*
X23682Y-24963D01*
X23659Y-24908D01*
X23617Y-24865D01*
X23591Y-24855D01*
X23592Y-24784D01*
X23552Y-24688D01*
X23479Y-24615D01*
X23383Y-24576D01*
X23280Y-24575D01*
X23184Y-24615D01*
X23111Y-24688D01*
X23088Y-24744D01*
X22868Y-24744D01*
X22868Y-24662D01*
X22845Y-24607D01*
X22803Y-24565D01*
X22756Y-24546D01*
X22762Y-24543D01*
X22885Y-24542D01*
X22909Y-24538D01*
X22934Y-24536D01*
X22946Y-24530D01*
X22959Y-24527D01*
X22979Y-24513D01*
X23002Y-24502D01*
X23099Y-24428D01*
X23138Y-24443D01*
X23241Y-24444D01*
X23337Y-24404D01*
X23410Y-24331D01*
X23449Y-24235D01*
X23450Y-24132D01*
X23444Y-24119D01*
X23551Y-24119D01*
X23606Y-24096D01*
X23649Y-24054D01*
X23671Y-23998D01*
X23672Y-23939D01*
X23672Y-23689D01*
X23649Y-23634D01*
X23608Y-23593D01*
X23636Y-23593D01*
X23732Y-23553D01*
X23805Y-23480D01*
X23844Y-23384D01*
X23845Y-23281D01*
X23805Y-23185D01*
X23732Y-23112D01*
X23671Y-23087D01*
X23649Y-23034D01*
X23607Y-22991D01*
X23551Y-22969D01*
X23492Y-22968D01*
X23335Y-22968D01*
X23335Y-22732D01*
X23342Y-22729D01*
X23385Y-22687D01*
X23407Y-22632D01*
X23408Y-22572D01*
X23408Y-22021D01*
X23385Y-21966D01*
X23343Y-21924D01*
X23287Y-21901D01*
X23228Y-21901D01*
X22992Y-21901D01*
X22937Y-21924D01*
X22894Y-21966D01*
X22890Y-21978D01*
X22885Y-21966D01*
X22843Y-21924D01*
X22787Y-21901D01*
X22728Y-21901D01*
X22586Y-21901D01*
X22586Y-21574D01*
X23277Y-20882D01*
X23277Y-20882D01*
X23277Y-20882D01*
X23320Y-20819D01*
X23320Y-20819D01*
X23334Y-20745D01*
X23335Y-20745D01*
X23335Y-20632D01*
X23342Y-20629D01*
X23385Y-20587D01*
X23407Y-20532D01*
X23408Y-20472D01*
X23408Y-19921D01*
X23385Y-19866D01*
X23343Y-19824D01*
X23308Y-19810D01*
X28503Y-19810D01*
X29610Y-20933D01*
X29783Y-21167D01*
X29797Y-21282D01*
X29776Y-21302D01*
X29754Y-21358D01*
X29753Y-21417D01*
X29753Y-21777D01*
X29776Y-21832D01*
X29818Y-21875D01*
X29874Y-21897D01*
X29933Y-21898D01*
X30293Y-21898D01*
X30348Y-21875D01*
X30391Y-21833D01*
X30398Y-21815D01*
X30462Y-21880D01*
X30495Y-21894D01*
X30514Y-21946D01*
X30554Y-21990D01*
X30608Y-22015D01*
X30880Y-22142D01*
X30837Y-22171D01*
X30837Y-22171D01*
X30370Y-22638D01*
X30345Y-22612D01*
X30289Y-22590D01*
X30230Y-22589D01*
X29870Y-22589D01*
X29815Y-22612D01*
X29772Y-22654D01*
X29750Y-22710D01*
X29749Y-22769D01*
X29749Y-23129D01*
X29772Y-23184D01*
X29814Y-23227D01*
X29870Y-23249D01*
X29929Y-23250D01*
X30289Y-23250D01*
X30344Y-23227D01*
X30387Y-23185D01*
X30393Y-23170D01*
X30442Y-23170D01*
X30537Y-23150D01*
X30618Y-23096D01*
X31117Y-22598D01*
X31160Y-22598D01*
X31256Y-22578D01*
X31337Y-22524D01*
X31423Y-22438D01*
X31454Y-22470D01*
X31550Y-22509D01*
X31653Y-22510D01*
X31749Y-22470D01*
X31822Y-22397D01*
X31861Y-22301D01*
X31861Y-22295D01*
X31920Y-22271D01*
X31993Y-22198D01*
X32033Y-22103D01*
X32033Y-21999D01*
X31999Y-21919D01*
X32023Y-21869D01*
X32023Y-21854D01*
X32583Y-22124D01*
X32583Y-25061D01*
M02*
