M48
METRIC,TZ
T1C0.330
T2C1.900
%
G90
G05
T1
X46.947Y-64.907
X47.198Y-54.148
X47.244Y-55.123
X47.444Y-57.176
X47.444Y-58.676
X47.922Y-67.003
X48.087Y-62.133
X48.585Y-66.507
X48.834Y-59.306
X49.179Y-52.662
X49.865Y-52.997
X50.175Y-69.073
X50.739Y-68.626
X51.405Y-61.178
X51.504Y-63.337
X51.816Y-59.548
X52.385Y-65.176
X52.611Y-54.371
X53.574Y-65.862
X53.624Y-68.204
X53.736Y-56.429
X54.282Y-63.289
X54.473Y-57.907
X55.471Y-66.043
X55.519Y-61.938
X56.124Y-52.746
X56.472Y-58.644
X57.798Y-59.687
X58.13Y-66.865
X58.247Y-65.344
X58.27Y-69.129
X58.557Y-64.638
X58.903Y-61.427
X59.263Y-63.083
X59.906Y-59.266
X60.041Y-65.979
X60.533Y-52.227
X61.021Y-61.821
X62.088Y-57.584
X62.774Y-67.876
X63.231Y-58.605
X63.581Y-57.163
X63.983Y-61.361
X64.153Y-52.136
X64.259Y-64.082
X64.694Y-51.351
X65.357Y-55.39
X65.601Y-64.112
X65.623Y-58.461
X66.195Y-59.832
X66.203Y-56.088
X66.538Y-66.307
X66.645Y-58.275
X67.064Y-53.18
X67.155Y-63.335
X67.333Y-68.133
X67.422Y-51.656
X67.422Y-55.984
X67.605Y-60.792
X68.313Y-60.472
X68.524Y-61.971
X68.73Y-59.38
X69.568Y-63.777
X69.936Y-57.551
X70.124Y-52.578
X71.13Y-54.47
X71.445Y-60.82
X72.177Y-56.274
X72.311Y-59.949
X72.588Y-64.762
X73.289Y-53.355
X73.624Y-58.689
X75.301Y-59.914
X75.682Y-59.152
X75.941Y-60.173
X76.284Y-59.449
X77.749Y-55.016
X77.93Y-64.889
X78.105Y-54.488
X78.605Y-64.596
X78.882Y-60.747
X79.149Y-57.6
X79.284Y-58.646
X79.416Y-62.045
X79.901Y-63.251
X79.931Y-57.848
X80.038Y-58.875
X80.269Y-56.515
X80.322Y-60.729
X80.574Y-57.732
X80.696Y-63.551
X80.704Y-56.01
X81.026Y-62.078
T2
X51.944Y-51.676
X70.944Y-68.176
T0
M30
