G04 (created by PCBNEW (2013-jul-07)-stable) date Mon 22 Jun 2015 08:36:27 PM EDT*
%MOIN*%
G04 Gerber Fmt 3.4, Leading zero omitted, Abs format*
%FSLAX34Y34*%
G01*
G70*
G90*
G04 APERTURE LIST*
%ADD10C,0.00590551*%
%ADD11C,0.00393701*%
%ADD12R,0.113668X0.113668*%
%ADD13R,0.0408331X0.0152425*%
%ADD14R,0.0152425X0.0408331*%
%ADD15R,0.0524X0.0604*%
%ADD16R,0.0414X0.0414*%
%ADD17R,0.0354X0.0254*%
%ADD18R,0.029X0.0605*%
%ADD19R,0.0854X0.0654*%
%ADD20R,0.0304X0.0504*%
%ADD21R,0.0504X0.0304*%
%ADD22R,0.0354X0.0154*%
%ADD23R,0.0154X0.0354*%
%ADD24R,0.1235X0.1235*%
%ADD25R,0.029022X0.0329591*%
%ADD26C,0.12351*%
%ADD27R,0.0329591X0.029022*%
%ADD28R,0.0144551X0.0408331*%
%ADD29R,0.0408331X0.0144551*%
%ADD30R,0.0404X0.0604*%
%ADD31R,0.0604X0.0404*%
%ADD32R,0.0191795X0.025085*%
%ADD33C,0.0854*%
G04 APERTURE END LIST*
G54D10*
G54D11*
X28718Y-19360D02*
X19662Y-19360D01*
X28718Y-27825D02*
X19662Y-27825D01*
X19662Y-27825D02*
X17891Y-26053D01*
X17891Y-21132D02*
X19662Y-19360D01*
X32753Y-25167D02*
X30096Y-26447D01*
X32753Y-22018D02*
X32753Y-25167D01*
X30096Y-20738D02*
X32753Y-22018D01*
X17891Y-21132D02*
X17891Y-26053D01*
X28718Y-19360D02*
X30096Y-20738D01*
X28718Y-27825D02*
X30096Y-26447D01*
G54D12*
X27458Y-22999D03*
G54D13*
X28284Y-23392D03*
X28284Y-23195D03*
X28284Y-22999D03*
X28284Y-22802D03*
X28284Y-22605D03*
G54D14*
X27851Y-22172D03*
X27654Y-22172D03*
X27458Y-22172D03*
X27261Y-22172D03*
X27064Y-22172D03*
G54D13*
X26631Y-22605D03*
X26631Y-22802D03*
X26631Y-22999D03*
X26631Y-23195D03*
X26631Y-23392D03*
G54D14*
X27064Y-23825D03*
X27261Y-23825D03*
X27458Y-23825D03*
X27654Y-23825D03*
X27851Y-23825D03*
G54D15*
X19809Y-23864D03*
X19139Y-23864D03*
X19139Y-24764D03*
X19809Y-24764D03*
G54D16*
X29280Y-23270D03*
X29280Y-22570D03*
X30080Y-22920D03*
X29284Y-21918D03*
X29284Y-21218D03*
X30084Y-21568D03*
X29270Y-24550D03*
X29270Y-23850D03*
X30070Y-24200D03*
X29270Y-25870D03*
X29270Y-25170D03*
X30070Y-25520D03*
G54D17*
X28399Y-25491D03*
X28399Y-24741D03*
X27399Y-25491D03*
X28399Y-25116D03*
X27399Y-24741D03*
X23888Y-27051D03*
X23888Y-26301D03*
X22888Y-27051D03*
X23888Y-26676D03*
X22888Y-26301D03*
G54D18*
X23140Y-22327D03*
X23140Y-20227D03*
X22640Y-22327D03*
X22140Y-22327D03*
X21640Y-22327D03*
X22640Y-20227D03*
X22140Y-20227D03*
X21640Y-20227D03*
G54D19*
X31520Y-24200D03*
X31520Y-22900D03*
G54D20*
X21422Y-26807D03*
X22022Y-26807D03*
X24929Y-25681D03*
X25529Y-25681D03*
G54D21*
X24231Y-22176D03*
X24231Y-21576D03*
X24444Y-25964D03*
X24444Y-25364D03*
X26802Y-25338D03*
X26802Y-25938D03*
G54D20*
X27719Y-21528D03*
X27119Y-21528D03*
G54D21*
X26079Y-25366D03*
X26079Y-25966D03*
G54D20*
X20788Y-26098D03*
X20188Y-26098D03*
G54D21*
X23307Y-25118D03*
X23307Y-24518D03*
X24462Y-27003D03*
X24462Y-26403D03*
X21087Y-26106D03*
X21087Y-26706D03*
G54D22*
X20600Y-25136D03*
X20600Y-24939D03*
X20600Y-24742D03*
X20600Y-25333D03*
G54D23*
X20895Y-25628D03*
X21092Y-25628D03*
X21289Y-25628D03*
X21486Y-25628D03*
X21682Y-25628D03*
X21879Y-25628D03*
X22076Y-25628D03*
X22273Y-25628D03*
G54D22*
X22568Y-23955D03*
X22568Y-25333D03*
X22568Y-25136D03*
X22568Y-24939D03*
X22568Y-24742D03*
X22568Y-24546D03*
X22568Y-24349D03*
X22568Y-24152D03*
G54D23*
X22273Y-23660D03*
X22076Y-23660D03*
X21879Y-23660D03*
X21682Y-23660D03*
X21486Y-23660D03*
X21289Y-23660D03*
X21092Y-23660D03*
X20895Y-23660D03*
G54D22*
X20600Y-23955D03*
X20600Y-24152D03*
X20600Y-24349D03*
X20600Y-24546D03*
G54D24*
X21584Y-24644D03*
G54D25*
X18289Y-24682D03*
X18289Y-24053D03*
X18682Y-24682D03*
X18682Y-24053D03*
G54D26*
X20450Y-20344D03*
X27930Y-26840D03*
G54D21*
X22305Y-26235D03*
X22305Y-26835D03*
G54D20*
X19383Y-25556D03*
X19983Y-25556D03*
G54D21*
X23297Y-23844D03*
X23297Y-23244D03*
G54D27*
X19879Y-23002D03*
X19249Y-23002D03*
X19879Y-22608D03*
X19249Y-22608D03*
G54D28*
X25735Y-24810D03*
G54D29*
X25843Y-24414D03*
X25843Y-24245D03*
X25843Y-24076D03*
X25843Y-23907D03*
G54D28*
X25735Y-23511D03*
X25566Y-23511D03*
X25396Y-23511D03*
X25227Y-23511D03*
X25058Y-23511D03*
X24889Y-23511D03*
X24719Y-23511D03*
X24550Y-23511D03*
G54D29*
X24443Y-23907D03*
X24443Y-24076D03*
X24443Y-24245D03*
X24443Y-24414D03*
G54D28*
X24550Y-24810D03*
X24719Y-24810D03*
X24889Y-24810D03*
X25058Y-24810D03*
X25227Y-24810D03*
X25396Y-24810D03*
X25566Y-24810D03*
G54D10*
G36*
X18966Y-21942D02*
X18539Y-21515D01*
X18825Y-21229D01*
X19252Y-21656D01*
X18966Y-21942D01*
X18966Y-21942D01*
G37*
G36*
X19496Y-21412D02*
X19069Y-20985D01*
X19355Y-20699D01*
X19782Y-21126D01*
X19496Y-21412D01*
X19496Y-21412D01*
G37*
G36*
X31910Y-21820D02*
X31655Y-22367D01*
X31289Y-22196D01*
X31544Y-21649D01*
X31910Y-21820D01*
X31910Y-21820D01*
G37*
G36*
X31230Y-21503D02*
X30975Y-22050D01*
X30609Y-21879D01*
X30864Y-21332D01*
X31230Y-21503D01*
X31230Y-21503D01*
G37*
G36*
X31715Y-24752D02*
X31970Y-25299D01*
X31604Y-25470D01*
X31349Y-24923D01*
X31715Y-24752D01*
X31715Y-24752D01*
G37*
G36*
X31035Y-25069D02*
X31290Y-25616D01*
X30924Y-25787D01*
X30669Y-25240D01*
X31035Y-25069D01*
X31035Y-25069D01*
G37*
G36*
X18851Y-26454D02*
X19278Y-26027D01*
X19564Y-26313D01*
X19137Y-26740D01*
X18851Y-26454D01*
X18851Y-26454D01*
G37*
G36*
X19381Y-26984D02*
X19808Y-26557D01*
X20094Y-26843D01*
X19667Y-27270D01*
X19381Y-26984D01*
X19381Y-26984D01*
G37*
G54D30*
X19776Y-21771D03*
X20526Y-21771D03*
G54D27*
X26339Y-20656D03*
X25710Y-20656D03*
X26339Y-20263D03*
X25710Y-20263D03*
G54D30*
X26883Y-26940D03*
X26133Y-26940D03*
G54D31*
X30702Y-24105D03*
X30702Y-23355D03*
G54D32*
X24852Y-21519D03*
X25108Y-21519D03*
X25363Y-21519D03*
X25619Y-21519D03*
X25619Y-22148D03*
X25363Y-22148D03*
X25108Y-22148D03*
X24852Y-22148D03*
G54D33*
X21159Y-26955D03*
M02*
