G04 (created by PCBNEW (2013-jul-07)-stable) date Mon 22 Jun 2015 08:36:27 PM EDT*
%MOIN*%
G04 Gerber Fmt 3.4, Leading zero omitted, Abs format*
%FSLAX34Y34*%
G01*
G70*
G90*
G04 APERTURE LIST*
%ADD10C,0.00590551*%
%ADD11C,0.00393701*%
%ADD12R,0.119X0.038*%
%ADD13R,0.07X0.07*%
%ADD14C,0.07*%
%ADD15C,0.08*%
%ADD16C,0.11811*%
%ADD17R,0.025X0.045*%
%ADD18C,0.022*%
%ADD19C,0.009*%
%ADD20C,0.02*%
%ADD21C,0.01*%
G04 APERTURE END LIST*
G54D10*
G54D11*
X28718Y-19360D02*
X19662Y-19360D01*
X28718Y-27825D02*
X19662Y-27825D01*
X19662Y-27825D02*
X17891Y-26053D01*
X17891Y-21132D02*
X19662Y-19360D01*
X32753Y-25167D02*
X30096Y-26447D01*
X32753Y-22018D02*
X32753Y-25167D01*
X30096Y-20738D02*
X32753Y-22018D01*
X17891Y-21132D02*
X17891Y-26053D01*
X28718Y-19360D02*
X30096Y-20738D01*
X28718Y-27825D02*
X30096Y-26447D01*
G54D12*
X26170Y-22551D03*
X26170Y-23551D03*
X26170Y-24551D03*
X28350Y-22551D03*
X28350Y-23551D03*
X28350Y-24551D03*
G54D13*
X20325Y-21395D03*
G54D14*
X20325Y-22395D03*
X20325Y-23395D03*
X20325Y-24395D03*
X20325Y-25395D03*
X20325Y-26395D03*
G54D10*
G36*
X19355Y-20319D02*
X19850Y-20814D01*
X19355Y-21309D01*
X18860Y-20814D01*
X19355Y-20319D01*
X19355Y-20319D01*
G37*
G54D14*
X18648Y-21521D03*
G54D10*
G36*
X30182Y-21741D02*
X30478Y-21107D01*
X31112Y-21403D01*
X30817Y-22037D01*
X30182Y-21741D01*
X30182Y-21741D01*
G37*
G54D14*
X31554Y-21995D03*
G54D10*
G36*
X30541Y-26093D02*
X30245Y-25459D01*
X30880Y-25163D01*
X31175Y-25797D01*
X30541Y-26093D01*
X30541Y-26093D01*
G37*
G54D14*
X31617Y-25205D03*
G54D10*
G36*
X20356Y-26908D02*
X19861Y-27403D01*
X19366Y-26908D01*
X19861Y-26413D01*
X20356Y-26908D01*
X20356Y-26908D01*
G37*
G54D14*
X19154Y-26201D03*
G54D15*
X32170Y-23010D03*
X32130Y-24060D03*
X22676Y-24314D03*
G54D16*
X20450Y-20344D03*
X27930Y-26840D03*
G54D15*
X24850Y-20400D03*
X25850Y-20400D03*
X26850Y-20400D03*
X23850Y-20400D03*
X18383Y-23494D03*
X18383Y-22510D03*
X18379Y-24462D03*
X27857Y-20381D03*
G54D17*
X22886Y-26325D03*
X22286Y-26325D03*
X22299Y-26897D03*
X22899Y-26897D03*
G54D15*
X22092Y-26148D03*
X28533Y-21840D03*
G54D18*
X23247Y-26184D03*
X20277Y-24936D03*
X23332Y-24836D03*
X23585Y-23333D03*
X20624Y-25660D03*
X26637Y-20463D03*
X24584Y-21227D03*
X25827Y-25241D03*
X25299Y-25229D03*
X25190Y-24158D03*
X24894Y-23073D03*
X30750Y-21452D03*
X30681Y-25547D03*
X19754Y-27194D03*
X19362Y-20733D03*
X19632Y-20865D03*
X19976Y-27018D03*
X30610Y-21660D03*
X31623Y-23909D03*
X31056Y-23916D03*
X31266Y-24427D03*
X31900Y-24440D03*
X30946Y-25431D03*
X28128Y-23945D03*
X26238Y-22943D03*
X28578Y-25497D03*
X26544Y-22041D03*
X27608Y-20700D03*
X26616Y-23934D03*
X26978Y-24398D03*
X28854Y-21006D03*
X22614Y-26778D03*
X23765Y-20898D03*
X26064Y-22082D03*
X26400Y-20998D03*
X28986Y-23106D03*
X23638Y-25976D03*
X25836Y-23016D03*
X24024Y-24339D03*
X21371Y-24917D03*
X18483Y-25554D03*
X20713Y-21406D03*
X26196Y-26105D03*
X27059Y-23378D03*
X31469Y-22775D03*
X27534Y-22658D03*
X28004Y-21445D03*
X21858Y-24385D03*
X29898Y-23690D03*
X30033Y-23405D03*
X29796Y-23288D03*
X29646Y-23588D03*
X31161Y-22677D03*
X31214Y-23089D03*
X31722Y-22729D03*
X31511Y-23179D03*
X18932Y-24462D03*
X19226Y-23349D03*
X24890Y-26730D03*
X22755Y-23499D03*
X23190Y-24184D03*
X18582Y-21318D03*
X18600Y-21702D03*
X31602Y-22250D03*
X31773Y-22051D03*
X31457Y-24902D03*
X31770Y-25020D03*
X19128Y-26184D03*
X18867Y-26379D03*
X21446Y-22798D03*
X21156Y-22216D03*
X22096Y-20766D03*
X22233Y-23088D03*
X18678Y-22510D03*
X28416Y-22155D03*
X18678Y-23100D03*
X25437Y-20283D03*
X25763Y-21749D03*
X27389Y-25109D03*
X26439Y-24935D03*
X22866Y-25697D03*
X28469Y-23602D03*
X25233Y-20682D03*
X25366Y-21262D03*
X26061Y-23556D03*
X26895Y-23808D03*
X22983Y-25418D03*
X21867Y-25950D03*
X20400Y-23444D03*
X20238Y-24086D03*
G54D19*
X23112Y-26184D02*
X23027Y-26184D01*
X23027Y-26184D02*
X22886Y-26325D01*
X23247Y-26184D02*
X23112Y-26184D01*
X23112Y-26184D02*
X23147Y-26184D01*
X20295Y-25400D02*
X20338Y-25400D01*
X20338Y-25400D02*
X20624Y-25660D01*
X20277Y-24936D02*
X20295Y-25175D01*
X20295Y-25175D02*
X20295Y-25400D01*
X23760Y-23787D02*
X23585Y-23381D01*
X23585Y-23381D02*
X23585Y-23333D01*
X23332Y-24836D02*
X23694Y-24644D01*
X23694Y-24644D02*
X23760Y-23787D01*
X26700Y-20400D02*
X26850Y-20400D01*
X26637Y-20463D02*
X26700Y-20400D01*
X24612Y-22791D02*
X24894Y-23073D01*
X24612Y-21255D02*
X24612Y-22791D01*
X24584Y-21227D02*
X24612Y-21255D01*
X25827Y-25241D02*
X25815Y-25229D01*
X25815Y-25229D02*
X25299Y-25229D01*
X25190Y-24158D02*
X25145Y-24030D01*
X25145Y-24030D02*
X24894Y-23073D01*
X30725Y-21476D02*
X30725Y-21609D01*
X30750Y-21452D02*
X30725Y-21476D01*
X30796Y-25431D02*
X30946Y-25431D01*
X30681Y-25547D02*
X30796Y-25431D01*
X19754Y-27194D02*
X19861Y-26908D01*
X19455Y-20088D02*
X19420Y-20778D01*
X19362Y-20733D02*
X19420Y-20778D01*
X19632Y-20865D02*
X19420Y-20778D01*
X20298Y-26976D02*
X20560Y-27480D01*
X20560Y-27480D02*
X21690Y-27590D01*
X21690Y-27590D02*
X24320Y-27530D01*
X24320Y-27530D02*
X24790Y-27300D01*
X20325Y-26395D02*
X20298Y-26976D01*
X20298Y-26976D02*
X20299Y-26984D01*
X20325Y-26395D02*
X19917Y-26439D01*
X19917Y-26439D02*
X19861Y-26908D01*
X19976Y-27018D02*
X19763Y-27043D01*
X19763Y-27043D02*
X20325Y-26395D01*
X30610Y-21660D02*
X30641Y-21628D01*
X30641Y-21628D02*
X30866Y-21628D01*
X31063Y-23909D02*
X31623Y-23909D01*
X31056Y-23916D02*
X31063Y-23909D01*
X31462Y-24301D02*
X31392Y-24301D01*
X31392Y-24301D02*
X31266Y-24427D01*
X32130Y-24060D02*
X31199Y-24060D01*
X30946Y-24312D02*
X30946Y-25431D01*
X31199Y-24060D02*
X30946Y-24312D01*
X32130Y-24060D02*
X32130Y-24210D01*
X32130Y-24210D02*
X31900Y-24440D01*
X31980Y-24010D02*
X31230Y-24010D01*
X30866Y-23646D02*
X30866Y-21628D01*
X31230Y-24010D02*
X30866Y-23646D01*
X30718Y-21628D02*
X30866Y-21628D01*
X28895Y-19805D02*
X29277Y-20187D01*
X29277Y-20187D02*
X29315Y-20225D01*
X29315Y-20225D02*
X30718Y-21628D01*
X19905Y-19587D02*
X19455Y-20088D01*
X28600Y-19510D02*
X28895Y-19805D01*
X27857Y-19515D02*
X19905Y-19587D01*
X27857Y-19510D02*
X27857Y-19515D01*
X27857Y-19510D02*
X28600Y-19510D01*
X28350Y-22551D02*
X28935Y-22551D01*
X28948Y-23945D02*
X28128Y-23945D01*
X29223Y-23643D02*
X28948Y-23945D01*
X29219Y-22914D02*
X29223Y-23643D01*
X28935Y-22551D02*
X29219Y-22914D01*
X27063Y-22994D02*
X26901Y-22902D01*
X26901Y-22902D02*
X26301Y-22880D01*
X26301Y-22880D02*
X26238Y-22943D01*
X28350Y-24551D02*
X27627Y-24551D01*
X27428Y-23445D02*
X27063Y-22994D01*
X27063Y-22994D02*
X27066Y-22997D01*
X27504Y-24359D02*
X27428Y-23445D01*
X27627Y-24551D02*
X27504Y-24359D01*
X28782Y-21308D02*
X27857Y-20383D01*
X29378Y-21883D02*
X28782Y-21308D01*
X29395Y-24847D02*
X29401Y-21883D01*
X28945Y-25305D02*
X29395Y-24847D01*
X28667Y-25455D02*
X28945Y-25305D01*
X28578Y-25497D02*
X28667Y-25455D01*
X29401Y-21883D02*
X29378Y-21883D01*
X27857Y-20383D02*
X27857Y-20381D01*
X26523Y-22551D02*
X26170Y-22551D01*
X26544Y-22041D02*
X26523Y-22551D01*
X27608Y-20700D02*
X27857Y-20545D01*
X27857Y-20545D02*
X27857Y-20381D01*
X26616Y-24036D02*
X26616Y-23934D01*
X26978Y-24398D02*
X26616Y-24036D01*
X23644Y-25982D02*
X23458Y-25982D01*
X22704Y-25960D02*
X22623Y-26040D01*
X22623Y-26040D02*
X22623Y-26040D01*
X22714Y-25950D02*
X22704Y-25960D01*
X23426Y-25950D02*
X22714Y-25950D01*
X23458Y-25982D02*
X23426Y-25950D01*
X22655Y-26819D02*
X22685Y-26819D01*
X22614Y-26778D02*
X22655Y-26819D01*
X23850Y-20813D02*
X23850Y-20400D01*
X23765Y-20898D02*
X23850Y-20813D01*
X28868Y-21006D02*
X28971Y-20903D01*
X28854Y-21006D02*
X28868Y-21006D01*
X25604Y-23016D02*
X25836Y-23016D01*
X25376Y-22788D02*
X25604Y-23016D01*
X25376Y-22235D02*
X25376Y-22788D01*
X25462Y-22149D02*
X25376Y-22235D01*
X25997Y-22149D02*
X25462Y-22149D01*
X26064Y-22082D02*
X25997Y-22149D01*
X27199Y-21445D02*
X26803Y-21049D01*
X26803Y-21049D02*
X26400Y-20998D01*
X27199Y-21445D02*
X28004Y-21445D01*
X26403Y-21221D02*
X26400Y-20998D01*
X26159Y-21465D02*
X26403Y-21221D01*
X27534Y-22774D02*
X27534Y-22658D01*
X27782Y-23022D02*
X27534Y-22774D01*
X28902Y-23022D02*
X27782Y-23022D01*
X28986Y-23106D02*
X28902Y-23022D01*
X27666Y-21528D02*
X27921Y-21528D01*
X27921Y-21528D02*
X28004Y-21445D01*
X23638Y-25976D02*
X23644Y-25982D01*
X23644Y-25982D02*
X23622Y-25960D01*
X26013Y-23165D02*
X25985Y-23165D01*
X26013Y-23165D02*
X26040Y-23192D01*
X26040Y-23192D02*
X26040Y-23224D01*
X26039Y-23225D02*
X26040Y-23224D01*
X26039Y-23225D02*
X26908Y-23225D01*
X26908Y-23225D02*
X27059Y-23376D01*
X27059Y-23376D02*
X27059Y-23378D01*
X25985Y-23165D02*
X25836Y-23016D01*
X24201Y-24162D02*
X24201Y-23454D01*
X24024Y-24339D02*
X24201Y-24162D01*
X27059Y-23378D02*
X27059Y-23540D01*
X26954Y-24728D02*
X26936Y-24710D01*
X26954Y-25708D02*
X26954Y-24728D01*
X26362Y-26299D02*
X26954Y-25708D01*
X27059Y-23540D02*
X27218Y-23612D01*
X27218Y-23612D02*
X27218Y-24515D01*
X27218Y-24515D02*
X26936Y-24710D01*
X24444Y-22671D02*
X24444Y-22135D01*
X23850Y-21541D02*
X23850Y-20400D01*
X24444Y-22135D02*
X23850Y-21541D01*
X24444Y-23211D02*
X24444Y-22671D01*
X24201Y-23454D02*
X24444Y-23211D01*
X21168Y-24885D02*
X21339Y-24885D01*
X21339Y-24885D02*
X21371Y-24917D01*
X21168Y-25449D02*
X21168Y-24885D01*
X21168Y-24885D02*
X21168Y-24859D01*
X21168Y-24859D02*
X21628Y-24399D01*
X18600Y-25202D02*
X18600Y-25436D01*
X18600Y-25436D02*
X18483Y-25554D01*
X18932Y-24462D02*
X18932Y-24804D01*
X18932Y-24804D02*
X18567Y-25169D01*
X20450Y-21143D02*
X20450Y-20344D01*
X20713Y-21406D02*
X20450Y-21143D01*
X18379Y-24462D02*
X18379Y-24981D01*
X18379Y-24981D02*
X18567Y-25169D01*
X18567Y-25169D02*
X18600Y-25202D01*
X22899Y-26897D02*
X22685Y-26819D01*
X22685Y-26819D02*
X22639Y-26803D01*
X22639Y-26803D02*
X22623Y-26040D01*
X22618Y-25789D02*
X22498Y-25638D01*
X22623Y-26040D02*
X22618Y-25789D01*
X22498Y-25638D02*
X22290Y-25266D01*
X22290Y-25266D02*
X21858Y-24385D01*
X25134Y-26105D02*
X26196Y-26105D01*
X25083Y-26054D02*
X25134Y-26105D01*
X24973Y-26618D02*
X26044Y-26618D01*
X26044Y-26618D02*
X26362Y-26299D01*
X21872Y-24399D02*
X21628Y-24399D01*
X21628Y-24399D02*
X21350Y-24121D01*
X32001Y-23179D02*
X32170Y-23010D01*
X31511Y-23179D02*
X32001Y-23179D01*
X31704Y-23010D02*
X31469Y-22775D01*
X32170Y-23010D02*
X31704Y-23010D01*
X31421Y-23089D02*
X31511Y-23179D01*
X31214Y-23089D02*
X31421Y-23089D01*
X18897Y-24497D02*
X18932Y-24462D01*
X27534Y-21915D02*
X27534Y-22658D01*
X28004Y-21445D02*
X27534Y-21915D01*
X21872Y-24399D02*
X21858Y-24385D01*
X29898Y-23690D02*
X30033Y-23555D01*
X30033Y-23555D02*
X30033Y-23405D01*
X29796Y-23288D02*
X29646Y-23438D01*
X29646Y-23438D02*
X29646Y-23588D01*
X31110Y-22796D02*
X31110Y-22728D01*
X31110Y-22728D02*
X31161Y-22677D01*
X31110Y-22715D02*
X31110Y-22796D01*
X31110Y-22796D02*
X31110Y-22985D01*
X31110Y-22985D02*
X31214Y-23089D01*
X31722Y-22729D02*
X31889Y-22729D01*
X31889Y-22729D02*
X32170Y-23010D01*
X31124Y-22729D02*
X31722Y-22729D01*
X31110Y-22715D02*
X31124Y-22729D01*
X18932Y-24462D02*
X18939Y-24455D01*
X18939Y-24455D02*
X18939Y-23216D01*
X19226Y-23349D02*
X19093Y-23216D01*
X19093Y-23216D02*
X18939Y-23216D01*
X24890Y-26730D02*
X24819Y-26618D01*
X24819Y-26618D02*
X24973Y-26618D01*
X24973Y-26618D02*
X24980Y-26618D01*
X20295Y-22400D02*
X20629Y-22400D01*
X20629Y-22400D02*
X20943Y-22759D01*
X20943Y-22759D02*
X21306Y-23160D01*
X21306Y-23160D02*
X21912Y-23485D01*
X21912Y-23485D02*
X22266Y-23514D01*
X22266Y-23514D02*
X22452Y-23526D01*
X22452Y-23526D02*
X22755Y-23499D01*
X23190Y-24184D02*
X23161Y-24213D01*
X23161Y-24213D02*
X22754Y-24217D01*
G54D20*
X18582Y-21318D02*
X18713Y-21485D01*
X18600Y-21702D02*
X18713Y-21485D01*
X31602Y-22250D02*
X31773Y-22078D01*
X31773Y-22078D02*
X31773Y-22051D01*
X31457Y-24902D02*
X31563Y-25008D01*
X31563Y-25008D02*
X31853Y-25008D01*
G54D19*
X31781Y-25008D02*
X31853Y-25008D01*
X31770Y-25020D02*
X31781Y-25008D01*
G54D20*
X19128Y-26184D02*
X19056Y-26336D01*
X18867Y-26379D02*
X19056Y-26336D01*
G54D19*
X21446Y-22798D02*
X21329Y-22540D01*
X21329Y-22540D02*
X21156Y-22216D01*
X22111Y-21671D02*
X22111Y-21269D01*
X22111Y-21269D02*
X22096Y-20766D01*
X22233Y-23088D02*
X22113Y-22372D01*
X22113Y-22372D02*
X22111Y-21671D01*
X18678Y-22510D02*
X18383Y-22510D01*
X28533Y-22038D02*
X28533Y-21840D01*
X28416Y-22155D02*
X28533Y-22038D01*
X18383Y-23396D02*
X18383Y-23494D01*
X18678Y-23100D02*
X18383Y-23396D01*
X25695Y-20400D02*
X25850Y-20400D01*
X25437Y-20283D02*
X25695Y-20400D01*
X25778Y-21764D02*
X25914Y-21764D01*
X25763Y-21749D02*
X25778Y-21764D01*
X25914Y-21764D02*
X26136Y-21786D01*
X27997Y-23551D02*
X28350Y-23551D01*
X27225Y-22779D02*
X27997Y-23551D01*
X27095Y-22311D02*
X27225Y-22779D01*
X26636Y-21789D02*
X27095Y-22311D01*
X26411Y-21780D02*
X26636Y-21789D01*
X26136Y-21786D02*
X26411Y-21780D01*
X25835Y-21749D02*
X25850Y-20400D01*
X27389Y-25109D02*
X28874Y-25109D01*
X28874Y-25109D02*
X29184Y-24799D01*
X29184Y-24799D02*
X29184Y-24317D01*
X29184Y-24317D02*
X29076Y-24209D01*
X29076Y-24209D02*
X27888Y-24209D01*
X27888Y-24209D02*
X27799Y-24065D01*
X27799Y-24065D02*
X27799Y-23695D01*
X27799Y-23695D02*
X27862Y-23551D01*
X27862Y-23551D02*
X28350Y-23551D01*
X25170Y-24935D02*
X26439Y-24935D01*
X24705Y-25137D02*
X25170Y-24935D01*
X23532Y-25707D02*
X24705Y-25137D01*
X23286Y-25707D02*
X23532Y-25707D01*
X22887Y-25718D02*
X23286Y-25707D01*
X22866Y-25697D02*
X22887Y-25718D01*
X28418Y-23551D02*
X28350Y-23551D01*
X28469Y-23602D02*
X28418Y-23551D01*
X24951Y-20400D02*
X24850Y-20400D01*
X25233Y-20682D02*
X24951Y-20400D01*
X25331Y-21227D02*
X24930Y-21227D01*
X25366Y-21262D02*
X25331Y-21227D01*
X25032Y-22505D02*
X25209Y-23184D01*
X24892Y-20734D02*
X24926Y-21172D01*
X24926Y-21172D02*
X24930Y-21227D01*
X24930Y-21227D02*
X25032Y-22505D01*
X24850Y-20400D02*
X24892Y-20734D01*
X25945Y-23551D02*
X26113Y-23539D01*
X25209Y-23184D02*
X25945Y-23551D01*
X26009Y-23504D02*
X26113Y-23539D01*
X26061Y-23556D02*
X26009Y-23504D01*
X25589Y-24163D02*
X25589Y-24150D01*
X26009Y-23513D02*
X26113Y-23539D01*
X25842Y-23794D02*
X26009Y-23513D01*
X25691Y-24030D02*
X25842Y-23794D01*
X25589Y-24150D02*
X25691Y-24030D01*
X26895Y-23808D02*
X26638Y-23551D01*
X26638Y-23551D02*
X26113Y-23539D01*
X23730Y-25173D02*
X22983Y-25418D01*
X24764Y-24750D02*
X23730Y-25173D01*
X25586Y-24166D02*
X25589Y-24163D01*
X25589Y-24163D02*
X25358Y-24359D01*
X25358Y-24359D02*
X24764Y-24750D01*
X22040Y-26123D02*
X22149Y-26123D01*
X21867Y-25950D02*
X22040Y-26123D01*
X22299Y-26897D02*
X22286Y-26325D01*
X20400Y-23444D02*
X20351Y-23395D01*
X20351Y-23395D02*
X20325Y-23395D01*
X20244Y-23654D02*
X20295Y-23603D01*
X20295Y-23603D02*
X20295Y-23400D01*
X20238Y-24086D02*
X20295Y-24287D01*
X20295Y-24287D02*
X20295Y-24400D01*
X20265Y-24098D02*
X20295Y-24128D01*
X20295Y-24128D02*
X20295Y-24400D01*
G54D10*
G36*
X25015Y-24350D02*
X24668Y-24579D01*
X23669Y-24987D01*
X23668Y-24987D01*
X23489Y-25046D01*
X23552Y-24983D01*
X23575Y-24927D01*
X23785Y-24816D01*
X23803Y-24801D01*
X23820Y-24792D01*
X23830Y-24779D01*
X23844Y-24768D01*
X23855Y-24748D01*
X23867Y-24732D01*
X23872Y-24717D01*
X23880Y-24701D01*
X23882Y-24678D01*
X23888Y-24658D01*
X23954Y-23801D01*
X23953Y-23792D01*
X23954Y-23784D01*
X23948Y-23756D01*
X23945Y-23726D01*
X23940Y-23718D01*
X23938Y-23709D01*
X23822Y-23439D01*
X23844Y-23384D01*
X23845Y-23281D01*
X23805Y-23185D01*
X23732Y-23112D01*
X23636Y-23073D01*
X23533Y-23072D01*
X23437Y-23112D01*
X23364Y-23185D01*
X23325Y-23281D01*
X23324Y-23384D01*
X23364Y-23480D01*
X23437Y-23553D01*
X23448Y-23558D01*
X23561Y-23820D01*
X23507Y-24522D01*
X23450Y-24552D01*
X23450Y-24132D01*
X23410Y-24036D01*
X23337Y-23963D01*
X23241Y-23924D01*
X23138Y-23923D01*
X23085Y-23945D01*
X23015Y-23875D01*
X23015Y-23447D01*
X22975Y-23351D01*
X22902Y-23278D01*
X22806Y-23239D01*
X22703Y-23238D01*
X22607Y-23278D01*
X22566Y-23320D01*
X22449Y-23330D01*
X22343Y-23323D01*
X22380Y-23308D01*
X22453Y-23235D01*
X22492Y-23139D01*
X22493Y-23036D01*
X22453Y-22940D01*
X22396Y-22883D01*
X22308Y-22358D01*
X22306Y-21670D01*
X22306Y-21269D01*
X22305Y-21265D01*
X22305Y-21263D01*
X22296Y-20933D01*
X22316Y-20913D01*
X22355Y-20817D01*
X22356Y-20714D01*
X22316Y-20618D01*
X22243Y-20545D01*
X22147Y-20506D01*
X22044Y-20505D01*
X21948Y-20545D01*
X21875Y-20618D01*
X21836Y-20714D01*
X21835Y-20817D01*
X21875Y-20913D01*
X21906Y-20943D01*
X21916Y-21274D01*
X21916Y-21671D01*
X21916Y-21671D01*
X21916Y-21671D01*
X21918Y-22372D01*
X21921Y-22386D01*
X21920Y-22404D01*
X22011Y-22944D01*
X21973Y-23036D01*
X21972Y-23139D01*
X22012Y-23235D01*
X22080Y-23303D01*
X21968Y-23293D01*
X21515Y-23050D01*
X21593Y-23018D01*
X21666Y-22945D01*
X21705Y-22849D01*
X21706Y-22746D01*
X21666Y-22650D01*
X21593Y-22577D01*
X21552Y-22560D01*
X21506Y-22459D01*
X21502Y-22454D01*
X21501Y-22448D01*
X21411Y-22279D01*
X21415Y-22267D01*
X21416Y-22164D01*
X21376Y-22068D01*
X21303Y-21995D01*
X21207Y-21956D01*
X21104Y-21955D01*
X21008Y-21995D01*
X20935Y-22068D01*
X20896Y-22164D01*
X20895Y-22267D01*
X20935Y-22363D01*
X21008Y-22436D01*
X21065Y-22459D01*
X21154Y-22626D01*
X21196Y-22720D01*
X21188Y-22739D01*
X21090Y-22631D01*
X21089Y-22630D01*
X20825Y-22327D01*
X20825Y-22295D01*
X20749Y-22112D01*
X20608Y-21971D01*
X20424Y-21895D01*
X20225Y-21894D01*
X20042Y-21970D01*
X19901Y-22111D01*
X19825Y-22295D01*
X19824Y-22494D01*
X19900Y-22677D01*
X20041Y-22818D01*
X20225Y-22894D01*
X20424Y-22895D01*
X20607Y-22819D01*
X20676Y-22750D01*
X20796Y-22887D01*
X20797Y-22888D01*
X20798Y-22889D01*
X21154Y-23282D01*
X21155Y-23283D01*
X21156Y-23284D01*
X21161Y-23290D01*
X21181Y-23305D01*
X21213Y-23331D01*
X21819Y-23656D01*
X21821Y-23657D01*
X21822Y-23658D01*
X21860Y-23669D01*
X21892Y-23678D01*
X21894Y-23678D01*
X21896Y-23679D01*
X22250Y-23708D01*
X22252Y-23708D01*
X22253Y-23708D01*
X22439Y-23720D01*
X22454Y-23718D01*
X22469Y-23720D01*
X22597Y-23708D01*
X22607Y-23719D01*
X22703Y-23758D01*
X22806Y-23759D01*
X22902Y-23719D01*
X22975Y-23646D01*
X23014Y-23550D01*
X23015Y-23447D01*
X23015Y-23875D01*
X22987Y-23848D01*
X22785Y-23764D01*
X22567Y-23763D01*
X22364Y-23847D01*
X22210Y-24002D01*
X22126Y-24204D01*
X22125Y-24422D01*
X22209Y-24625D01*
X22364Y-24779D01*
X22566Y-24863D01*
X22784Y-24864D01*
X22987Y-24780D01*
X23141Y-24625D01*
X23217Y-24444D01*
X23241Y-24444D01*
X23337Y-24404D01*
X23410Y-24331D01*
X23449Y-24235D01*
X23450Y-24132D01*
X23450Y-24552D01*
X23396Y-24581D01*
X23383Y-24576D01*
X23280Y-24575D01*
X23184Y-24615D01*
X23111Y-24688D01*
X23072Y-24784D01*
X23071Y-24887D01*
X23111Y-24983D01*
X23184Y-25056D01*
X23280Y-25095D01*
X23338Y-25096D01*
X23085Y-25179D01*
X23034Y-25158D01*
X22931Y-25157D01*
X22835Y-25197D01*
X22762Y-25270D01*
X22723Y-25366D01*
X22722Y-25469D01*
X22724Y-25474D01*
X22718Y-25476D01*
X22645Y-25549D01*
X22606Y-25645D01*
X22605Y-25748D01*
X22645Y-25844D01*
X22718Y-25917D01*
X22797Y-25949D01*
X22731Y-25949D01*
X22676Y-25972D01*
X22633Y-26014D01*
X22633Y-26017D01*
X22558Y-25836D01*
X22403Y-25682D01*
X22201Y-25598D01*
X21983Y-25597D01*
X21780Y-25681D01*
X21741Y-25720D01*
X21719Y-25729D01*
X21646Y-25802D01*
X21637Y-25824D01*
X21626Y-25836D01*
X21542Y-26038D01*
X21541Y-26256D01*
X21625Y-26459D01*
X21780Y-26613D01*
X21982Y-26697D01*
X22023Y-26697D01*
X22023Y-26701D01*
X22023Y-26912D01*
X20884Y-26903D01*
X20884Y-25608D01*
X20844Y-25512D01*
X20824Y-25493D01*
X20825Y-25295D01*
X20749Y-25112D01*
X20608Y-24971D01*
X20536Y-24941D01*
X20537Y-24884D01*
X20524Y-24853D01*
X20607Y-24819D01*
X20748Y-24678D01*
X20824Y-24494D01*
X20825Y-24295D01*
X20749Y-24112D01*
X20608Y-23971D01*
X20424Y-23895D01*
X20414Y-23895D01*
X20414Y-23895D01*
X20424Y-23895D01*
X20607Y-23819D01*
X20748Y-23678D01*
X20824Y-23494D01*
X20825Y-23295D01*
X20749Y-23112D01*
X20608Y-22971D01*
X20424Y-22895D01*
X20225Y-22894D01*
X20042Y-22970D01*
X19901Y-23111D01*
X19825Y-23295D01*
X19824Y-23494D01*
X19900Y-23677D01*
X20041Y-23818D01*
X20122Y-23852D01*
X20090Y-23865D01*
X20017Y-23938D01*
X19978Y-24034D01*
X19978Y-24034D01*
X19901Y-24111D01*
X19825Y-24295D01*
X19824Y-24494D01*
X19900Y-24677D01*
X20041Y-24818D01*
X20043Y-24819D01*
X20017Y-24884D01*
X20016Y-24987D01*
X20019Y-24993D01*
X19901Y-25111D01*
X19825Y-25295D01*
X19824Y-25494D01*
X19900Y-25677D01*
X20041Y-25818D01*
X20225Y-25894D01*
X20424Y-25895D01*
X20471Y-25875D01*
X20476Y-25880D01*
X20572Y-25919D01*
X20675Y-25920D01*
X20771Y-25880D01*
X20844Y-25807D01*
X20883Y-25711D01*
X20884Y-25608D01*
X20884Y-26903D01*
X20506Y-26900D01*
X20506Y-26878D01*
X20500Y-26863D01*
X20607Y-26819D01*
X20748Y-26678D01*
X20824Y-26494D01*
X20825Y-26295D01*
X20749Y-26112D01*
X20608Y-25971D01*
X20424Y-25895D01*
X20225Y-25894D01*
X20042Y-25970D01*
X19901Y-26111D01*
X19838Y-26263D01*
X19837Y-26263D01*
X19831Y-26263D01*
X19776Y-26286D01*
X19734Y-26328D01*
X19619Y-26443D01*
X19599Y-26432D01*
X19654Y-26301D01*
X19654Y-26102D01*
X19578Y-25918D01*
X19438Y-25777D01*
X19254Y-25701D01*
X19055Y-25701D01*
X18871Y-25777D01*
X18730Y-25917D01*
X18705Y-25979D01*
X18075Y-25998D01*
X18061Y-25983D01*
X18061Y-23949D01*
X18071Y-23960D01*
X18273Y-24044D01*
X18492Y-24044D01*
X18694Y-23961D01*
X18849Y-23806D01*
X18933Y-23604D01*
X18933Y-23385D01*
X18883Y-23263D01*
X18899Y-23248D01*
X18938Y-23152D01*
X18938Y-23049D01*
X18899Y-22953D01*
X18826Y-22880D01*
X18801Y-22870D01*
X18849Y-22822D01*
X18933Y-22620D01*
X18933Y-22574D01*
X18938Y-22562D01*
X18938Y-22458D01*
X18933Y-22446D01*
X18933Y-22401D01*
X18850Y-22199D01*
X18711Y-22060D01*
X18748Y-22021D01*
X18931Y-21945D01*
X19072Y-21805D01*
X19148Y-21621D01*
X19148Y-21597D01*
X19291Y-21445D01*
X19325Y-21459D01*
X19385Y-21459D01*
X19440Y-21436D01*
X19482Y-21394D01*
X19977Y-20899D01*
X20000Y-20844D01*
X20000Y-20784D01*
X19977Y-20729D01*
X19972Y-20724D01*
X20551Y-20109D01*
X24412Y-20059D01*
X24384Y-20088D01*
X24300Y-20290D01*
X24299Y-20508D01*
X24383Y-20711D01*
X24538Y-20865D01*
X24712Y-20938D01*
X24717Y-21000D01*
X24635Y-20967D01*
X24532Y-20966D01*
X24436Y-21006D01*
X24363Y-21079D01*
X24324Y-21175D01*
X24323Y-21278D01*
X24363Y-21374D01*
X24417Y-21427D01*
X24417Y-22791D01*
X24431Y-22865D01*
X24474Y-22928D01*
X24633Y-23088D01*
X24633Y-23124D01*
X24673Y-23220D01*
X24746Y-23293D01*
X24750Y-23294D01*
X24950Y-24056D01*
X24930Y-24106D01*
X24929Y-24209D01*
X24969Y-24305D01*
X25015Y-24350D01*
X25015Y-24350D01*
G37*
G54D21*
X25015Y-24350D02*
X24668Y-24579D01*
X23669Y-24987D01*
X23668Y-24987D01*
X23489Y-25046D01*
X23552Y-24983D01*
X23575Y-24927D01*
X23785Y-24816D01*
X23803Y-24801D01*
X23820Y-24792D01*
X23830Y-24779D01*
X23844Y-24768D01*
X23855Y-24748D01*
X23867Y-24732D01*
X23872Y-24717D01*
X23880Y-24701D01*
X23882Y-24678D01*
X23888Y-24658D01*
X23954Y-23801D01*
X23953Y-23792D01*
X23954Y-23784D01*
X23948Y-23756D01*
X23945Y-23726D01*
X23940Y-23718D01*
X23938Y-23709D01*
X23822Y-23439D01*
X23844Y-23384D01*
X23845Y-23281D01*
X23805Y-23185D01*
X23732Y-23112D01*
X23636Y-23073D01*
X23533Y-23072D01*
X23437Y-23112D01*
X23364Y-23185D01*
X23325Y-23281D01*
X23324Y-23384D01*
X23364Y-23480D01*
X23437Y-23553D01*
X23448Y-23558D01*
X23561Y-23820D01*
X23507Y-24522D01*
X23450Y-24552D01*
X23450Y-24132D01*
X23410Y-24036D01*
X23337Y-23963D01*
X23241Y-23924D01*
X23138Y-23923D01*
X23085Y-23945D01*
X23015Y-23875D01*
X23015Y-23447D01*
X22975Y-23351D01*
X22902Y-23278D01*
X22806Y-23239D01*
X22703Y-23238D01*
X22607Y-23278D01*
X22566Y-23320D01*
X22449Y-23330D01*
X22343Y-23323D01*
X22380Y-23308D01*
X22453Y-23235D01*
X22492Y-23139D01*
X22493Y-23036D01*
X22453Y-22940D01*
X22396Y-22883D01*
X22308Y-22358D01*
X22306Y-21670D01*
X22306Y-21269D01*
X22305Y-21265D01*
X22305Y-21263D01*
X22296Y-20933D01*
X22316Y-20913D01*
X22355Y-20817D01*
X22356Y-20714D01*
X22316Y-20618D01*
X22243Y-20545D01*
X22147Y-20506D01*
X22044Y-20505D01*
X21948Y-20545D01*
X21875Y-20618D01*
X21836Y-20714D01*
X21835Y-20817D01*
X21875Y-20913D01*
X21906Y-20943D01*
X21916Y-21274D01*
X21916Y-21671D01*
X21916Y-21671D01*
X21916Y-21671D01*
X21918Y-22372D01*
X21921Y-22386D01*
X21920Y-22404D01*
X22011Y-22944D01*
X21973Y-23036D01*
X21972Y-23139D01*
X22012Y-23235D01*
X22080Y-23303D01*
X21968Y-23293D01*
X21515Y-23050D01*
X21593Y-23018D01*
X21666Y-22945D01*
X21705Y-22849D01*
X21706Y-22746D01*
X21666Y-22650D01*
X21593Y-22577D01*
X21552Y-22560D01*
X21506Y-22459D01*
X21502Y-22454D01*
X21501Y-22448D01*
X21411Y-22279D01*
X21415Y-22267D01*
X21416Y-22164D01*
X21376Y-22068D01*
X21303Y-21995D01*
X21207Y-21956D01*
X21104Y-21955D01*
X21008Y-21995D01*
X20935Y-22068D01*
X20896Y-22164D01*
X20895Y-22267D01*
X20935Y-22363D01*
X21008Y-22436D01*
X21065Y-22459D01*
X21154Y-22626D01*
X21196Y-22720D01*
X21188Y-22739D01*
X21090Y-22631D01*
X21089Y-22630D01*
X20825Y-22327D01*
X20825Y-22295D01*
X20749Y-22112D01*
X20608Y-21971D01*
X20424Y-21895D01*
X20225Y-21894D01*
X20042Y-21970D01*
X19901Y-22111D01*
X19825Y-22295D01*
X19824Y-22494D01*
X19900Y-22677D01*
X20041Y-22818D01*
X20225Y-22894D01*
X20424Y-22895D01*
X20607Y-22819D01*
X20676Y-22750D01*
X20796Y-22887D01*
X20797Y-22888D01*
X20798Y-22889D01*
X21154Y-23282D01*
X21155Y-23283D01*
X21156Y-23284D01*
X21161Y-23290D01*
X21181Y-23305D01*
X21213Y-23331D01*
X21819Y-23656D01*
X21821Y-23657D01*
X21822Y-23658D01*
X21860Y-23669D01*
X21892Y-23678D01*
X21894Y-23678D01*
X21896Y-23679D01*
X22250Y-23708D01*
X22252Y-23708D01*
X22253Y-23708D01*
X22439Y-23720D01*
X22454Y-23718D01*
X22469Y-23720D01*
X22597Y-23708D01*
X22607Y-23719D01*
X22703Y-23758D01*
X22806Y-23759D01*
X22902Y-23719D01*
X22975Y-23646D01*
X23014Y-23550D01*
X23015Y-23447D01*
X23015Y-23875D01*
X22987Y-23848D01*
X22785Y-23764D01*
X22567Y-23763D01*
X22364Y-23847D01*
X22210Y-24002D01*
X22126Y-24204D01*
X22125Y-24422D01*
X22209Y-24625D01*
X22364Y-24779D01*
X22566Y-24863D01*
X22784Y-24864D01*
X22987Y-24780D01*
X23141Y-24625D01*
X23217Y-24444D01*
X23241Y-24444D01*
X23337Y-24404D01*
X23410Y-24331D01*
X23449Y-24235D01*
X23450Y-24132D01*
X23450Y-24552D01*
X23396Y-24581D01*
X23383Y-24576D01*
X23280Y-24575D01*
X23184Y-24615D01*
X23111Y-24688D01*
X23072Y-24784D01*
X23071Y-24887D01*
X23111Y-24983D01*
X23184Y-25056D01*
X23280Y-25095D01*
X23338Y-25096D01*
X23085Y-25179D01*
X23034Y-25158D01*
X22931Y-25157D01*
X22835Y-25197D01*
X22762Y-25270D01*
X22723Y-25366D01*
X22722Y-25469D01*
X22724Y-25474D01*
X22718Y-25476D01*
X22645Y-25549D01*
X22606Y-25645D01*
X22605Y-25748D01*
X22645Y-25844D01*
X22718Y-25917D01*
X22797Y-25949D01*
X22731Y-25949D01*
X22676Y-25972D01*
X22633Y-26014D01*
X22633Y-26017D01*
X22558Y-25836D01*
X22403Y-25682D01*
X22201Y-25598D01*
X21983Y-25597D01*
X21780Y-25681D01*
X21741Y-25720D01*
X21719Y-25729D01*
X21646Y-25802D01*
X21637Y-25824D01*
X21626Y-25836D01*
X21542Y-26038D01*
X21541Y-26256D01*
X21625Y-26459D01*
X21780Y-26613D01*
X21982Y-26697D01*
X22023Y-26697D01*
X22023Y-26701D01*
X22023Y-26912D01*
X20884Y-26903D01*
X20884Y-25608D01*
X20844Y-25512D01*
X20824Y-25493D01*
X20825Y-25295D01*
X20749Y-25112D01*
X20608Y-24971D01*
X20536Y-24941D01*
X20537Y-24884D01*
X20524Y-24853D01*
X20607Y-24819D01*
X20748Y-24678D01*
X20824Y-24494D01*
X20825Y-24295D01*
X20749Y-24112D01*
X20608Y-23971D01*
X20424Y-23895D01*
X20414Y-23895D01*
X20414Y-23895D01*
X20424Y-23895D01*
X20607Y-23819D01*
X20748Y-23678D01*
X20824Y-23494D01*
X20825Y-23295D01*
X20749Y-23112D01*
X20608Y-22971D01*
X20424Y-22895D01*
X20225Y-22894D01*
X20042Y-22970D01*
X19901Y-23111D01*
X19825Y-23295D01*
X19824Y-23494D01*
X19900Y-23677D01*
X20041Y-23818D01*
X20122Y-23852D01*
X20090Y-23865D01*
X20017Y-23938D01*
X19978Y-24034D01*
X19978Y-24034D01*
X19901Y-24111D01*
X19825Y-24295D01*
X19824Y-24494D01*
X19900Y-24677D01*
X20041Y-24818D01*
X20043Y-24819D01*
X20017Y-24884D01*
X20016Y-24987D01*
X20019Y-24993D01*
X19901Y-25111D01*
X19825Y-25295D01*
X19824Y-25494D01*
X19900Y-25677D01*
X20041Y-25818D01*
X20225Y-25894D01*
X20424Y-25895D01*
X20471Y-25875D01*
X20476Y-25880D01*
X20572Y-25919D01*
X20675Y-25920D01*
X20771Y-25880D01*
X20844Y-25807D01*
X20883Y-25711D01*
X20884Y-25608D01*
X20884Y-26903D01*
X20506Y-26900D01*
X20506Y-26878D01*
X20500Y-26863D01*
X20607Y-26819D01*
X20748Y-26678D01*
X20824Y-26494D01*
X20825Y-26295D01*
X20749Y-26112D01*
X20608Y-25971D01*
X20424Y-25895D01*
X20225Y-25894D01*
X20042Y-25970D01*
X19901Y-26111D01*
X19838Y-26263D01*
X19837Y-26263D01*
X19831Y-26263D01*
X19776Y-26286D01*
X19734Y-26328D01*
X19619Y-26443D01*
X19599Y-26432D01*
X19654Y-26301D01*
X19654Y-26102D01*
X19578Y-25918D01*
X19438Y-25777D01*
X19254Y-25701D01*
X19055Y-25701D01*
X18871Y-25777D01*
X18730Y-25917D01*
X18705Y-25979D01*
X18075Y-25998D01*
X18061Y-25983D01*
X18061Y-23949D01*
X18071Y-23960D01*
X18273Y-24044D01*
X18492Y-24044D01*
X18694Y-23961D01*
X18849Y-23806D01*
X18933Y-23604D01*
X18933Y-23385D01*
X18883Y-23263D01*
X18899Y-23248D01*
X18938Y-23152D01*
X18938Y-23049D01*
X18899Y-22953D01*
X18826Y-22880D01*
X18801Y-22870D01*
X18849Y-22822D01*
X18933Y-22620D01*
X18933Y-22574D01*
X18938Y-22562D01*
X18938Y-22458D01*
X18933Y-22446D01*
X18933Y-22401D01*
X18850Y-22199D01*
X18711Y-22060D01*
X18748Y-22021D01*
X18931Y-21945D01*
X19072Y-21805D01*
X19148Y-21621D01*
X19148Y-21597D01*
X19291Y-21445D01*
X19325Y-21459D01*
X19385Y-21459D01*
X19440Y-21436D01*
X19482Y-21394D01*
X19977Y-20899D01*
X20000Y-20844D01*
X20000Y-20784D01*
X19977Y-20729D01*
X19972Y-20724D01*
X20551Y-20109D01*
X24412Y-20059D01*
X24384Y-20088D01*
X24300Y-20290D01*
X24299Y-20508D01*
X24383Y-20711D01*
X24538Y-20865D01*
X24712Y-20938D01*
X24717Y-21000D01*
X24635Y-20967D01*
X24532Y-20966D01*
X24436Y-21006D01*
X24363Y-21079D01*
X24324Y-21175D01*
X24323Y-21278D01*
X24363Y-21374D01*
X24417Y-21427D01*
X24417Y-22791D01*
X24431Y-22865D01*
X24474Y-22928D01*
X24633Y-23088D01*
X24633Y-23124D01*
X24673Y-23220D01*
X24746Y-23293D01*
X24750Y-23294D01*
X24950Y-24056D01*
X24930Y-24106D01*
X24929Y-24209D01*
X24969Y-24305D01*
X25015Y-24350D01*
G54D10*
G36*
X29025Y-23232D02*
X28974Y-23211D01*
X28915Y-23210D01*
X27932Y-23210D01*
X27398Y-22677D01*
X27282Y-22258D01*
X27279Y-22253D01*
X27279Y-22248D01*
X27265Y-22224D01*
X27248Y-22190D01*
X27243Y-22186D01*
X27241Y-22182D01*
X26782Y-21660D01*
X26780Y-21658D01*
X26779Y-21656D01*
X26751Y-21636D01*
X26722Y-21614D01*
X26719Y-21613D01*
X26717Y-21612D01*
X26684Y-21603D01*
X26648Y-21594D01*
X26646Y-21594D01*
X26643Y-21594D01*
X26418Y-21585D01*
X26412Y-21586D01*
X26406Y-21585D01*
X26142Y-21590D01*
X26031Y-21580D01*
X26038Y-20917D01*
X26161Y-20866D01*
X26315Y-20711D01*
X26349Y-20630D01*
X26383Y-20711D01*
X26538Y-20865D01*
X26740Y-20949D01*
X26958Y-20950D01*
X27161Y-20866D01*
X27315Y-20711D01*
X27357Y-20612D01*
X27360Y-20618D01*
X27348Y-20648D01*
X27347Y-20751D01*
X27387Y-20847D01*
X27460Y-20920D01*
X27556Y-20959D01*
X27659Y-20960D01*
X27738Y-20927D01*
X27747Y-20930D01*
X27965Y-20931D01*
X28081Y-20883D01*
X28488Y-21289D01*
X28424Y-21289D01*
X28221Y-21373D01*
X28067Y-21528D01*
X27983Y-21730D01*
X27982Y-21948D01*
X28066Y-22151D01*
X28126Y-22210D01*
X27725Y-22210D01*
X27670Y-22233D01*
X27627Y-22275D01*
X27605Y-22331D01*
X27604Y-22390D01*
X27604Y-22770D01*
X27627Y-22825D01*
X27669Y-22868D01*
X27725Y-22890D01*
X27784Y-22891D01*
X28953Y-22891D01*
X29024Y-22982D01*
X29025Y-23232D01*
X29025Y-23232D01*
G37*
G54D21*
X29025Y-23232D02*
X28974Y-23211D01*
X28915Y-23210D01*
X27932Y-23210D01*
X27398Y-22677D01*
X27282Y-22258D01*
X27279Y-22253D01*
X27279Y-22248D01*
X27265Y-22224D01*
X27248Y-22190D01*
X27243Y-22186D01*
X27241Y-22182D01*
X26782Y-21660D01*
X26780Y-21658D01*
X26779Y-21656D01*
X26751Y-21636D01*
X26722Y-21614D01*
X26719Y-21613D01*
X26717Y-21612D01*
X26684Y-21603D01*
X26648Y-21594D01*
X26646Y-21594D01*
X26643Y-21594D01*
X26418Y-21585D01*
X26412Y-21586D01*
X26406Y-21585D01*
X26142Y-21590D01*
X26031Y-21580D01*
X26038Y-20917D01*
X26161Y-20866D01*
X26315Y-20711D01*
X26349Y-20630D01*
X26383Y-20711D01*
X26538Y-20865D01*
X26740Y-20949D01*
X26958Y-20950D01*
X27161Y-20866D01*
X27315Y-20711D01*
X27357Y-20612D01*
X27360Y-20618D01*
X27348Y-20648D01*
X27347Y-20751D01*
X27387Y-20847D01*
X27460Y-20920D01*
X27556Y-20959D01*
X27659Y-20960D01*
X27738Y-20927D01*
X27747Y-20930D01*
X27965Y-20931D01*
X28081Y-20883D01*
X28488Y-21289D01*
X28424Y-21289D01*
X28221Y-21373D01*
X28067Y-21528D01*
X27983Y-21730D01*
X27982Y-21948D01*
X28066Y-22151D01*
X28126Y-22210D01*
X27725Y-22210D01*
X27670Y-22233D01*
X27627Y-22275D01*
X27605Y-22331D01*
X27604Y-22390D01*
X27604Y-22770D01*
X27627Y-22825D01*
X27669Y-22868D01*
X27725Y-22890D01*
X27784Y-22891D01*
X28953Y-22891D01*
X29024Y-22982D01*
X29025Y-23232D01*
G54D10*
G36*
X30147Y-21891D02*
X30100Y-24952D01*
X28271Y-26106D01*
X27780Y-25975D01*
X27297Y-26308D01*
X27093Y-26949D01*
X22574Y-26916D01*
X22574Y-26642D01*
X22554Y-26595D01*
X22560Y-26579D01*
X22561Y-26520D01*
X22561Y-26452D01*
X22610Y-26332D01*
X22610Y-26579D01*
X22633Y-26634D01*
X22675Y-26677D01*
X22731Y-26699D01*
X22790Y-26700D01*
X23040Y-26700D01*
X23095Y-26677D01*
X23138Y-26635D01*
X23160Y-26579D01*
X23161Y-26520D01*
X23161Y-26429D01*
X23195Y-26443D01*
X23298Y-26444D01*
X23394Y-26404D01*
X23467Y-26331D01*
X23506Y-26235D01*
X23507Y-26132D01*
X23467Y-26036D01*
X23394Y-25963D01*
X23298Y-25924D01*
X23195Y-25923D01*
X23099Y-25963D01*
X23092Y-25971D01*
X23040Y-25950D01*
X22981Y-25949D01*
X22934Y-25949D01*
X23013Y-25917D01*
X23021Y-25909D01*
X23285Y-25901D01*
X23286Y-25902D01*
X23532Y-25902D01*
X23537Y-25900D01*
X23543Y-25901D01*
X23574Y-25893D01*
X23606Y-25887D01*
X23611Y-25883D01*
X23617Y-25882D01*
X24790Y-25312D01*
X24791Y-25312D01*
X25039Y-25204D01*
X25038Y-25280D01*
X25078Y-25376D01*
X25151Y-25449D01*
X25247Y-25488D01*
X25350Y-25489D01*
X25446Y-25449D01*
X25471Y-25424D01*
X25642Y-25424D01*
X25679Y-25461D01*
X25775Y-25500D01*
X25878Y-25501D01*
X25974Y-25461D01*
X26047Y-25388D01*
X26086Y-25292D01*
X26087Y-25189D01*
X26062Y-25130D01*
X26266Y-25130D01*
X26291Y-25155D01*
X26387Y-25194D01*
X26490Y-25195D01*
X26586Y-25155D01*
X26659Y-25082D01*
X26698Y-24986D01*
X26699Y-24883D01*
X26659Y-24787D01*
X26586Y-24714D01*
X26490Y-24675D01*
X26387Y-24674D01*
X26291Y-24714D01*
X26266Y-24740D01*
X25170Y-24740D01*
X25168Y-24740D01*
X25166Y-24739D01*
X25121Y-24749D01*
X25117Y-24750D01*
X25465Y-24521D01*
X25471Y-24514D01*
X25484Y-24507D01*
X25715Y-24311D01*
X25718Y-24307D01*
X25723Y-24303D01*
X25726Y-24300D01*
X25743Y-24276D01*
X25743Y-24276D01*
X25762Y-24252D01*
X25764Y-24244D01*
X25839Y-24156D01*
X25846Y-24144D01*
X25855Y-24135D01*
X26006Y-23899D01*
X26007Y-23896D01*
X26009Y-23893D01*
X26011Y-23891D01*
X26356Y-23891D01*
X26355Y-23985D01*
X26395Y-24081D01*
X26457Y-24143D01*
X26478Y-24173D01*
X26717Y-24413D01*
X26717Y-24449D01*
X26757Y-24545D01*
X26830Y-24618D01*
X26926Y-24657D01*
X27029Y-24658D01*
X27125Y-24618D01*
X27198Y-24545D01*
X27237Y-24449D01*
X27238Y-24346D01*
X27198Y-24250D01*
X27125Y-24177D01*
X27029Y-24138D01*
X26993Y-24138D01*
X26923Y-24068D01*
X26946Y-24068D01*
X27042Y-24028D01*
X27115Y-23955D01*
X27154Y-23859D01*
X27155Y-23756D01*
X27115Y-23660D01*
X27042Y-23587D01*
X26946Y-23548D01*
X26915Y-23548D01*
X26915Y-23331D01*
X26892Y-23276D01*
X26850Y-23233D01*
X26794Y-23211D01*
X26735Y-23210D01*
X25700Y-23210D01*
X25375Y-23048D01*
X25224Y-22470D01*
X25141Y-21422D01*
X25158Y-21422D01*
X25218Y-21482D01*
X25314Y-21521D01*
X25417Y-21522D01*
X25513Y-21482D01*
X25586Y-21409D01*
X25625Y-21313D01*
X25626Y-21210D01*
X25586Y-21114D01*
X25513Y-21041D01*
X25417Y-21002D01*
X25314Y-21001D01*
X25241Y-21032D01*
X25111Y-21032D01*
X25101Y-20908D01*
X25181Y-20941D01*
X25284Y-20942D01*
X25380Y-20902D01*
X25453Y-20829D01*
X25467Y-20795D01*
X25538Y-20865D01*
X25648Y-20911D01*
X25642Y-21517D01*
X25615Y-21528D01*
X25542Y-21601D01*
X25503Y-21697D01*
X25502Y-21800D01*
X25542Y-21896D01*
X25615Y-21969D01*
X25711Y-22008D01*
X25814Y-22009D01*
X25910Y-21969D01*
X25918Y-21961D01*
X26117Y-21980D01*
X26129Y-21979D01*
X26140Y-21980D01*
X26288Y-21977D01*
X26284Y-21989D01*
X26283Y-22092D01*
X26323Y-22188D01*
X26342Y-22206D01*
X26342Y-22210D01*
X25545Y-22210D01*
X25490Y-22233D01*
X25447Y-22275D01*
X25425Y-22331D01*
X25424Y-22390D01*
X25424Y-22770D01*
X25447Y-22825D01*
X25489Y-22868D01*
X25545Y-22890D01*
X25604Y-22891D01*
X25978Y-22891D01*
X25978Y-22891D01*
X25977Y-22994D01*
X26017Y-23090D01*
X26090Y-23163D01*
X26186Y-23202D01*
X26289Y-23203D01*
X26385Y-23163D01*
X26458Y-23090D01*
X26462Y-23081D01*
X26846Y-23095D01*
X26934Y-23145D01*
X27238Y-23520D01*
X27310Y-24375D01*
X27312Y-24381D01*
X27312Y-24393D01*
X27325Y-24427D01*
X27331Y-24448D01*
X27335Y-24453D01*
X27339Y-24464D01*
X27462Y-24656D01*
X27477Y-24672D01*
X27489Y-24688D01*
X27502Y-24698D01*
X27515Y-24711D01*
X27535Y-24719D01*
X27552Y-24731D01*
X27568Y-24734D01*
X27584Y-24741D01*
X27604Y-24741D01*
X27604Y-24770D01*
X27627Y-24825D01*
X27669Y-24868D01*
X27725Y-24890D01*
X27784Y-24891D01*
X28816Y-24891D01*
X28793Y-24914D01*
X27561Y-24914D01*
X27536Y-24888D01*
X27440Y-24849D01*
X27337Y-24848D01*
X27241Y-24888D01*
X27168Y-24961D01*
X27129Y-25057D01*
X27128Y-25160D01*
X27168Y-25256D01*
X27241Y-25329D01*
X27337Y-25368D01*
X27440Y-25369D01*
X27536Y-25329D01*
X27561Y-25304D01*
X28403Y-25304D01*
X28357Y-25349D01*
X28318Y-25445D01*
X28317Y-25548D01*
X28357Y-25644D01*
X28430Y-25717D01*
X28526Y-25756D01*
X28629Y-25757D01*
X28725Y-25717D01*
X28798Y-25644D01*
X28818Y-25594D01*
X29037Y-25476D01*
X29062Y-25456D01*
X29083Y-25441D01*
X29534Y-24985D01*
X29576Y-24921D01*
X29590Y-24846D01*
X29590Y-24845D01*
X29595Y-21887D01*
X29596Y-21883D01*
X29581Y-21808D01*
X29538Y-21745D01*
X29475Y-21702D01*
X29470Y-21701D01*
X28918Y-21168D01*
X28358Y-20608D01*
X28406Y-20490D01*
X28407Y-20272D01*
X28367Y-20177D01*
X30046Y-21679D01*
X30034Y-21705D01*
X30031Y-21765D01*
X30051Y-21821D01*
X30092Y-21865D01*
X30146Y-21890D01*
X30147Y-21891D01*
X30147Y-21891D01*
G37*
G54D21*
X30147Y-21891D02*
X30100Y-24952D01*
X28271Y-26106D01*
X27780Y-25975D01*
X27297Y-26308D01*
X27093Y-26949D01*
X22574Y-26916D01*
X22574Y-26642D01*
X22554Y-26595D01*
X22560Y-26579D01*
X22561Y-26520D01*
X22561Y-26452D01*
X22610Y-26332D01*
X22610Y-26579D01*
X22633Y-26634D01*
X22675Y-26677D01*
X22731Y-26699D01*
X22790Y-26700D01*
X23040Y-26700D01*
X23095Y-26677D01*
X23138Y-26635D01*
X23160Y-26579D01*
X23161Y-26520D01*
X23161Y-26429D01*
X23195Y-26443D01*
X23298Y-26444D01*
X23394Y-26404D01*
X23467Y-26331D01*
X23506Y-26235D01*
X23507Y-26132D01*
X23467Y-26036D01*
X23394Y-25963D01*
X23298Y-25924D01*
X23195Y-25923D01*
X23099Y-25963D01*
X23092Y-25971D01*
X23040Y-25950D01*
X22981Y-25949D01*
X22934Y-25949D01*
X23013Y-25917D01*
X23021Y-25909D01*
X23285Y-25901D01*
X23286Y-25902D01*
X23532Y-25902D01*
X23537Y-25900D01*
X23543Y-25901D01*
X23574Y-25893D01*
X23606Y-25887D01*
X23611Y-25883D01*
X23617Y-25882D01*
X24790Y-25312D01*
X24791Y-25312D01*
X25039Y-25204D01*
X25038Y-25280D01*
X25078Y-25376D01*
X25151Y-25449D01*
X25247Y-25488D01*
X25350Y-25489D01*
X25446Y-25449D01*
X25471Y-25424D01*
X25642Y-25424D01*
X25679Y-25461D01*
X25775Y-25500D01*
X25878Y-25501D01*
X25974Y-25461D01*
X26047Y-25388D01*
X26086Y-25292D01*
X26087Y-25189D01*
X26062Y-25130D01*
X26266Y-25130D01*
X26291Y-25155D01*
X26387Y-25194D01*
X26490Y-25195D01*
X26586Y-25155D01*
X26659Y-25082D01*
X26698Y-24986D01*
X26699Y-24883D01*
X26659Y-24787D01*
X26586Y-24714D01*
X26490Y-24675D01*
X26387Y-24674D01*
X26291Y-24714D01*
X26266Y-24740D01*
X25170Y-24740D01*
X25168Y-24740D01*
X25166Y-24739D01*
X25121Y-24749D01*
X25117Y-24750D01*
X25465Y-24521D01*
X25471Y-24514D01*
X25484Y-24507D01*
X25715Y-24311D01*
X25718Y-24307D01*
X25723Y-24303D01*
X25726Y-24300D01*
X25743Y-24276D01*
X25743Y-24276D01*
X25762Y-24252D01*
X25764Y-24244D01*
X25839Y-24156D01*
X25846Y-24144D01*
X25855Y-24135D01*
X26006Y-23899D01*
X26007Y-23896D01*
X26009Y-23893D01*
X26011Y-23891D01*
X26356Y-23891D01*
X26355Y-23985D01*
X26395Y-24081D01*
X26457Y-24143D01*
X26478Y-24173D01*
X26717Y-24413D01*
X26717Y-24449D01*
X26757Y-24545D01*
X26830Y-24618D01*
X26926Y-24657D01*
X27029Y-24658D01*
X27125Y-24618D01*
X27198Y-24545D01*
X27237Y-24449D01*
X27238Y-24346D01*
X27198Y-24250D01*
X27125Y-24177D01*
X27029Y-24138D01*
X26993Y-24138D01*
X26923Y-24068D01*
X26946Y-24068D01*
X27042Y-24028D01*
X27115Y-23955D01*
X27154Y-23859D01*
X27155Y-23756D01*
X27115Y-23660D01*
X27042Y-23587D01*
X26946Y-23548D01*
X26915Y-23548D01*
X26915Y-23331D01*
X26892Y-23276D01*
X26850Y-23233D01*
X26794Y-23211D01*
X26735Y-23210D01*
X25700Y-23210D01*
X25375Y-23048D01*
X25224Y-22470D01*
X25141Y-21422D01*
X25158Y-21422D01*
X25218Y-21482D01*
X25314Y-21521D01*
X25417Y-21522D01*
X25513Y-21482D01*
X25586Y-21409D01*
X25625Y-21313D01*
X25626Y-21210D01*
X25586Y-21114D01*
X25513Y-21041D01*
X25417Y-21002D01*
X25314Y-21001D01*
X25241Y-21032D01*
X25111Y-21032D01*
X25101Y-20908D01*
X25181Y-20941D01*
X25284Y-20942D01*
X25380Y-20902D01*
X25453Y-20829D01*
X25467Y-20795D01*
X25538Y-20865D01*
X25648Y-20911D01*
X25642Y-21517D01*
X25615Y-21528D01*
X25542Y-21601D01*
X25503Y-21697D01*
X25502Y-21800D01*
X25542Y-21896D01*
X25615Y-21969D01*
X25711Y-22008D01*
X25814Y-22009D01*
X25910Y-21969D01*
X25918Y-21961D01*
X26117Y-21980D01*
X26129Y-21979D01*
X26140Y-21980D01*
X26288Y-21977D01*
X26284Y-21989D01*
X26283Y-22092D01*
X26323Y-22188D01*
X26342Y-22206D01*
X26342Y-22210D01*
X25545Y-22210D01*
X25490Y-22233D01*
X25447Y-22275D01*
X25425Y-22331D01*
X25424Y-22390D01*
X25424Y-22770D01*
X25447Y-22825D01*
X25489Y-22868D01*
X25545Y-22890D01*
X25604Y-22891D01*
X25978Y-22891D01*
X25978Y-22891D01*
X25977Y-22994D01*
X26017Y-23090D01*
X26090Y-23163D01*
X26186Y-23202D01*
X26289Y-23203D01*
X26385Y-23163D01*
X26458Y-23090D01*
X26462Y-23081D01*
X26846Y-23095D01*
X26934Y-23145D01*
X27238Y-23520D01*
X27310Y-24375D01*
X27312Y-24381D01*
X27312Y-24393D01*
X27325Y-24427D01*
X27331Y-24448D01*
X27335Y-24453D01*
X27339Y-24464D01*
X27462Y-24656D01*
X27477Y-24672D01*
X27489Y-24688D01*
X27502Y-24698D01*
X27515Y-24711D01*
X27535Y-24719D01*
X27552Y-24731D01*
X27568Y-24734D01*
X27584Y-24741D01*
X27604Y-24741D01*
X27604Y-24770D01*
X27627Y-24825D01*
X27669Y-24868D01*
X27725Y-24890D01*
X27784Y-24891D01*
X28816Y-24891D01*
X28793Y-24914D01*
X27561Y-24914D01*
X27536Y-24888D01*
X27440Y-24849D01*
X27337Y-24848D01*
X27241Y-24888D01*
X27168Y-24961D01*
X27129Y-25057D01*
X27128Y-25160D01*
X27168Y-25256D01*
X27241Y-25329D01*
X27337Y-25368D01*
X27440Y-25369D01*
X27536Y-25329D01*
X27561Y-25304D01*
X28403Y-25304D01*
X28357Y-25349D01*
X28318Y-25445D01*
X28317Y-25548D01*
X28357Y-25644D01*
X28430Y-25717D01*
X28526Y-25756D01*
X28629Y-25757D01*
X28725Y-25717D01*
X28798Y-25644D01*
X28818Y-25594D01*
X29037Y-25476D01*
X29062Y-25456D01*
X29083Y-25441D01*
X29534Y-24985D01*
X29576Y-24921D01*
X29590Y-24846D01*
X29590Y-24845D01*
X29595Y-21887D01*
X29596Y-21883D01*
X29581Y-21808D01*
X29538Y-21745D01*
X29475Y-21702D01*
X29470Y-21701D01*
X28918Y-21168D01*
X28358Y-20608D01*
X28406Y-20490D01*
X28407Y-20272D01*
X28367Y-20177D01*
X30046Y-21679D01*
X30034Y-21705D01*
X30031Y-21765D01*
X30051Y-21821D01*
X30092Y-21865D01*
X30146Y-21890D01*
X30147Y-21891D01*
G54D10*
G36*
X32583Y-25061D02*
X32117Y-25286D01*
X32117Y-25106D01*
X32094Y-25051D01*
X32103Y-25008D01*
X32084Y-24913D01*
X32029Y-24831D01*
X31948Y-24777D01*
X31853Y-24758D01*
X31844Y-24758D01*
X31717Y-24705D01*
X31628Y-24705D01*
X31604Y-24681D01*
X31508Y-24642D01*
X31405Y-24641D01*
X31309Y-24681D01*
X31236Y-24754D01*
X31197Y-24850D01*
X31196Y-24918D01*
X31193Y-24922D01*
X31117Y-25105D01*
X31117Y-25304D01*
X31193Y-25488D01*
X31333Y-25629D01*
X31371Y-25645D01*
X30022Y-26294D01*
X29999Y-26311D01*
X29976Y-26327D01*
X28647Y-27655D01*
X19733Y-27655D01*
X19328Y-27250D01*
X19747Y-27192D01*
X22036Y-27182D01*
X22046Y-27206D01*
X22088Y-27249D01*
X22144Y-27271D01*
X22203Y-27272D01*
X22453Y-27272D01*
X22508Y-27249D01*
X22551Y-27207D01*
X22562Y-27180D01*
X22635Y-27179D01*
X22646Y-27206D01*
X22688Y-27249D01*
X22744Y-27271D01*
X22803Y-27272D01*
X23053Y-27272D01*
X23108Y-27249D01*
X23151Y-27207D01*
X23163Y-27177D01*
X27436Y-27157D01*
X28236Y-26399D01*
X30399Y-25169D01*
X30367Y-21533D01*
X30175Y-21503D01*
X28303Y-19770D01*
X20969Y-19816D01*
X20870Y-19717D01*
X20598Y-19604D01*
X20303Y-19604D01*
X20031Y-19716D01*
X19822Y-19924D01*
X19709Y-20196D01*
X19709Y-20491D01*
X19742Y-20570D01*
X19099Y-21304D01*
X19072Y-21238D01*
X18932Y-21097D01*
X18748Y-21021D01*
X18549Y-21021D01*
X18365Y-21097D01*
X18224Y-21237D01*
X18165Y-21380D01*
X18061Y-21256D01*
X18061Y-21202D01*
X19733Y-19530D01*
X28647Y-19530D01*
X29976Y-20858D01*
X29999Y-20874D01*
X30022Y-20891D01*
X31359Y-21534D01*
X31271Y-21571D01*
X31130Y-21711D01*
X31054Y-21895D01*
X31054Y-22094D01*
X31130Y-22278D01*
X31270Y-22418D01*
X31454Y-22495D01*
X31514Y-22495D01*
X31550Y-22509D01*
X31573Y-22509D01*
X31554Y-22528D01*
X31520Y-22515D01*
X31417Y-22514D01*
X31381Y-22529D01*
X31308Y-22456D01*
X31212Y-22417D01*
X31109Y-22416D01*
X31013Y-22456D01*
X30940Y-22529D01*
X30901Y-22625D01*
X30900Y-22728D01*
X30915Y-22762D01*
X30915Y-22796D01*
X30915Y-22985D01*
X30929Y-23059D01*
X30953Y-23095D01*
X30953Y-23140D01*
X30993Y-23236D01*
X31066Y-23309D01*
X31162Y-23348D01*
X31265Y-23349D01*
X31299Y-23335D01*
X31363Y-23399D01*
X31459Y-23438D01*
X31562Y-23439D01*
X31658Y-23399D01*
X31683Y-23374D01*
X31756Y-23374D01*
X31858Y-23475D01*
X32060Y-23559D01*
X32278Y-23560D01*
X32481Y-23476D01*
X32583Y-23374D01*
X32583Y-25061D01*
X32583Y-25061D01*
G37*
G54D21*
X32583Y-25061D02*
X32117Y-25286D01*
X32117Y-25106D01*
X32094Y-25051D01*
X32103Y-25008D01*
X32084Y-24913D01*
X32029Y-24831D01*
X31948Y-24777D01*
X31853Y-24758D01*
X31844Y-24758D01*
X31717Y-24705D01*
X31628Y-24705D01*
X31604Y-24681D01*
X31508Y-24642D01*
X31405Y-24641D01*
X31309Y-24681D01*
X31236Y-24754D01*
X31197Y-24850D01*
X31196Y-24918D01*
X31193Y-24922D01*
X31117Y-25105D01*
X31117Y-25304D01*
X31193Y-25488D01*
X31333Y-25629D01*
X31371Y-25645D01*
X30022Y-26294D01*
X29999Y-26311D01*
X29976Y-26327D01*
X28647Y-27655D01*
X19733Y-27655D01*
X19328Y-27250D01*
X19747Y-27192D01*
X22036Y-27182D01*
X22046Y-27206D01*
X22088Y-27249D01*
X22144Y-27271D01*
X22203Y-27272D01*
X22453Y-27272D01*
X22508Y-27249D01*
X22551Y-27207D01*
X22562Y-27180D01*
X22635Y-27179D01*
X22646Y-27206D01*
X22688Y-27249D01*
X22744Y-27271D01*
X22803Y-27272D01*
X23053Y-27272D01*
X23108Y-27249D01*
X23151Y-27207D01*
X23163Y-27177D01*
X27436Y-27157D01*
X28236Y-26399D01*
X30399Y-25169D01*
X30367Y-21533D01*
X30175Y-21503D01*
X28303Y-19770D01*
X20969Y-19816D01*
X20870Y-19717D01*
X20598Y-19604D01*
X20303Y-19604D01*
X20031Y-19716D01*
X19822Y-19924D01*
X19709Y-20196D01*
X19709Y-20491D01*
X19742Y-20570D01*
X19099Y-21304D01*
X19072Y-21238D01*
X18932Y-21097D01*
X18748Y-21021D01*
X18549Y-21021D01*
X18365Y-21097D01*
X18224Y-21237D01*
X18165Y-21380D01*
X18061Y-21256D01*
X18061Y-21202D01*
X19733Y-19530D01*
X28647Y-19530D01*
X29976Y-20858D01*
X29999Y-20874D01*
X30022Y-20891D01*
X31359Y-21534D01*
X31271Y-21571D01*
X31130Y-21711D01*
X31054Y-21895D01*
X31054Y-22094D01*
X31130Y-22278D01*
X31270Y-22418D01*
X31454Y-22495D01*
X31514Y-22495D01*
X31550Y-22509D01*
X31573Y-22509D01*
X31554Y-22528D01*
X31520Y-22515D01*
X31417Y-22514D01*
X31381Y-22529D01*
X31308Y-22456D01*
X31212Y-22417D01*
X31109Y-22416D01*
X31013Y-22456D01*
X30940Y-22529D01*
X30901Y-22625D01*
X30900Y-22728D01*
X30915Y-22762D01*
X30915Y-22796D01*
X30915Y-22985D01*
X30929Y-23059D01*
X30953Y-23095D01*
X30953Y-23140D01*
X30993Y-23236D01*
X31066Y-23309D01*
X31162Y-23348D01*
X31265Y-23349D01*
X31299Y-23335D01*
X31363Y-23399D01*
X31459Y-23438D01*
X31562Y-23439D01*
X31658Y-23399D01*
X31683Y-23374D01*
X31756Y-23374D01*
X31858Y-23475D01*
X32060Y-23559D01*
X32278Y-23560D01*
X32481Y-23476D01*
X32583Y-23374D01*
X32583Y-25061D01*
M02*
