G04 (created by PCBNEW (2013-jul-07)-stable) date Mon 22 Jun 2015 08:36:27 PM EDT*
%MOIN*%
G04 Gerber Fmt 3.4, Leading zero omitted, Abs format*
%FSLAX34Y34*%
G01*
G70*
G90*
G04 APERTURE LIST*
%ADD10C,0.00590551*%
%ADD11C,0.006*%
%ADD12C,0.00393701*%
%ADD13C,0.00787402*%
%ADD14C,0.005*%
G04 APERTURE END LIST*
G54D10*
G54D11*
X26814Y-23028D02*
X26914Y-23028D01*
X26914Y-23185D02*
X26914Y-22885D01*
X26772Y-22885D01*
X26514Y-23185D02*
X26657Y-23185D01*
X26657Y-22885D01*
X26457Y-22885D02*
X26286Y-22885D01*
X26372Y-23185D02*
X26372Y-22885D01*
X26257Y-23214D02*
X26029Y-23214D01*
X25857Y-23028D02*
X25815Y-23042D01*
X25800Y-23056D01*
X25786Y-23085D01*
X25786Y-23128D01*
X25800Y-23156D01*
X25815Y-23171D01*
X25843Y-23185D01*
X25957Y-23185D01*
X25957Y-22885D01*
X25857Y-22885D01*
X25829Y-22899D01*
X25815Y-22914D01*
X25800Y-22942D01*
X25800Y-22971D01*
X25815Y-22999D01*
X25829Y-23014D01*
X25857Y-23028D01*
X25957Y-23028D01*
X25672Y-23099D02*
X25529Y-23099D01*
X25700Y-23185D02*
X25600Y-22885D01*
X25500Y-23185D01*
X25443Y-22885D02*
X25272Y-22885D01*
X25357Y-23185D02*
X25357Y-22885D01*
X26523Y-24159D02*
X26480Y-24173D01*
X26408Y-24173D01*
X26380Y-24159D01*
X26366Y-24144D01*
X26351Y-24116D01*
X26351Y-24087D01*
X26366Y-24059D01*
X26380Y-24044D01*
X26408Y-24030D01*
X26466Y-24016D01*
X26494Y-24002D01*
X26508Y-23987D01*
X26523Y-23959D01*
X26523Y-23930D01*
X26508Y-23902D01*
X26494Y-23887D01*
X26466Y-23873D01*
X26394Y-23873D01*
X26351Y-23887D01*
X26223Y-24173D02*
X26223Y-23873D01*
X26151Y-23873D01*
X26109Y-23887D01*
X26080Y-23916D01*
X26066Y-23944D01*
X26051Y-24002D01*
X26051Y-24044D01*
X26066Y-24102D01*
X26080Y-24130D01*
X26109Y-24159D01*
X26151Y-24173D01*
X26223Y-24173D01*
X25937Y-24087D02*
X25794Y-24087D01*
X25966Y-24173D02*
X25866Y-23873D01*
X25766Y-24173D01*
X26338Y-24902D02*
X26367Y-24888D01*
X26410Y-24888D01*
X26452Y-24902D01*
X26481Y-24931D01*
X26495Y-24959D01*
X26510Y-25017D01*
X26510Y-25059D01*
X26495Y-25117D01*
X26481Y-25145D01*
X26452Y-25174D01*
X26410Y-25188D01*
X26381Y-25188D01*
X26338Y-25174D01*
X26324Y-25159D01*
X26324Y-25059D01*
X26381Y-25059D01*
X26195Y-25188D02*
X26195Y-24888D01*
X26024Y-25188D01*
X26024Y-24888D01*
X25881Y-25188D02*
X25881Y-24888D01*
X25810Y-24888D01*
X25767Y-24902D01*
X25738Y-24931D01*
X25724Y-24959D01*
X25710Y-25017D01*
X25710Y-25059D01*
X25724Y-25117D01*
X25738Y-25145D01*
X25767Y-25174D01*
X25810Y-25188D01*
X25881Y-25188D01*
X29144Y-25081D02*
X29001Y-25081D01*
X29173Y-25167D02*
X29073Y-24867D01*
X28973Y-25167D01*
X28915Y-24867D02*
X28815Y-25167D01*
X28715Y-24867D01*
X28444Y-25167D02*
X28544Y-25024D01*
X28615Y-25167D02*
X28615Y-24867D01*
X28501Y-24867D01*
X28472Y-24881D01*
X28458Y-24896D01*
X28444Y-24924D01*
X28444Y-24967D01*
X28458Y-24996D01*
X28472Y-25010D01*
X28501Y-25024D01*
X28615Y-25024D01*
X28387Y-25196D02*
X28158Y-25196D01*
X27915Y-25167D02*
X28015Y-25024D01*
X28087Y-25167D02*
X28087Y-24867D01*
X27973Y-24867D01*
X27944Y-24881D01*
X27930Y-24896D01*
X27915Y-24924D01*
X27915Y-24967D01*
X27930Y-24996D01*
X27944Y-25010D01*
X27973Y-25024D01*
X28087Y-25024D01*
X27801Y-25153D02*
X27758Y-25167D01*
X27687Y-25167D01*
X27658Y-25153D01*
X27644Y-25138D01*
X27630Y-25110D01*
X27630Y-25081D01*
X27644Y-25053D01*
X27658Y-25038D01*
X27687Y-25024D01*
X27744Y-25010D01*
X27773Y-24996D01*
X27787Y-24981D01*
X27801Y-24953D01*
X27801Y-24924D01*
X27787Y-24896D01*
X27773Y-24881D01*
X27744Y-24867D01*
X27673Y-24867D01*
X27630Y-24881D01*
X27544Y-24867D02*
X27373Y-24867D01*
X27458Y-25167D02*
X27458Y-24867D01*
X28740Y-24170D02*
X28697Y-24184D01*
X28625Y-24184D01*
X28597Y-24170D01*
X28582Y-24155D01*
X28568Y-24127D01*
X28568Y-24098D01*
X28582Y-24070D01*
X28597Y-24055D01*
X28625Y-24041D01*
X28682Y-24027D01*
X28711Y-24013D01*
X28725Y-23998D01*
X28740Y-23970D01*
X28740Y-23941D01*
X28725Y-23913D01*
X28711Y-23898D01*
X28682Y-23884D01*
X28611Y-23884D01*
X28568Y-23898D01*
X28268Y-24155D02*
X28283Y-24170D01*
X28325Y-24184D01*
X28354Y-24184D01*
X28397Y-24170D01*
X28425Y-24141D01*
X28440Y-24113D01*
X28454Y-24055D01*
X28454Y-24013D01*
X28440Y-23955D01*
X28425Y-23927D01*
X28397Y-23898D01*
X28354Y-23884D01*
X28325Y-23884D01*
X28283Y-23898D01*
X28268Y-23913D01*
X27997Y-24184D02*
X28140Y-24184D01*
X28140Y-23884D01*
X29431Y-23107D02*
X29289Y-23107D01*
X29460Y-23193D02*
X29360Y-22893D01*
X29260Y-23193D01*
X29203Y-22893D02*
X29103Y-23193D01*
X29003Y-22893D01*
X28731Y-23193D02*
X28831Y-23050D01*
X28903Y-23193D02*
X28903Y-22893D01*
X28789Y-22893D01*
X28760Y-22907D01*
X28746Y-22922D01*
X28731Y-22950D01*
X28731Y-22993D01*
X28746Y-23022D01*
X28760Y-23036D01*
X28789Y-23050D01*
X28903Y-23050D01*
X28603Y-23193D02*
X28603Y-22893D01*
X28503Y-23107D01*
X28403Y-22893D01*
X28403Y-23193D01*
X28260Y-23193D02*
X28260Y-22893D01*
X28131Y-23179D02*
X28089Y-23193D01*
X28017Y-23193D01*
X27989Y-23179D01*
X27974Y-23164D01*
X27960Y-23136D01*
X27960Y-23107D01*
X27974Y-23079D01*
X27989Y-23064D01*
X28017Y-23050D01*
X28074Y-23036D01*
X28103Y-23022D01*
X28117Y-23007D01*
X28131Y-22979D01*
X28131Y-22950D01*
X28117Y-22922D01*
X28103Y-22907D01*
X28074Y-22893D01*
X28003Y-22893D01*
X27960Y-22907D01*
X27774Y-22893D02*
X27717Y-22893D01*
X27689Y-22907D01*
X27660Y-22936D01*
X27646Y-22993D01*
X27646Y-23093D01*
X27660Y-23150D01*
X27689Y-23179D01*
X27717Y-23193D01*
X27774Y-23193D01*
X27803Y-23179D01*
X27831Y-23150D01*
X27846Y-23093D01*
X27846Y-22993D01*
X27831Y-22936D01*
X27803Y-22907D01*
X27774Y-22893D01*
G54D12*
X28718Y-19360D02*
X19662Y-19360D01*
X28718Y-27825D02*
X19662Y-27825D01*
X19662Y-27825D02*
X17891Y-26053D01*
X17891Y-21132D02*
X19662Y-19360D01*
X32753Y-25167D02*
X30096Y-26447D01*
X32753Y-22018D02*
X32753Y-25167D01*
X30096Y-20738D02*
X32753Y-22018D01*
X17891Y-21132D02*
X17891Y-26053D01*
G54D13*
X21876Y-21461D02*
X21676Y-21461D01*
X22076Y-21261D02*
X21876Y-21461D01*
X22076Y-21061D02*
X22076Y-21261D01*
X22276Y-21061D02*
X22076Y-21061D01*
X22076Y-20861D02*
X22276Y-21061D01*
X22076Y-21061D02*
X22076Y-20861D01*
X21876Y-21061D02*
X22076Y-21061D01*
X21676Y-21261D02*
X21876Y-21061D01*
X21676Y-21461D02*
X21676Y-21261D01*
G54D11*
X27981Y-21575D02*
X27995Y-21561D01*
X28024Y-21518D01*
X28038Y-21490D01*
X28052Y-21447D01*
X28067Y-21375D01*
X28067Y-21318D01*
X28052Y-21247D01*
X28038Y-21204D01*
X28024Y-21175D01*
X27995Y-21132D01*
X27981Y-21118D01*
X27695Y-21432D02*
X27709Y-21447D01*
X27752Y-21461D01*
X27781Y-21461D01*
X27824Y-21447D01*
X27852Y-21418D01*
X27867Y-21390D01*
X27881Y-21332D01*
X27881Y-21290D01*
X27867Y-21232D01*
X27852Y-21204D01*
X27824Y-21175D01*
X27781Y-21161D01*
X27752Y-21161D01*
X27709Y-21175D01*
X27695Y-21190D01*
X27595Y-21575D02*
X27581Y-21561D01*
X27552Y-21518D01*
X27538Y-21490D01*
X27524Y-21447D01*
X27509Y-21375D01*
X27509Y-21318D01*
X27524Y-21247D01*
X27538Y-21204D01*
X27552Y-21175D01*
X27581Y-21132D01*
X27595Y-21118D01*
X27152Y-21190D02*
X27138Y-21175D01*
X27109Y-21161D01*
X27038Y-21161D01*
X27009Y-21175D01*
X26995Y-21190D01*
X26981Y-21218D01*
X26981Y-21247D01*
X26995Y-21290D01*
X27167Y-21461D01*
X26981Y-21461D01*
X26795Y-21161D02*
X26767Y-21161D01*
X26738Y-21175D01*
X26724Y-21190D01*
X26709Y-21218D01*
X26695Y-21275D01*
X26695Y-21347D01*
X26709Y-21404D01*
X26724Y-21432D01*
X26738Y-21447D01*
X26767Y-21461D01*
X26795Y-21461D01*
X26824Y-21447D01*
X26838Y-21432D01*
X26852Y-21404D01*
X26867Y-21347D01*
X26867Y-21275D01*
X26852Y-21218D01*
X26838Y-21190D01*
X26824Y-21175D01*
X26795Y-21161D01*
X26409Y-21461D02*
X26581Y-21461D01*
X26495Y-21461D02*
X26495Y-21161D01*
X26524Y-21204D01*
X26552Y-21232D01*
X26581Y-21247D01*
X26152Y-21261D02*
X26152Y-21461D01*
X26224Y-21147D02*
X26295Y-21361D01*
X26109Y-21361D01*
X25981Y-21447D02*
X25981Y-21461D01*
X25995Y-21490D01*
X26009Y-21504D01*
X25638Y-21190D02*
X25624Y-21175D01*
X25595Y-21161D01*
X25524Y-21161D01*
X25495Y-21175D01*
X25481Y-21190D01*
X25467Y-21218D01*
X25467Y-21247D01*
X25481Y-21290D01*
X25652Y-21461D01*
X25467Y-21461D01*
X25281Y-21161D02*
X25252Y-21161D01*
X25224Y-21175D01*
X25210Y-21190D01*
X25195Y-21218D01*
X25181Y-21275D01*
X25181Y-21347D01*
X25195Y-21404D01*
X25210Y-21432D01*
X25224Y-21447D01*
X25252Y-21461D01*
X25281Y-21461D01*
X25310Y-21447D01*
X25324Y-21432D01*
X25338Y-21404D01*
X25352Y-21347D01*
X25352Y-21275D01*
X25338Y-21218D01*
X25324Y-21190D01*
X25310Y-21175D01*
X25281Y-21161D01*
X24895Y-21461D02*
X25067Y-21461D01*
X24981Y-21461D02*
X24981Y-21161D01*
X25010Y-21204D01*
X25038Y-21232D01*
X25067Y-21247D01*
X24624Y-21161D02*
X24767Y-21161D01*
X24781Y-21304D01*
X24767Y-21290D01*
X24738Y-21275D01*
X24667Y-21275D01*
X24638Y-21290D01*
X24624Y-21304D01*
X24610Y-21332D01*
X24610Y-21404D01*
X24624Y-21432D01*
X24638Y-21447D01*
X24667Y-21461D01*
X24738Y-21461D01*
X24767Y-21447D01*
X24781Y-21432D01*
X24081Y-21432D02*
X24095Y-21447D01*
X24138Y-21461D01*
X24167Y-21461D01*
X24210Y-21447D01*
X24238Y-21418D01*
X24252Y-21390D01*
X24267Y-21332D01*
X24267Y-21290D01*
X24252Y-21232D01*
X24238Y-21204D01*
X24210Y-21175D01*
X24167Y-21161D01*
X24138Y-21161D01*
X24095Y-21175D01*
X24081Y-21190D01*
X23952Y-21432D02*
X23938Y-21447D01*
X23952Y-21461D01*
X23967Y-21447D01*
X23952Y-21432D01*
X23952Y-21461D01*
X23438Y-21461D02*
X23581Y-21461D01*
X23581Y-21161D01*
X23295Y-21461D02*
X23324Y-21447D01*
X23338Y-21432D01*
X23352Y-21404D01*
X23352Y-21318D01*
X23338Y-21290D01*
X23324Y-21275D01*
X23295Y-21261D01*
X23252Y-21261D01*
X23224Y-21275D01*
X23210Y-21290D01*
X23195Y-21318D01*
X23195Y-21404D01*
X23210Y-21432D01*
X23224Y-21447D01*
X23252Y-21461D01*
X23295Y-21461D01*
X23067Y-21461D02*
X23067Y-21161D01*
X22938Y-21461D02*
X22938Y-21304D01*
X22952Y-21275D01*
X22981Y-21261D01*
X23024Y-21261D01*
X23052Y-21275D01*
X23067Y-21290D01*
X22795Y-21461D02*
X22795Y-21261D01*
X22795Y-21318D02*
X22781Y-21290D01*
X22767Y-21275D01*
X22738Y-21261D01*
X22710Y-21261D01*
X27038Y-21641D02*
X26967Y-21941D01*
X26909Y-21727D01*
X26852Y-21941D01*
X26781Y-21641D01*
X26667Y-21941D02*
X26667Y-21741D01*
X26667Y-21641D02*
X26681Y-21655D01*
X26667Y-21670D01*
X26652Y-21655D01*
X26667Y-21641D01*
X26667Y-21670D01*
X26567Y-21741D02*
X26452Y-21741D01*
X26524Y-21941D02*
X26524Y-21684D01*
X26510Y-21655D01*
X26481Y-21641D01*
X26452Y-21641D01*
X26309Y-21941D02*
X26338Y-21927D01*
X26352Y-21898D01*
X26352Y-21641D01*
X26195Y-21941D02*
X26195Y-21741D01*
X26195Y-21641D02*
X26209Y-21655D01*
X26195Y-21670D01*
X26181Y-21655D01*
X26195Y-21641D01*
X26195Y-21670D01*
X25938Y-21927D02*
X25967Y-21941D01*
X26024Y-21941D01*
X26052Y-21927D01*
X26067Y-21898D01*
X26067Y-21784D01*
X26052Y-21755D01*
X26024Y-21741D01*
X25967Y-21741D01*
X25938Y-21755D01*
X25924Y-21784D01*
X25924Y-21812D01*
X26067Y-21841D01*
X25795Y-21941D02*
X25795Y-21741D01*
X25795Y-21798D02*
X25781Y-21770D01*
X25767Y-21755D01*
X25738Y-21741D01*
X25709Y-21741D01*
X25295Y-22055D02*
X25310Y-22041D01*
X25338Y-21998D01*
X25352Y-21970D01*
X25367Y-21927D01*
X25381Y-21855D01*
X25381Y-21798D01*
X25367Y-21727D01*
X25352Y-21684D01*
X25338Y-21655D01*
X25310Y-21612D01*
X25295Y-21598D01*
X25010Y-21941D02*
X25110Y-21798D01*
X25181Y-21941D02*
X25181Y-21641D01*
X25067Y-21641D01*
X25038Y-21655D01*
X25024Y-21670D01*
X25010Y-21698D01*
X25010Y-21741D01*
X25024Y-21770D01*
X25038Y-21784D01*
X25067Y-21798D01*
X25181Y-21798D01*
X24767Y-21927D02*
X24795Y-21941D01*
X24852Y-21941D01*
X24881Y-21927D01*
X24895Y-21898D01*
X24895Y-21784D01*
X24881Y-21755D01*
X24852Y-21741D01*
X24795Y-21741D01*
X24767Y-21755D01*
X24752Y-21784D01*
X24752Y-21812D01*
X24895Y-21841D01*
X24652Y-21741D02*
X24581Y-21941D01*
X24510Y-21741D01*
X24067Y-21784D02*
X24024Y-21798D01*
X24010Y-21812D01*
X23995Y-21841D01*
X23995Y-21884D01*
X24010Y-21912D01*
X24024Y-21927D01*
X24052Y-21941D01*
X24167Y-21941D01*
X24167Y-21641D01*
X24067Y-21641D01*
X24038Y-21655D01*
X24024Y-21670D01*
X24010Y-21698D01*
X24010Y-21727D01*
X24024Y-21755D01*
X24038Y-21770D01*
X24067Y-21784D01*
X24167Y-21784D01*
X23895Y-22055D02*
X23881Y-22041D01*
X23852Y-21998D01*
X23838Y-21970D01*
X23824Y-21927D01*
X23810Y-21855D01*
X23810Y-21798D01*
X23824Y-21727D01*
X23838Y-21684D01*
X23852Y-21655D01*
X23881Y-21612D01*
X23895Y-21598D01*
X21263Y-21514D02*
X21292Y-21500D01*
X21335Y-21500D01*
X21377Y-21514D01*
X21406Y-21543D01*
X21420Y-21571D01*
X21435Y-21629D01*
X21435Y-21671D01*
X21420Y-21729D01*
X21406Y-21757D01*
X21377Y-21786D01*
X21335Y-21800D01*
X21306Y-21800D01*
X21263Y-21786D01*
X21249Y-21771D01*
X21249Y-21671D01*
X21306Y-21671D01*
X21120Y-21800D02*
X21120Y-21500D01*
X20949Y-21800D01*
X20949Y-21500D01*
X20806Y-21800D02*
X20806Y-21500D01*
X20735Y-21500D01*
X20692Y-21514D01*
X20663Y-21543D01*
X20649Y-21571D01*
X20635Y-21629D01*
X20635Y-21671D01*
X20649Y-21729D01*
X20663Y-21757D01*
X20692Y-21786D01*
X20735Y-21800D01*
X20806Y-21800D01*
X21848Y-22354D02*
X21877Y-22340D01*
X21920Y-22340D01*
X21963Y-22354D01*
X21991Y-22383D01*
X22005Y-22411D01*
X22020Y-22469D01*
X22020Y-22511D01*
X22005Y-22569D01*
X21991Y-22597D01*
X21963Y-22626D01*
X21920Y-22640D01*
X21891Y-22640D01*
X21848Y-22626D01*
X21834Y-22611D01*
X21834Y-22511D01*
X21891Y-22511D01*
X21705Y-22640D02*
X21705Y-22340D01*
X21591Y-22340D01*
X21563Y-22354D01*
X21548Y-22369D01*
X21534Y-22397D01*
X21534Y-22440D01*
X21548Y-22469D01*
X21563Y-22483D01*
X21591Y-22497D01*
X21705Y-22497D01*
X21405Y-22640D02*
X21405Y-22340D01*
X21206Y-22340D02*
X21148Y-22340D01*
X21120Y-22354D01*
X21091Y-22383D01*
X21077Y-22440D01*
X21077Y-22540D01*
X21091Y-22597D01*
X21120Y-22626D01*
X21148Y-22640D01*
X21206Y-22640D01*
X21234Y-22626D01*
X21263Y-22597D01*
X21277Y-22540D01*
X21277Y-22440D01*
X21263Y-22383D01*
X21234Y-22354D01*
X21206Y-22340D01*
X20891Y-22340D02*
X20863Y-22340D01*
X20834Y-22354D01*
X20820Y-22369D01*
X20805Y-22397D01*
X20791Y-22454D01*
X20791Y-22526D01*
X20805Y-22583D01*
X20820Y-22611D01*
X20834Y-22626D01*
X20863Y-22640D01*
X20891Y-22640D01*
X20920Y-22626D01*
X20934Y-22611D01*
X20948Y-22583D01*
X20963Y-22526D01*
X20963Y-22454D01*
X20948Y-22397D01*
X20934Y-22369D01*
X20920Y-22354D01*
X20891Y-22340D01*
X21581Y-23278D02*
X21581Y-23521D01*
X21567Y-23549D01*
X21553Y-23564D01*
X21524Y-23578D01*
X21467Y-23578D01*
X21438Y-23564D01*
X21424Y-23549D01*
X21410Y-23521D01*
X21410Y-23278D01*
X21095Y-23578D02*
X21195Y-23435D01*
X21267Y-23578D02*
X21267Y-23278D01*
X21153Y-23278D01*
X21124Y-23292D01*
X21110Y-23307D01*
X21095Y-23335D01*
X21095Y-23378D01*
X21110Y-23407D01*
X21124Y-23421D01*
X21153Y-23435D01*
X21267Y-23435D01*
X20995Y-23278D02*
X20795Y-23578D01*
X20795Y-23278D02*
X20995Y-23578D01*
X21510Y-24118D02*
X21510Y-24361D01*
X21496Y-24389D01*
X21482Y-24404D01*
X21453Y-24418D01*
X21396Y-24418D01*
X21367Y-24404D01*
X21353Y-24389D01*
X21339Y-24361D01*
X21339Y-24118D01*
X21239Y-24118D02*
X21067Y-24118D01*
X21153Y-24418D02*
X21153Y-24118D01*
X20996Y-24118D02*
X20796Y-24418D01*
X20796Y-24118D02*
X20996Y-24418D01*
X21497Y-24853D02*
X21311Y-24853D01*
X21411Y-24967D01*
X21368Y-24967D01*
X21339Y-24982D01*
X21325Y-24996D01*
X21311Y-25024D01*
X21311Y-25096D01*
X21325Y-25124D01*
X21339Y-25139D01*
X21368Y-25153D01*
X21454Y-25153D01*
X21482Y-25139D01*
X21497Y-25124D01*
X21211Y-24953D02*
X21139Y-25153D01*
X21068Y-24953D01*
X20982Y-24853D02*
X20797Y-24853D01*
X20897Y-24967D01*
X20854Y-24967D01*
X20825Y-24982D01*
X20811Y-24996D01*
X20797Y-25024D01*
X20797Y-25096D01*
X20811Y-25124D01*
X20825Y-25139D01*
X20854Y-25153D01*
X20940Y-25153D01*
X20968Y-25139D01*
X20982Y-25124D01*
X20030Y-25893D02*
X19987Y-25907D01*
X19973Y-25921D01*
X19959Y-25950D01*
X19959Y-25993D01*
X19973Y-26021D01*
X19987Y-26036D01*
X20016Y-26050D01*
X20130Y-26050D01*
X20130Y-25750D01*
X20030Y-25750D01*
X20001Y-25764D01*
X19987Y-25779D01*
X19973Y-25807D01*
X19973Y-25836D01*
X19987Y-25864D01*
X20001Y-25879D01*
X20030Y-25893D01*
X20130Y-25893D01*
X19844Y-25964D02*
X19701Y-25964D01*
X19873Y-26050D02*
X19773Y-25750D01*
X19673Y-26050D01*
X19616Y-25750D02*
X19444Y-25750D01*
X19530Y-26050D02*
X19530Y-25750D01*
G54D12*
X28718Y-19360D02*
X30096Y-20738D01*
X28718Y-27825D02*
X30096Y-26447D01*
G54D14*
X23036Y-26075D02*
X22136Y-26075D01*
X22136Y-26075D02*
X22136Y-26575D01*
X22136Y-26575D02*
X23036Y-26575D01*
X23036Y-26575D02*
X23036Y-26075D01*
X22149Y-27147D02*
X23049Y-27147D01*
X23049Y-27147D02*
X23049Y-26647D01*
X23049Y-26647D02*
X22149Y-26647D01*
X22149Y-26647D02*
X22149Y-27147D01*
G54D11*
X27205Y-22422D02*
X27205Y-22565D01*
X27291Y-22394D02*
X26991Y-22494D01*
X27291Y-22594D01*
X26991Y-22651D02*
X27291Y-22751D01*
X26991Y-22851D01*
X27291Y-23122D02*
X27148Y-23022D01*
X27291Y-22951D02*
X26991Y-22951D01*
X26991Y-23065D01*
X27005Y-23094D01*
X27020Y-23108D01*
X27048Y-23122D01*
X27091Y-23122D01*
X27120Y-23108D01*
X27134Y-23094D01*
X27148Y-23065D01*
X27148Y-22951D01*
X27291Y-23251D02*
X26991Y-23251D01*
X27277Y-23380D02*
X27291Y-23422D01*
X27291Y-23494D01*
X27277Y-23522D01*
X27262Y-23537D01*
X27234Y-23551D01*
X27205Y-23551D01*
X27177Y-23537D01*
X27162Y-23522D01*
X27148Y-23494D01*
X27134Y-23437D01*
X27120Y-23408D01*
X27105Y-23394D01*
X27077Y-23380D01*
X27048Y-23380D01*
X27020Y-23394D01*
X27005Y-23408D01*
X26991Y-23437D01*
X26991Y-23508D01*
X27005Y-23551D01*
X27291Y-23680D02*
X26991Y-23680D01*
X26991Y-23794D01*
X27005Y-23822D01*
X27020Y-23837D01*
X27048Y-23851D01*
X27091Y-23851D01*
X27120Y-23837D01*
X27134Y-23822D01*
X27148Y-23794D01*
X27148Y-23680D01*
X26991Y-24108D02*
X26991Y-24051D01*
X27005Y-24022D01*
X27020Y-24008D01*
X27062Y-23980D01*
X27120Y-23965D01*
X27234Y-23965D01*
X27262Y-23980D01*
X27277Y-23994D01*
X27291Y-24022D01*
X27291Y-24080D01*
X27277Y-24108D01*
X27262Y-24122D01*
X27234Y-24137D01*
X27162Y-24137D01*
X27134Y-24122D01*
X27120Y-24108D01*
X27105Y-24080D01*
X27105Y-24022D01*
X27120Y-23994D01*
X27134Y-23980D01*
X27162Y-23965D01*
X19781Y-23205D02*
X19781Y-23305D01*
X19938Y-23348D02*
X19938Y-23205D01*
X19638Y-23205D01*
X19638Y-23348D01*
X19924Y-23462D02*
X19938Y-23505D01*
X19938Y-23577D01*
X19924Y-23605D01*
X19909Y-23619D01*
X19881Y-23634D01*
X19852Y-23634D01*
X19824Y-23619D01*
X19809Y-23605D01*
X19795Y-23577D01*
X19781Y-23519D01*
X19767Y-23491D01*
X19752Y-23477D01*
X19724Y-23462D01*
X19695Y-23462D01*
X19667Y-23477D01*
X19652Y-23491D01*
X19638Y-23519D01*
X19638Y-23591D01*
X19652Y-23634D01*
X19938Y-23762D02*
X19638Y-23762D01*
X19638Y-23877D01*
X19652Y-23905D01*
X19667Y-23919D01*
X19695Y-23934D01*
X19738Y-23934D01*
X19767Y-23919D01*
X19781Y-23905D01*
X19795Y-23877D01*
X19795Y-23762D01*
X19967Y-23991D02*
X19967Y-24219D01*
X19638Y-24291D02*
X19881Y-24291D01*
X19909Y-24305D01*
X19924Y-24319D01*
X19938Y-24348D01*
X19938Y-24405D01*
X19924Y-24434D01*
X19909Y-24448D01*
X19881Y-24462D01*
X19638Y-24462D01*
X19852Y-24591D02*
X19852Y-24734D01*
X19938Y-24562D02*
X19638Y-24662D01*
X19938Y-24762D01*
X19938Y-25034D02*
X19795Y-24934D01*
X19938Y-24862D02*
X19638Y-24862D01*
X19638Y-24977D01*
X19652Y-25005D01*
X19667Y-25019D01*
X19695Y-25034D01*
X19738Y-25034D01*
X19767Y-25019D01*
X19781Y-25005D01*
X19795Y-24977D01*
X19795Y-24862D01*
X19638Y-25119D02*
X19638Y-25291D01*
X19938Y-25205D02*
X19638Y-25205D01*
X19163Y-20404D02*
X18951Y-20192D01*
X18870Y-20272D01*
X18860Y-20303D01*
X18860Y-20323D01*
X18870Y-20353D01*
X18900Y-20384D01*
X18931Y-20394D01*
X18951Y-20394D01*
X18981Y-20384D01*
X19062Y-20303D01*
X18769Y-20414D02*
X18749Y-20414D01*
X18718Y-20424D01*
X18668Y-20475D01*
X18658Y-20505D01*
X18658Y-20525D01*
X18668Y-20555D01*
X18688Y-20576D01*
X18729Y-20596D01*
X18971Y-20596D01*
X18840Y-20727D01*
X18579Y-20961D02*
X18367Y-20749D01*
X18448Y-20971D01*
X18226Y-20890D01*
X18438Y-21102D01*
X18084Y-21031D02*
X18064Y-21052D01*
X18054Y-21082D01*
X18054Y-21102D01*
X18064Y-21132D01*
X18094Y-21183D01*
X18145Y-21233D01*
X18195Y-21264D01*
X18226Y-21274D01*
X18246Y-21274D01*
X18276Y-21264D01*
X18296Y-21243D01*
X18306Y-21213D01*
X18306Y-21193D01*
X18296Y-21163D01*
X18266Y-21112D01*
X18215Y-21062D01*
X18165Y-21031D01*
X18135Y-21021D01*
X18114Y-21021D01*
X18084Y-21031D01*
X30898Y-22624D02*
X31024Y-22352D01*
X30843Y-22504D01*
X30843Y-22268D01*
X30716Y-22539D01*
X30444Y-22413D02*
X30600Y-22485D01*
X30522Y-22449D02*
X30649Y-22177D01*
X30657Y-22228D01*
X30670Y-22266D01*
X30690Y-22291D01*
X30805Y-24924D02*
X30678Y-24652D01*
X30678Y-24888D01*
X30497Y-24737D01*
X30624Y-25008D01*
X30392Y-24817D02*
X30373Y-24810D01*
X30342Y-24809D01*
X30277Y-24839D01*
X30257Y-24864D01*
X30250Y-24883D01*
X30249Y-24915D01*
X30261Y-24941D01*
X30292Y-24974D01*
X30520Y-25057D01*
X30352Y-25135D01*
X19396Y-27322D02*
X19608Y-27110D01*
X19386Y-27191D01*
X19467Y-26969D01*
X19255Y-27181D01*
X19386Y-26888D02*
X19255Y-26756D01*
X19245Y-26908D01*
X19215Y-26878D01*
X19184Y-26868D01*
X19164Y-26868D01*
X19134Y-26878D01*
X19083Y-26928D01*
X19073Y-26958D01*
X19073Y-26979D01*
X19083Y-27009D01*
X19144Y-27070D01*
X19174Y-27080D01*
X19194Y-27080D01*
X32382Y-22340D02*
X32339Y-22354D01*
X32325Y-22368D01*
X32310Y-22397D01*
X32310Y-22440D01*
X32325Y-22468D01*
X32339Y-22483D01*
X32368Y-22497D01*
X32482Y-22497D01*
X32482Y-22197D01*
X32382Y-22197D01*
X32353Y-22211D01*
X32339Y-22226D01*
X32325Y-22254D01*
X32325Y-22283D01*
X32339Y-22311D01*
X32353Y-22326D01*
X32382Y-22340D01*
X32482Y-22340D01*
X32182Y-22383D02*
X31953Y-22383D01*
X32522Y-24615D02*
X32479Y-24629D01*
X32465Y-24643D01*
X32450Y-24672D01*
X32450Y-24715D01*
X32465Y-24743D01*
X32479Y-24758D01*
X32508Y-24772D01*
X32622Y-24772D01*
X32622Y-24472D01*
X32522Y-24472D01*
X32493Y-24486D01*
X32479Y-24501D01*
X32465Y-24529D01*
X32465Y-24558D01*
X32479Y-24586D01*
X32493Y-24601D01*
X32522Y-24615D01*
X32622Y-24615D01*
X32322Y-24658D02*
X32093Y-24658D01*
X32208Y-24772D02*
X32208Y-24543D01*
X23274Y-23557D02*
X23574Y-23628D01*
X23360Y-23685D01*
X23574Y-23742D01*
X23274Y-23814D01*
X23560Y-23914D02*
X23574Y-23957D01*
X23574Y-24028D01*
X23560Y-24057D01*
X23545Y-24071D01*
X23517Y-24085D01*
X23488Y-24085D01*
X23460Y-24071D01*
X23445Y-24057D01*
X23431Y-24028D01*
X23417Y-23971D01*
X23403Y-23942D01*
X23388Y-23928D01*
X23360Y-23914D01*
X23331Y-23914D01*
X23303Y-23928D01*
X23288Y-23942D01*
X23274Y-23971D01*
X23274Y-24042D01*
X23288Y-24085D01*
X23303Y-24200D02*
X23288Y-24214D01*
X23274Y-24242D01*
X23274Y-24314D01*
X23288Y-24342D01*
X23303Y-24357D01*
X23331Y-24371D01*
X23360Y-24371D01*
X23403Y-24357D01*
X23574Y-24185D01*
X23574Y-24371D01*
X23403Y-24542D02*
X23388Y-24514D01*
X23374Y-24500D01*
X23345Y-24485D01*
X23331Y-24485D01*
X23303Y-24500D01*
X23288Y-24514D01*
X23274Y-24542D01*
X23274Y-24600D01*
X23288Y-24628D01*
X23303Y-24642D01*
X23331Y-24657D01*
X23345Y-24657D01*
X23374Y-24642D01*
X23388Y-24628D01*
X23403Y-24600D01*
X23403Y-24542D01*
X23417Y-24514D01*
X23431Y-24500D01*
X23460Y-24485D01*
X23517Y-24485D01*
X23545Y-24500D01*
X23560Y-24514D01*
X23574Y-24542D01*
X23574Y-24600D01*
X23560Y-24628D01*
X23545Y-24642D01*
X23517Y-24657D01*
X23460Y-24657D01*
X23431Y-24642D01*
X23417Y-24628D01*
X23403Y-24600D01*
X23574Y-24942D02*
X23574Y-24771D01*
X23574Y-24857D02*
X23274Y-24857D01*
X23317Y-24828D01*
X23345Y-24800D01*
X23360Y-24771D01*
X23303Y-25057D02*
X23288Y-25071D01*
X23274Y-25100D01*
X23274Y-25171D01*
X23288Y-25200D01*
X23303Y-25214D01*
X23331Y-25228D01*
X23360Y-25228D01*
X23403Y-25214D01*
X23574Y-25042D01*
X23574Y-25228D01*
X25244Y-19807D02*
X25201Y-19821D01*
X25129Y-19821D01*
X25101Y-19807D01*
X25087Y-19792D01*
X25072Y-19764D01*
X25072Y-19735D01*
X25087Y-19707D01*
X25101Y-19692D01*
X25129Y-19678D01*
X25187Y-19664D01*
X25215Y-19650D01*
X25229Y-19635D01*
X25244Y-19607D01*
X25244Y-19578D01*
X25229Y-19550D01*
X25215Y-19535D01*
X25187Y-19521D01*
X25115Y-19521D01*
X25072Y-19535D01*
X24944Y-19821D02*
X24944Y-19521D01*
X24872Y-19521D01*
X24830Y-19535D01*
X24801Y-19564D01*
X24787Y-19592D01*
X24772Y-19650D01*
X24772Y-19692D01*
X24787Y-19750D01*
X24801Y-19778D01*
X24830Y-19807D01*
X24872Y-19821D01*
X24944Y-19821D01*
X24658Y-19735D02*
X24515Y-19735D01*
X24687Y-19821D02*
X24587Y-19521D01*
X24487Y-19821D01*
X26237Y-19787D02*
X26194Y-19801D01*
X26122Y-19801D01*
X26094Y-19787D01*
X26079Y-19772D01*
X26065Y-19744D01*
X26065Y-19715D01*
X26079Y-19687D01*
X26094Y-19672D01*
X26122Y-19658D01*
X26179Y-19644D01*
X26208Y-19630D01*
X26222Y-19615D01*
X26237Y-19587D01*
X26237Y-19558D01*
X26222Y-19530D01*
X26208Y-19515D01*
X26179Y-19501D01*
X26108Y-19501D01*
X26065Y-19515D01*
X25765Y-19772D02*
X25780Y-19787D01*
X25822Y-19801D01*
X25851Y-19801D01*
X25894Y-19787D01*
X25922Y-19758D01*
X25937Y-19730D01*
X25951Y-19672D01*
X25951Y-19630D01*
X25937Y-19572D01*
X25922Y-19544D01*
X25894Y-19515D01*
X25851Y-19501D01*
X25822Y-19501D01*
X25780Y-19515D01*
X25765Y-19530D01*
X25494Y-19801D02*
X25637Y-19801D01*
X25637Y-19501D01*
X26949Y-19522D02*
X26763Y-19522D01*
X26863Y-19636D01*
X26820Y-19636D01*
X26792Y-19651D01*
X26778Y-19665D01*
X26763Y-19693D01*
X26763Y-19765D01*
X26778Y-19793D01*
X26792Y-19808D01*
X26820Y-19822D01*
X26906Y-19822D01*
X26935Y-19808D01*
X26949Y-19793D01*
X26678Y-19522D02*
X26578Y-19822D01*
X26478Y-19522D01*
X24078Y-19545D02*
X24107Y-19531D01*
X24150Y-19531D01*
X24192Y-19545D01*
X24221Y-19574D01*
X24235Y-19602D01*
X24250Y-19660D01*
X24250Y-19702D01*
X24235Y-19760D01*
X24221Y-19788D01*
X24192Y-19817D01*
X24150Y-19831D01*
X24121Y-19831D01*
X24078Y-19817D01*
X24064Y-19802D01*
X24064Y-19702D01*
X24121Y-19702D01*
X23935Y-19831D02*
X23935Y-19531D01*
X23764Y-19831D01*
X23764Y-19531D01*
X23621Y-19831D02*
X23621Y-19531D01*
X23550Y-19531D01*
X23507Y-19545D01*
X23478Y-19574D01*
X23464Y-19602D01*
X23450Y-19660D01*
X23450Y-19702D01*
X23464Y-19760D01*
X23478Y-19788D01*
X23507Y-19817D01*
X23550Y-19831D01*
X23621Y-19831D01*
X19245Y-23299D02*
X19245Y-23156D01*
X18945Y-23156D01*
X19088Y-23399D02*
X19088Y-23499D01*
X19245Y-23542D02*
X19245Y-23399D01*
X18945Y-23399D01*
X18945Y-23542D01*
X19245Y-23670D02*
X18945Y-23670D01*
X18945Y-23742D01*
X18959Y-23784D01*
X18988Y-23813D01*
X19016Y-23827D01*
X19074Y-23842D01*
X19116Y-23842D01*
X19174Y-23827D01*
X19202Y-23813D01*
X19231Y-23784D01*
X19245Y-23742D01*
X19245Y-23670D01*
X19246Y-22307D02*
X19246Y-22164D01*
X18946Y-22164D01*
X19089Y-22407D02*
X19089Y-22507D01*
X19246Y-22550D02*
X19246Y-22407D01*
X18946Y-22407D01*
X18946Y-22550D01*
X19246Y-22678D02*
X18946Y-22678D01*
X18946Y-22750D01*
X18960Y-22792D01*
X18989Y-22821D01*
X19017Y-22835D01*
X19075Y-22850D01*
X19117Y-22850D01*
X19175Y-22835D01*
X19203Y-22821D01*
X19232Y-22792D01*
X19246Y-22750D01*
X19246Y-22678D01*
X18645Y-24951D02*
X18674Y-24937D01*
X18717Y-24937D01*
X18759Y-24951D01*
X18788Y-24980D01*
X18802Y-25008D01*
X18817Y-25066D01*
X18817Y-25108D01*
X18802Y-25166D01*
X18788Y-25194D01*
X18759Y-25223D01*
X18717Y-25237D01*
X18688Y-25237D01*
X18645Y-25223D01*
X18631Y-25208D01*
X18631Y-25108D01*
X18688Y-25108D01*
X18502Y-25237D02*
X18502Y-24937D01*
X18331Y-25237D01*
X18331Y-24937D01*
X18188Y-25237D02*
X18188Y-24937D01*
X18117Y-24937D01*
X18074Y-24951D01*
X18045Y-24980D01*
X18031Y-25008D01*
X18017Y-25066D01*
X18017Y-25108D01*
X18031Y-25166D01*
X18045Y-25194D01*
X18074Y-25223D01*
X18117Y-25237D01*
X18188Y-25237D01*
X28494Y-19688D02*
X28594Y-19688D01*
X28594Y-19845D02*
X28594Y-19545D01*
X28451Y-19545D01*
X28194Y-19845D02*
X28337Y-19845D01*
X28337Y-19545D01*
X28137Y-19545D02*
X27966Y-19545D01*
X28051Y-19845D02*
X28051Y-19545D01*
X27766Y-19688D02*
X27723Y-19702D01*
X27709Y-19716D01*
X27694Y-19745D01*
X27694Y-19788D01*
X27709Y-19816D01*
X27723Y-19831D01*
X27751Y-19845D01*
X27866Y-19845D01*
X27866Y-19545D01*
X27766Y-19545D01*
X27737Y-19559D01*
X27723Y-19574D01*
X27709Y-19602D01*
X27709Y-19631D01*
X27723Y-19659D01*
X27737Y-19674D01*
X27766Y-19688D01*
X27866Y-19688D01*
X27580Y-19759D02*
X27437Y-19759D01*
X27609Y-19845D02*
X27509Y-19545D01*
X27409Y-19845D01*
X27351Y-19545D02*
X27180Y-19545D01*
X27266Y-19845D02*
X27266Y-19545D01*
X23423Y-26485D02*
X23523Y-26342D01*
X23594Y-26485D02*
X23594Y-26185D01*
X23480Y-26185D01*
X23451Y-26199D01*
X23437Y-26214D01*
X23423Y-26242D01*
X23423Y-26285D01*
X23437Y-26314D01*
X23451Y-26328D01*
X23480Y-26342D01*
X23594Y-26342D01*
X23165Y-26285D02*
X23165Y-26485D01*
X23237Y-26171D02*
X23308Y-26385D01*
X23123Y-26385D01*
X23455Y-27054D02*
X23555Y-26911D01*
X23626Y-27054D02*
X23626Y-26754D01*
X23512Y-26754D01*
X23483Y-26768D01*
X23469Y-26783D01*
X23455Y-26811D01*
X23455Y-26854D01*
X23469Y-26883D01*
X23483Y-26897D01*
X23512Y-26911D01*
X23626Y-26911D01*
X23183Y-26754D02*
X23326Y-26754D01*
X23340Y-26897D01*
X23326Y-26883D01*
X23297Y-26868D01*
X23226Y-26868D01*
X23197Y-26883D01*
X23183Y-26897D01*
X23169Y-26925D01*
X23169Y-26997D01*
X23183Y-27025D01*
X23197Y-27040D01*
X23226Y-27054D01*
X23297Y-27054D01*
X23326Y-27040D01*
X23340Y-27025D01*
X22551Y-27585D02*
X22551Y-27285D01*
X22380Y-27585D01*
X22380Y-27285D01*
X22237Y-27585D02*
X22237Y-27285D01*
X22123Y-27285D01*
X22094Y-27299D01*
X22080Y-27314D01*
X22066Y-27342D01*
X22066Y-27385D01*
X22080Y-27414D01*
X22094Y-27428D01*
X22123Y-27442D01*
X22237Y-27442D01*
X21848Y-24679D02*
X21848Y-24851D01*
X22148Y-24765D02*
X21848Y-24765D01*
X21848Y-25008D02*
X21848Y-25065D01*
X21862Y-25094D01*
X21891Y-25122D01*
X21948Y-25136D01*
X22048Y-25136D01*
X22105Y-25122D01*
X22134Y-25094D01*
X22148Y-25065D01*
X22148Y-25008D01*
X22134Y-24979D01*
X22105Y-24951D01*
X22048Y-24936D01*
X21948Y-24936D01*
X21891Y-24951D01*
X21862Y-24979D01*
X21848Y-25008D01*
X21848Y-25265D02*
X22091Y-25265D01*
X22119Y-25279D01*
X22134Y-25294D01*
X22148Y-25322D01*
X22148Y-25379D01*
X22134Y-25408D01*
X22119Y-25422D01*
X22091Y-25436D01*
X21848Y-25436D01*
X21848Y-25536D02*
X21848Y-25708D01*
X22148Y-25622D02*
X21848Y-25622D01*
X29323Y-21113D02*
X29323Y-21256D01*
X29409Y-21085D02*
X29109Y-21185D01*
X29409Y-21285D01*
X29109Y-21342D02*
X29409Y-21442D01*
X29109Y-21542D01*
X29409Y-21813D02*
X29266Y-21713D01*
X29409Y-21642D02*
X29109Y-21642D01*
X29109Y-21756D01*
X29123Y-21785D01*
X29138Y-21799D01*
X29166Y-21813D01*
X29209Y-21813D01*
X29238Y-21799D01*
X29252Y-21785D01*
X29266Y-21756D01*
X29266Y-21642D01*
X29323Y-21927D02*
X29323Y-22070D01*
X29409Y-21899D02*
X29109Y-21999D01*
X29409Y-22099D01*
X29109Y-22256D02*
X29109Y-22285D01*
X29123Y-22313D01*
X29138Y-22327D01*
X29166Y-22342D01*
X29223Y-22356D01*
X29295Y-22356D01*
X29352Y-22342D01*
X29380Y-22327D01*
X29395Y-22313D01*
X29409Y-22285D01*
X29409Y-22256D01*
X29395Y-22227D01*
X29380Y-22213D01*
X29352Y-22199D01*
X29295Y-22185D01*
X29223Y-22185D01*
X29166Y-22199D01*
X29138Y-22213D01*
X29123Y-22227D01*
X29109Y-22256D01*
M02*
