G04 (created by PCBNEW (2013-jul-07)-stable) date Mon 22 Jun 2015 08:36:27 PM EDT*
%MOIN*%
G04 Gerber Fmt 3.4, Leading zero omitted, Abs format*
%FSLAX34Y34*%
G01*
G70*
G90*
G04 APERTURE LIST*
%ADD10C,0.00590551*%
%ADD11C,0.00787402*%
%ADD12C,0.0065*%
%ADD13C,0.00393701*%
%ADD14C,0.011811*%
%ADD15C,0.0075*%
%ADD16C,0.0047*%
%ADD17C,0.005*%
%ADD18C,0.006*%
%ADD19C,0.0039*%
G04 APERTURE END LIST*
G54D10*
G54D11*
X20447Y-21247D02*
X20578Y-21247D01*
G54D12*
X22487Y-19534D02*
X22564Y-19854D01*
X22625Y-19625D01*
X22685Y-19854D01*
X22762Y-19534D01*
X22884Y-19854D02*
X22884Y-19641D01*
X22884Y-19534D02*
X22868Y-19549D01*
X22884Y-19565D01*
X22899Y-19549D01*
X22884Y-19534D01*
X22884Y-19565D01*
X22990Y-19641D02*
X23112Y-19641D01*
X23036Y-19854D02*
X23036Y-19580D01*
X23051Y-19549D01*
X23082Y-19534D01*
X23112Y-19534D01*
X23265Y-19854D02*
X23234Y-19839D01*
X23219Y-19808D01*
X23219Y-19534D01*
X23386Y-19854D02*
X23386Y-19641D01*
X23386Y-19534D02*
X23371Y-19549D01*
X23386Y-19565D01*
X23402Y-19549D01*
X23386Y-19534D01*
X23386Y-19565D01*
X23661Y-19839D02*
X23630Y-19854D01*
X23569Y-19854D01*
X23539Y-19839D01*
X23524Y-19808D01*
X23524Y-19686D01*
X23539Y-19656D01*
X23569Y-19641D01*
X23630Y-19641D01*
X23661Y-19656D01*
X23676Y-19686D01*
X23676Y-19717D01*
X23524Y-19747D01*
X23813Y-19854D02*
X23813Y-19641D01*
X23813Y-19702D02*
X23828Y-19671D01*
X23844Y-19656D01*
X23874Y-19641D01*
X23905Y-19641D01*
X24346Y-19976D02*
X24331Y-19961D01*
X24301Y-19915D01*
X24285Y-19885D01*
X24270Y-19839D01*
X24255Y-19763D01*
X24255Y-19702D01*
X24270Y-19625D01*
X24285Y-19580D01*
X24301Y-19549D01*
X24331Y-19504D01*
X24346Y-19488D01*
X24651Y-19854D02*
X24545Y-19702D01*
X24468Y-19854D02*
X24468Y-19534D01*
X24590Y-19534D01*
X24621Y-19549D01*
X24636Y-19565D01*
X24651Y-19595D01*
X24651Y-19641D01*
X24636Y-19671D01*
X24621Y-19686D01*
X24590Y-19702D01*
X24468Y-19702D01*
X24910Y-19839D02*
X24880Y-19854D01*
X24819Y-19854D01*
X24788Y-19839D01*
X24773Y-19808D01*
X24773Y-19686D01*
X24788Y-19656D01*
X24819Y-19641D01*
X24880Y-19641D01*
X24910Y-19656D01*
X24925Y-19686D01*
X24925Y-19717D01*
X24773Y-19747D01*
X25032Y-19641D02*
X25108Y-19854D01*
X25185Y-19641D01*
X25657Y-19686D02*
X25703Y-19702D01*
X25718Y-19717D01*
X25733Y-19747D01*
X25733Y-19793D01*
X25718Y-19824D01*
X25703Y-19839D01*
X25672Y-19854D01*
X25550Y-19854D01*
X25550Y-19534D01*
X25657Y-19534D01*
X25687Y-19549D01*
X25703Y-19565D01*
X25718Y-19595D01*
X25718Y-19625D01*
X25703Y-19656D01*
X25687Y-19671D01*
X25657Y-19686D01*
X25550Y-19686D01*
X25840Y-19976D02*
X25855Y-19961D01*
X25885Y-19915D01*
X25901Y-19885D01*
X25916Y-19839D01*
X25931Y-19763D01*
X25931Y-19702D01*
X25916Y-19625D01*
X25901Y-19580D01*
X25885Y-19549D01*
X25855Y-19504D01*
X25840Y-19488D01*
G54D11*
X28950Y-26650D02*
X28750Y-26650D01*
X29150Y-26450D02*
X28950Y-26650D01*
X29150Y-26250D02*
X29150Y-26450D01*
X29350Y-26250D02*
X29150Y-26050D01*
X29150Y-26250D02*
X29350Y-26250D01*
X29150Y-26050D02*
X29150Y-26250D01*
X29150Y-26250D02*
X29150Y-26050D01*
X28950Y-26250D02*
X29150Y-26250D01*
X28750Y-26450D02*
X28950Y-26250D01*
X28750Y-26650D02*
X28750Y-26450D01*
G54D13*
X28718Y-19360D02*
X19662Y-19360D01*
X28718Y-27825D02*
X19662Y-27825D01*
X19662Y-27825D02*
X17891Y-26053D01*
X17891Y-21132D02*
X19662Y-19360D01*
G54D14*
X19893Y-27349D02*
X20212Y-27030D01*
X19816Y-20939D02*
X19497Y-20620D01*
X30630Y-21272D02*
X30440Y-21679D01*
X30488Y-25412D02*
X30678Y-25819D01*
G54D15*
X28654Y-23517D02*
X28825Y-23517D01*
X28740Y-23517D02*
X28740Y-23817D01*
X28768Y-23774D01*
X28797Y-23746D01*
X28825Y-23731D01*
G54D13*
X32753Y-25167D02*
X30096Y-26447D01*
X32753Y-22018D02*
X32753Y-25167D01*
X30096Y-20738D02*
X32753Y-22018D01*
X17891Y-21132D02*
X17891Y-26053D01*
X28718Y-19360D02*
X30096Y-20738D01*
X28718Y-27825D02*
X30096Y-26447D01*
G54D10*
X28127Y-24022D02*
X28481Y-24022D01*
X28481Y-24022D02*
X28481Y-23668D01*
X28127Y-23943D02*
X28166Y-23943D01*
X28402Y-23668D02*
X28402Y-23943D01*
X28402Y-23943D02*
X28166Y-23943D01*
X28324Y-22290D02*
X28324Y-22093D01*
X28324Y-22093D02*
X28127Y-22093D01*
X26591Y-22093D02*
X26788Y-22093D01*
X26591Y-22093D02*
X26591Y-22290D01*
X26788Y-23865D02*
X26591Y-23865D01*
X26591Y-23865D02*
X26591Y-23668D01*
X28324Y-23865D02*
X28324Y-23668D01*
X28324Y-23865D02*
X28127Y-23865D01*
G54D16*
X29530Y-23520D02*
X29530Y-22320D01*
X29530Y-22320D02*
X29830Y-22320D01*
X29830Y-22320D02*
X29830Y-23520D01*
X29830Y-23520D02*
X29530Y-23520D01*
X29534Y-22168D02*
X29534Y-20968D01*
X29534Y-20968D02*
X29834Y-20968D01*
X29834Y-20968D02*
X29834Y-22168D01*
X29834Y-22168D02*
X29534Y-22168D01*
X29520Y-24800D02*
X29520Y-23600D01*
X29520Y-23600D02*
X29820Y-23600D01*
X29820Y-23600D02*
X29820Y-24800D01*
X29820Y-24800D02*
X29520Y-24800D01*
X29520Y-26120D02*
X29520Y-24920D01*
X29520Y-24920D02*
X29820Y-24920D01*
X29820Y-24920D02*
X29820Y-26120D01*
X29820Y-26120D02*
X29520Y-26120D01*
G54D17*
X27549Y-24516D02*
X28249Y-24516D01*
X28249Y-24516D02*
X28249Y-25716D01*
X28249Y-25716D02*
X27549Y-25716D01*
X27549Y-25716D02*
X27549Y-24516D01*
X23038Y-26076D02*
X23738Y-26076D01*
X23738Y-26076D02*
X23738Y-27276D01*
X23738Y-27276D02*
X23038Y-27276D01*
X23038Y-27276D02*
X23038Y-26076D01*
X23440Y-20577D02*
X23440Y-20527D01*
X23440Y-20527D02*
X21340Y-20527D01*
X21340Y-22027D02*
X23440Y-22027D01*
X23440Y-22027D02*
X23440Y-20577D01*
X23440Y-21477D02*
X23240Y-21477D01*
X23240Y-21477D02*
X23240Y-21077D01*
X23240Y-21077D02*
X23440Y-21077D01*
X21340Y-22027D02*
X21340Y-20527D01*
X31070Y-24550D02*
X31970Y-24550D01*
X31970Y-24550D02*
X31970Y-23900D01*
X31070Y-23200D02*
X31070Y-22550D01*
X31070Y-22550D02*
X31970Y-22550D01*
X31970Y-22550D02*
X31970Y-23200D01*
X31070Y-23900D02*
X31070Y-24550D01*
X21272Y-26557D02*
X22172Y-26557D01*
X22172Y-26557D02*
X22172Y-27057D01*
X22172Y-27057D02*
X21272Y-27057D01*
X21272Y-27057D02*
X21272Y-26557D01*
X24779Y-25431D02*
X25679Y-25431D01*
X25679Y-25431D02*
X25679Y-25931D01*
X25679Y-25931D02*
X24779Y-25931D01*
X24779Y-25931D02*
X24779Y-25431D01*
X23981Y-22326D02*
X23981Y-21426D01*
X23981Y-21426D02*
X24481Y-21426D01*
X24481Y-21426D02*
X24481Y-22326D01*
X24481Y-22326D02*
X23981Y-22326D01*
X24194Y-26114D02*
X24194Y-25214D01*
X24194Y-25214D02*
X24694Y-25214D01*
X24694Y-25214D02*
X24694Y-26114D01*
X24694Y-26114D02*
X24194Y-26114D01*
X27052Y-25188D02*
X27052Y-26088D01*
X27052Y-26088D02*
X26552Y-26088D01*
X26552Y-26088D02*
X26552Y-25188D01*
X26552Y-25188D02*
X27052Y-25188D01*
X27869Y-21778D02*
X26969Y-21778D01*
X26969Y-21778D02*
X26969Y-21278D01*
X26969Y-21278D02*
X27869Y-21278D01*
X27869Y-21278D02*
X27869Y-21778D01*
X26329Y-25216D02*
X26329Y-26116D01*
X26329Y-26116D02*
X25829Y-26116D01*
X25829Y-26116D02*
X25829Y-25216D01*
X25829Y-25216D02*
X26329Y-25216D01*
X20938Y-26348D02*
X20038Y-26348D01*
X20038Y-26348D02*
X20038Y-25848D01*
X20038Y-25848D02*
X20938Y-25848D01*
X20938Y-25848D02*
X20938Y-26348D01*
X23057Y-25268D02*
X23057Y-24368D01*
X23057Y-24368D02*
X23557Y-24368D01*
X23557Y-24368D02*
X23557Y-25268D01*
X23557Y-25268D02*
X23057Y-25268D01*
X24212Y-27153D02*
X24212Y-26253D01*
X24212Y-26253D02*
X24712Y-26253D01*
X24712Y-26253D02*
X24712Y-27153D01*
X24712Y-27153D02*
X24212Y-27153D01*
X21337Y-25956D02*
X21337Y-26856D01*
X21337Y-26856D02*
X20837Y-26856D01*
X20837Y-26856D02*
X20837Y-25956D01*
X20837Y-25956D02*
X21337Y-25956D01*
G54D18*
X20384Y-25469D02*
X20384Y-23819D01*
X20384Y-23819D02*
X20384Y-23444D01*
X20384Y-23444D02*
X22784Y-23444D01*
X22784Y-23444D02*
X22784Y-25844D01*
X22784Y-25844D02*
X20759Y-25844D01*
X20759Y-25844D02*
X20384Y-25469D01*
G54D10*
X18119Y-24053D02*
X18119Y-24682D01*
X18852Y-24675D02*
X18852Y-24045D01*
G54D17*
X22555Y-26085D02*
X22555Y-26985D01*
X22555Y-26985D02*
X22055Y-26985D01*
X22055Y-26985D02*
X22055Y-26085D01*
X22055Y-26085D02*
X22555Y-26085D01*
X19233Y-25306D02*
X20133Y-25306D01*
X20133Y-25306D02*
X20133Y-25806D01*
X20133Y-25806D02*
X19233Y-25806D01*
X19233Y-25806D02*
X19233Y-25306D01*
X23047Y-23994D02*
X23047Y-23094D01*
X23047Y-23094D02*
X23547Y-23094D01*
X23547Y-23094D02*
X23547Y-23994D01*
X23547Y-23994D02*
X23047Y-23994D01*
G54D10*
X19249Y-23171D02*
X19879Y-23171D01*
X19871Y-22439D02*
X19241Y-22439D01*
X25891Y-24948D02*
X26048Y-24948D01*
X26048Y-24948D02*
X26048Y-24790D01*
X25969Y-24751D02*
X25969Y-24869D01*
X25969Y-24869D02*
X25851Y-24869D01*
X24473Y-23531D02*
X24394Y-23531D01*
X24394Y-23531D02*
X24394Y-23609D01*
X25812Y-23531D02*
X25891Y-23531D01*
X25891Y-23531D02*
X25891Y-23609D01*
X24473Y-24790D02*
X24394Y-24790D01*
X24394Y-24790D02*
X24394Y-24712D01*
X25812Y-24790D02*
X25891Y-24790D01*
X25891Y-24790D02*
X25891Y-24712D01*
G54D19*
X18963Y-21992D02*
G75*
G03X18963Y-21992I-49J0D01*
G74*
G01*
X19231Y-21674D02*
X18948Y-21957D01*
X18948Y-21957D02*
X18524Y-21533D01*
X18524Y-21533D02*
X18807Y-21250D01*
X19090Y-20967D02*
X19373Y-20684D01*
X19373Y-20684D02*
X19797Y-21108D01*
X19797Y-21108D02*
X19514Y-21391D01*
X32025Y-21852D02*
G75*
G03X32025Y-21852I-49J0D01*
G74*
G01*
X31568Y-21662D02*
X31930Y-21831D01*
X31930Y-21831D02*
X31676Y-22375D01*
X31676Y-22375D02*
X31314Y-22206D01*
X30951Y-22037D02*
X30589Y-21868D01*
X30589Y-21868D02*
X30843Y-21324D01*
X30843Y-21324D02*
X31205Y-21493D01*
X31832Y-24723D02*
G75*
G03X31832Y-24723I-50J0D01*
G74*
G01*
X31374Y-24913D02*
X31736Y-24744D01*
X31736Y-24744D02*
X31990Y-25288D01*
X31990Y-25288D02*
X31628Y-25457D01*
X31265Y-25626D02*
X30903Y-25795D01*
X30903Y-25795D02*
X30649Y-25251D01*
X30649Y-25251D02*
X31011Y-25082D01*
X18851Y-26401D02*
G75*
G03X18851Y-26401I-49J0D01*
G74*
G01*
X19119Y-26719D02*
X18836Y-26436D01*
X18836Y-26436D02*
X19260Y-26012D01*
X19260Y-26012D02*
X19543Y-26295D01*
X19826Y-26578D02*
X20109Y-26861D01*
X20109Y-26861D02*
X19685Y-27285D01*
X19685Y-27285D02*
X19402Y-27002D01*
X19551Y-22071D02*
G75*
G03X19551Y-22071I-50J0D01*
G74*
G01*
X19951Y-22071D02*
X19551Y-22071D01*
X19551Y-22071D02*
X19551Y-21471D01*
X19551Y-21471D02*
X19951Y-21471D01*
X20351Y-21471D02*
X20751Y-21471D01*
X20751Y-21471D02*
X20751Y-22071D01*
X20751Y-22071D02*
X20351Y-22071D01*
G54D10*
X25710Y-20826D02*
X26339Y-20826D01*
X26332Y-20093D02*
X25702Y-20093D01*
G54D19*
X27208Y-26640D02*
G75*
G03X27208Y-26640I-50J0D01*
G74*
G01*
X26708Y-26640D02*
X27108Y-26640D01*
X27108Y-26640D02*
X27108Y-27240D01*
X27108Y-27240D02*
X26708Y-27240D01*
X26308Y-27240D02*
X25908Y-27240D01*
X25908Y-27240D02*
X25908Y-26640D01*
X25908Y-26640D02*
X26308Y-26640D01*
X31052Y-24380D02*
G75*
G03X31052Y-24380I-50J0D01*
G74*
G01*
X31002Y-23930D02*
X31002Y-24330D01*
X31002Y-24330D02*
X30402Y-24330D01*
X30402Y-24330D02*
X30402Y-23930D01*
X30402Y-23530D02*
X30402Y-23130D01*
X30402Y-23130D02*
X31002Y-23130D01*
X31002Y-23130D02*
X31002Y-23530D01*
G54D10*
X24487Y-21400D02*
X24487Y-21164D01*
X24487Y-21164D02*
X24724Y-21164D01*
X24566Y-21400D02*
X24566Y-21282D01*
X24566Y-21282D02*
X24566Y-21243D01*
X24566Y-21243D02*
X24724Y-21243D01*
X25747Y-22345D02*
X25826Y-22345D01*
X25826Y-22345D02*
X25826Y-22267D01*
X25747Y-21322D02*
X25826Y-21322D01*
X25826Y-21322D02*
X25826Y-21400D01*
X24724Y-21322D02*
X24645Y-21322D01*
X24645Y-21322D02*
X24645Y-21400D01*
X24724Y-22345D02*
X24645Y-22345D01*
X24645Y-22345D02*
X24645Y-22267D01*
G54D18*
X27019Y-24193D02*
X27019Y-24436D01*
X27033Y-24464D01*
X27048Y-24479D01*
X27076Y-24493D01*
X27133Y-24493D01*
X27162Y-24479D01*
X27176Y-24464D01*
X27190Y-24436D01*
X27190Y-24193D01*
X27305Y-24193D02*
X27505Y-24193D01*
X27376Y-24493D01*
X28905Y-24184D02*
X28905Y-24041D01*
X28991Y-24212D02*
X28691Y-24112D01*
X28991Y-24012D01*
X28691Y-23955D02*
X28691Y-23784D01*
X28991Y-23869D02*
X28691Y-23869D01*
X28691Y-23727D02*
X28691Y-23555D01*
X28991Y-23641D02*
X28691Y-23641D01*
X28991Y-23455D02*
X28691Y-23455D01*
X28991Y-23312D02*
X28691Y-23312D01*
X28991Y-23141D01*
X28691Y-23141D01*
X28848Y-22941D02*
X28991Y-22941D01*
X28691Y-23041D02*
X28848Y-22941D01*
X28691Y-22841D01*
X28791Y-22612D02*
X28991Y-22612D01*
X28677Y-22684D02*
X28891Y-22755D01*
X28891Y-22570D01*
X28791Y-22327D02*
X28991Y-22327D01*
X28677Y-22398D02*
X28891Y-22470D01*
X28891Y-22284D01*
X28991Y-22012D02*
X28991Y-22184D01*
X28991Y-22098D02*
X28691Y-22098D01*
X28734Y-22127D01*
X28762Y-22155D01*
X28777Y-22184D01*
X28877Y-21884D02*
X28877Y-21655D01*
X29020Y-21312D02*
X29005Y-21341D01*
X28977Y-21370D01*
X28934Y-21412D01*
X28920Y-21441D01*
X28920Y-21470D01*
X28991Y-21455D02*
X28977Y-21484D01*
X28948Y-21512D01*
X28891Y-21527D01*
X28791Y-21527D01*
X28734Y-21512D01*
X28705Y-21484D01*
X28691Y-21455D01*
X28691Y-21398D01*
X28705Y-21370D01*
X28734Y-21341D01*
X28791Y-21327D01*
X28891Y-21327D01*
X28948Y-21341D01*
X28977Y-21370D01*
X28991Y-21398D01*
X28991Y-21455D01*
X28834Y-21098D02*
X28834Y-21198D01*
X28991Y-21198D02*
X28691Y-21198D01*
X28691Y-21055D01*
X28991Y-20941D02*
X28691Y-20941D01*
X28991Y-20770D01*
X28691Y-20770D01*
X18657Y-25221D02*
X18857Y-25521D01*
X18857Y-25221D02*
X18657Y-25521D01*
X19128Y-25521D02*
X18957Y-25521D01*
X19042Y-25521D02*
X19042Y-25221D01*
X19014Y-25264D01*
X18985Y-25292D01*
X18957Y-25307D01*
X18119Y-23249D02*
X18133Y-23234D01*
X18162Y-23220D01*
X18233Y-23220D01*
X18262Y-23234D01*
X18276Y-23249D01*
X18291Y-23277D01*
X18291Y-23306D01*
X18276Y-23349D01*
X18105Y-23520D01*
X18291Y-23520D01*
X18548Y-23220D02*
X18491Y-23220D01*
X18462Y-23234D01*
X18448Y-23249D01*
X18419Y-23291D01*
X18405Y-23349D01*
X18405Y-23463D01*
X18419Y-23491D01*
X18433Y-23506D01*
X18462Y-23520D01*
X18519Y-23520D01*
X18548Y-23506D01*
X18562Y-23491D01*
X18576Y-23463D01*
X18576Y-23391D01*
X18562Y-23363D01*
X18548Y-23349D01*
X18519Y-23334D01*
X18462Y-23334D01*
X18433Y-23349D01*
X18419Y-23363D01*
X18405Y-23391D01*
X18705Y-23520D02*
X18705Y-23220D01*
X18805Y-23434D01*
X18905Y-23220D01*
X18905Y-23520D01*
X19048Y-23520D02*
X19048Y-23220D01*
X19048Y-23363D02*
X19219Y-23363D01*
X19219Y-23520D02*
X19219Y-23220D01*
X19333Y-23320D02*
X19491Y-23320D01*
X19333Y-23520D01*
X19491Y-23520D01*
X30091Y-22600D02*
X30062Y-22585D01*
X30034Y-22557D01*
X29991Y-22514D01*
X29962Y-22500D01*
X29934Y-22500D01*
X29948Y-22571D02*
X29920Y-22557D01*
X29891Y-22528D01*
X29877Y-22471D01*
X29877Y-22371D01*
X29891Y-22314D01*
X29920Y-22285D01*
X29948Y-22271D01*
X30005Y-22271D01*
X30034Y-22285D01*
X30062Y-22314D01*
X30077Y-22371D01*
X30077Y-22471D01*
X30062Y-22528D01*
X30034Y-22557D01*
X30005Y-22571D01*
X29948Y-22571D01*
X30191Y-22300D02*
X30205Y-22285D01*
X30234Y-22271D01*
X30305Y-22271D01*
X30334Y-22285D01*
X30348Y-22300D01*
X30362Y-22328D01*
X30362Y-22357D01*
X30348Y-22400D01*
X30177Y-22571D01*
X30362Y-22571D01*
X30076Y-21290D02*
X30047Y-21275D01*
X30019Y-21247D01*
X29976Y-21204D01*
X29947Y-21190D01*
X29919Y-21190D01*
X29933Y-21261D02*
X29905Y-21247D01*
X29876Y-21218D01*
X29862Y-21161D01*
X29862Y-21061D01*
X29876Y-21004D01*
X29905Y-20975D01*
X29933Y-20961D01*
X29990Y-20961D01*
X30019Y-20975D01*
X30047Y-21004D01*
X30062Y-21061D01*
X30062Y-21161D01*
X30047Y-21218D01*
X30019Y-21247D01*
X29990Y-21261D01*
X29933Y-21261D01*
X30347Y-21261D02*
X30176Y-21261D01*
X30262Y-21261D02*
X30262Y-20961D01*
X30233Y-21004D01*
X30205Y-21032D01*
X30176Y-21047D01*
X30092Y-24783D02*
X30063Y-24768D01*
X30035Y-24740D01*
X29992Y-24697D01*
X29963Y-24683D01*
X29935Y-24683D01*
X29949Y-24754D02*
X29921Y-24740D01*
X29892Y-24711D01*
X29878Y-24654D01*
X29878Y-24554D01*
X29892Y-24497D01*
X29921Y-24468D01*
X29949Y-24454D01*
X30006Y-24454D01*
X30035Y-24468D01*
X30063Y-24497D01*
X30078Y-24554D01*
X30078Y-24654D01*
X30063Y-24711D01*
X30035Y-24740D01*
X30006Y-24754D01*
X29949Y-24754D01*
X30178Y-24454D02*
X30363Y-24454D01*
X30263Y-24568D01*
X30306Y-24568D01*
X30335Y-24583D01*
X30349Y-24597D01*
X30363Y-24625D01*
X30363Y-24697D01*
X30349Y-24725D01*
X30335Y-24740D01*
X30306Y-24754D01*
X30221Y-24754D01*
X30192Y-24740D01*
X30178Y-24725D01*
X30111Y-25190D02*
X30082Y-25175D01*
X30054Y-25147D01*
X30011Y-25104D01*
X29982Y-25090D01*
X29954Y-25090D01*
X29968Y-25161D02*
X29940Y-25147D01*
X29911Y-25118D01*
X29897Y-25061D01*
X29897Y-24961D01*
X29911Y-24904D01*
X29940Y-24875D01*
X29968Y-24861D01*
X30025Y-24861D01*
X30054Y-24875D01*
X30082Y-24904D01*
X30097Y-24961D01*
X30097Y-25061D01*
X30082Y-25118D01*
X30054Y-25147D01*
X30025Y-25161D01*
X29968Y-25161D01*
X30354Y-24961D02*
X30354Y-25161D01*
X30282Y-24847D02*
X30211Y-25061D01*
X30397Y-25061D01*
X28292Y-25776D02*
X28292Y-26019D01*
X28306Y-26047D01*
X28321Y-26062D01*
X28349Y-26076D01*
X28406Y-26076D01*
X28435Y-26062D01*
X28449Y-26047D01*
X28464Y-26019D01*
X28464Y-25776D01*
X28592Y-25805D02*
X28606Y-25790D01*
X28635Y-25776D01*
X28706Y-25776D01*
X28735Y-25790D01*
X28749Y-25805D01*
X28764Y-25833D01*
X28764Y-25862D01*
X28749Y-25905D01*
X28578Y-26076D01*
X28764Y-26076D01*
X23636Y-27356D02*
X23636Y-27599D01*
X23650Y-27627D01*
X23665Y-27642D01*
X23693Y-27656D01*
X23750Y-27656D01*
X23779Y-27642D01*
X23793Y-27627D01*
X23807Y-27599D01*
X23807Y-27356D01*
X24107Y-27656D02*
X23936Y-27656D01*
X24022Y-27656D02*
X24022Y-27356D01*
X23993Y-27399D01*
X23965Y-27427D01*
X23936Y-27442D01*
X20771Y-20961D02*
X20771Y-21204D01*
X20785Y-21232D01*
X20800Y-21247D01*
X20828Y-21261D01*
X20885Y-21261D01*
X20914Y-21247D01*
X20928Y-21232D01*
X20942Y-21204D01*
X20942Y-20961D01*
X21214Y-20961D02*
X21157Y-20961D01*
X21128Y-20975D01*
X21114Y-20990D01*
X21085Y-21032D01*
X21071Y-21090D01*
X21071Y-21204D01*
X21085Y-21232D01*
X21100Y-21247D01*
X21128Y-21261D01*
X21185Y-21261D01*
X21214Y-21247D01*
X21228Y-21232D01*
X21242Y-21204D01*
X21242Y-21132D01*
X21228Y-21104D01*
X21214Y-21090D01*
X21185Y-21075D01*
X21128Y-21075D01*
X21100Y-21090D01*
X21085Y-21104D01*
X21071Y-21132D01*
X32362Y-23824D02*
X32377Y-23839D01*
X32391Y-23882D01*
X32391Y-23910D01*
X32377Y-23953D01*
X32348Y-23982D01*
X32320Y-23996D01*
X32262Y-24010D01*
X32220Y-24010D01*
X32162Y-23996D01*
X32134Y-23982D01*
X32105Y-23953D01*
X32091Y-23910D01*
X32091Y-23882D01*
X32105Y-23839D01*
X32120Y-23824D01*
X32391Y-23539D02*
X32391Y-23710D01*
X32391Y-23624D02*
X32091Y-23624D01*
X32134Y-23653D01*
X32162Y-23682D01*
X32177Y-23710D01*
X32120Y-23424D02*
X32105Y-23410D01*
X32091Y-23382D01*
X32091Y-23310D01*
X32105Y-23282D01*
X32120Y-23267D01*
X32148Y-23253D01*
X32177Y-23253D01*
X32220Y-23267D01*
X32391Y-23439D01*
X32391Y-23253D01*
X21707Y-27422D02*
X21564Y-27422D01*
X21564Y-27122D01*
X21792Y-27151D02*
X21807Y-27136D01*
X21835Y-27122D01*
X21907Y-27122D01*
X21935Y-27136D01*
X21949Y-27151D01*
X21964Y-27179D01*
X21964Y-27208D01*
X21949Y-27251D01*
X21778Y-27422D01*
X21964Y-27422D01*
X25150Y-26307D02*
X25135Y-26322D01*
X25092Y-26336D01*
X25064Y-26336D01*
X25021Y-26322D01*
X24992Y-26293D01*
X24978Y-26265D01*
X24964Y-26207D01*
X24964Y-26165D01*
X24978Y-26107D01*
X24992Y-26079D01*
X25021Y-26050D01*
X25064Y-26036D01*
X25092Y-26036D01*
X25135Y-26050D01*
X25150Y-26065D01*
X25407Y-26136D02*
X25407Y-26336D01*
X25335Y-26022D02*
X25264Y-26236D01*
X25450Y-26236D01*
X23607Y-22372D02*
X23592Y-22387D01*
X23549Y-22401D01*
X23521Y-22401D01*
X23478Y-22387D01*
X23449Y-22358D01*
X23435Y-22330D01*
X23421Y-22272D01*
X23421Y-22230D01*
X23435Y-22172D01*
X23449Y-22144D01*
X23478Y-22115D01*
X23521Y-22101D01*
X23549Y-22101D01*
X23592Y-22115D01*
X23607Y-22130D01*
X23707Y-22101D02*
X23892Y-22101D01*
X23792Y-22215D01*
X23835Y-22215D01*
X23864Y-22230D01*
X23878Y-22244D01*
X23892Y-22272D01*
X23892Y-22344D01*
X23878Y-22372D01*
X23864Y-22387D01*
X23835Y-22401D01*
X23749Y-22401D01*
X23721Y-22387D01*
X23707Y-22372D01*
X24107Y-25979D02*
X24122Y-25993D01*
X24136Y-26036D01*
X24136Y-26064D01*
X24122Y-26107D01*
X24093Y-26136D01*
X24065Y-26150D01*
X24007Y-26164D01*
X23965Y-26164D01*
X23907Y-26150D01*
X23879Y-26136D01*
X23850Y-26107D01*
X23836Y-26064D01*
X23836Y-26036D01*
X23850Y-25993D01*
X23865Y-25979D01*
X23865Y-25864D02*
X23850Y-25850D01*
X23836Y-25821D01*
X23836Y-25750D01*
X23850Y-25721D01*
X23865Y-25707D01*
X23893Y-25693D01*
X23922Y-25693D01*
X23965Y-25707D01*
X24136Y-25879D01*
X24136Y-25693D01*
X27295Y-26162D02*
X27280Y-26177D01*
X27237Y-26191D01*
X27209Y-26191D01*
X27166Y-26177D01*
X27137Y-26148D01*
X27123Y-26120D01*
X27109Y-26062D01*
X27109Y-26020D01*
X27123Y-25962D01*
X27137Y-25934D01*
X27166Y-25905D01*
X27209Y-25891D01*
X27237Y-25891D01*
X27280Y-25905D01*
X27295Y-25920D01*
X27566Y-25891D02*
X27423Y-25891D01*
X27409Y-26034D01*
X27423Y-26020D01*
X27452Y-26005D01*
X27523Y-26005D01*
X27552Y-26020D01*
X27566Y-26034D01*
X27580Y-26062D01*
X27580Y-26134D01*
X27566Y-26162D01*
X27552Y-26177D01*
X27523Y-26191D01*
X27452Y-26191D01*
X27423Y-26177D01*
X27409Y-26162D01*
X27178Y-21149D02*
X27163Y-21164D01*
X27120Y-21178D01*
X27092Y-21178D01*
X27049Y-21164D01*
X27020Y-21135D01*
X27006Y-21107D01*
X26992Y-21049D01*
X26992Y-21007D01*
X27006Y-20949D01*
X27020Y-20921D01*
X27049Y-20892D01*
X27092Y-20878D01*
X27120Y-20878D01*
X27163Y-20892D01*
X27178Y-20907D01*
X27435Y-20878D02*
X27378Y-20878D01*
X27349Y-20892D01*
X27335Y-20907D01*
X27306Y-20949D01*
X27292Y-21007D01*
X27292Y-21121D01*
X27306Y-21149D01*
X27320Y-21164D01*
X27349Y-21178D01*
X27406Y-21178D01*
X27435Y-21164D01*
X27449Y-21149D01*
X27463Y-21121D01*
X27463Y-21049D01*
X27449Y-21021D01*
X27435Y-21007D01*
X27406Y-20992D01*
X27349Y-20992D01*
X27320Y-21007D01*
X27306Y-21021D01*
X27292Y-21049D01*
X25917Y-26482D02*
X25902Y-26497D01*
X25860Y-26511D01*
X25831Y-26511D01*
X25788Y-26497D01*
X25760Y-26468D01*
X25745Y-26440D01*
X25731Y-26382D01*
X25731Y-26340D01*
X25745Y-26282D01*
X25760Y-26254D01*
X25788Y-26225D01*
X25831Y-26211D01*
X25860Y-26211D01*
X25902Y-26225D01*
X25917Y-26240D01*
X26202Y-26511D02*
X26031Y-26511D01*
X26117Y-26511D02*
X26117Y-26211D01*
X26088Y-26254D01*
X26060Y-26282D01*
X26031Y-26297D01*
X26488Y-26511D02*
X26317Y-26511D01*
X26402Y-26511D02*
X26402Y-26211D01*
X26374Y-26254D01*
X26345Y-26282D01*
X26317Y-26297D01*
X20422Y-26717D02*
X20279Y-26717D01*
X20279Y-26417D01*
X20679Y-26717D02*
X20507Y-26717D01*
X20593Y-26717D02*
X20593Y-26417D01*
X20564Y-26460D01*
X20536Y-26488D01*
X20507Y-26503D01*
X23299Y-25598D02*
X23284Y-25613D01*
X23242Y-25627D01*
X23213Y-25627D01*
X23170Y-25613D01*
X23142Y-25584D01*
X23127Y-25556D01*
X23113Y-25498D01*
X23113Y-25456D01*
X23127Y-25398D01*
X23142Y-25370D01*
X23170Y-25341D01*
X23213Y-25327D01*
X23242Y-25327D01*
X23284Y-25341D01*
X23299Y-25356D01*
X23584Y-25627D02*
X23413Y-25627D01*
X23499Y-25627D02*
X23499Y-25327D01*
X23470Y-25370D01*
X23442Y-25398D01*
X23413Y-25413D01*
X23770Y-25327D02*
X23799Y-25327D01*
X23827Y-25341D01*
X23842Y-25356D01*
X23856Y-25384D01*
X23870Y-25441D01*
X23870Y-25513D01*
X23856Y-25570D01*
X23842Y-25598D01*
X23827Y-25613D01*
X23799Y-25627D01*
X23770Y-25627D01*
X23742Y-25613D01*
X23727Y-25598D01*
X23713Y-25570D01*
X23699Y-25513D01*
X23699Y-25441D01*
X23713Y-25384D01*
X23727Y-25356D01*
X23742Y-25341D01*
X23770Y-25327D01*
X25005Y-27147D02*
X24990Y-27162D01*
X24947Y-27176D01*
X24919Y-27176D01*
X24876Y-27162D01*
X24847Y-27133D01*
X24833Y-27105D01*
X24819Y-27047D01*
X24819Y-27005D01*
X24833Y-26947D01*
X24847Y-26919D01*
X24876Y-26890D01*
X24919Y-26876D01*
X24947Y-26876D01*
X24990Y-26890D01*
X25005Y-26905D01*
X25176Y-27005D02*
X25147Y-26990D01*
X25133Y-26976D01*
X25119Y-26947D01*
X25119Y-26933D01*
X25133Y-26905D01*
X25147Y-26890D01*
X25176Y-26876D01*
X25233Y-26876D01*
X25262Y-26890D01*
X25276Y-26905D01*
X25290Y-26933D01*
X25290Y-26947D01*
X25276Y-26976D01*
X25262Y-26990D01*
X25233Y-27005D01*
X25176Y-27005D01*
X25147Y-27019D01*
X25133Y-27033D01*
X25119Y-27062D01*
X25119Y-27119D01*
X25133Y-27147D01*
X25147Y-27162D01*
X25176Y-27176D01*
X25233Y-27176D01*
X25262Y-27162D01*
X25276Y-27147D01*
X25290Y-27119D01*
X25290Y-27062D01*
X25276Y-27033D01*
X25262Y-27019D01*
X25233Y-27005D01*
X21638Y-26186D02*
X21653Y-26200D01*
X21667Y-26243D01*
X21667Y-26271D01*
X21653Y-26314D01*
X21624Y-26343D01*
X21596Y-26357D01*
X21538Y-26371D01*
X21496Y-26371D01*
X21438Y-26357D01*
X21410Y-26343D01*
X21381Y-26314D01*
X21367Y-26271D01*
X21367Y-26243D01*
X21381Y-26200D01*
X21396Y-26186D01*
X21667Y-25900D02*
X21667Y-26071D01*
X21667Y-25986D02*
X21367Y-25986D01*
X21410Y-26014D01*
X21438Y-26043D01*
X21453Y-26071D01*
X20204Y-22578D02*
X20204Y-22821D01*
X20218Y-22849D01*
X20233Y-22864D01*
X20261Y-22878D01*
X20318Y-22878D01*
X20347Y-22864D01*
X20361Y-22849D01*
X20375Y-22821D01*
X20375Y-22578D01*
X20661Y-22578D02*
X20518Y-22578D01*
X20504Y-22721D01*
X20518Y-22707D01*
X20547Y-22692D01*
X20618Y-22692D01*
X20647Y-22707D01*
X20661Y-22721D01*
X20675Y-22749D01*
X20675Y-22821D01*
X20661Y-22849D01*
X20647Y-22864D01*
X20618Y-22878D01*
X20547Y-22878D01*
X20518Y-22864D01*
X20504Y-22849D01*
X20308Y-23136D02*
X20408Y-23136D01*
X20451Y-23293D02*
X20308Y-23293D01*
X20308Y-22993D01*
X20451Y-22993D01*
X20566Y-23279D02*
X20608Y-23293D01*
X20680Y-23293D01*
X20708Y-23279D01*
X20723Y-23264D01*
X20737Y-23236D01*
X20737Y-23207D01*
X20723Y-23179D01*
X20708Y-23164D01*
X20680Y-23150D01*
X20623Y-23136D01*
X20594Y-23122D01*
X20580Y-23107D01*
X20566Y-23079D01*
X20566Y-23050D01*
X20580Y-23022D01*
X20594Y-23007D01*
X20623Y-22993D01*
X20694Y-22993D01*
X20737Y-23007D01*
X20866Y-23293D02*
X20866Y-22993D01*
X20980Y-22993D01*
X21008Y-23007D01*
X21023Y-23022D01*
X21037Y-23050D01*
X21037Y-23093D01*
X21023Y-23122D01*
X21008Y-23136D01*
X20980Y-23150D01*
X20866Y-23150D01*
X21208Y-23122D02*
X21180Y-23107D01*
X21166Y-23093D01*
X21151Y-23064D01*
X21151Y-23050D01*
X21166Y-23022D01*
X21180Y-23007D01*
X21208Y-22993D01*
X21266Y-22993D01*
X21294Y-23007D01*
X21308Y-23022D01*
X21323Y-23050D01*
X21323Y-23064D01*
X21308Y-23093D01*
X21294Y-23107D01*
X21266Y-23122D01*
X21208Y-23122D01*
X21180Y-23136D01*
X21166Y-23150D01*
X21151Y-23179D01*
X21151Y-23236D01*
X21166Y-23264D01*
X21180Y-23279D01*
X21208Y-23293D01*
X21266Y-23293D01*
X21294Y-23279D01*
X21308Y-23264D01*
X21323Y-23236D01*
X21323Y-23179D01*
X21308Y-23150D01*
X21294Y-23136D01*
X21266Y-23122D01*
X21437Y-23022D02*
X21451Y-23007D01*
X21480Y-22993D01*
X21551Y-22993D01*
X21580Y-23007D01*
X21594Y-23022D01*
X21608Y-23050D01*
X21608Y-23079D01*
X21594Y-23122D01*
X21423Y-23293D01*
X21608Y-23293D01*
X21866Y-22993D02*
X21808Y-22993D01*
X21780Y-23007D01*
X21766Y-23022D01*
X21737Y-23064D01*
X21723Y-23122D01*
X21723Y-23236D01*
X21737Y-23264D01*
X21751Y-23279D01*
X21780Y-23293D01*
X21837Y-23293D01*
X21866Y-23279D01*
X21880Y-23264D01*
X21894Y-23236D01*
X21894Y-23164D01*
X21880Y-23136D01*
X21866Y-23122D01*
X21837Y-23107D01*
X21780Y-23107D01*
X21751Y-23122D01*
X21737Y-23136D01*
X21723Y-23164D01*
X22151Y-22993D02*
X22094Y-22993D01*
X22066Y-23007D01*
X22051Y-23022D01*
X22023Y-23064D01*
X22008Y-23122D01*
X22008Y-23236D01*
X22023Y-23264D01*
X22037Y-23279D01*
X22066Y-23293D01*
X22123Y-23293D01*
X22151Y-23279D01*
X22166Y-23264D01*
X22180Y-23236D01*
X22180Y-23164D01*
X22166Y-23136D01*
X22151Y-23122D01*
X22123Y-23107D01*
X22066Y-23107D01*
X22037Y-23122D01*
X22023Y-23136D01*
X22008Y-23164D01*
X22308Y-23136D02*
X22408Y-23136D01*
X22451Y-23293D02*
X22308Y-23293D01*
X22308Y-22993D01*
X22451Y-22993D01*
X22551Y-22993D02*
X22751Y-23293D01*
X22751Y-22993D02*
X22551Y-23293D01*
X18413Y-25531D02*
X18428Y-25545D01*
X18442Y-25588D01*
X18442Y-25616D01*
X18428Y-25659D01*
X18399Y-25688D01*
X18371Y-25702D01*
X18313Y-25716D01*
X18271Y-25716D01*
X18213Y-25702D01*
X18185Y-25688D01*
X18156Y-25659D01*
X18142Y-25616D01*
X18142Y-25588D01*
X18156Y-25545D01*
X18171Y-25531D01*
X18442Y-25402D02*
X18142Y-25402D01*
X18442Y-25231D01*
X18142Y-25231D01*
X18442Y-24931D02*
X18442Y-25102D01*
X18442Y-25016D02*
X18142Y-25016D01*
X18185Y-25045D01*
X18213Y-25074D01*
X18228Y-25102D01*
X22495Y-27362D02*
X22480Y-27377D01*
X22437Y-27391D01*
X22409Y-27391D01*
X22366Y-27377D01*
X22337Y-27348D01*
X22323Y-27320D01*
X22309Y-27262D01*
X22309Y-27220D01*
X22323Y-27162D01*
X22337Y-27134D01*
X22366Y-27105D01*
X22409Y-27091D01*
X22437Y-27091D01*
X22480Y-27105D01*
X22495Y-27120D01*
X22595Y-27091D02*
X22795Y-27091D01*
X22666Y-27391D01*
X18945Y-25912D02*
X18845Y-25769D01*
X18773Y-25912D02*
X18773Y-25612D01*
X18887Y-25612D01*
X18916Y-25626D01*
X18930Y-25641D01*
X18945Y-25669D01*
X18945Y-25712D01*
X18930Y-25741D01*
X18916Y-25755D01*
X18887Y-25769D01*
X18773Y-25769D01*
X19230Y-25912D02*
X19059Y-25912D01*
X19145Y-25912D02*
X19145Y-25612D01*
X19116Y-25655D01*
X19087Y-25683D01*
X19059Y-25698D01*
X23265Y-23024D02*
X23165Y-22881D01*
X23094Y-23024D02*
X23094Y-22724D01*
X23208Y-22724D01*
X23237Y-22738D01*
X23251Y-22752D01*
X23265Y-22781D01*
X23265Y-22824D01*
X23251Y-22852D01*
X23237Y-22867D01*
X23208Y-22881D01*
X23094Y-22881D01*
X23380Y-22752D02*
X23394Y-22738D01*
X23422Y-22724D01*
X23494Y-22724D01*
X23522Y-22738D01*
X23537Y-22752D01*
X23551Y-22781D01*
X23551Y-22810D01*
X23537Y-22852D01*
X23365Y-23024D01*
X23551Y-23024D01*
X18929Y-22333D02*
X18829Y-22190D01*
X18758Y-22333D02*
X18758Y-22033D01*
X18872Y-22033D01*
X18901Y-22047D01*
X18915Y-22062D01*
X18929Y-22090D01*
X18929Y-22133D01*
X18915Y-22162D01*
X18901Y-22176D01*
X18872Y-22190D01*
X18758Y-22190D01*
X19058Y-22333D02*
X19058Y-22033D01*
X19229Y-22333D01*
X19229Y-22033D01*
X19529Y-22333D02*
X19358Y-22333D01*
X19444Y-22333D02*
X19444Y-22033D01*
X19415Y-22076D01*
X19387Y-22104D01*
X19358Y-22119D01*
X18168Y-22948D02*
X18168Y-23091D01*
X18311Y-23105D01*
X18297Y-23091D01*
X18282Y-23062D01*
X18282Y-22991D01*
X18297Y-22962D01*
X18311Y-22948D01*
X18339Y-22934D01*
X18411Y-22934D01*
X18439Y-22948D01*
X18454Y-22962D01*
X18468Y-22991D01*
X18468Y-23062D01*
X18454Y-23091D01*
X18439Y-23105D01*
X18168Y-22676D02*
X18168Y-22734D01*
X18182Y-22762D01*
X18197Y-22776D01*
X18239Y-22805D01*
X18297Y-22819D01*
X18411Y-22819D01*
X18439Y-22805D01*
X18454Y-22791D01*
X18468Y-22762D01*
X18468Y-22705D01*
X18454Y-22676D01*
X18439Y-22662D01*
X18411Y-22648D01*
X18339Y-22648D01*
X18311Y-22662D01*
X18297Y-22676D01*
X18282Y-22705D01*
X18282Y-22762D01*
X18297Y-22791D01*
X18311Y-22805D01*
X18339Y-22819D01*
X18168Y-22462D02*
X18168Y-22434D01*
X18182Y-22405D01*
X18197Y-22391D01*
X18225Y-22376D01*
X18282Y-22362D01*
X18354Y-22362D01*
X18411Y-22376D01*
X18439Y-22391D01*
X18454Y-22405D01*
X18468Y-22434D01*
X18468Y-22462D01*
X18454Y-22491D01*
X18439Y-22505D01*
X18411Y-22519D01*
X18354Y-22534D01*
X18282Y-22534D01*
X18225Y-22519D01*
X18197Y-22505D01*
X18182Y-22491D01*
X18168Y-22462D01*
X26243Y-24316D02*
X26243Y-24559D01*
X26257Y-24587D01*
X26272Y-24602D01*
X26300Y-24616D01*
X26357Y-24616D01*
X26386Y-24602D01*
X26400Y-24587D01*
X26414Y-24559D01*
X26414Y-24316D01*
X26686Y-24416D02*
X26686Y-24616D01*
X26614Y-24302D02*
X26543Y-24516D01*
X26729Y-24516D01*
X24150Y-24939D02*
X24150Y-25082D01*
X23850Y-25082D01*
X24136Y-24854D02*
X24150Y-24811D01*
X24150Y-24739D01*
X24136Y-24711D01*
X24121Y-24697D01*
X24093Y-24682D01*
X24064Y-24682D01*
X24036Y-24697D01*
X24021Y-24711D01*
X24007Y-24739D01*
X23993Y-24797D01*
X23979Y-24825D01*
X23964Y-24839D01*
X23936Y-24854D01*
X23907Y-24854D01*
X23879Y-24839D01*
X23864Y-24825D01*
X23850Y-24797D01*
X23850Y-24725D01*
X23864Y-24682D01*
X24150Y-24554D02*
X23850Y-24554D01*
X24064Y-24454D01*
X23850Y-24354D01*
X24150Y-24354D01*
X24150Y-24197D02*
X24150Y-24140D01*
X24136Y-24111D01*
X24121Y-24097D01*
X24079Y-24068D01*
X24021Y-24054D01*
X23907Y-24054D01*
X23879Y-24068D01*
X23864Y-24082D01*
X23850Y-24111D01*
X23850Y-24168D01*
X23864Y-24197D01*
X23879Y-24211D01*
X23907Y-24225D01*
X23979Y-24225D01*
X24007Y-24211D01*
X24021Y-24197D01*
X24036Y-24168D01*
X24036Y-24111D01*
X24021Y-24082D01*
X24007Y-24068D01*
X23979Y-24054D01*
X24150Y-23925D02*
X23850Y-23925D01*
X23850Y-23854D01*
X23864Y-23811D01*
X23893Y-23782D01*
X23921Y-23768D01*
X23979Y-23754D01*
X24021Y-23754D01*
X24079Y-23768D01*
X24107Y-23782D01*
X24136Y-23811D01*
X24150Y-23854D01*
X24150Y-23925D01*
X24136Y-23640D02*
X24150Y-23597D01*
X24150Y-23525D01*
X24136Y-23497D01*
X24121Y-23482D01*
X24093Y-23468D01*
X24064Y-23468D01*
X24036Y-23482D01*
X24021Y-23497D01*
X24007Y-23525D01*
X23993Y-23582D01*
X23979Y-23611D01*
X23964Y-23625D01*
X23936Y-23640D01*
X23907Y-23640D01*
X23879Y-23625D01*
X23864Y-23611D01*
X23850Y-23582D01*
X23850Y-23511D01*
X23864Y-23468D01*
X24150Y-23182D02*
X24150Y-23354D01*
X24150Y-23268D02*
X23850Y-23268D01*
X23893Y-23297D01*
X23921Y-23325D01*
X23936Y-23354D01*
X18715Y-21188D02*
X18503Y-20976D01*
X18553Y-20925D01*
X18594Y-20905D01*
X18634Y-20905D01*
X18664Y-20915D01*
X18715Y-20946D01*
X18745Y-20976D01*
X18775Y-21026D01*
X18786Y-21057D01*
X18786Y-21097D01*
X18765Y-21137D01*
X18715Y-21188D01*
X19038Y-20865D02*
X18917Y-20986D01*
X18977Y-20925D02*
X18765Y-20713D01*
X18775Y-20764D01*
X18775Y-20804D01*
X18765Y-20834D01*
X30041Y-22021D02*
X30168Y-21749D01*
X30233Y-21779D01*
X30266Y-21810D01*
X30280Y-21848D01*
X30281Y-21880D01*
X30269Y-21938D01*
X30251Y-21977D01*
X30214Y-22023D01*
X30189Y-22043D01*
X30151Y-22056D01*
X30106Y-22051D01*
X30041Y-22021D01*
X30415Y-21896D02*
X30434Y-21889D01*
X30466Y-21888D01*
X30531Y-21918D01*
X30551Y-21943D01*
X30558Y-21962D01*
X30558Y-21994D01*
X30546Y-22020D01*
X30515Y-22053D01*
X30287Y-22136D01*
X30456Y-22214D01*
X30771Y-25055D02*
X30644Y-24783D01*
X30709Y-24753D01*
X30754Y-24748D01*
X30792Y-24762D01*
X30817Y-24782D01*
X30854Y-24827D01*
X30872Y-24866D01*
X30883Y-24924D01*
X30882Y-24956D01*
X30869Y-24994D01*
X30836Y-25025D01*
X30771Y-25055D01*
X30890Y-24669D02*
X31059Y-24590D01*
X31016Y-24736D01*
X31055Y-24718D01*
X31087Y-24719D01*
X31106Y-24726D01*
X31131Y-24745D01*
X31161Y-24810D01*
X31160Y-24842D01*
X31154Y-24861D01*
X31134Y-24886D01*
X31056Y-24922D01*
X31024Y-24921D01*
X31005Y-24915D01*
X19476Y-26109D02*
X19688Y-25897D01*
X19739Y-25947D01*
X19759Y-25988D01*
X19759Y-26028D01*
X19749Y-26058D01*
X19719Y-26109D01*
X19688Y-26139D01*
X19638Y-26169D01*
X19607Y-26180D01*
X19567Y-26180D01*
X19527Y-26159D01*
X19476Y-26109D01*
X19921Y-26270D02*
X19779Y-26412D01*
X19951Y-26139D02*
X19749Y-26240D01*
X19880Y-26371D01*
X19900Y-21395D02*
X19900Y-21095D01*
X19972Y-21095D01*
X20014Y-21109D01*
X20043Y-21138D01*
X20057Y-21166D01*
X20072Y-21224D01*
X20072Y-21266D01*
X20057Y-21324D01*
X20043Y-21352D01*
X20014Y-21381D01*
X19972Y-21395D01*
X19900Y-21395D01*
X20343Y-21095D02*
X20200Y-21095D01*
X20186Y-21238D01*
X20200Y-21224D01*
X20229Y-21209D01*
X20300Y-21209D01*
X20329Y-21224D01*
X20343Y-21238D01*
X20357Y-21266D01*
X20357Y-21338D01*
X20343Y-21366D01*
X20329Y-21381D01*
X20300Y-21395D01*
X20229Y-21395D01*
X20200Y-21381D01*
X20186Y-21366D01*
X20205Y-22446D02*
X20062Y-22446D01*
X20062Y-22146D01*
X20305Y-22289D02*
X20405Y-22289D01*
X20448Y-22446D02*
X20305Y-22446D01*
X20305Y-22146D01*
X20448Y-22146D01*
X20576Y-22446D02*
X20576Y-22146D01*
X20648Y-22146D01*
X20691Y-22160D01*
X20719Y-22189D01*
X20734Y-22217D01*
X20748Y-22275D01*
X20748Y-22317D01*
X20734Y-22375D01*
X20719Y-22403D01*
X20691Y-22432D01*
X20648Y-22446D01*
X20576Y-22446D01*
X20876Y-22332D02*
X21105Y-22332D01*
X26832Y-20251D02*
X26732Y-20108D01*
X26661Y-20251D02*
X26661Y-19951D01*
X26775Y-19951D01*
X26804Y-19965D01*
X26818Y-19980D01*
X26832Y-20008D01*
X26832Y-20051D01*
X26818Y-20080D01*
X26804Y-20094D01*
X26775Y-20108D01*
X26661Y-20108D01*
X26961Y-20251D02*
X26961Y-19951D01*
X27132Y-20251D01*
X27132Y-19951D01*
X27261Y-19980D02*
X27275Y-19965D01*
X27304Y-19951D01*
X27375Y-19951D01*
X27404Y-19965D01*
X27418Y-19980D01*
X27432Y-20008D01*
X27432Y-20037D01*
X27418Y-20080D01*
X27247Y-20251D01*
X27432Y-20251D01*
X26364Y-27516D02*
X26264Y-27516D01*
X26264Y-27673D02*
X26264Y-27373D01*
X26406Y-27373D01*
X26621Y-27516D02*
X26664Y-27530D01*
X26678Y-27544D01*
X26692Y-27573D01*
X26692Y-27616D01*
X26678Y-27644D01*
X26664Y-27659D01*
X26635Y-27673D01*
X26521Y-27673D01*
X26521Y-27373D01*
X26621Y-27373D01*
X26649Y-27387D01*
X26664Y-27402D01*
X26678Y-27430D01*
X26678Y-27459D01*
X26664Y-27487D01*
X26649Y-27502D01*
X26621Y-27516D01*
X26521Y-27516D01*
X26978Y-27673D02*
X26806Y-27673D01*
X26892Y-27673D02*
X26892Y-27373D01*
X26864Y-27416D01*
X26835Y-27444D01*
X26806Y-27459D01*
X30773Y-22695D02*
X30788Y-22709D01*
X30802Y-22752D01*
X30802Y-22780D01*
X30788Y-22823D01*
X30759Y-22852D01*
X30731Y-22866D01*
X30673Y-22880D01*
X30631Y-22880D01*
X30573Y-22866D01*
X30545Y-22852D01*
X30516Y-22823D01*
X30502Y-22780D01*
X30502Y-22752D01*
X30516Y-22709D01*
X30531Y-22695D01*
X30802Y-22552D02*
X30802Y-22495D01*
X30788Y-22466D01*
X30773Y-22452D01*
X30731Y-22423D01*
X30673Y-22409D01*
X30559Y-22409D01*
X30531Y-22423D01*
X30516Y-22437D01*
X30502Y-22466D01*
X30502Y-22523D01*
X30516Y-22552D01*
X30531Y-22566D01*
X30559Y-22580D01*
X30631Y-22580D01*
X30659Y-22566D01*
X30673Y-22552D01*
X30688Y-22523D01*
X30688Y-22466D01*
X30673Y-22437D01*
X30659Y-22423D01*
X30631Y-22409D01*
X23912Y-21001D02*
X23912Y-21244D01*
X23926Y-21272D01*
X23941Y-21287D01*
X23969Y-21301D01*
X24026Y-21301D01*
X24055Y-21287D01*
X24069Y-21272D01*
X24083Y-21244D01*
X24083Y-21001D01*
X24198Y-21001D02*
X24383Y-21001D01*
X24283Y-21115D01*
X24326Y-21115D01*
X24355Y-21130D01*
X24369Y-21144D01*
X24383Y-21172D01*
X24383Y-21244D01*
X24369Y-21272D01*
X24355Y-21287D01*
X24326Y-21301D01*
X24241Y-21301D01*
X24212Y-21287D01*
X24198Y-21272D01*
X24486Y-22572D02*
X24529Y-22586D01*
X24543Y-22600D01*
X24557Y-22629D01*
X24557Y-22672D01*
X24543Y-22700D01*
X24529Y-22715D01*
X24500Y-22729D01*
X24386Y-22729D01*
X24386Y-22429D01*
X24486Y-22429D01*
X24515Y-22443D01*
X24529Y-22458D01*
X24543Y-22486D01*
X24543Y-22515D01*
X24529Y-22543D01*
X24515Y-22558D01*
X24486Y-22572D01*
X24386Y-22572D01*
X24686Y-22729D02*
X24686Y-22429D01*
X24786Y-22643D01*
X24886Y-22429D01*
X24886Y-22729D01*
X25029Y-22729D02*
X25029Y-22429D01*
X25143Y-22429D01*
X25172Y-22443D01*
X25186Y-22458D01*
X25200Y-22486D01*
X25200Y-22529D01*
X25186Y-22558D01*
X25172Y-22572D01*
X25143Y-22586D01*
X25029Y-22586D01*
X25315Y-22458D02*
X25329Y-22443D01*
X25357Y-22429D01*
X25429Y-22429D01*
X25457Y-22443D01*
X25472Y-22458D01*
X25486Y-22486D01*
X25486Y-22515D01*
X25472Y-22558D01*
X25300Y-22729D01*
X25486Y-22729D01*
X25657Y-22558D02*
X25629Y-22543D01*
X25615Y-22529D01*
X25600Y-22500D01*
X25600Y-22486D01*
X25615Y-22458D01*
X25629Y-22443D01*
X25657Y-22429D01*
X25715Y-22429D01*
X25743Y-22443D01*
X25757Y-22458D01*
X25772Y-22486D01*
X25772Y-22500D01*
X25757Y-22529D01*
X25743Y-22543D01*
X25715Y-22558D01*
X25657Y-22558D01*
X25629Y-22572D01*
X25615Y-22586D01*
X25600Y-22615D01*
X25600Y-22672D01*
X25615Y-22700D01*
X25629Y-22715D01*
X25657Y-22729D01*
X25715Y-22729D01*
X25743Y-22715D01*
X25757Y-22700D01*
X25772Y-22672D01*
X25772Y-22615D01*
X25757Y-22586D01*
X25743Y-22572D01*
X25715Y-22558D01*
X25957Y-22429D02*
X25986Y-22429D01*
X26015Y-22443D01*
X26029Y-22458D01*
X26043Y-22486D01*
X26057Y-22543D01*
X26057Y-22615D01*
X26043Y-22672D01*
X26029Y-22700D01*
X26015Y-22715D01*
X25986Y-22729D01*
X25957Y-22729D01*
X25929Y-22715D01*
X25915Y-22700D01*
X25900Y-22672D01*
X25886Y-22615D01*
X25886Y-22543D01*
X25900Y-22486D01*
X25915Y-22458D01*
X25929Y-22443D01*
X25957Y-22429D01*
G54D11*
X20043Y-27604D02*
X20193Y-27604D01*
X20013Y-27694D02*
X20118Y-27379D01*
X20223Y-27694D01*
X20328Y-27694D02*
X20328Y-27379D01*
X20507Y-27694D01*
X20507Y-27379D01*
X20612Y-27379D02*
X20792Y-27379D01*
X20702Y-27694D02*
X20702Y-27379D01*
M02*
